<svg xmlns="http://www.w3.org/2000/svg" width="221" height="221" viewBox="0 0 221 221" fill="none">
    <circle cx="110.212" cy="110.262" r="108.171" stroke="black" stroke-width="3.45035" />
    <path fill-rule="evenodd" clip-rule="evenodd"
        d="M157.281 69.9318V153.442H148.209V69.9318H157.281ZM148.879 59.1981C149.592 57.7102 150.912 55.5635 152.755 55.5635C154.599 55.5635 155.919 57.7102 156.631 59.1768C157.783 61.6211 158.391 64.5543 158.642 67.2324L158.726 68.1676H146.784L146.868 67.2324C147.075 64.4563 147.755 61.7377 148.879 59.1981ZM69.5603 69.9318V153.442H60.4886V69.9318H69.5603ZM59.1478 67.2324C59.3542 64.4563 60.0347 61.7377 61.1591 59.1981C61.8504 57.7102 63.1703 55.5635 65.0349 55.5635C66.8786 55.5635 68.1985 57.7102 68.9108 59.1768C70.0631 61.6211 70.6707 64.5543 70.9221 67.2324L71.0059 68.1676H59.064L59.1478 67.2324ZM71.2782 110.529H146.512V153.463H120.428V135.035C120.45 132.711 119.785 130.433 118.52 128.495C117.254 126.557 115.446 125.048 113.328 124.161C111.21 123.274 108.879 123.05 106.635 123.518C104.391 123.987 102.336 125.126 100.735 126.789C99.6694 127.872 98.8249 129.158 98.2497 130.574C97.6746 131.989 97.3799 133.505 97.3827 135.035V153.442H71.2573V110.507L71.2782 110.529ZM80.706 107.808C81.7559 100.993 85.1732 94.7834 90.3408 90.3009C95.5084 85.8183 102.086 83.3582 108.885 83.3649C115.69 83.3444 122.276 85.7991 127.45 90.2837C132.624 94.7682 136.042 100.986 137.084 107.808L137.252 108.786H80.5384L80.6851 107.808H80.706ZM61.4314 159.138H156.359C157.037 159.138 157.687 159.412 158.166 159.898C158.645 160.384 158.915 161.044 158.915 161.732C158.915 162.419 158.645 163.079 158.166 163.565C157.687 164.051 157.037 164.325 156.359 164.325H61.4105C60.7326 164.325 60.0825 164.051 59.6031 163.565C59.1238 163.079 58.8545 162.419 58.8545 161.732C58.8545 161.044 59.1238 160.384 59.6031 159.898C60.0825 159.412 60.7326 159.138 61.4105 159.138H61.4314ZM111.441 77.1797V81.7282L110.54 81.6645C109.437 81.604 108.332 81.604 107.23 81.6645L106.329 81.7282V77.1159C104.165 76.4379 102.332 74.9582 101.196 72.9712C100.628 71.8461 100.253 70.6316 100.085 69.3791C99.8759 67.8913 99.813 65.8083 101.049 64.7243C101.563 64.2868 102.223 64.0662 102.893 64.1079C104.527 64.1717 105.553 65.7233 105.239 67.2962C105.03 68.3377 105.093 69.4429 105.616 70.3781C105.961 70.976 106.454 71.4726 107.045 71.8191C107.636 72.1657 108.306 72.3503 108.989 72.3548C110.372 72.3548 111.315 71.9722 112.069 70.782C112.677 69.8042 113.054 68.4439 114.059 67.8275C114.418 67.6025 114.832 67.4846 115.254 67.4875C115.658 67.4872 116.056 67.5842 116.416 67.7704C116.776 67.9565 117.087 68.2266 117.324 68.5585C117.562 68.8904 117.718 69.2745 117.78 69.6795C117.843 70.0845 117.81 70.4987 117.684 70.8882C117.239 72.38 116.436 73.7361 115.346 74.8344C114.256 75.9327 112.914 76.7387 111.441 77.1797Z"
        fill="black" />
</svg>