<svg width="58" height="58" viewBox="0 0 58 58" fill="none" xmlns="http://www.w3.org/2000/svg">
    <mask id="path-1-inside-1_112_1023" fill="white">
        <path fill-rule="evenodd" clip-rule="evenodd"
            d="M0.611938 57.5399V24.1039C0.611938 21.5428 1.81074 19.1293 3.85152 17.5818L24.3562 2.03403C27.2983 -0.196844 31.3697 -0.181737 34.2952 2.07091L54.4377 17.5809C56.45 19.1304 57.629 21.5263 57.629 24.0661V57.5399H34.6045V52.3312C34.6056 52.2219 34.6062 52.1244 34.6062 52.0427C34.6062 51.3409 34.5629 49.4719 34.4952 48.9893C34.2608 47.3209 32.7691 46.7719 31.3602 46.6597C30.3227 46.5771 29.8859 46.5762 29.166 46.5762C28.4462 46.5762 27.9249 46.5771 26.8874 46.6597C25.4785 46.7719 23.9867 47.3209 23.7524 48.9893C23.6846 49.4719 23.6414 51.3409 23.6414 52.0427C23.6414 52.0481 23.6414 52.0535 23.6414 52.0591H23.6396V57.5399H0.611938Z" />
    </mask>
    <path fill-rule="evenodd" clip-rule="evenodd"
        d="M0.611938 57.5399V24.1039C0.611938 21.5428 1.81074 19.1293 3.85152 17.5818L24.3562 2.03403C27.2983 -0.196844 31.3697 -0.181737 34.2952 2.07091L54.4377 17.5809C56.45 19.1304 57.629 21.5263 57.629 24.0661V57.5399H34.6045V52.3312C34.6056 52.2219 34.6062 52.1244 34.6062 52.0427C34.6062 51.3409 34.5629 49.4719 34.4952 48.9893C34.2608 47.3209 32.7691 46.7719 31.3602 46.6597C30.3227 46.5771 29.8859 46.5762 29.166 46.5762C28.4462 46.5762 27.9249 46.5771 26.8874 46.6597C25.4785 46.7719 23.9867 47.3209 23.7524 48.9893C23.6846 49.4719 23.6414 51.3409 23.6414 52.0427C23.6414 52.0481 23.6414 52.0535 23.6414 52.0591H23.6396V57.5399H0.611938Z"
        fill="black" />
    <path
        d="M0.611938 57.5399H-3.48054V61.6324H0.611938V57.5399ZM3.85152 17.5818L6.32421 20.8429L6.32421 20.8429L3.85152 17.5818ZM24.3562 2.03403L21.8835 -1.22698L21.8835 -1.22698L24.3562 2.03403ZM34.2952 2.07091L36.792 -1.17166L36.792 -1.17166L34.2952 2.07091ZM54.4377 17.5809L56.9345 14.3384L56.9345 14.3384L54.4377 17.5809ZM57.629 57.5399V61.6324H61.7215V57.5399H57.629ZM34.6045 57.5399H30.512V61.6324H34.6045V57.5399ZM34.6045 52.3312L30.5122 52.2884L30.512 52.3098V52.3312H34.6045ZM34.4952 48.9893L30.4425 49.5585L30.4425 49.5586L34.4952 48.9893ZM31.3602 46.6597L31.0353 50.7393L31.0353 50.7393L31.3602 46.6597ZM26.8874 46.6597L27.2122 50.7393L27.2123 50.7393L26.8874 46.6597ZM23.7524 48.9893L27.8051 49.5585L27.8051 49.5585L23.7524 48.9893ZM23.6414 52.0591V56.1515H27.7381L27.7339 52.0548L23.6414 52.0591ZM23.6396 52.0591V47.9666H19.5472V52.0591H23.6396ZM23.6396 57.5399V61.6324H27.7321V57.5399H23.6396ZM-3.48054 24.1039V57.5399H4.70442V24.1039H-3.48054ZM1.37883 14.3208C-1.68233 16.642 -3.48054 20.2622 -3.48054 24.1039H4.70442C4.70442 22.8233 5.30382 21.6166 6.32421 20.8429L1.37883 14.3208ZM21.8835 -1.22698L1.37883 14.3208L6.32421 20.8429L26.8289 5.29505L21.8835 -1.22698ZM36.792 -1.17166C32.4038 -4.55064 26.2966 -4.5733 21.8835 -1.22698L26.8289 5.29505C28.2999 4.17961 30.3356 4.18716 31.7984 5.31349L36.792 -1.17166ZM56.9345 14.3384L36.792 -1.17166L31.7984 5.31349L51.9409 20.8235L56.9345 14.3384ZM61.7215 24.0661C61.7215 20.2564 59.953 16.6626 56.9345 14.3384L51.9409 20.8235C52.947 21.5983 53.5365 22.7962 53.5365 24.0661H61.7215ZM61.7215 57.5399V24.0661H53.5365V57.5399H61.7215ZM34.6045 61.6324H57.629V53.4474H34.6045V61.6324ZM30.512 52.3312V57.5399H38.697V52.3312H30.512ZM30.5137 52.0427C30.5137 52.1062 30.5133 52.1888 30.5122 52.2884L38.6967 52.3739C38.698 52.2549 38.6987 52.1426 38.6987 52.0427H30.5137ZM30.4425 49.5586C30.4319 49.483 30.4404 49.5274 30.4545 49.7899C30.4659 50.0029 30.4765 50.2712 30.4856 50.562C30.504 51.1493 30.5137 51.7471 30.5137 52.0427H38.6987C38.6987 51.4185 38.6633 49.2421 38.5479 48.4201L30.4425 49.5586ZM31.0353 50.7393C31.1891 50.7516 31.287 50.7717 31.3332 50.7843C31.3817 50.7976 31.3238 50.7889 31.2062 50.7158C31.0778 50.6359 30.8854 50.4823 30.7154 50.2311C30.54 49.972 30.4655 49.7223 30.4425 49.5585L38.5479 48.4201C38.2472 46.2791 37.0436 44.7077 35.53 43.7661C34.1774 42.9246 32.7235 42.6629 31.685 42.5802L31.0353 50.7393ZM29.166 50.6687C29.823 50.6687 30.1433 50.6683 31.0353 50.7393L31.685 42.5802C30.502 42.486 29.9488 42.4837 29.166 42.4837V50.6687ZM27.2123 50.7393C28.096 50.6689 28.4962 50.6687 29.166 50.6687V42.4837C28.3962 42.4837 27.7539 42.4853 26.5625 42.5802L27.2123 50.7393ZM27.8051 49.5585C27.7821 49.7223 27.7075 49.972 27.5322 50.2311C27.3622 50.4823 27.1698 50.6359 27.0413 50.7158C26.9238 50.7889 26.8659 50.7976 26.9144 50.7843C26.9606 50.7717 27.0585 50.7516 27.2122 50.7393L26.5625 42.5802C25.5241 42.6629 24.0701 42.9246 22.7175 43.7661C21.204 44.7077 20.0004 46.2791 19.6997 48.4201L27.8051 49.5585ZM27.7339 52.0427C27.7339 51.7471 27.7435 51.1493 27.762 50.562C27.7711 50.2712 27.7817 50.0029 27.7931 49.7899C27.8071 49.5274 27.8157 49.483 27.8051 49.5585L19.6997 48.4201C19.5843 49.2421 19.5489 51.4185 19.5489 52.0427H27.7339ZM27.7339 52.0548C27.7339 52.0511 27.7339 52.0472 27.7339 52.0427H19.5489C19.5489 52.049 19.5489 52.056 19.5489 52.0633L27.7339 52.0548ZM23.6396 56.1515H23.6414V47.9666H23.6396V56.1515ZM27.7321 57.5399V52.0591H19.5472V57.5399H27.7321ZM0.611938 61.6324H23.6396V53.4474H0.611938V61.6324Z"
        fill="black" mask="url(#path-1-inside-1_112_1023)" />
</svg>
    