<svg width="22" height="22" viewBox="0 0 22 22" fill="none" xmlns="http://www.w3.org/2000/svg">
    <mask id="path-1-inside-1_1_536" fill="white">
        <path fill-rule="evenodd" clip-rule="evenodd"
            d="M0.42926 21.6533V9.50973C0.42926 8.25811 1.01512 7.07864 2.01245 6.32241L8.81832 1.1618C10.2561 0.0715699 12.2459 0.0789513 13.6755 1.17983L20.3535 6.32196C21.3369 7.07921 21.9131 8.25007 21.9131 9.49126V21.6533H0.42926ZM13.2376 19.6749C13.2379 19.6398 13.2381 19.6082 13.2381 19.5812C13.2381 19.3168 13.2218 18.6125 13.1963 18.4307C13.108 17.8021 12.5459 17.5952 12.015 17.5529C11.6241 17.5218 11.4595 17.5215 11.1883 17.5215C10.917 17.5215 10.7206 17.5218 10.3297 17.5529C9.79881 17.5952 9.23673 17.8021 9.14843 18.4307C9.12289 18.6125 9.10659 19.3168 9.10659 19.5812C9.10659 19.5833 9.10659 19.5854 9.1066 19.5876H9.10609V21.6533H13.2376V19.6749Z" />
    </mask>
    <path fill-rule="evenodd" clip-rule="evenodd"
        d="M0.42926 21.6533V9.50973C0.42926 8.25811 1.01512 7.07864 2.01245 6.32241L8.81832 1.1618C10.2561 0.0715699 12.2459 0.0789513 13.6755 1.17983L20.3535 6.32196C21.3369 7.07921 21.9131 8.25007 21.9131 9.49126V21.6533H0.42926ZM13.2376 19.6749C13.2379 19.6398 13.2381 19.6082 13.2381 19.5812C13.2381 19.3168 13.2218 18.6125 13.1963 18.4307C13.108 17.8021 12.5459 17.5952 12.015 17.5529C11.6241 17.5218 11.4595 17.5215 11.1883 17.5215C10.917 17.5215 10.7206 17.5218 10.3297 17.5529C9.79881 17.5952 9.23673 17.8021 9.14843 18.4307C9.12289 18.6125 9.10659 19.3168 9.10659 19.5812C9.10659 19.5833 9.10659 19.5854 9.1066 19.5876H9.10609V21.6533H13.2376V19.6749Z"
        fill="black" />
    <path
        d="M0.42926 21.6533H-1.57074V23.6533H0.42926L0.42926 21.6533ZM2.01245 6.32241L0.804041 4.72875L0.804041 4.72875L2.01245 6.32241ZM8.81832 1.1618L7.60991 -0.43186L7.60991 -0.43186L8.81832 1.1618ZM13.6755 1.17983L12.4553 2.76447V2.76447L13.6755 1.17983ZM20.3535 6.32196L21.5737 4.73731V4.73731L20.3535 6.32196ZM21.9131 21.6533V23.6533H23.9131V21.6533H21.9131ZM13.2376 19.6749L11.2377 19.656L11.2376 19.6655V19.6749H13.2376ZM13.1963 18.4307L11.2157 18.7089V18.7089L13.1963 18.4307ZM12.015 17.5529L11.8563 19.5466H11.8563L12.015 17.5529ZM10.3297 17.5529L10.1709 15.5593H10.1709L10.3297 17.5529ZM9.14843 18.4307L7.16787 18.1525L7.16787 18.1526L9.14843 18.4307ZM9.1066 19.5876V21.5876H11.1084L11.1066 19.5858L9.1066 19.5876ZM9.10609 19.5876V17.5876H7.10609V19.5876H9.10609ZM9.10609 21.6533H7.10609V23.6533H9.10609V21.6533ZM13.2376 21.6533V23.6533H15.2376V21.6533H13.2376ZM-1.57074 9.50973V21.6533H2.42926V9.50973H-1.57074ZM0.804041 4.72875C-0.691953 5.8631 -1.57074 7.6323 -1.57074 9.50973H2.42926C2.42926 8.88392 2.72219 8.29418 3.22085 7.91607L0.804041 4.72875ZM7.60991 -0.43186L0.804041 4.72875L3.22085 7.91607L10.0267 2.75546L7.60991 -0.43186ZM14.8957 -0.404822C12.7512 -2.05613 9.76662 -2.0672 7.60991 -0.43186L10.0267 2.75546C10.7456 2.21034 11.7405 2.21404 12.4553 2.76447L14.8957 -0.404822ZM21.5737 4.73731L14.8957 -0.404822L12.4553 2.76447L19.1333 7.90661L21.5737 4.73731ZM23.9131 9.49126C23.9131 7.62948 23.0488 5.87318 21.5737 4.73731L19.1333 7.90661C19.625 8.28523 19.9131 8.87067 19.9131 9.49126H23.9131ZM23.9131 21.6533V9.49126H19.9131V21.6533H23.9131ZM0.42926 23.6533H21.9131V19.6533H0.42926L0.42926 23.6533ZM11.2381 19.5812C11.2381 19.6003 11.238 19.6254 11.2377 19.656L15.2375 19.6938C15.2379 19.6542 15.2381 19.6161 15.2381 19.5812H11.2381ZM11.2157 18.7089C11.2103 18.6707 11.2096 18.6538 11.2114 18.6765C11.2127 18.6925 11.2144 18.7189 11.2164 18.7568C11.2205 18.8325 11.2244 18.93 11.2277 19.0377C11.2346 19.2558 11.2381 19.476 11.2381 19.5812H15.2381C15.2381 19.3547 15.2257 18.5003 15.1768 18.1525L11.2157 18.7089ZM11.8563 19.5466C11.9585 19.5548 11.8755 19.5699 11.7151 19.4701C11.6199 19.4109 11.4977 19.3103 11.3928 19.1553C11.2853 18.9965 11.2335 18.8356 11.2157 18.7089L15.1768 18.1525C15.043 17.1996 14.5031 16.4937 13.8281 16.0738C13.2318 15.7028 12.6024 15.5934 12.1738 15.5593L11.8563 19.5466ZM11.1883 19.5215C11.4288 19.5215 11.5364 19.5212 11.8563 19.5466L12.1738 15.5593C11.7117 15.5225 11.4902 15.5215 11.1883 15.5215V19.5215ZM10.4884 19.5466C10.8042 19.5215 10.9415 19.5215 11.1883 19.5215V15.5215C10.8926 15.5215 10.637 15.5221 10.1709 15.5593L10.4884 19.5466ZM11.129 18.7089C11.1112 18.8356 11.0594 18.9965 10.9519 19.1553C10.847 19.3103 10.7248 19.4109 10.6296 19.4701C10.4692 19.5699 10.3862 19.5548 10.4884 19.5466L10.1709 15.5593C9.74227 15.5934 9.11286 15.7028 8.51657 16.0738C7.84163 16.4937 7.30172 17.1996 7.16787 18.1525L11.129 18.7089ZM11.1066 19.5812C11.1066 19.476 11.1101 19.2558 11.117 19.0377C11.1203 18.93 11.1242 18.8325 11.1283 18.7568C11.1303 18.7189 11.132 18.6925 11.1333 18.6765C11.1351 18.6537 11.1344 18.6707 11.129 18.7089L7.16787 18.1526C7.11903 18.5003 7.10659 19.3547 7.10659 19.5812H11.1066ZM11.1066 19.5858C11.1066 19.5842 11.1066 19.5827 11.1066 19.5812H7.10659C7.10659 19.5839 7.10659 19.5866 7.1066 19.5894L11.1066 19.5858ZM9.1066 17.5876H9.10609V21.5876H9.1066V17.5876ZM7.10609 19.5876V21.6533H11.1061V19.5876H7.10609ZM9.10609 23.6533H13.2376V19.6533H9.10609V23.6533ZM15.2376 21.6533V19.6749H11.2376V21.6533H15.2376Z"
        fill="black" mask="url(#path-1-inside-1_1_536)" />
</svg>
    