<svg width="162" height="163" viewBox="0 0 162 163" fill="none" xmlns="http://www.w3.org/2000/svg">
    <circle cx="81.0242" cy="81.4646" r="79.572" stroke="black" stroke-width="2.53812" />
    <path
        d="M70.9695 88.3424V77.8726C70.9695 77.3741 70.7173 77.1248 70.2129 77.1248H65.6736C65.1692 77.1248 64.917 77.3741 64.917 77.8726V88.3424C64.917 88.8409 65.1692 89.0902 65.6736 89.0902H70.2129C70.7173 89.0902 70.9695 88.8409 70.9695 88.3424ZM95.1792 88.3424V77.8726C95.1792 77.3741 94.9271 77.1248 94.4227 77.1248H89.8834C89.379 77.1248 89.1268 77.3741 89.1268 77.8726V88.3424C89.1268 88.8409 89.379 89.0902 89.8834 89.0902H94.4227C94.9271 89.0902 95.1792 88.8409 95.1792 88.3424ZM119.389 89.8381V124.986H89.1268V110.03C89.1268 107.537 88.2442 105.418 86.4789 103.673C84.7136 101.928 82.57 101.056 80.0481 101.056C77.5263 101.056 75.3827 101.928 73.6174 103.673C71.8521 105.418 70.9695 107.537 70.9695 110.03V124.986H40.7073V89.8381C40.7073 89.3395 40.9595 89.0902 41.4638 89.0902H46.0032C46.5075 89.0902 46.7597 89.3395 46.7597 89.8381V95.0729H52.8122V65.9072C52.8122 65.4086 53.0643 65.1594 53.5687 65.1594H58.108C58.6124 65.1594 58.8646 65.4086 58.8646 65.9072V71.1421H64.917V65.9072C64.917 65.4086 65.1692 65.1594 65.6736 65.1594H70.2129C70.7173 65.1594 70.9695 65.4086 70.9695 65.9072V71.1421H77.0219V65.9072C77.0219 65.4086 77.2741 65.1594 77.7785 65.1594H78.535V46.7906C77.5263 46.1985 77.0219 45.3416 77.0219 44.2199C77.0219 43.4097 77.3214 42.7086 77.9203 42.1166C78.5193 41.5245 79.2285 41.2285 80.0481 41.2285C80.8677 41.2285 81.577 41.5245 82.176 42.1166C82.7749 42.7086 83.0744 43.4097 83.0744 44.2199C83.0744 45.3416 82.57 46.1985 81.5613 46.7906V47.2112H94.4227C94.9271 47.2112 95.1792 47.4605 95.1792 47.9591V58.4288C95.1792 58.9274 94.9271 59.1767 94.4227 59.1767H81.5613V65.1594H82.3178C82.8222 65.1594 83.0744 65.4086 83.0744 65.9072V71.1421H89.1268V65.9072C89.1268 65.4086 89.379 65.1594 89.8834 65.1594H94.4227C94.9271 65.1594 95.1792 65.4086 95.1792 65.9072V71.1421H101.232V65.9072C101.232 65.4086 101.484 65.1594 101.988 65.1594H106.528C107.032 65.1594 107.284 65.4086 107.284 65.9072V95.0729H113.337V89.8381C113.337 89.3395 113.589 89.0902 114.093 89.0902H118.632C119.137 89.0902 119.389 89.3395 119.389 89.8381Z"
        fill="black" />
</svg>
    