<svg width="65" height="64" viewBox="0 0 65 64" fill="none" xmlns="http://www.w3.org/2000/svg">
    <path d="M30.2715 21.0547H32.261V25.896H30.2715V21.0547Z" fill="black" />
    <path d="M33.2687 21.0547H35.2582V25.896H33.2687V21.0547Z" fill="black" />
    <path
        d="M27.2619 21.0547H29.2639V25.8961H27.2619C26.8438 25.8961 26.5063 25.5585 26.5063 25.1404V21.8104C26.5063 21.3922 26.8438 21.0547 27.2619 21.0547ZM36.2657 21.0547H38.2696C38.6827 21.0547 39.0253 21.3922 39.0253 21.8104V25.1404C39.0253 25.5585 38.6827 25.8961 38.2696 25.8961H36.2657V21.0547Z"
        fill="black" />
    <path d="M26.5114 42.8651H39.0153L37.8062 26.9053H27.7255L26.5114 42.8651Z" fill="black" />
    <path
        d="M25 44.8544V47.2676C25 47.8116 25.4383 48.2499 25.9824 48.2499H39.5442C40.0883 48.2499 40.5316 47.8116 40.5316 47.2676V44.8544C40.5316 44.3104 40.0883 43.8721 39.5442 43.8721H25.9824C25.4383 43.8721 25 44.3104 25 44.8544Z"
        fill="black" />
    <path
        d="M27.8665 20.0479H37.665C37.0605 18.1184 35.3426 16.6776 33.267 16.4761V15.5038C33.267 15.2267 33.0454 15 32.7632 15C32.4862 15 32.2595 15.2267 32.2595 15.5038V16.4761C30.1839 16.6776 28.471 18.1184 27.8665 20.0479Z"
        fill="black" />
    <circle cx="32.6311" cy="31.9885" r="31.3508" stroke="black" />
</svg>
    