<svg width="33" height="69" viewBox="0 0 33 69" fill="none" xmlns="http://www.w3.org/2000/svg">
    <path d="M11.2763 13.0781H15.3472V22.9847H11.2763V13.0781Z" fill="black" />
    <path d="M17.4091 13.0781H21.48V22.9847H17.4091V13.0781Z" fill="black" />
    <path
        d="M5.11762 13.0781H9.21413V22.9847H5.11762C4.26204 22.9847 3.57133 22.294 3.57133 21.4384V14.6244C3.57133 13.7688 4.26205 13.0781 5.11762 13.0781ZM23.5415 13.0781H27.6419C28.4873 13.0781 29.1882 13.7688 29.1882 14.6244V21.4384C29.1882 22.294 28.4873 22.9847 27.6419 22.9847H23.5415V13.0781Z"
        fill="black" />
    <path d="M3.58203 57.7084H29.168L26.6939 25.0508H6.0664L3.58203 57.7084Z" fill="black" />
    <path
        d="M0.489328 61.7778V66.7156C0.489328 67.8289 1.38617 68.7257 2.49951 68.7257H30.2502C31.3636 68.7257 32.2708 67.8289 32.2708 66.7156V61.7778C32.2708 60.6644 31.3636 59.7676 30.2502 59.7676H2.49951C1.38617 59.7676 0.489328 60.6644 0.489328 61.7778Z"
        fill="black" />
    <path
        d="M6.35478 11.0186H26.405C25.168 7.07047 21.6528 4.12217 17.4056 3.70986V1.72031C17.4056 1.15335 16.9521 0.689453 16.3748 0.689453C15.8078 0.689453 15.3439 1.15335 15.3439 1.72031V3.70986C11.0968 4.12216 7.59184 7.07047 6.35478 11.0186Z"
        fill="black" />
</svg>
    