<svg width="163" height="163" viewBox="0 0 163 163" fill="none" xmlns="http://www.w3.org/2000/svg">
    <path
        d="M117.151 77.8249H107.326C105.291 77.8249 103.642 79.474 103.642 81.5093C103.642 83.5446 105.291 85.1937 107.326 85.1937H113.247C111.567 99.182 100.436 110.282 86.4481 111.966V79.5796H90.7573C92.7926 79.5796 94.4417 77.9305 94.4417 75.8952C94.4417 73.8599 92.7926 72.2108 90.7573 72.2108H86.4481V63.9242C90.4703 62.4205 93.3563 58.5705 93.3563 54.0301C93.3563 48.1893 88.6045 43.4375 82.7637 43.4375C76.9229 43.4375 72.1711 48.1893 72.1711 54.0301C72.1711 58.5705 75.0571 62.4205 79.0793 63.9242V72.2108H74.7701C72.7349 72.2108 71.0858 73.8599 71.0858 75.8952C71.0858 77.9305 72.7349 79.5796 74.7701 79.5796H79.0793V111.966C65.0915 110.282 53.9601 99.182 52.2801 85.1937H58.2012C60.2365 85.1937 61.8856 83.5446 61.8856 81.5093C61.8856 79.474 60.2365 77.8249 58.2012 77.8249H48.3763C46.341 77.8249 44.6919 79.474 44.6919 81.5093C44.6919 102.503 61.7705 119.581 82.7637 119.581C103.757 119.581 120.836 102.503 120.836 81.5093C120.836 79.474 119.186 77.8249 117.151 77.8249ZM82.7637 50.8062C84.5411 50.8062 85.9875 52.2526 85.9875 54.0301C85.9875 55.8075 84.5411 57.2539 82.7637 57.2539C80.9863 57.2539 79.5399 55.8075 79.5399 54.0301C79.5399 52.2526 80.9863 50.8062 82.7637 50.8062Z"
        fill="black" />
    <circle cx="81.8274" cy="81.4802" r="79.572" stroke="black" stroke-width="2.53812" />
</svg>
    