<svg width="64" height="64" viewBox="0 0 64 64" fill="none" xmlns="http://www.w3.org/2000/svg">
    <circle cx="31.8846" cy="31.853" r="31.3508" stroke="black" />
    <path
        d="M46.1666 37.2453C45.5713 36.9459 44.9406 36.8013 44.272 36.8474C44.0573 36.862 44.0359 36.7546 44.0366 36.5852C44.041 35.5294 44.0447 34.4735 44.0373 33.4177C44.0262 31.8346 43.1282 30.6393 41.6498 30.2275C41.5083 30.188 41.3595 30.1355 41.2189 30.1464C40.9375 30.1669 40.9116 30.0289 40.9131 29.8032C40.922 28.7379 40.9227 27.6733 40.9153 26.6079C40.905 24.9877 39.8463 23.7398 38.2346 23.4404C38.0643 23.409 37.8881 23.4039 37.6689 23.382C37.7837 23.079 37.8725 22.7854 38.0021 22.5101C39.2022 19.9581 41.2218 18.4846 44.0388 18.0779C44.3749 18.0297 44.7199 18.0363 45.0605 18.0253C45.4292 18.0136 45.7971 18.0122 46.1658 18.0063V37.2453H46.1666Z"
        fill="black" />
    <path
        d="M40.6222 45.1951H23.3967C23.3967 44.5547 23.373 43.9282 23.4063 43.3053C23.4234 42.995 23.7602 42.7825 24.1126 42.7687C24.4621 42.7548 24.8167 42.7701 25.1602 42.7146C26.2685 42.5357 27.0962 41.566 27.1036 40.4525C27.1117 39.2689 27.1051 38.0845 27.1066 36.9009C27.1066 36.3299 27.3612 36.0699 27.9394 36.0444C29.1936 35.9889 30.2049 34.9776 30.2101 33.7355C30.2212 31.1492 30.2138 28.5629 30.2145 25.9766C30.2145 25.2734 30.4714 25.0171 31.1769 25.0164C31.6848 25.0164 32.1927 25.0164 32.7006 25.0164C33.5616 25.0164 33.7689 25.2186 33.7689 26.0554C33.7689 28.5505 33.7666 31.0462 33.7696 33.5413C33.7711 34.7541 34.4293 35.6544 35.5338 35.9538C35.736 36.0086 35.9499 36.0276 36.1602 36.0444C36.5459 36.0743 36.8139 36.3021 36.8739 36.6811C36.8909 36.7884 36.8916 36.8987 36.8916 37.0075C36.8931 38.0911 36.9235 39.1761 36.885 40.2583C36.8331 41.7332 38.0177 42.8453 39.4347 42.7665C40.4112 42.7124 40.6762 43.0191 40.6252 43.9304C40.6015 44.3459 40.6215 44.7635 40.6215 45.1958L40.6222 45.1951Z"
        fill="black" />
    <path
        d="M21.7221 45.2004H17.8575C17.8524 45.0953 17.8442 44.9989 17.8442 44.9025C17.8435 43.318 17.8694 41.732 17.8338 40.1483C17.8131 39.2253 18.4794 38.4367 19.547 38.4571C19.849 38.463 20.163 38.4659 20.4517 38.3943C21.1202 38.2293 21.5615 37.6474 21.5659 36.9705C21.5726 35.7861 21.5674 34.6025 21.5696 33.4181C21.5711 32.4258 22.1745 31.7964 23.1791 31.7365C24.0682 31.6832 24.6709 31.0779 24.679 30.2002C24.6894 29.0523 24.6812 27.9052 24.6827 26.7574C24.6842 25.6416 25.3194 25.0159 26.4521 25.0159C27.1629 25.0159 27.8743 25.0188 28.585 25.0217C28.6021 25.0217 28.6191 25.0348 28.5702 25.0144C28.5702 27.8804 28.5717 30.7186 28.5688 33.5569C28.5688 34.1279 28.3341 34.3666 27.7603 34.4112C26.3825 34.5178 25.4593 35.4919 25.4497 36.8602C25.443 37.8898 25.4238 38.9193 25.4556 39.9475C25.486 40.9325 25.2291 41.1618 24.2622 41.145C23.8698 41.1384 23.4441 41.2209 23.088 41.3808C22.2063 41.7773 21.7539 42.4987 21.7265 43.4582C21.7103 44.0292 21.7236 44.6017 21.7236 45.1997L21.7221 45.2004Z"
        fill="black" />
    <path
        d="M46.0948 45.1995H42.2835C42.2835 44.6811 42.2983 44.1744 42.2783 43.6683C42.2657 43.3624 42.2398 43.0462 42.1487 42.7556C41.8474 41.7903 40.9509 41.1616 39.8907 41.1331C39.7338 41.1287 39.5768 41.1331 39.4199 41.1317C38.8017 41.1273 38.5352 40.8615 38.5337 40.2423C38.5322 39.1404 38.5352 38.0386 38.5314 36.9367C38.5314 36.7374 38.5344 36.533 38.4959 36.3387C38.2768 35.2391 37.4217 34.5103 36.2549 34.4132C35.6456 34.3621 35.422 34.1255 35.422 33.5253C35.422 31.0668 35.4235 28.6075 35.4198 26.149C35.4198 25.7883 35.3894 25.4268 35.3717 25.0362C35.3532 25.053 35.3665 25.0303 35.3791 25.0303C36.1905 25.0267 37.0049 24.9865 37.8133 25.034C38.7025 25.0865 39.2703 25.7452 39.277 26.6484C39.2851 27.8415 39.2725 29.0347 39.2829 30.2271C39.2896 30.9609 39.77 31.545 40.4793 31.705C40.6488 31.7429 40.828 31.7334 41.0012 31.759C41.8393 31.8831 42.3857 32.4972 42.3894 33.3347C42.3953 34.5001 42.4182 35.667 42.382 36.8316C42.3546 37.7137 43.066 38.5227 44.0507 38.465C44.3246 38.449 44.6067 38.465 44.8776 38.5088C45.5513 38.6176 46.1014 39.2281 46.1066 39.8998C46.1199 41.6297 46.1133 43.3602 46.1133 45.0907C46.1133 45.1178 46.1044 45.144 46.094 45.1988L46.0948 45.1995Z"
        fill="black" />
    <path
        d="M19.9203 36.8435C19.1985 36.8252 18.51 36.861 17.8378 37.2458V18.0667C21.521 17.5965 25.1679 19.6469 26.2584 23.3774C26.0592 23.4022 25.8601 23.4154 25.6661 23.4533C24.1114 23.7578 23.0594 24.9984 23.0453 26.5588C23.0349 27.6607 23.0438 28.7625 23.0416 29.8644C23.0416 29.9848 23.0786 30.1104 22.8728 30.1382C21.0131 30.3894 19.9248 31.6263 19.9211 33.481C19.9189 34.4916 19.9211 35.5029 19.9211 36.5134C19.9211 36.612 19.9211 36.7106 19.9211 36.8435H19.9203Z"
        fill="black" />
</svg>
    