<svg width="23" height="23" viewBox="0 0 23 23" fill="none" xmlns="http://www.w3.org/2000/svg">
    <path
        d="M23 15.6222C22.5168 15.3792 22.0048 15.2618 21.4621 15.2992C21.2878 15.311 21.2704 15.2239 21.271 15.0864C21.2746 14.2293 21.2776 13.3721 21.2716 12.515C21.2626 11.23 20.5336 10.2597 19.3334 9.92535C19.2186 9.89335 19.0978 9.85067 18.9836 9.85956C18.7553 9.87616 18.7342 9.76413 18.7354 9.58097C18.7426 8.71616 18.7433 7.85194 18.7372 6.98713C18.7288 5.67184 17.8694 4.65885 16.5611 4.41582C16.4229 4.39033 16.2798 4.38618 16.1019 4.3684C16.1951 4.12241 16.2672 3.88413 16.3724 3.66067C17.3466 1.58904 18.986 0.392884 21.2728 0.0627274C21.5456 0.0236064 21.8257 0.0289411 22.1021 0.02005C22.4014 0.0105661 22.7001 0.0093806 22.9994 0.00463867V15.6222H23Z"
        fill="black" />
    <path
        d="M18.4992 22.0762H4.51615C4.51615 21.5564 4.49692 21.0478 4.52396 20.5422C4.53779 20.2903 4.81123 20.1178 5.0973 20.1065C5.38097 20.0953 5.66884 20.1077 5.94769 20.0627C6.84737 19.9175 7.51926 19.1303 7.52527 18.2264C7.53189 17.2655 7.52648 16.3041 7.52768 15.3433C7.52768 14.8797 7.73442 14.6687 8.20378 14.648C9.22185 14.6029 10.0428 13.782 10.047 12.7737C10.056 10.6742 10.05 8.57475 10.0506 6.47526C10.0506 5.90445 10.2591 5.69639 10.8319 5.6958C11.2442 5.6958 11.6564 5.6958 12.0687 5.6958C12.7677 5.6958 12.9359 5.85999 12.9359 6.53927C12.9359 8.56467 12.9341 10.5907 12.9365 12.6161C12.9377 13.6006 13.472 14.3315 14.3687 14.5745C14.5327 14.6189 14.7064 14.6343 14.8771 14.648C15.1902 14.6723 15.4078 14.8572 15.4565 15.1648C15.4703 15.252 15.4709 15.3415 15.4709 15.4298C15.4721 16.3094 15.4967 17.1902 15.4655 18.0687C15.4234 19.266 16.385 20.1688 17.5353 20.1048C18.3279 20.0609 18.5431 20.3098 18.5016 21.0496C18.4824 21.3869 18.4986 21.7259 18.4986 22.0768L18.4992 22.0762Z"
        fill="black" />
    <path
        d="M3.15675 22.0802H0.0196131C0.0154062 21.9948 0.00879536 21.9166 0.00879536 21.8383C0.00819438 20.5521 0.0292288 19.2647 0.000381596 17.979C-0.0164459 17.2298 0.524439 16.5896 1.39106 16.6062C1.63626 16.611 1.89107 16.6133 2.12546 16.5552C2.66815 16.4213 3.02633 15.9489 3.02994 15.3994C3.03535 14.438 3.03114 13.4771 3.03294 12.5157C3.03415 11.7102 3.52395 11.1992 4.33948 11.1506C5.06126 11.1074 5.55046 10.616 5.55707 9.9035C5.56549 8.97171 5.55888 8.04051 5.56008 7.10872C5.56128 6.20301 6.07692 5.69503 6.99643 5.69503C7.57337 5.69503 8.15092 5.6974 8.72786 5.69978C8.74168 5.69978 8.75551 5.71044 8.71584 5.69385C8.71584 8.02036 8.71704 10.3243 8.71464 12.6283C8.71464 13.0919 8.52413 13.2857 8.05836 13.3218C6.93994 13.4084 6.19051 14.1991 6.1827 15.3099C6.17729 16.1457 6.16166 16.9814 6.1875 17.816C6.21214 18.6156 6.0036 18.8017 5.21872 18.7881C4.9002 18.7828 4.55463 18.8497 4.26556 18.9796C3.54979 19.3014 3.18259 19.887 3.16035 20.6659C3.14713 21.1294 3.15795 21.5941 3.15795 22.0796L3.15675 22.0802Z"
        fill="black" />
    <path
        d="M22.9417 22.0793H19.8478C19.8478 21.6585 19.8598 21.2471 19.8436 20.8363C19.8334 20.588 19.8123 20.3313 19.7384 20.0954C19.4938 19.3118 18.766 18.8015 17.9054 18.7783C17.778 18.7748 17.6506 18.7783 17.5232 18.7772C17.0214 18.7736 16.805 18.5578 16.8038 18.0552C16.8026 17.1608 16.805 16.2663 16.802 15.3719C16.802 15.21 16.8044 15.0441 16.7732 14.8864C16.5953 13.9937 15.9012 13.4022 14.954 13.3233C14.4594 13.2819 14.2779 13.0898 14.2779 12.6026C14.2779 10.6068 14.2791 8.61046 14.2761 6.61469C14.2761 6.32188 14.2515 6.02847 14.237 5.71136C14.222 5.72499 14.2328 5.70661 14.243 5.70661C14.9017 5.70365 15.5628 5.67105 16.2191 5.70958C16.9409 5.75226 17.4018 6.28691 17.4072 7.02013C17.4138 7.98867 17.4036 8.95721 17.412 9.92516C17.4174 10.5209 17.8075 10.9951 18.3832 11.1249C18.5208 11.1557 18.6663 11.148 18.8069 11.1687C19.4872 11.2695 19.9307 11.768 19.9337 12.4479C19.9386 13.3939 19.9572 14.3411 19.9277 15.2865C19.9055 16.0025 20.483 16.6593 21.2824 16.6125C21.5047 16.5994 21.7337 16.6125 21.9537 16.648C22.5005 16.7364 22.9471 17.2319 22.9513 17.7772C22.9621 19.1814 22.9567 20.5862 22.9567 21.991C22.9567 22.0129 22.9495 22.0343 22.9411 22.0787L22.9417 22.0793Z"
        fill="black" />
    <path
        d="M1.69423 15.2963C1.10827 15.2815 0.549355 15.3106 0.00366211 15.6229V0.0539777C2.99355 -0.327748 5.954 1.33667 6.83925 4.36499C6.67758 4.38514 6.51592 4.39581 6.35846 4.42663C5.09639 4.67381 4.2424 5.68087 4.23098 6.94756C4.22256 7.84201 4.22978 8.73646 4.22797 9.6309C4.22797 9.72871 4.25802 9.83066 4.09095 9.85318C2.58128 10.0571 1.69783 11.0612 1.69483 12.5668C1.69303 13.3871 1.69483 14.2081 1.69483 15.0284C1.69483 15.1084 1.69483 15.1884 1.69483 15.2963H1.69423Z"
        fill="black" />
</svg>
    