<svg width="65" height="64" viewBox="0 0 65 64" fill="none" xmlns="http://www.w3.org/2000/svg">
    <path
        d="M20.948 22.8102C20.885 22.7787 20.8287 22.7351 20.7825 22.6818C20.7363 22.6285 20.7011 22.5667 20.6788 22.4998C20.6565 22.4329 20.6476 22.3623 20.6526 22.292C20.6576 22.2216 20.6764 22.153 20.7079 22.0899C20.7394 22.0268 20.7831 21.9706 20.8363 21.9244C20.8896 21.8782 20.9515 21.843 21.0183 21.8207C21.0852 21.7984 21.1559 21.7895 21.2262 21.7945C21.2965 21.7995 21.3652 21.8183 21.4282 21.8498L23.4025 22.8102V20.7293C23.4025 20.5878 23.4587 20.452 23.5588 20.352C23.6588 20.2519 23.7946 20.1957 23.9361 20.1957C24.0776 20.1957 24.2133 20.2519 24.3134 20.352C24.4134 20.452 24.4697 20.5878 24.4697 20.7293V24.3576L26.3906 23.4505C26.4536 23.419 26.5223 23.4002 26.5926 23.3952C26.6629 23.3902 26.7336 23.3991 26.8005 23.4214C26.8673 23.4437 26.9292 23.479 26.9825 23.5252C27.0357 23.5714 27.0794 23.6276 27.1109 23.6907C27.1424 23.7537 27.1612 23.8224 27.1662 23.8927C27.1712 23.963 27.1623 24.0337 27.14 24.1006C27.1177 24.1674 27.0825 24.2293 27.0363 24.2825C26.9901 24.3358 26.9338 24.3795 26.8708 24.411L24.4697 25.5315V28.1994C25.9078 28.1339 27.2655 27.5173 28.2611 26.4775C29.2568 25.4377 29.814 24.0546 29.8172 22.615C29.8204 21.1754 29.2693 19.7898 28.2782 18.7456C27.2871 17.7015 25.9322 17.0789 24.4944 17.007C23.0566 16.9351 21.6462 17.4194 20.556 18.3595C19.4657 19.2996 18.7791 20.6233 18.6387 22.0561C18.4983 23.4888 18.9147 24.9206 19.8017 26.0545C20.6887 27.1884 21.9781 27.9374 23.4025 28.1461V23.9841L20.948 22.8102ZM17.5331 47.942H31.0327L30.8726 47.7285C30.0723 46.7147 28.7383 45.8076 26.7641 44.9005C24.757 43.9751 22.5712 43.5015 20.3611 43.5132L18.3335 43.6733L17.6398 43.78L16.9995 43.9401V47.4084C16.9995 47.5499 17.0557 47.6856 17.1558 47.7857C17.2559 47.8858 17.3916 47.942 17.5331 47.942Z"
        fill="black" />
    <path
        d="M18.1733 42.6063L20.4144 42.4462C22.7727 42.4401 25.1038 42.95 27.2442 43.9402C29.3786 44.954 30.8192 45.9145 31.7263 47.0883L32.2599 47.9421H37.9692L37.8092 47.6753C35.6841 44.3254 32.623 41.6724 29.0051 40.0451C24.9498 38.1775 20.6278 37.4839 17.7465 38.2309L16.9995 38.4977V42.7663L17.4797 42.6596L18.1733 42.6063Z"
        fill="black" />
    <path
        d="M29.4853 39.0842C33.2785 40.8178 36.4857 43.6172 38.7163 47.1412L39.1965 47.995H44.2655C44.3534 47.9935 44.4395 47.9704 44.5163 47.9277C44.593 47.8849 44.6581 47.8239 44.7056 47.75C44.7531 47.6761 44.7816 47.5916 44.7886 47.504C44.7956 47.4164 44.7809 47.3285 44.7457 47.248C42.0151 41.5651 37.4203 36.9892 31.7263 34.2819C29.4244 33.2097 26.9806 32.473 24.4696 32.0942V28.1991H23.4024V32.0409C21.4375 31.7957 19.4521 31.7599 17.4797 31.9342C17.3476 31.9474 17.2252 32.0094 17.1364 32.1081C17.0476 32.2068 16.9988 32.335 16.9995 32.4677V37.3233L17.4797 37.1633C20.6278 36.3629 25.1099 37.0565 29.4853 39.0842ZM39.8901 38.6573C41.1044 39.8566 42.2114 41.16 43.1983 42.5524C44.3728 42.4676 45.5528 42.5034 46.72 42.6592L47.5204 42.7659H47.5737L48.0006 42.8726V38.3905L47.3069 38.2838C44.8315 37.9836 42.3229 38.11 39.8901 38.6573ZM47.5204 31.9875C42.7936 31.4593 38.011 32.1767 33.6472 34.0685C35.5492 35.1007 37.3224 36.3545 38.9297 37.8036C41.7131 37.0717 44.6097 36.8726 47.467 37.2166L48.0006 37.3233V32.5211C48.0013 32.3884 47.9524 32.2601 47.8636 32.1615C47.7748 32.0628 47.6524 32.0008 47.5204 31.9875ZM46.6133 43.673C45.7108 43.5609 44.8005 43.5252 43.892 43.5662C44.5614 44.577 45.1673 45.6284 45.7062 46.7144C45.7954 46.9054 45.8461 47.1121 45.8553 47.3227C45.8644 47.5333 45.8319 47.7436 45.7595 47.9416H47.467C47.6085 47.9416 47.7442 47.8854 47.8443 47.7853C47.9444 47.6853 48.0006 47.5496 48.0006 47.408V43.9398L47.3603 43.7797L46.6133 43.673ZM35.995 28.6259L37.2756 27.7189V31.7207L39.9435 31.1338V28.4659C39.9435 28.3951 39.9716 28.3273 40.0216 28.2772C40.0717 28.2272 40.1395 28.1991 40.2103 28.1991H42.8782C42.949 28.1991 43.0168 28.2272 43.0668 28.2772C43.1169 28.3273 43.145 28.3951 43.145 28.4659V30.7603H45.8129V27.7189L47.0935 28.6793L47.4136 28.786C47.5256 28.786 47.6348 28.7508 47.7256 28.6853C47.8165 28.6198 47.8844 28.5274 47.9198 28.4212C47.9553 28.3149 47.9563 28.2002 47.923 28.0933C47.8896 27.9864 47.8234 27.8928 47.7338 27.8256L41.8644 23.5569C41.772 23.4876 41.6597 23.4502 41.5442 23.4502C41.4288 23.4502 41.3165 23.4876 41.2241 23.5569L35.3547 27.8256C35.2415 27.9105 35.1666 28.0369 35.1466 28.177C35.1266 28.3171 35.1631 28.4594 35.248 28.5726C35.3329 28.6858 35.4593 28.7606 35.5994 28.7807C35.7395 28.8007 35.8818 28.7642 35.995 28.6793V28.6259Z"
        fill="black" />
    <circle cx="32.6311" cy="31.9885" r="31.3508" stroke="black" />
</svg>
    