<svg xmlns="http://www.w3.org/2000/svg" width="65" height="64" viewBox="0 0 65 64" fill="none">
    <path
        d="M41.7892 28.2037C41.6579 28.1405 41.553 28.0331 41.4929 27.9003C41.4327 27.7675 41.4212 27.6178 41.4603 27.4774C41.7123 26.5657 41.7437 25.6071 41.5518 24.6808C41.3598 23.7545 40.9501 22.8873 40.3565 22.1508C40.2861 22.0636 40.2405 21.9589 40.2247 21.8479C40.2089 21.7369 40.2234 21.6237 40.2667 21.5202C40.5571 20.8248 40.6327 20.0584 40.4837 19.3197C40.3346 18.5809 39.9679 17.9037 39.4306 17.3753C38.8933 16.8468 38.2101 16.4913 37.469 16.3546C36.7279 16.2178 35.9628 16.3061 35.2723 16.608C35.1251 16.6725 34.9587 16.6776 34.8078 16.6221C34.657 16.5665 34.5336 16.4547 34.4635 16.3101C33.9028 15.149 32.9648 14.2124 31.8028 13.6534C30.6409 13.0945 29.3236 12.9462 28.0665 13.233C26.8094 13.5197 25.6867 14.2244 24.8819 15.2318C24.0772 16.2393 23.6381 17.49 23.6363 18.7794C23.6342 20.0114 24.0359 21.21 24.7799 22.192C24.8355 22.2646 24.8745 22.3487 24.8939 22.4382C24.9133 22.5276 24.9126 22.6203 24.8921 22.7095C24.8715 22.7987 24.8315 22.8822 24.7748 22.9542C24.7182 23.0261 24.6464 23.0846 24.5645 23.1256L24.5486 23.1333C24.5447 23.1354 24.5408 23.1374 24.5367 23.1394C23.2047 23.8071 22.162 24.938 21.6044 26.3197C21.0467 27.7015 21.0124 29.2392 21.5078 30.6445C21.5459 30.7527 21.5532 30.8694 21.5291 30.9815C21.505 31.0937 21.4504 31.197 21.3712 31.2801C20.0713 32.6417 19.3612 34.4612 19.3951 36.3434C19.4291 38.2256 20.2044 40.0183 21.5526 41.3322C22.9008 42.646 24.7129 43.3748 26.5953 43.3602C28.4778 43.3456 30.2784 42.5888 31.606 41.2542V34.8469L28.8179 32.4883C28.7561 32.4351 28.7055 32.3702 28.6688 32.2973C28.6322 32.2245 28.6102 32.1452 28.6043 32.0639C28.5983 31.9826 28.6084 31.9009 28.6341 31.8235C28.6597 31.7461 28.7003 31.6745 28.7537 31.6129C28.8055 31.5505 28.8692 31.4991 28.9411 31.4616C29.0129 31.424 29.0915 31.4011 29.1723 31.3942C29.2531 31.3872 29.3345 31.3964 29.4117 31.4211C29.4889 31.4458 29.5604 31.4856 29.6222 31.5381L31.606 33.2215V29.178C31.606 29.0132 31.6715 28.8551 31.788 28.7386C31.9045 28.6221 32.0625 28.5566 32.2273 28.5566C32.3921 28.5566 32.5501 28.6221 32.6667 28.7386C32.7832 28.8551 32.8486 29.0132 32.8486 29.178V37.2354L36.1151 35.2043C36.2566 35.117 36.4268 35.0889 36.5889 35.126C36.751 35.1631 36.8921 35.2624 36.9816 35.4025C37.0677 35.5433 37.0944 35.7125 37.0559 35.873C37.0174 36.0335 36.9168 36.1721 36.7762 36.2585L32.8486 38.6997V41.1038C34.3258 42.5147 36.2917 43.2991 38.3344 43.2927C42.711 43.2927 46.2788 39.7323 46.2788 35.3559C46.2823 33.8615 45.8624 32.3966 45.0679 31.1308C44.2734 29.8651 43.1366 28.8502 41.7892 28.2037Z"
        fill="black" />
    <path
        d="M31.606 49.7466C31.606 49.9113 31.6715 50.0694 31.788 50.1859C31.9045 50.3024 32.0625 50.3679 32.2273 50.3679C32.3921 50.3679 32.5501 50.3024 32.6667 50.1859C32.7832 50.0694 32.8486 49.9113 32.8486 49.7466V41.8258H31.606V49.7466Z"
        fill="black" />
    <circle cx="32.6311" cy="32.079" r="31.3508" stroke="black" />
</svg>