<svg width="65" height="64" viewBox="0 0 65 64" fill="none" xmlns="http://www.w3.org/2000/svg">
    <circle cx="32.6311" cy="31.9887" r="31.3508" stroke="black" />
    <path
        d="M34.2162 32.6926H31.7838V16.0002H34.2162V32.6926ZM38.2703 25.9759C37.2973 24.8631 36.4865 23.5913 35.8378 22.2797V32.6926H38.2703V25.9759ZM42.3243 29.3938C41.473 28.8772 40.6622 28.281 39.8919 27.6054V32.6926H42.3243V29.3938ZM22.0541 30.2682C20.7973 30.8643 19.4189 31.3015 18 31.5797V32.6926H22.0541V30.2682ZM30.1622 22.2797C29.5135 23.631 28.7027 24.8631 27.7297 25.9759V32.6926H30.1622V22.2797ZM43.9459 30.2682V32.6926H48V31.5797C46.5811 31.3413 45.2027 30.8643 43.9459 30.2682ZM26.1081 27.6054C25.3378 28.281 24.527 28.8772 23.6757 29.3938V32.6926H26.1081V27.6054ZM18 36.7464C19.8649 37.1041 21.2432 38.7336 21.2432 40.6413V47.0002H23.6757V40.6413C23.6757 38.4554 25.5 36.6669 27.7297 36.6669C29.9595 36.6669 31.7838 38.4554 31.7838 40.6413V47.0002H34.2162V40.6413C34.2162 38.4554 36.0405 36.6669 38.2703 36.6669C40.5 36.6669 42.3243 38.4554 42.3243 40.6413V47.0002H44.7568V40.6413C44.7568 38.7336 46.1351 37.1041 48 36.7464V34.2823H18V36.7464Z"
        fill="black" />
</svg>
    