<svg xmlns="http://www.w3.org/2000/svg" width="221" height="221" viewBox="0 0 221 221" fill="none">
    <path
        d="M85.8169 54.5029C86.8793 53.7946 88.2634 53.7946 89.3258 54.5029L108.303 67.154C109.183 67.7407 109.711 68.7281 109.711 69.7858V95.0884C109.711 96.8352 108.295 98.2512 106.548 98.2512H93.897V76.1114H81.2457V98.2512H68.5944C66.8476 98.2512 65.4316 96.8352 65.4316 95.0884V69.7858C65.4316 68.7281 65.9601 67.7407 66.84 67.154L85.8169 54.5029ZM139.77 73.3655C140.743 72.8098 141.936 72.8098 142.908 73.3655L165.048 86.0168C166.034 86.5798 166.642 87.6276 166.642 88.7627V120.391C166.642 122.138 165.226 123.554 163.479 123.554H147.665V98.2512H135.014V123.554H119.2C117.453 123.554 116.037 122.138 116.037 120.391V88.7627C116.037 87.6276 116.645 86.5798 117.631 86.0168L139.77 73.3655ZM54.5287 123.888L79.8313 111.237C80.7216 110.791 81.7698 110.791 82.6601 111.237L107.963 123.888C109.034 124.424 109.711 125.519 109.711 126.717V164.671C109.711 166.417 108.295 167.833 106.548 167.833H87.5713V139.368H74.92V167.833H55.9431C54.1963 167.833 52.7803 166.417 52.7803 164.671V126.717C52.7803 125.519 53.4571 124.424 54.5287 123.888Z"
        fill="black" />
    <circle cx="110.163" cy="110.388" r="108.171" stroke="black" stroke-width="3.45035" />
</svg>