<svg width="58" height="58" viewBox="0 0 58 58" fill="none" xmlns="http://www.w3.org/2000/svg">
    <mask id="path-1-inside-1_112_741" fill="white">
        <path fill-rule="evenodd" clip-rule="evenodd"
            d="M0.612183 57.8603L0.612183 24.4243C0.612183 21.8632 1.81099 19.4497 3.85177 17.9023L24.3564 2.35447C27.2985 0.12359 31.37 0.138697 34.2954 2.39135L54.4379 17.9014C56.4503 19.4509 57.6293 21.8467 57.6293 24.3865V57.8603H34.6047V52.6583C34.6059 52.5453 34.6065 52.4447 34.6065 52.3608C34.6065 51.659 34.5633 49.79 34.4955 49.3074C34.2611 47.639 32.7694 47.09 31.3605 46.9778C30.323 46.8952 29.8862 46.8942 29.1664 46.8942C28.4465 46.8942 27.9252 46.8952 26.8877 46.9778C25.4788 47.09 23.9871 47.639 23.7527 49.3074C23.685 49.79 23.6417 51.659 23.6417 52.3608C23.6417 52.3665 23.6417 52.3722 23.6417 52.378H23.6399V57.8603H0.612183Z" />
    </mask>
    <path fill-rule="evenodd" clip-rule="evenodd"
        d="M0.612183 57.8603L0.612183 24.4243C0.612183 21.8632 1.81099 19.4497 3.85177 17.9023L24.3564 2.35447C27.2985 0.12359 31.37 0.138697 34.2954 2.39135L54.4379 17.9014C56.4503 19.4509 57.6293 21.8467 57.6293 24.3865V57.8603H34.6047V52.6583C34.6059 52.5453 34.6065 52.4447 34.6065 52.3608C34.6065 51.659 34.5633 49.79 34.4955 49.3074C34.2611 47.639 32.7694 47.09 31.3605 46.9778C30.323 46.8952 29.8862 46.8942 29.1664 46.8942C28.4465 46.8942 27.9252 46.8952 26.8877 46.9778C25.4788 47.09 23.9871 47.639 23.7527 49.3074C23.685 49.79 23.6417 51.659 23.6417 52.3608C23.6417 52.3665 23.6417 52.3722 23.6417 52.378H23.6399V57.8603H0.612183Z"
        fill="black" />
    <path
        d="M0.612183 24.4243L4.70467 24.4243L0.612183 24.4243ZM0.612183 57.8603L-3.4803 57.8603L-3.4803 61.9528H0.612183V57.8603ZM3.85177 17.9023L6.32446 21.1633L6.32446 21.1633L3.85177 17.9023ZM24.3564 2.35447L21.8837 -0.906547L21.8837 -0.906547L24.3564 2.35447ZM34.2954 2.39135L31.7986 5.63392L31.7986 5.63392L34.2954 2.39135ZM54.4379 17.9014L56.9348 14.6588L56.9348 14.6588L54.4379 17.9014ZM57.6293 57.8603V61.9528H61.7217V57.8603H57.6293ZM34.6047 57.8603H30.5122V61.9528H34.6047V57.8603ZM34.6047 52.6583L30.5125 52.6146L30.5122 52.6364V52.6583H34.6047ZM34.4955 49.3074L30.4428 49.8766L30.4428 49.8766L34.4955 49.3074ZM31.3605 46.9778L31.0356 51.0574L31.0357 51.0574L31.3605 46.9778ZM26.8877 46.9778L27.2126 51.0574L27.2126 51.0574L26.8877 46.9778ZM23.7527 49.3074L27.8054 49.8766L27.8054 49.8766L23.7527 49.3074ZM23.6417 52.378V56.4705H27.7382L27.7342 52.374L23.6417 52.378ZM23.6399 52.378V48.2856H19.5474V52.378H23.6399ZM23.6399 57.8603V61.9528H27.7324V57.8603H23.6399ZM-3.4803 24.4243L-3.4803 57.8603L4.70466 57.8603L4.70467 24.4243L-3.4803 24.4243ZM1.37908 14.6413C-1.68209 16.9624 -3.4803 20.5826 -3.4803 24.4243L4.70467 24.4243C4.70467 23.1438 5.30407 21.937 6.32446 21.1633L1.37908 14.6413ZM21.8837 -0.906547L1.37907 14.6413L6.32446 21.1633L26.8291 5.61548L21.8837 -0.906547ZM36.7923 -0.851221C32.4041 -4.2302 26.2969 -4.25286 21.8837 -0.906547L26.8291 5.61548C28.3002 4.50004 30.3359 4.5076 31.7986 5.63392L36.7923 -0.851221ZM56.9348 14.6588L36.7923 -0.851222L31.7986 5.63392L51.9411 21.1439L56.9348 14.6588ZM61.7217 24.3865C61.7217 20.5769 59.9532 16.9831 56.9348 14.6588L51.9411 21.1439C52.9473 21.9187 53.5368 23.1166 53.5368 24.3865H61.7217ZM61.7217 57.8603V24.3865H53.5368V57.8603H61.7217ZM34.6047 61.9528H57.6293V53.7678H34.6047V61.9528ZM30.5122 52.6583V57.8603H38.6972V52.6583H30.5122ZM30.514 52.3608C30.514 52.4261 30.5136 52.5115 30.5125 52.6146L38.6969 52.7019C38.6983 52.5791 38.699 52.4633 38.699 52.3608H30.514ZM30.4428 49.8766C30.4322 49.8011 30.4408 49.8455 30.4548 50.1079C30.4662 50.321 30.4768 50.5893 30.4859 50.8801C30.5044 51.4674 30.514 52.0652 30.514 52.3608H38.699C38.699 51.7365 38.6636 49.5602 38.5482 48.7382L30.4428 49.8766ZM31.0357 51.0574C31.1894 51.0696 31.2873 51.0898 31.3335 51.1024C31.382 51.1157 31.3241 51.107 31.2066 51.0339C31.0781 50.954 30.8857 50.8004 30.7157 50.5492C30.5404 50.2901 30.4658 50.0403 30.4428 49.8766L38.5482 48.7382C38.2475 46.5972 37.0439 45.0258 35.5303 44.0842C34.1778 43.2426 32.7238 42.9809 31.6853 42.8983L31.0357 51.0574ZM29.1664 50.9867C29.8234 50.9867 30.1437 50.9864 31.0356 51.0574L31.6854 42.8983C30.5023 42.804 29.9491 42.8018 29.1664 42.8018V50.9867ZM27.2126 51.0574C28.0963 50.987 28.4965 50.9867 29.1664 50.9867V42.8018C28.3965 42.8018 27.7542 42.8034 26.5629 42.8983L27.2126 51.0574ZM27.8054 49.8766C27.7824 50.0403 27.7079 50.2901 27.5325 50.5492C27.3625 50.8004 27.1701 50.954 27.0417 51.0339C26.9241 51.107 26.8662 51.1157 26.9147 51.1024C26.9609 51.0898 27.0588 51.0696 27.2126 51.0574L26.5629 42.8983C25.5244 42.9809 24.0705 43.2426 22.7179 44.0842C21.2043 45.0258 20.0007 46.5972 19.7 48.7382L27.8054 49.8766ZM27.7342 52.3608C27.7342 52.0652 27.7439 51.4674 27.7623 50.8801C27.7714 50.5893 27.782 50.321 27.7934 50.1079C27.8075 49.8455 27.816 49.8011 27.8054 49.8766L19.7 48.7382C19.5846 49.5602 19.5492 51.7365 19.5492 52.3608H27.7342ZM27.7342 52.374C27.7342 52.3699 27.7342 52.3656 27.7342 52.3608H19.5492C19.5492 52.3674 19.5492 52.3745 19.5492 52.3821L27.7342 52.374ZM23.6399 56.4705H23.6417V48.2856H23.6399V56.4705ZM27.7324 57.8603V52.378H19.5474V57.8603H27.7324ZM0.612183 61.9528H23.6399V53.7678H0.612183V61.9528Z"
        fill="black" mask="url(#path-1-inside-1_112_741)" />
</svg>
    