<svg xmlns="http://www.w3.org/2000/svg" width="64" height="64" viewBox="0 0 64 64" fill="none">
    <circle cx="31.8846" cy="31.8527" r="31.3508" stroke="black" />
    <path
        d="M24.7658 45.2687H17C17.0576 44.6047 17.1128 43.9528 17.1713 43.3009C17.2825 42.0694 17.3962 40.8379 17.5082 39.6064C17.5496 39.1518 17.5886 38.698 17.6324 38.2434C17.6381 38.1849 17.6543 38.1232 17.6803 38.0704C18.1925 37.037 18.7064 36.0052 19.2422 34.9304C19.3128 35.0424 19.3656 35.1228 19.4135 35.2056C19.834 35.9216 20.2456 36.6433 20.6783 37.352C20.7936 37.5411 20.8196 37.7141 20.7765 37.9227C20.5987 38.7743 20.4234 39.6267 20.2618 40.4823C20.231 40.6455 20.231 40.8314 20.2756 40.9897C20.352 41.26 20.6223 41.4118 20.917 41.3956C21.2303 41.3786 21.443 41.2016 21.5039 40.911C21.7393 39.7923 21.9593 38.6696 22.1639 37.5444C22.1891 37.4056 22.1128 37.227 22.0348 37.0947C21.3253 35.8907 20.6012 34.695 19.8941 33.4894C19.8218 33.366 19.7902 33.1842 19.8153 33.0429C20.1539 31.1084 20.5038 29.1763 20.8569 27.245C20.8796 27.1192 20.9421 26.9966 21.0046 26.8829C21.909 25.2544 22.819 23.6284 23.7218 21.9983C23.8736 21.7247 24.0562 21.4828 24.3899 21.512C24.7446 21.5437 25.0621 21.715 25.2098 22.0584C25.5289 22.802 25.8211 23.557 26.1239 24.3079C26.1507 24.3736 26.1734 24.441 26.1986 24.5068C26.3715 24.9598 26.6581 25.4062 26.6857 25.8674C26.7125 26.3179 26.4738 26.7839 26.3504 27.2434C26.2692 27.5462 26.1832 27.8482 26.1052 28.1518C26.0135 28.5074 26.1945 28.8402 26.5306 28.9465C26.8586 29.0496 27.228 28.871 27.3238 28.5179C27.5624 27.6395 27.7857 26.7571 27.9967 25.8714C28.026 25.748 27.974 25.5922 27.9245 25.4655C27.495 24.3736 27.0624 23.2826 26.6191 22.1964C26.5452 22.0153 26.5525 21.8871 26.6759 21.7288C27.0875 21.2019 27.4804 20.6596 27.8855 20.1279C27.9578 20.0337 28.0438 19.9395 28.1437 19.8787C29.0326 19.3347 29.9272 18.7989 30.8186 18.2599C31.1108 18.0829 31.4177 17.9855 31.7676 18.0018C32.2019 18.0212 32.6387 17.9977 33.073 18.0123C33.5877 18.0302 33.9554 18.2737 34.2217 18.7299C34.9142 19.9168 35.3736 21.1808 35.5392 22.5463C35.5595 22.7135 35.536 22.9116 35.4638 23.0609C35.0059 24.0091 34.5383 24.9524 34.0536 25.8868C33.8239 26.3293 33.8182 26.6897 34.1665 27.0989C34.6852 27.7069 35.1447 28.3661 35.6107 29.0172C35.713 29.1609 35.7828 29.3598 35.7877 29.5359C35.808 30.2154 35.7942 30.8957 35.7966 31.5752C35.7974 31.8869 35.9232 32.1329 36.2244 32.2457C36.6433 32.4024 37.0703 32.115 37.076 31.6588C37.0874 30.7764 37.0866 29.8931 37.0687 29.0107C37.0654 28.8637 36.9794 28.7006 36.8885 28.5764C36.4054 27.9123 35.9167 27.2531 35.4134 26.6045C35.2811 26.434 35.2795 26.3049 35.3753 26.1223C35.6635 25.5759 35.933 25.0198 36.2106 24.4678C36.2553 24.3793 36.304 24.2941 36.3527 24.2032C37.8294 25.0174 39.25 25.8487 40.3906 27.1094C40.8241 27.5884 41.0766 28.0592 41.1488 28.6876C41.2373 29.4612 41.3429 30.2398 41.532 30.9931C41.6928 31.6344 41.9517 32.2571 42.2245 32.8627C42.5435 33.5714 42.9251 34.2517 43.2904 34.9645C42.5752 35.3233 41.8916 35.6959 41.1829 36.0125C40.6918 36.2317 40.3663 36.554 40.1519 37.05C39.8711 37.6995 39.5252 38.3213 39.2094 38.9553C38.9797 39.4172 39.0633 39.7972 39.4302 39.9733C39.7915 40.1471 40.1268 39.9912 40.3525 39.5423C40.6885 38.8725 41.023 38.2011 41.3615 37.533C41.4054 37.4462 41.4573 37.3374 41.5361 37.2968C42.2253 36.9396 42.921 36.5954 43.6598 36.2244C43.7353 36.8048 43.8067 37.3414 43.8733 37.878C43.982 38.7524 44.0803 39.6291 44.202 40.5018C44.2223 40.6471 44.3141 40.8054 44.418 40.9134C44.9384 41.4541 45.4742 41.9785 46.0018 42.5118C46.0716 42.5825 46.1577 42.6596 46.1812 42.7481C46.3988 43.5786 46.6042 44.4123 46.8218 45.2809C46.687 45.2809 46.588 45.2809 46.4889 45.2809C44.1192 45.2809 41.7488 45.2777 39.3791 45.2866C39.1421 45.2874 39.0235 45.2379 38.9561 44.9887C38.646 43.8367 38.2953 42.6953 37.9958 41.5401C37.8172 40.8525 37.5095 40.2575 37.0054 39.7614C36.7813 39.5414 36.5832 39.2914 36.3413 39.0933C35.868 38.7053 35.6862 38.1979 35.6131 37.6118C35.4914 36.6368 35.3574 35.6634 35.1885 34.6958C35.1325 34.3767 35.0148 34.0293 34.8167 33.7817C34.4011 33.2621 33.9505 32.7572 33.4456 32.3269C32.8871 31.8504 32.2076 31.8171 31.5281 32.0907C31.2943 32.1848 31.0808 32.3293 30.8462 32.4211C29.8266 32.8205 29.2153 33.5625 28.9181 34.6097C28.7144 35.329 28.4668 36.0377 28.2094 36.7407C28.1185 36.9891 27.9716 37.2351 27.793 37.4299C27.3619 37.9008 26.9179 38.3627 26.4421 38.7873C25.7359 39.4172 25.3981 40.2152 25.2821 41.1277C25.1075 42.494 24.9419 43.8619 24.7674 45.2671L24.7658 45.2687Z"
        fill="black" />
    <path
        d="M37.7498 45.3263H26.0776C26.119 44.9618 26.1564 44.6135 26.1986 44.2669C26.3196 43.2724 26.4356 42.2763 26.5663 41.2827C26.65 40.6462 26.9503 40.1169 27.4098 39.6737C27.8035 39.2937 28.1859 38.9016 28.5894 38.5323C29.0123 38.1459 29.2989 37.6815 29.4767 37.1416C29.7429 36.3355 30.0214 35.5326 30.2763 34.7233C30.4062 34.3117 30.6473 34.0073 31.0224 33.8092C31.3438 33.6395 31.6726 33.4845 31.9957 33.3164C32.2514 33.1833 32.4974 33.2101 32.6987 33.3984C33.0535 33.7296 33.4399 34.0462 33.7135 34.4383C33.9035 34.7103 33.9635 35.0935 34.0187 35.4377C34.1649 36.3469 34.281 37.261 34.4011 38.1743C34.4863 38.8253 34.7875 39.3603 35.2413 39.8198C35.4694 40.0504 35.687 40.2931 35.9314 40.505C36.3364 40.8565 36.5841 41.2908 36.7286 41.8022C37.0581 42.968 37.4015 44.1297 37.749 45.3271L37.7498 45.3263Z"
        fill="black" />
</svg>