<svg width="1320" height="500" viewBox="0 0 1320 500" fill="none" xmlns="http://www.w3.org/2000/svg">
    <rect width="500" height="1320" rx="50" transform="matrix(0 -1 -1 0 1320 500)" fill="white" />
    <path
        d="M265.615 64.4244C261.168 64.4244 260.81 71.4945 261.342 74.5089C263.419 86.2806 277.81 78.7703 281.254 72.2869C283.369 68.3068 283.638 60.6202 277.836 59.8949C268.528 58.7314 263.527 67.6115 261 75.1926"
        stroke="#1E1E1E" stroke-width="3" stroke-linecap="round" stroke-linejoin="round" />
    <path d="M143 121.792H290.678" stroke="#1E1E1E" stroke-width="3" stroke-linecap="round"
        stroke-linejoin="round" />
    <path d="M143 147.943H287.601" stroke="#1E1E1E" stroke-width="3" stroke-linecap="round"
        stroke-linejoin="round" />
    <path d="M143 178.709H262.988" stroke="#1E1E1E" stroke-width="3" stroke-linecap="round"
        stroke-linejoin="round" />
    <path d="M143 209.475H202.994" stroke="#1E1E1E" stroke-width="3" stroke-linecap="round"
        stroke-linejoin="round" />
    <path d="M214.34 207.912H258.951" stroke="#1E1E1E" stroke-width="3" stroke-linecap="round"
        stroke-linejoin="round" />
    <path
        d="M628.479 107.696C615.979 95.1956 606.956 122.267 618.395 124.446C623.964 125.507 634.387 122.48 636.854 116.84C641.464 106.304 626.099 102.662 619.249 104.619"
        stroke="#1E1E1E" stroke-width="3" stroke-linecap="round" stroke-linejoin="round" />
    <path
        d="M156.784 63.0978C156.784 67.827 156.18 73.5777 160.715 76.6008C168.852 82.0251 172.583 62.4223 169.09 57.2864C160.792 45.0826 147.884 75.4043 159.86 75.4043"
        stroke="#1E1E1E" stroke-width="3" stroke-linecap="round" stroke-linejoin="round" />
    <path d="M178.321 53.8682C182.618 53.8682 175.012 71.4424 179.86 73.8662" stroke="#1E1E1E"
        stroke-width="3" stroke-linecap="round" stroke-linejoin="round" />
    <path d="M169.09 55.4064C176.823 55.4064 187.517 54.9156 193.703 50.7915" stroke="#1E1E1E"
        stroke-width="3" stroke-linecap="round" stroke-linejoin="round" />
    <path
        d="M195.241 61.5593C195.241 57.4252 193.46 69.7389 193.702 73.8658C194.008 79.0634 203.27 75.4041 206.009 75.4041"
        stroke="#1E1E1E" stroke-width="3" stroke-linecap="round" stroke-linejoin="round" />
    <path d="M192.164 69.2507C196.328 69.2507 203.18 69.0025 206.009 66.1741" stroke="#1E1E1E"
        stroke-width="3" stroke-linecap="round" stroke-linejoin="round" />
    <path d="M192.164 60.0208C196.904 57.6507 202.382 58.4825 207.547 58.4825" stroke="#1E1E1E"
        stroke-width="3" stroke-linecap="round" stroke-linejoin="round" />
    <path d="M219.854 52.3298C219.854 60.2902 213.701 83.3649 213.701 75.4045" stroke="#1E1E1E"
        stroke-width="3" stroke-linecap="round" stroke-linejoin="round" />
    <path d="M219.855 55.4065C219.855 61.7409 222.541 76.2996 229.085 78.4812" stroke="#1E1E1E"
        stroke-width="3" stroke-linecap="round" stroke-linejoin="round" />
    <path
        d="M229.085 58.4832C226.345 58.4832 229.833 71.1686 230.282 73.5245C231.54 80.1309 234.089 78.4813 240.537 78.4813C253.337 78.4813 237.83 56.3763 230.624 70.7897"
        stroke="#1E1E1E" stroke-width="3" stroke-linecap="round" stroke-linejoin="round" />
    <path d="M450.874 110.311C450.874 117.566 449.426 139.284 449.426 132.028" stroke="#1E1E1E"
        stroke-width="3" stroke-linecap="round" stroke-linejoin="round" />
    <path
        d="M458.113 113.207C458.113 117.446 450.114 121.93 451.115 125.433C451.652 127.312 457.296 125.581 458.837 127.122C460.968 129.254 462.253 132.447 463.904 134.924"
        stroke="#1E1E1E" stroke-width="3" stroke-linecap="round" stroke-linejoin="round" />
    <path
        d="M468.248 121.894C468.248 124.758 467.315 128.743 470.017 130.581C474.204 133.428 479.795 129.178 480.956 124.789C482.048 120.666 481.259 112.402 475.487 112.402C467.75 112.402 467.752 124.273 469.695 129.133"
        stroke="#1E1E1E" stroke-width="3" stroke-linecap="round" stroke-linejoin="round" />
    <path d="M495.757 113.207C495.757 117.302 494.998 136.442 495.757 134.924" stroke="#1E1E1E"
        stroke-width="3" stroke-linecap="round" stroke-linejoin="round" />
    <path
        d="M491.413 116.103C488.526 116.103 479.127 123.919 483.37 125.916C486.613 127.442 490.443 117.894 493.183 116.103C497.425 113.329 502.919 113.737 504.122 118.998C505.587 125.408 496.121 134.934 494.309 127.685"
        stroke="#1E1E1E" stroke-width="3" stroke-linecap="round" stroke-linejoin="round" />
    <path
        d="M508.074 112.569C508.074 106.026 506.722 125.87 508.396 132.195C509.624 136.836 521.792 132.839 525.448 132.839"
        stroke="#1E1E1E" stroke-width="3" stroke-linecap="round" stroke-linejoin="round" />
    <path d="M508.798 125.871C515.084 125.871 521.477 126.645 527.257 124.333" stroke="#1E1E1E"
        stroke-width="3" stroke-linecap="round" stroke-linejoin="round" />
    <path d="M511.874 116.642C517.829 116.642 523.164 116.98 528.796 115.103" stroke="#1E1E1E"
        stroke-width="3" stroke-linecap="round" stroke-linejoin="round" />
    <path
        d="M531.953 116.102C531.953 123.324 534.984 143.337 543.535 130.259C545.924 126.606 549.327 114.15 549.327 118.515C549.327 121.194 545.66 134.586 550.775 132.028"
        stroke="#1E1E1E" stroke-width="3" stroke-linecap="round" stroke-linejoin="round" />
    <path d="M534.848 113.207C539.265 113.207 544.786 113.404 547.878 110.311" stroke="#1E1E1E"
        stroke-width="3" stroke-linecap="round" stroke-linejoin="round" />
    <path
        d="M553.67 113.206C557.311 116.848 555.04 127.062 556.244 132.028C557.1 135.561 559.162 124.085 563.805 123.422C567.277 122.926 571.328 121.516 569.516 116.987C567.507 111.965 563.108 131.194 568.149 133.154C570.609 134.111 572.534 128.553 574.583 130.017C576.511 131.395 576.598 132.922 579.731 132.833C587.287 132.617 592.792 118.425 589.062 112.563C585.364 106.751 579.247 114.564 579.812 119.078C580.959 128.26 592.015 135.036 597.105 142.163"
        stroke="#1E1E1E" stroke-width="3" stroke-linecap="round" stroke-linejoin="round" />
    <path d="M653.297 83.1364H829.188" stroke="#1E1E1E" stroke-width="3" stroke-linecap="round"
        stroke-linejoin="round" />
    <path d="M663.389 104.763H806.12" stroke="#1E1E1E" stroke-width="3" stroke-linecap="round"
        stroke-linejoin="round" />
    <path d="M657.623 133.597H758.544" stroke="#1E1E1E" stroke-width="3" stroke-linecap="round"
        stroke-linejoin="round" />
    <path d="M646.088 169.64H716.733" stroke="#1E1E1E" stroke-width="3" stroke-linecap="round"
        stroke-linejoin="round" />
    <path
        d="M795.074 256.144C786.678 256.144 781.42 252.267 772.167 254.702C755.614 259.058 754.094 280.024 770.885 284.978C784.74 289.067 802.287 280.833 803.484 265.275C804.209 255.852 785.352 253.26 779.215 253.26"
        stroke="#1E1E1E" stroke-width="3" stroke-linecap="round" stroke-linejoin="round" />
    <path d="M822.467 260.469C822.467 256.038 825.35 269.014 825.35 273.444" stroke="#1E1E1E"
        stroke-width="3" stroke-linecap="round" stroke-linejoin="round" />
    <path
        d="M821.025 256.144C823.441 253.728 833.194 251.675 836.244 253.581C839.241 255.454 822.729 263.353 827.593 263.353C831.234 263.353 846.74 262.178 841.85 270.561C839.181 275.136 834.461 278.256 829.676 280.333C823.936 282.824 824.116 276.945 828.234 274.886"
        stroke="#1E1E1E" stroke-width="3" stroke-linecap="round" stroke-linejoin="round" />
    <path
        d="M848.417 263.352C847.526 266.919 844.462 276.939 850.66 277.529C858.481 278.274 861.34 270.031 862.514 263.993C864.822 252.123 834.834 264.186 846.976 276.328"
        stroke="#1E1E1E" stroke-width="3" stroke-linecap="round" stroke-linejoin="round" />
    <path d="M877.252 248.935C874.002 257.061 868.879 264.848 867.16 273.445" stroke="#1E1E1E"
        stroke-width="3" stroke-linecap="round" stroke-linejoin="round" />
    <path d="M874.369 254.702C877.591 261.147 875.277 269.414 877.253 276.328" stroke="#1E1E1E"
        stroke-width="3" stroke-linecap="round" stroke-linejoin="round" />
    <path
        d="M859.951 279.212C869.279 279.212 878.989 277.071 887.024 272.323C888.419 271.499 890.511 270.627 891.349 269.12C891.716 268.459 891.669 266.122 891.669 266.877C891.669 268.984 890.661 274.058 892.55 275.527C900.839 281.974 911.449 268.084 904.565 259.908C896.403 250.217 878.933 270.921 884.461 279.212"
        stroke="#1E1E1E" stroke-width="3" stroke-linecap="round" stroke-linejoin="round" />
    <path
        d="M916.178 256.144C916.178 262.782 914.471 282.641 914.737 276.007C914.955 270.543 917.859 262.763 914.096 257.746C914.051 257.686 919.07 257.585 919.703 257.585C921.74 257.585 928.405 256.362 929.795 258.547C932.991 263.569 925.287 276.557 930.596 279.211"
        stroke="#1E1E1E" stroke-width="3" stroke-linecap="round" stroke-linejoin="round" />
    <path
        d="M947.897 254.702C943.745 258.855 941.808 264.882 940.048 270.321C939.609 271.679 936.175 279.4 937.805 277.77"
        stroke="#1E1E1E" stroke-width="3" stroke-linecap="round" stroke-linejoin="round" />
    <path d="M947.896 250.377C948.864 255.215 947.432 279.847 953.663 277.77" stroke="#1E1E1E"
        stroke-width="3" stroke-linecap="round" stroke-linejoin="round" />
    <path d="M933.48 272.003C940.303 274.277 946.829 271.928 953.665 270.561" stroke="#1E1E1E"
        stroke-width="3" stroke-linecap="round" stroke-linejoin="round" />
    <path
        d="M969.523 254.702C969.523 260.344 966.612 264.798 964.557 269.841C963.878 271.509 962.314 278.821 962.314 277.77"
        stroke="#1E1E1E" stroke-width="3" stroke-linecap="round" stroke-linejoin="round" />
    <path d="M959.432 280.653C969.149 280.653 978.736 281.117 988.266 279.211" stroke="#1E1E1E"
        stroke-width="3" stroke-linecap="round" stroke-linejoin="round" />
    <path d="M986.012 310.151C1040.89 299.175 1097.52 302.942 1153.25 302.942" stroke="#1E1E1E"
        stroke-width="3" stroke-linecap="round" stroke-linejoin="round" />
    <path d="M986.012 328.893H1124.42" stroke="#1E1E1E" stroke-width="3" stroke-linecap="round"
        stroke-linejoin="round" />
    <path d="M986.012 357.728H1098.47" stroke="#1E1E1E" stroke-width="3" stroke-linecap="round"
        stroke-linejoin="round" />
    <path d="M986.012 388.004H1118.65" stroke="#1E1E1E" stroke-width="3" stroke-linecap="round"
        stroke-linejoin="round" />
    <path d="M986.012 418.281H1056.66" stroke="#1E1E1E" stroke-width="3" stroke-linecap="round"
        stroke-linejoin="round" />
    <rect x="0.5" y="280.5" width="1319" height="367" rx="49.5" stroke="white" />
    <path d="M298.916 73.4789C304.547 75.3199 311.391 78.61 317.388 78.61" stroke="black"
        stroke-width="3" stroke-linecap="round" />
    <path d="M342.018 79.6362H364.594" stroke="black" stroke-width="3" stroke-linecap="round" />
    <path d="M396.406 74.5052C404.273 72.4351 411.716 67.8764 418.983 64.243" stroke="black"
        stroke-width="3" stroke-linecap="round" />
    <path d="M452.848 48.8497L470.293 42.6924" stroke="black" stroke-width="3"
        stroke-linecap="round" />
    <path d="M504.158 28.3254C514.417 26.9315 524.68 25.5712 534.945 24.2206" stroke="black"
        stroke-width="3" stroke-linecap="round" />
    <path d="M566.758 28.3254C570.568 31.92 574.011 35.089 579.072 36.5352" stroke="black"
        stroke-width="3" stroke-linecap="round" />
    <path d="M598.57 53.9808C604.117 59.2192 609.798 63.0041 611.911 70.4003" stroke="black"
        stroke-width="3" stroke-linecap="round" />
    <path d="M616.018 76.5576L618.07 86.8198" stroke="black" stroke-width="3" stroke-linecap="round" />
    <path d="M623.2 146.34C622.397 153.616 621.369 160.718 620.121 167.891" stroke="black"
        stroke-width="3" stroke-linecap="round" />
    <path d="M619.096 185.337V197.651" stroke="black" stroke-width="3" stroke-linecap="round" />
    <path d="M617.043 224.333C617.462 230.409 619.233 236.035 621.148 241.778" stroke="black"
        stroke-width="3" stroke-linecap="round" />
    <path d="M640.646 267.434C646.102 271.312 651.253 275.493 657.066 278.722" stroke="black"
        stroke-width="3" stroke-linecap="round" />
    <path d="M686.826 280.775C696.44 282.606 705.817 282.421 715.56 282.827" stroke="black"
        stroke-width="3" stroke-linecap="round" />
    <path d="M731.979 280.775C735.101 280.1 738.046 279.975 741.214 279.748" stroke="black"
        stroke-width="3" stroke-linecap="round" />
    <path d="M875.648 299.247C883.128 304.333 891.684 308.697 900.278 311.561" stroke="black"
        stroke-width="3" stroke-linecap="round" />
    <path d="M919.777 321.823C922.746 327.018 926.054 332.038 929.013 337.217" stroke="black"
        stroke-width="3" stroke-linecap="round" />
    <path d="M954.668 368.003C955.317 372.868 957.136 377.482 957.747 382.37" stroke="black"
        stroke-width="3" stroke-linecap="round" />
    <path d="M958.773 403.921V421.366" stroke="black" stroke-width="3" stroke-linecap="round" />
    <path
        d="M948.51 445.995C943.086 454.346 938.103 462.128 931.065 469.028C927.134 472.881 922.865 476.203 918.75 479.861"
        stroke="black" stroke-width="3" stroke-linecap="round" />
</svg>