<svg width="521" height="107" viewBox="0 0 521 107" fill="none" xmlns="http://www.w3.org/2000/svg">
<path d="M407.229 101.788L423.473 59.4769C423.905 58.3509 424.97 57.5933 426.175 57.5538L474.452 55.9709C475.802 55.9267 477.015 56.7901 477.416 58.0801L491.038 101.974C491.637 103.904 490.194 105.863 488.173 105.863H410.029C407.925 105.863 406.474 103.753 407.229 101.788Z" stroke="black"/>
<path fill-rule="evenodd" clip-rule="evenodd" d="M448.692 71.5273C436.373 50.9013 421.997 12.8223 451.319 12.8228C480.106 12.8232 465.968 48.1524 453.675 71.363C452.62 73.3537 449.847 73.4612 448.692 71.5273ZM454.052 25.5451C448.828 23.304 445.416 25.3994 445.016 29.8124C444.684 33.482 445.805 37.2045 448.962 39.4215C452.119 41.6384 454.892 40.7105 456.72 36.784C459.487 30.8398 457.57 28.0174 454.544 25.8248C454.392 25.7142 454.225 25.6193 454.052 25.5451Z" fill="#F3F7FF"/>
<path d="M451.319 12.8228L451.319 12.3228L451.319 12.8228ZM448.692 71.5273L449.122 71.2709L448.692 71.5273ZM453.675 71.363L453.233 71.129L453.675 71.363ZM445.016 29.8124L444.518 29.7673L445.016 29.8124ZM454.052 25.5451L453.855 26.0046V26.0046L454.052 25.5451ZM456.72 36.784L457.173 36.995L456.72 36.784ZM454.544 25.8248L454.251 26.2296L454.251 26.2296L454.544 25.8248ZM451.319 12.3228C443.875 12.3226 439.092 14.7467 436.389 18.8181C433.709 22.8561 433.154 28.4042 433.894 34.5004C435.375 46.7002 442.089 61.4474 448.263 71.7837L449.122 71.2709C442.976 60.9813 436.343 46.3759 434.886 34.3799C434.158 28.3781 434.736 23.1174 437.223 19.3711C439.687 15.6583 444.102 13.3226 451.319 13.3228L451.319 12.3228ZM454.117 71.5971C460.265 59.9891 466.913 45.2836 468.398 33.4513C469.14 27.5378 468.606 22.2467 465.972 18.4223C463.318 14.568 458.618 12.3229 451.319 12.3228L451.319 13.3228C458.413 13.3229 462.741 15.4941 465.149 18.9895C467.576 22.5147 468.136 27.5067 467.406 33.3268C465.946 44.9619 459.378 59.5264 453.233 71.129L454.117 71.5971ZM448.263 71.7837C449.625 74.0631 452.886 73.9209 454.117 71.5971L453.233 71.129C452.355 72.7865 450.07 72.8594 449.122 71.2709L448.263 71.7837ZM445.514 29.8575C445.704 27.77 446.591 26.3248 447.953 25.6287C449.328 24.9256 451.32 24.9173 453.855 26.0046L454.249 25.0855C451.56 23.9318 449.234 23.8506 447.498 24.7382C445.747 25.6328 444.729 27.4418 444.518 29.7673L445.514 29.8575ZM449.249 39.0123C446.281 36.9276 445.193 33.4066 445.514 29.8575L444.518 29.7673C444.175 33.5575 445.33 37.4814 448.675 39.8306L449.249 39.0123ZM456.267 36.573C455.381 38.4754 454.312 39.5492 453.179 39.9329C452.064 40.3105 450.748 40.0645 449.249 39.0123L448.675 39.8306C450.333 40.9954 451.982 41.3939 453.5 40.8801C454.999 40.3724 456.231 39.019 457.173 36.995L456.267 36.573ZM454.251 26.2296C455.729 27.3007 456.86 28.4728 457.325 30.0399C457.789 31.6031 457.621 33.6634 456.267 36.573L457.173 36.995C458.586 33.9604 458.843 31.6374 458.284 29.7552C457.726 27.8769 456.385 26.5415 454.838 25.4199L454.251 26.2296ZM453.855 26.0046C453.994 26.064 454.128 26.1405 454.251 26.2296L454.838 25.4199C454.656 25.288 454.457 25.1746 454.249 25.0855L453.855 26.0046Z" fill="black"/>
<path d="M419.449 70.9741C420.454 69.2511 423.584 66.8389 428.064 70.9741C433.664 76.1431 434.525 97.2499 451.325 94.6654C468.124 92.0809 463.386 76.5739 468.124 73.1279C471.915 70.3712 476.595 67.0974 479.324 67.0974" stroke="black" stroke-linejoin="round" stroke-dasharray="6 6"/>
<path d="M508.99 46.9514C509.319 46.3277 509.447 45.5873 509.869 45.0041C510.242 48.1552 512.028 52.3097 514.209 54.9903C515.015 55.9806 516.945 57.7887 518.555 59.0462C518.555 59.0462 514.978 63.3067 514.861 63.4199C514.861 63.4199 512.931 66.8828 512.432 68.3099C512.293 68.7044 512.108 69.6089 511.933 69.9928C511.878 70.113 511.797 70.4447 511.708 70.3303C511.269 69.7699 509.785 67.5131 509.513 66.8776C508.385 65.3367 506.431 63.3379 506.431 63.3379C504.952 62.0465 504.059 61.1941 502.43 60.0232C501.949 59.6772 500.821 58.7657 499.948 58.6492C501.394 57.7993 503.576 55.6909 504.514 54.392C506.26 51.9761 507.624 49.5362 508.99 46.9514Z" stroke="black" stroke-linecap="round" stroke-linejoin="round"/>
<path d="M484.891 25.3561C486.798 22.4019 488.184 19.7731 489.224 16.9131C489.851 18.1048 491.057 21.2258 492.521 22.939C493.098 23.6134 494.361 25.6302 494.322 25.6624C493.201 26.5913 492.312 27.4634 491.85 28.6715C491.44 29.7439 491.567 30.7323 491.377 31.8017C491.282 32.3371 490.442 30.8286 490.442 30.8286C489.579 29.5458 488.433 28.6155 487.18 27.5047C486.905 27.261 485.21 25.4845 484.891 25.3561Z" fill="white"/>
<path d="M489.224 16.9131L489.666 16.6803C489.574 16.5051 489.387 16.4008 489.19 16.4142C488.992 16.4277 488.821 16.5563 488.754 16.7423L489.224 16.9131ZM484.891 25.3561L484.471 25.0849L484.142 25.5939L484.704 25.82L484.891 25.3561ZM487.18 27.5047L486.848 27.8788L487.18 27.5047ZM490.442 30.8286L490.879 30.5855L490.869 30.567L490.857 30.5495L490.442 30.8286ZM491.377 31.8017L491.869 31.8891L491.377 31.8017ZM491.85 28.6715L492.317 28.85L491.85 28.6715ZM494.322 25.6624L494.003 25.2773L494.003 25.2773L494.322 25.6624ZM492.521 22.939L492.141 23.2638H492.141L492.521 22.939ZM488.754 16.7423C487.73 19.5578 486.364 22.1527 484.471 25.0849L485.311 25.6274C487.233 22.6511 488.638 19.9884 489.693 17.0839L488.754 16.7423ZM484.704 25.82C484.668 25.8056 484.678 25.8028 484.759 25.8672C484.824 25.9188 484.909 25.9915 485.009 26.0824C485.209 26.2635 485.453 26.4993 485.701 26.7434C486.178 27.2135 486.698 27.7459 486.848 27.8788L487.512 27.1305C487.387 27.0198 486.922 26.5421 486.403 26.031C486.153 25.7844 485.896 25.5368 485.68 25.3411C485.572 25.2436 485.47 25.1545 485.38 25.0834C485.307 25.0252 485.193 24.9388 485.077 24.8922L484.704 25.82ZM486.848 27.8788C488.126 29.0116 489.209 29.8914 490.028 31.1078L490.857 30.5495C489.949 29.2002 488.74 28.2194 487.512 27.1305L486.848 27.8788ZM490.442 30.8286C490.006 31.0717 490.006 31.0717 490.006 31.0718C490.006 31.0718 490.006 31.0719 490.006 31.0719C490.006 31.072 490.006 31.0722 490.006 31.0723C490.006 31.0726 490.006 31.073 490.006 31.0735C490.007 31.0744 490.008 31.0757 490.009 31.0774C490.011 31.0807 490.013 31.0854 490.017 31.0914C490.023 31.1034 490.033 31.1204 490.045 31.1418C490.07 31.1843 490.105 31.2441 490.147 31.314C490.23 31.4522 490.346 31.6365 490.467 31.8067C490.576 31.9587 490.732 32.1616 490.899 32.2816C490.959 32.3251 491.18 32.4776 491.458 32.391C491.776 32.2919 491.85 31.994 491.869 31.8891L490.884 31.7143C490.885 31.7124 490.892 31.6704 490.925 31.6158C490.964 31.5534 491.04 31.474 491.16 31.4363C491.274 31.4009 491.368 31.4212 491.413 31.4364C491.458 31.4512 491.482 31.4689 491.482 31.4695C491.483 31.4701 491.462 31.4531 491.418 31.4021C491.377 31.3554 491.331 31.2953 491.281 31.2252C491.181 31.0852 491.08 30.9258 491.003 30.7979C490.965 30.7348 490.934 30.6809 490.912 30.643C490.901 30.6241 490.893 30.6093 490.887 30.5994C490.884 30.5945 490.882 30.5908 490.881 30.5884C490.88 30.5873 490.88 30.5864 490.88 30.5859C490.879 30.5857 490.879 30.5855 490.879 30.5855C490.879 30.5854 490.879 30.5854 490.879 30.5854C490.879 30.5854 490.879 30.5855 490.879 30.5855C490.879 30.5855 490.879 30.5855 490.442 30.8286ZM491.869 31.8891C491.969 31.3243 491.989 30.7608 492.029 30.2797C492.071 29.7816 492.137 29.3211 492.317 28.85L491.383 28.493C491.153 29.0943 491.078 29.6642 491.033 30.1957C490.987 30.7443 490.974 31.2096 490.884 31.7143L491.869 31.8891ZM492.317 28.85C492.73 27.771 493.529 26.9686 494.641 26.0475L494.003 25.2773C492.872 26.2139 491.894 27.1558 491.383 28.493L492.317 28.85ZM494.641 26.0475C494.828 25.8926 494.824 25.6823 494.823 25.6521C494.822 25.5909 494.81 25.5435 494.805 25.5254C494.794 25.4837 494.78 25.4497 494.773 25.4346C494.758 25.3986 494.738 25.3604 494.72 25.3274C494.683 25.2577 494.63 25.1659 494.567 25.0616C494.442 24.8512 494.266 24.5698 494.072 24.2701C493.691 23.6797 493.214 22.9801 492.901 22.6142L492.141 23.2638C492.405 23.5722 492.848 24.2183 493.233 24.813C493.422 25.1058 493.591 25.3768 493.709 25.5746C493.769 25.6745 493.813 25.7508 493.839 25.8003C493.853 25.8268 493.857 25.8359 493.856 25.8333C493.856 25.8317 493.854 25.8272 493.851 25.8203C493.849 25.8143 493.844 25.8006 493.839 25.782C493.835 25.7687 493.824 25.7251 493.823 25.6668C493.823 25.6396 493.818 25.4312 494.003 25.2773L494.641 26.0475ZM492.901 22.6142C492.213 21.8082 491.568 20.6478 491.007 19.5096C490.729 18.9447 490.476 18.3952 490.252 17.9074C490.03 17.4253 489.83 16.9926 489.666 16.6803L488.781 17.1459C488.93 17.4294 489.117 17.8338 489.343 18.3256C489.567 18.8117 489.825 19.373 490.11 19.9514C490.676 21.1 491.366 22.3567 492.141 23.2638L492.901 22.6142Z" fill="black"/>
<path d="M418.074 51.4206C415.687 47.7988 413.646 47.354 412.346 43.8477C411.561 45.3087 409.749 46.8302 407.917 48.9306C407.196 49.7573 405.664 52.2695 405.664 52.2695C407.067 53.4082 410.336 58.5003 410.914 59.9814C411.994 58.4087 413.301 56.3596 414.733 54.7132C415.077 54.4145 418.074 51.4206 418.074 51.4206Z" fill="white" stroke="black" stroke-linecap="round" stroke-linejoin="round"/>
<path d="M80.8772 40.3911C62.6134 40.3911 65.801 54.1751 65.801 64.5131C53.3092 64.5131 53.74 82.1739 53.7401 93.3734L53.7401 93.5579C53.7392 99.509 53.7385 104.573 61.9244 104.573C67.5242 104.573 67.5242 101.558 67.5242 95.0964H128.691C128.691 95.0964 127.829 104.573 135.152 104.573C139.029 104.573 144.198 104.573 144.198 93.3734C144.198 78.2971 145.921 64.5131 135.152 64.5131C135.152 64.5131 140.321 40.3911 122.229 40.3911H80.8772Z" stroke="black"/>
<path d="M96.5314 59.6629L73.9854 60.174C74.3295 55.706 74.8864 54.4995 76.4234 52.6201C77.9603 50.7407 81.3041 49.5007 89.1466 50.1043C96.2455 50.6507 97.0297 56.2052 96.5314 59.6629Z" fill="#F3F7FF" stroke="black"/>
<path d="M115.769 64.9432C139.768 64.9424 137.092 83.9776 135.069 87.6991C133.047 91.4206 115.769 89.4959 97.6774 89.4959C79.5859 89.4959 64.3344 90.9828 62.7126 87.6991C61.0908 84.4154 61.9253 73.5577 67.0941 69.2515C73.9857 63.51 89.256 64.944 115.769 64.9432Z" fill="#F3F7FF" stroke="black"/>
<path d="M125.676 59.9366L104.479 59.9365C104.479 54.1757 105.862 52.1976 108.015 51.1605C110.951 49.7466 114.663 49.4558 120.076 49.8677C125.49 50.2796 126.504 55.9768 125.676 59.9366Z" fill="#F3F7FF" stroke="black"/>
<path d="M5.00521 58.953C5.14024 58.6976 5.19264 58.3943 5.36547 58.1554C5.51798 59.4461 6.24958 61.1478 7.14292 62.2457C7.47298 62.6514 8.26381 63.3919 8.92298 63.907C8.92298 63.907 7.4579 65.6521 7.41012 65.6985C7.41012 65.6985 6.61946 67.1169 6.41497 67.7014C6.35844 67.863 6.28267 68.2335 6.21063 68.3907C6.18806 68.44 6.15514 68.5758 6.11849 68.529C5.93889 68.2994 5.33092 67.375 5.21943 67.1147C4.75772 66.4836 3.95708 65.6649 3.95708 65.6649C3.3515 65.136 2.9855 64.7868 2.31849 64.3072C2.12138 64.1655 1.65928 63.7921 1.30169 63.7444C1.89406 63.3963 2.78773 62.5327 3.17213 62.0007C3.8871 61.0111 4.44563 60.0118 5.00521 58.953Z" stroke="black" stroke-linecap="round" stroke-linejoin="round"/>
<path d="M53.5586 35.3272C51.353 31.9804 49.4669 31.5694 48.2652 28.3293C47.5402 29.6795 45.8653 31.0854 44.1727 33.0263C43.5065 33.7902 42.0905 36.1115 42.0905 36.1115C43.3873 37.1638 46.408 41.8692 46.9419 43.2378C47.9399 41.7845 49.1474 39.891 50.4708 38.3697C50.7886 38.0937 53.5586 35.3272 53.5586 35.3272Z" fill="white" stroke="black" stroke-linecap="round" stroke-linejoin="round"/>
<path d="M23.5124 84.179C23.9741 84.1315 24.4139 84.0863 24.831 84.0626C24.7252 84.8966 24.5472 85.9588 24.4175 86.6643L24.4157 86.6742L24.4143 86.6843C24.3321 87.2619 24.2799 87.5767 24.2286 87.7615C24.2173 87.8021 24.2078 87.8297 24.2009 87.8478C24.1885 87.8519 24.1716 87.8574 24.1487 87.8644C24.1391 87.8673 24.1287 87.8705 24.1174 87.8739C24.053 87.8933 23.9622 87.9207 23.8603 87.9587C23.6098 88.0522 23.2988 88.2061 22.898 88.5089C22.5716 88.7556 22.244 89.1969 22.0191 89.6759C21.7952 90.1529 21.6324 90.7541 21.7354 91.3332C21.7925 91.7296 21.9712 92.0618 22.3068 92.25C22.6139 92.4221 22.9606 92.4187 23.236 92.3815C23.5204 92.3431 23.8169 92.2553 24.0745 92.1736C24.1437 92.1517 24.2097 92.1303 24.2729 92.1099C24.3327 92.0906 24.39 92.072 24.4452 92.0545C24.8548 92.6095 25.3128 92.964 25.8078 93.1065C26.4069 93.2789 26.9649 93.1134 27.3987 92.7916C27.8238 92.4763 28.1437 92.0051 28.3301 91.5035C28.5166 91.0014 28.5848 90.4272 28.4562 89.8909L28.4563 89.8909L28.454 89.8819C28.3878 89.6268 28.3257 89.434 28.2811 89.2955C28.2685 89.2566 28.2574 89.222 28.2479 89.1915C28.2029 89.0465 28.2038 89.0167 28.2056 88.9944C28.2086 88.9575 28.2247 88.8818 28.3161 88.668C28.3774 88.5244 28.4597 88.3468 28.5714 88.1058C28.6235 87.9933 28.682 87.867 28.7478 87.7238L28.7536 87.7112L28.7587 87.6983C28.9411 87.2351 29.18 86.8491 29.44 86.4502C29.4684 86.4066 29.4973 86.3626 29.5264 86.3182C29.6771 86.0884 29.8355 85.8468 29.9819 85.5879C30.1997 85.6901 30.4141 85.8074 30.6346 85.9339C30.7216 85.9838 30.8109 86.036 30.9021 86.0893C31.171 86.2465 31.4564 86.4133 31.748 86.5598C32.5603 86.9678 33.4967 87.2603 34.7613 87.0556L35.0498 87.0089L35.1507 86.7346C35.5161 85.7405 35.5955 84.9253 35.4412 84.2274C35.2861 83.5255 34.9082 83.0042 34.4771 82.5778C34.1797 82.2837 33.8275 82.0094 33.5023 81.7562C33.3769 81.6585 33.2555 81.564 33.1428 81.4727C32.7909 81.1875 32.489 80.9091 32.2618 80.5908C32.3081 80.4973 32.358 80.3983 32.4099 80.2951C32.6052 79.9072 32.831 79.4588 33.0194 79.0135C33.312 78.3218 33.5642 77.5341 33.5642 76.7386C33.5642 75.9161 33.3943 75.039 32.9074 74.394C32.3902 73.7086 31.5724 73.3608 30.4824 73.5319C29.6417 73.656 28.9942 73.9792 28.4877 74.4384C27.9877 74.8917 27.6478 75.4569 27.3856 76.0316C27.1722 76.4992 26.9992 76.9998 26.8377 77.4672C26.8028 77.5683 26.7684 77.6679 26.7342 77.7652C26.5724 78.2264 26.4145 78.643 26.2247 79.0023C25.4964 79.028 24.5984 79.1443 23.7407 79.3236C22.7739 79.5257 21.7964 79.8203 21.1589 80.1919L21.1588 80.1919L21.152 80.196C20.7198 80.4573 20.1441 80.9976 19.6806 81.5811C19.4452 81.8775 19.2259 82.2007 19.0633 82.5239C18.9045 82.8395 18.7793 83.1951 18.7793 83.5452V83.8874L19.0982 84.0113C20.0614 84.3856 21.225 84.374 22.313 84.2912C22.7277 84.2596 23.1277 84.2185 23.5124 84.179ZM24.1875 87.8771C24.1875 87.877 24.1881 87.8758 24.1894 87.8739C24.1882 87.8762 24.1875 87.8772 24.1875 87.8771Z" fill="#F3F7FF" stroke="black"/>
<path d="M22.2945 69.2509V43.651C22.2945 41.8959 23.7946 40.5156 25.5437 40.6614L29.9667 41.03C31.4858 41.1566 32.6685 42.4023 32.7161 43.9259L33.494 68.8201M22.2945 69.2509L17.7763 68.9851C16.1985 68.8923 14.8362 70.0407 14.7396 71.6183C14.6378 73.2801 14.541 75.6651 14.541 78.7274C14.541 83.2318 14.7504 91.2952 14.8772 95.7661C14.9264 97.503 16.4372 98.8285 18.1727 98.7412C24.3646 98.4299 32.3523 98.668 36.5862 98.8387C38.2215 98.9047 39.6175 97.6652 39.7137 96.0314C39.8294 94.0681 39.9553 91.5569 39.9553 89.9269C39.9553 87.2245 39.6093 77.0689 39.5375 70.817C39.5248 69.7125 38.6291 68.8201 37.5245 68.8201H33.494M22.2945 69.2509L33.494 68.8201" stroke="black"/>
<path d="M21.3625 101.557C21.3625 102.365 21.2524 102.851 20.948 103.199C20.6381 103.552 20.0397 103.862 18.806 104.073C18.0133 104.069 17.4229 103.956 17.025 103.642C16.6469 103.343 16.332 102.769 16.332 101.557C16.332 100.816 16.5377 100.314 16.8581 99.9954C17.179 99.6767 17.6852 99.4729 18.4283 99.4729C19.2359 99.4729 19.9854 99.5808 20.5192 99.8901C21.0067 100.173 21.3625 100.649 21.3625 101.557Z" stroke="black"/>
<path d="M38.8819 103.17C38.6493 103.795 38.2197 104.163 37.6655 104.278C37.0985 104.395 36.3214 104.26 35.3932 103.696C34.8727 103.22 34.5695 102.795 34.5151 102.343C34.4617 101.898 34.6341 101.273 35.4563 100.363C35.9618 99.8038 36.4448 99.5541 36.8717 99.513C37.2891 99.4728 37.7463 99.6229 38.2294 100.06C39.1638 100.904 39.2964 102.058 38.8819 103.17Z" stroke="black"/>
<path d="M365.03 55.6416C365.03 55.6416 365.247 59.3245 365.03 62.5741C364.813 65.8236 365.03 69.0732 365.03 69.0732" stroke="black" stroke-linecap="round" stroke-linejoin="round"/>
<path d="M371.2 62.1975C371.2 62.1975 367.196 62.3572 364.813 62.5738C362.43 62.7904 358.563 62.8273 358.563 62.8273" stroke="black" stroke-linecap="round" stroke-linejoin="round"/>
<path d="M184.696 56.7578C184.696 56.7578 184.913 60.4407 184.696 63.6903C184.479 66.9398 184.696 70.1894 184.696 70.1894" stroke="black" stroke-linecap="round" stroke-linejoin="round"/>
<path d="M190.866 63.3137C190.866 63.3137 186.862 63.4734 184.479 63.69C182.096 63.9067 178.229 63.9436 178.229 63.9436" stroke="black" stroke-linecap="round" stroke-linejoin="round"/>
<path d="M251.885 101.557C250.85 99.1445 251.024 92.6545 251.455 87.342C247.665 78.727 251.024 70.2555 253.177 67.0967C254.47 61.9266 257.055 52.453 262.223 49.4375C267.391 46.422 306.159 45.5611 310.898 49.4373C313.794 51.806 315.404 57.8175 317.79 64.0831C319.308 68.0708 320.901 72.674 321.235 74.8519C321.897 79.1594 321.235 83.0341 321.235 83.0341C321.235 83.0341 322.096 103.71 317.789 104.571C316.1 104.909 310.899 105.435 309.606 103.712C308.314 101.989 307.74 97.2509 307.883 95.5279C294.387 94.9536 264.807 95.5279 264.807 95.5279C264.807 95.5279 264.808 102.851 262.223 104.573C260.431 105.767 256.462 105.886 255.331 105.433C253.178 104.573 252.919 103.969 251.885 101.557Z" stroke="black"/>
<path d="M258.346 69.6818C258.52 68.9878 259.137 65.6097 260.001 61.8761C261.54 55.2173 266.423 50.8425 273.253 50.5844C282.302 50.2425 295.302 50.6152 304.007 51.1587C310.087 51.5384 311.76 62.7898 313.052 69.6818C313.614 72.6755 257.915 71.4055 258.346 69.6818Z" fill="#F3F7FF" stroke="black"/>
<path d="M265.146 85.4634C264.751 86.5239 264.005 87.1768 263.031 87.3774C262.045 87.5806 260.746 87.3352 259.242 86.4163C258.403 85.6514 257.854 84.9219 257.756 84.1013C257.658 83.2873 257.988 82.2288 259.302 80.7754C260.124 79.8659 260.941 79.4247 261.703 79.3513C262.455 79.2788 263.247 79.5561 264.048 80.2797C265.617 81.6982 265.826 83.6375 265.146 85.4634Z" fill="#F3F7FF" stroke="black"/>
<path d="M314.251 85.4634C313.856 86.5239 313.11 87.1768 312.137 87.3774C311.151 87.5806 309.851 87.3352 308.348 86.4163C307.508 85.6514 306.96 84.9219 306.861 84.1013C306.764 83.2873 307.094 82.2288 308.407 80.7754C309.229 79.8659 310.047 79.4247 310.808 79.3513C311.56 79.2788 312.352 79.5561 313.153 80.2797C314.723 81.6982 314.931 83.6375 314.251 85.4634Z" fill="#F3F7FF" stroke="black"/>
<path d="M240.425 67.5968L225.441 43.3377C224.579 41.9419 224.998 40.1124 226.382 39.231L284.273 2.35529C285.66 1.47189 287.499 1.86947 288.398 3.24676L291.341 7.76013C292.341 9.29296 291.667 11.4174 290.707 12.975C289.715 14.5833 289.261 16.9621 290.653 20.1445C292.294 23.8951 295.224 24.2705 297.653 23.63C299.333 23.1868 301.311 23.5684 302.195 25.0645L304.641 29.2042C305.481 30.6258 305.014 32.4591 303.597 33.3059L244.516 68.5958C243.108 69.4366 241.287 68.9917 240.425 67.5968Z" fill="#F3F7FF" stroke="black"/>
<path d="M265.238 25.7429L273.853 38.2347" stroke="black" stroke-linecap="round" stroke-linejoin="round"/>
<path d="M263.516 26.7041C265.526 24.8375 270.408 21.9662 272.131 23.6892C274.284 25.843 273.423 28.9096 266.962 32.7864" stroke="black" stroke-linecap="round" stroke-linejoin="round"/>
<path d="M268.686 35.32L275.147 31.0125" stroke="black" stroke-linecap="round" stroke-linejoin="round"/>
<path d="M243.314 39.4591C243.314 39.4591 238.448 41.8159 238.254 42.1325C238.207 42.2083 238.543 42.7035 238.573 42.7749C238.848 43.41 239.083 44.0659 239.332 44.7109C239.715 45.7012 240.047 46.7476 240.543 47.69C240.595 47.7886 240.701 48.2255 240.787 47.9974C240.889 47.7246 241.335 47.4922 241.573 47.3478C242.265 46.9271 243.07 46.774 243.866 46.6694C245.544 46.4492 246.936 47.0513 247.814 48.3351C248.249 48.9718 248.447 50.2533 248.554 51.0049C248.403 51.9598 248.452 52.2618 247.821 53.1292C246.683 54.3098 245.2 55.2739 243.449 55.1181C243.018 55.0798 242.515 54.9327 242.225 54.6102C242.037 54.4018 241.912 54.1412 241.721 53.9434" stroke="black" stroke-linecap="round"/>
<path d="M250.826 47.1527C248.395 44.9877 247.821 41.9237 246.92 38.8215C246.758 38.2633 246.751 37.3567 246.751 37.3567C246.844 36.7726 247.085 36.3091 247.486 35.9333C248.145 35.3164 249.04 35.0808 249.908 35.2229C250.602 35.3366 251.314 35.8072 251.938 36.1946C252.641 36.631 253.278 37.0403 253.874 37.6765C255.401 39.3043 256.226 41.5976 256.65 43.8252C256.849 44.8744 257.051 46.1375 256.503 47.0245C256.078 47.7138 255.565 48.1123 254.841 48.3143C253.511 48.6854 251.949 48.1533 250.826 47.1527Z" stroke="black" stroke-linecap="round"/>
<path d="M261.824 30.9193C264.448 32.7814 265.218 35.7057 266.327 38.634C266.526 39.161 266.587 40.0426 266.587 40.0426C266.526 40.6205 266.305 41.0959 265.916 41.5021C265.277 42.1689 264.372 42.4884 263.472 42.4376C262.753 42.3969 261.994 42.0107 261.331 41.6965C260.584 41.3425 259.906 41.0083 259.256 40.4493C257.592 39.0189 256.61 36.8701 256.043 34.7448C255.776 33.7438 255.494 32.5348 256.004 31.6163C256.4 30.9026 256.903 30.463 257.634 30.1934C258.977 29.6983 260.612 30.0587 261.824 30.9193Z" stroke="black" stroke-linecap="round"/>
<path d="M247.52 15.194C245.658 12.3693 244.066 12.0225 243.052 9.28784C242.44 10.4274 241.026 11.614 239.598 13.2521C239.036 13.8968 237.84 15.856 237.84 15.856C238.935 16.7442 241.484 20.7155 241.935 21.8706C242.777 20.644 243.797 19.0459 244.913 17.762C245.182 17.529 247.52 15.194 247.52 15.194Z" fill="white" stroke="black" stroke-linecap="round" stroke-linejoin="round"/>
<path d="M325.746 38.5417C323.885 35.717 322.293 35.3701 321.278 32.6355C320.667 33.775 319.253 34.9616 317.824 36.5997C317.262 37.2445 316.067 39.2037 316.067 39.2037C317.162 40.0918 319.711 44.0632 320.162 45.2183C321.004 43.9917 322.023 42.3936 323.14 41.1096C323.408 40.8766 325.746 38.5417 325.746 38.5417Z" fill="white" stroke="black" stroke-linecap="round" stroke-linejoin="round"/>
</svg>
