<svg width="868" height="1561" viewBox="0 0 868 1561" fill="none" xmlns="http://www.w3.org/2000/svg">
    <path
        d="M550.661 1696.29C549.724 1701.74 544.552 1705.39 539.109 1704.45C533.666 1703.52 530.014 1698.34 530.951 1692.9L550.661 1696.29ZM304.972 1361.43L301.738 1370.89L304.972 1361.43ZM438.955 1136.73L446.014 1129.65L438.955 1136.73ZM790.772 881.297L800.552 883.383L790.772 881.297ZM300.609 592.617L295.825 583.835L300.609 592.617ZM530.951 1692.9C557.299 1539.9 542.454 1477.65 504.218 1444.3C484.567 1427.15 457.677 1416.57 423.078 1406.33C389.14 1396.29 347.358 1386.48 301.738 1370.89L308.206 1351.97C353.485 1367.44 393.209 1376.63 428.753 1387.15C463.636 1397.48 494.206 1409.02 517.364 1429.22C564.746 1470.55 576.918 1543.82 550.661 1696.29L530.951 1692.9ZM301.738 1370.89C246.715 1352.09 215.839 1316.14 204.382 1275.09C193.049 1234.49 201.003 1190.02 221.213 1153.86C241.411 1117.73 274.547 1088.71 314.874 1080.45C355.671 1072.09 401.617 1085.41 446.014 1129.65L431.897 1143.82C391.171 1103.23 351.748 1093.31 318.888 1100.04C285.557 1106.87 256.748 1131.28 238.671 1163.62C220.605 1195.94 213.954 1234.99 223.645 1269.71C233.211 1303.99 258.988 1335.15 308.206 1351.97L301.738 1370.89ZM446.014 1129.65C510.178 1193.59 559.341 1223.14 597.219 1229.73C615.86 1232.98 631.778 1230.67 645.749 1224.12C659.841 1217.51 672.557 1206.29 684.17 1190.82C707.574 1159.64 725.34 1112.76 740.539 1057.51C755.692 1002.41 767.956 940.354 780.992 879.212L800.552 883.383C787.616 944.054 775.178 1006.98 759.822 1062.81C744.512 1118.47 725.962 1168.46 700.166 1202.83C687.18 1220.13 672.075 1233.86 654.241 1242.23C636.284 1250.65 616.17 1253.33 593.789 1249.44C549.622 1241.75 496.778 1208.47 431.897 1143.82L446.014 1129.65ZM780.992 879.212C788.098 845.886 777.859 803.767 753.078 760.491C728.433 717.452 690.07 674.501 643.148 640.032C549.174 570.999 423.038 537.312 305.392 601.399L295.825 583.835C422.544 514.806 557.144 552.037 654.988 623.913C703.975 659.898 744.291 704.899 770.434 750.553C796.442 795.971 809.101 843.288 800.552 883.383L780.992 879.212ZM305.392 601.399C241.764 636.06 180.793 635.98 131.605 610.249C82.705 584.668 46.9167 534.512 31.5486 471.724C0.738042 345.845 51.2828 168.3 242.896 22.7843L254.992 38.7121C68.2645 180.517 22.4593 350.465 50.9751 466.969C65.2702 525.373 98.0641 570.131 140.876 592.527C183.401 614.773 237.271 615.732 295.825 583.835L305.392 601.399Z"
        fill="#F4FF70" />
    <path
        d="M305.295 1360.48C305.818 1360.66 306.097 1361.23 305.918 1361.75C305.74 1362.27 305.171 1362.55 304.649 1362.38L305.295 1360.48ZM438.956 1136.73L439.662 1136.02L438.956 1136.73ZM790.772 881.297L791.75 881.506L790.772 881.297ZM300.609 592.617L300.13 591.739L300.609 592.617ZM299.771 1360.64C299.253 1360.45 298.989 1359.87 299.182 1359.35C299.374 1358.83 299.949 1358.57 300.467 1358.76L299.771 1360.64ZM291.231 1355.05C291.738 1355.27 291.971 1355.86 291.751 1356.37C291.531 1356.87 290.942 1357.11 290.436 1356.89L291.231 1355.05ZM281.322 1352.62C280.829 1352.37 280.631 1351.77 280.88 1351.27C281.129 1350.78 281.73 1350.58 282.223 1350.83L281.322 1352.62ZM273.516 1346.09C273.992 1346.37 274.152 1346.99 273.873 1347.46C273.594 1347.94 272.981 1348.1 272.505 1347.82L273.516 1346.09ZM263.954 1342.42C263.498 1342.11 263.379 1341.48 263.69 1341.03C264.001 1340.57 264.623 1340.45 265.079 1340.76L263.954 1342.42ZM257.146 1334.95C257.58 1335.29 257.654 1335.92 257.311 1336.35C256.969 1336.79 256.34 1336.86 255.907 1336.52L257.146 1334.95ZM248.169 1329.92C247.763 1329.54 247.737 1328.91 248.111 1328.5C248.485 1328.1 249.118 1328.07 249.524 1328.45L248.169 1329.92ZM242.523 1321.47C242.899 1321.87 242.874 1322.5 242.469 1322.88C242.064 1323.26 241.432 1323.23 241.056 1322.83L242.523 1321.47ZM234.505 1315.15C234.164 1314.72 234.24 1314.09 234.674 1313.75C235.108 1313.41 235.737 1313.48 236.078 1313.92L234.505 1315.15ZM230.27 1305.85C230.574 1306.31 230.446 1306.93 229.984 1307.24C229.523 1307.54 228.903 1307.41 228.599 1306.95L230.27 1305.85ZM223.423 1298.32C223.159 1297.84 223.338 1297.23 223.824 1296.96C224.309 1296.7 224.916 1296.88 225.18 1297.36L223.423 1298.32ZM220.802 1288.45C221.025 1288.96 220.796 1289.55 220.29 1289.77C219.785 1289.99 219.194 1289.76 218.972 1289.26L220.802 1288.45ZM215.29 1279.86C215.11 1279.33 215.387 1278.77 215.909 1278.59C216.431 1278.41 217.001 1278.68 217.181 1279.2L215.29 1279.86ZM214.325 1269.7C214.463 1270.24 214.141 1270.78 213.606 1270.92C213.071 1271.06 212.526 1270.74 212.388 1270.2L214.325 1269.7ZM210.256 1260.34C210.16 1259.8 210.523 1259.28 211.067 1259.18C211.611 1259.09 212.13 1259.45 212.225 1259.99L210.256 1260.34ZM210.873 1250.15C210.928 1250.7 210.527 1251.19 209.977 1251.25C209.428 1251.3 208.938 1250.9 208.883 1250.35L210.873 1250.15ZM208.248 1240.29C208.233 1239.74 208.668 1239.28 209.221 1239.26C209.773 1239.25 210.232 1239.68 210.247 1240.23L208.248 1240.29ZM210.325 1230.29C210.301 1230.84 209.835 1231.27 209.283 1231.25C208.732 1231.22 208.303 1230.76 208.326 1230.2L210.325 1230.29ZM209.09 1220.16C209.151 1219.61 209.644 1219.21 210.193 1219.27C210.742 1219.33 211.139 1219.83 211.079 1220.38L209.09 1220.16ZM212.484 1210.53C212.388 1211.07 211.87 1211.43 211.326 1211.34C210.782 1211.24 210.418 1210.72 210.514 1210.18L212.484 1210.53ZM212.57 1200.31C212.7 1199.78 213.24 1199.45 213.777 1199.58C214.314 1199.71 214.644 1200.25 214.514 1200.78L212.57 1200.31ZM217.146 1191.19C216.984 1191.72 216.424 1192.01 215.897 1191.85C215.369 1191.69 215.072 1191.13 215.235 1190.6L217.146 1191.19ZM218.488 1181.06C218.682 1180.55 219.259 1180.29 219.776 1180.48C220.293 1180.67 220.555 1181.25 220.36 1181.77L218.488 1181.06ZM224.136 1172.56C223.911 1173.07 223.32 1173.29 222.815 1173.07C222.311 1172.84 222.084 1172.25 222.309 1171.75L224.136 1172.56ZM226.687 1162.67C226.942 1162.18 227.545 1161.99 228.035 1162.24C228.525 1162.5 228.716 1163.1 228.461 1163.59L226.687 1162.67ZM233.32 1154.9C233.036 1155.38 232.421 1155.53 231.948 1155.25C231.474 1154.96 231.321 1154.35 231.605 1153.87L233.32 1154.9ZM237.046 1145.41C237.358 1144.95 237.981 1144.84 238.436 1145.15C238.891 1145.46 239.007 1146.08 238.694 1146.54L237.046 1145.41ZM244.592 1138.51C244.251 1138.95 243.622 1139.02 243.188 1138.68C242.753 1138.34 242.678 1137.71 243.019 1137.28L244.592 1138.51ZM249.5 1129.56C249.869 1129.14 250.501 1129.11 250.912 1129.48C251.323 1129.85 251.358 1130.48 250.989 1130.89L249.5 1129.56ZM257.869 1123.73C257.473 1124.11 256.839 1124.1 256.454 1123.71C256.069 1123.31 256.078 1122.68 256.474 1122.29L257.869 1123.73ZM263.952 1115.52C264.374 1115.16 265.005 1115.22 265.361 1115.64C265.716 1116.06 265.662 1116.69 265.24 1117.05L263.952 1115.52ZM273.077 1110.93C272.629 1111.25 272.004 1111.15 271.681 1110.71C271.358 1110.26 271.459 1109.63 271.907 1109.31L273.077 1110.93ZM280.308 1103.73C280.78 1103.45 281.395 1103.6 281.682 1104.07C281.969 1104.54 281.819 1105.16 281.347 1105.44L280.308 1103.73ZM290.033 1100.64C289.538 1100.89 288.938 1100.69 288.691 1100.19C288.444 1099.7 288.645 1099.1 289.139 1098.85L290.033 1100.64ZM298.36 1094.73C298.873 1094.53 299.454 1094.78 299.657 1095.3C299.86 1095.81 299.608 1096.39 299.094 1096.59L298.36 1094.73ZM308.467 1093.37C307.937 1093.53 307.381 1093.22 307.226 1092.69C307.07 1092.16 307.373 1091.61 307.903 1091.45L308.467 1093.37ZM317.726 1089.06C318.268 1088.95 318.793 1089.31 318.899 1089.85C319.004 1090.39 318.65 1090.92 318.108 1091.02L317.726 1089.06ZM327.908 1089.59C327.359 1089.65 326.87 1089.25 326.816 1088.7C326.762 1088.15 327.164 1087.66 327.714 1087.6L327.908 1089.59ZM337.779 1087.1C338.331 1087.1 338.78 1087.55 338.781 1088.1C338.782 1088.65 338.336 1089.1 337.784 1089.1L337.779 1087.1ZM347.708 1089.54C347.158 1089.49 346.753 1089.01 346.803 1088.46C346.854 1087.91 347.34 1087.5 347.89 1087.55L347.708 1089.54ZM357.891 1088.93C358.434 1089.03 358.794 1089.55 358.694 1090.09C358.594 1090.64 358.073 1091 357.529 1090.9L357.891 1088.93ZM367.148 1093.1C366.616 1092.95 366.302 1092.4 366.449 1091.87C366.595 1091.34 367.145 1091.03 367.677 1091.17L367.148 1093.1ZM377.362 1094.26C377.881 1094.45 378.149 1095.03 377.959 1095.55C377.77 1096.06 377.196 1096.33 376.678 1096.14L377.362 1094.26ZM385.8 1099.86C385.296 1099.64 385.073 1099.05 385.3 1098.54C385.527 1098.04 386.12 1097.81 386.623 1098.04L385.8 1099.86ZM395.661 1102.52C396.147 1102.78 396.329 1103.38 396.067 1103.87C395.805 1104.36 395.199 1104.54 394.712 1104.28L395.661 1102.52ZM403.325 1109.28C402.857 1108.99 402.714 1108.37 403.006 1107.9C403.299 1107.44 403.916 1107.29 404.384 1107.58L403.325 1109.28ZM412.717 1113.13C413.168 1113.45 413.275 1114.08 412.955 1114.53C412.636 1114.98 412.012 1115.08 411.561 1114.76L412.717 1113.13ZM419.577 1120.77C419.144 1120.43 419.07 1119.8 419.413 1119.37C419.756 1118.93 420.385 1118.86 420.818 1119.2L419.577 1120.77ZM428.493 1125.59C428.909 1125.95 428.952 1126.58 428.588 1127C428.225 1127.42 427.594 1127.46 427.178 1127.1L428.493 1125.59ZM434.558 1133.84C434.158 1133.46 434.143 1132.82 434.525 1132.42C434.906 1132.03 435.539 1132.01 435.939 1132.39L434.558 1133.84ZM443.317 1139.65C443.71 1140.03 443.715 1140.67 443.327 1141.06C442.94 1141.45 442.307 1141.46 441.913 1141.07L443.317 1139.65ZM449.153 1148.12C448.755 1147.74 448.743 1147.1 449.126 1146.7C449.509 1146.31 450.142 1146.29 450.54 1146.68L449.153 1148.12ZM457.647 1153.43C458.05 1153.81 458.07 1154.44 457.692 1154.84C457.315 1155.24 456.682 1155.26 456.279 1154.89L457.647 1153.43ZM463.432 1161.51C463.025 1161.13 462.996 1160.5 463.368 1160.09C463.741 1159.69 464.373 1159.66 464.781 1160.03L463.432 1161.51ZM472.327 1166.82C472.741 1167.18 472.779 1167.81 472.413 1168.23C472.047 1168.64 471.415 1168.68 471.002 1168.31L472.327 1166.82ZM478.437 1174.79C478.018 1174.43 477.969 1173.8 478.329 1173.38C478.688 1172.96 479.32 1172.92 479.739 1173.28L478.437 1174.79ZM487.17 1179.54C487.595 1179.89 487.655 1180.52 487.303 1180.95C486.95 1181.37 486.32 1181.43 485.895 1181.08L487.17 1179.54ZM493.79 1187.49C493.357 1187.14 493.286 1186.51 493.629 1186.08C493.973 1185.65 494.602 1185.58 495.035 1185.92L493.79 1187.49ZM502.74 1191.92C503.18 1192.26 503.265 1192.88 502.93 1193.32C502.595 1193.76 501.968 1193.85 501.528 1193.51L502.74 1191.92ZM509.5 1199.44C509.053 1199.12 508.953 1198.49 509.278 1198.05C509.602 1197.6 510.227 1197.5 510.674 1197.82L509.5 1199.44ZM518.832 1203.58C519.287 1203.9 519.403 1204.52 519.09 1204.97C518.778 1205.43 518.155 1205.54 517.7 1205.23L518.832 1203.58ZM525.741 1210.59C525.277 1210.29 525.144 1209.67 525.443 1209.21C525.743 1208.74 526.362 1208.61 526.826 1208.91L525.741 1210.59ZM535.443 1214.27C535.917 1214.56 536.07 1215.17 535.787 1215.65C535.503 1216.12 534.888 1216.27 534.415 1215.99L535.443 1214.27ZM542.872 1220.86C542.388 1220.59 542.212 1219.98 542.479 1219.5C542.745 1219.01 543.354 1218.84 543.837 1219.11L542.872 1220.86ZM552.72 1223.77C553.215 1224.01 553.416 1224.61 553.17 1225.11C552.924 1225.6 552.324 1225.8 551.83 1225.56L552.72 1223.77ZM560.707 1229.72C560.202 1229.5 559.972 1228.91 560.195 1228.4C560.417 1227.9 561.007 1227.67 561.513 1227.89L560.707 1229.72ZM570.765 1231.67C571.282 1231.86 571.543 1232.44 571.349 1232.95C571.155 1233.47 570.579 1233.73 570.062 1233.54L570.765 1231.67ZM579.299 1236.69C578.771 1236.53 578.475 1235.97 578.637 1235.44C578.798 1234.91 579.358 1234.62 579.886 1234.78L579.299 1236.69ZM589.561 1237.37C590.1 1237.49 590.437 1238.03 590.314 1238.57C590.192 1239.11 589.656 1239.44 589.117 1239.32L589.561 1237.37ZM598.88 1241.13C598.333 1241.05 597.953 1240.55 598.031 1240C598.108 1239.45 598.615 1239.07 599.162 1239.15L598.88 1241.13ZM608.891 1240.08C609.443 1240.11 609.869 1240.58 609.842 1241.13C609.816 1241.68 609.348 1242.11 608.796 1242.08L608.891 1240.08ZM618.86 1242.03C618.308 1242.07 617.835 1241.65 617.803 1241.09C617.771 1240.54 618.192 1240.07 618.744 1240.04L618.86 1242.03ZM628.439 1238.93C628.983 1238.83 629.501 1239.2 629.595 1239.74C629.689 1240.29 629.324 1240.8 628.78 1240.9L628.439 1238.93ZM638.509 1238.62C637.98 1238.78 637.423 1238.48 637.266 1237.95C637.108 1237.42 637.41 1236.86 637.939 1236.7L638.509 1238.62ZM647.15 1233.36C647.657 1233.14 648.246 1233.37 648.464 1233.88C648.683 1234.39 648.449 1234.98 647.942 1235.19L647.15 1233.36ZM656.882 1230.72C656.403 1230.99 655.792 1230.83 655.518 1230.35C655.243 1229.87 655.409 1229.26 655.889 1228.98L656.882 1230.72ZM664.123 1223.68C664.572 1223.35 665.197 1223.45 665.519 1223.9C665.842 1224.35 665.74 1224.98 665.291 1225.3L664.123 1223.68ZM673.166 1219.04C672.749 1219.41 672.118 1219.36 671.755 1218.95C671.392 1218.53 671.435 1217.9 671.851 1217.54L673.166 1219.04ZM678.942 1210.82C679.327 1210.42 679.961 1210.42 680.356 1210.8C680.751 1211.19 680.759 1211.82 680.374 1212.22L678.942 1210.82ZM687.069 1204.83C686.713 1205.26 686.082 1205.31 685.66 1204.95C685.238 1204.59 685.186 1203.96 685.542 1203.54L687.069 1204.83ZM691.713 1195.76C692.043 1195.32 692.669 1195.23 693.112 1195.56C693.555 1195.89 693.646 1196.52 693.316 1196.96L691.713 1195.76ZM699.011 1188.87C698.705 1189.33 698.084 1189.46 697.625 1189.15C697.165 1188.84 697.041 1188.22 697.347 1187.76L699.011 1188.87ZM702.632 1179.42C702.917 1178.95 703.531 1178.79 704.004 1179.08C704.477 1179.37 704.63 1179.98 704.345 1180.45L702.632 1179.42ZM709.327 1171.79C709.061 1172.27 708.453 1172.45 707.969 1172.18C707.485 1171.92 707.308 1171.31 707.574 1170.83L709.327 1171.79ZM712.149 1162.14C712.398 1161.64 713 1161.44 713.493 1161.69C713.986 1161.94 714.183 1162.54 713.934 1163.04L712.149 1162.14ZM718.323 1154C718.089 1154.5 717.494 1154.72 716.993 1154.48C716.493 1154.25 716.277 1153.65 716.511 1153.15L718.323 1154ZM720.534 1144.23C720.754 1143.72 721.343 1143.49 721.85 1143.71C722.356 1143.93 722.588 1144.52 722.367 1145.03L720.534 1144.23ZM726.249 1135.8C726.041 1136.31 725.457 1136.56 724.946 1136.35C724.434 1136.14 724.188 1135.56 724.396 1135.05L726.249 1135.8ZM728.005 1125.9C728.203 1125.39 728.781 1125.13 729.297 1125.33C729.812 1125.52 730.07 1126.1 729.873 1126.62L728.005 1125.9ZM733.354 1117.26C733.166 1117.77 732.593 1118.04 732.073 1117.86C731.554 1117.67 731.285 1117.09 731.473 1116.58L733.354 1117.26ZM734.74 1107.28C734.919 1106.76 735.488 1106.48 736.01 1106.66C736.533 1106.84 736.811 1107.41 736.632 1107.93L734.74 1107.28ZM739.794 1098.46C739.623 1098.99 739.058 1099.28 738.533 1099.1C738.008 1098.93 737.721 1098.37 737.892 1097.84L739.794 1098.46ZM740.879 1088.45C741.043 1087.93 741.603 1087.63 742.131 1087.8C742.658 1087.96 742.953 1088.52 742.789 1089.05L740.879 1088.45ZM745.694 1079.49C745.536 1080.02 744.98 1080.32 744.45 1080.17C743.921 1080.01 743.619 1079.45 743.777 1078.92L745.694 1079.49ZM746.533 1069.47C746.684 1068.94 747.238 1068.63 747.769 1068.78C748.3 1068.93 748.607 1069.49 748.456 1070.02L746.533 1069.47ZM751.154 1060.39C751.007 1060.92 750.457 1061.24 749.924 1061.09C749.392 1060.94 749.079 1060.39 749.225 1059.86L751.154 1060.39ZM751.792 1050.36C751.934 1049.83 752.482 1049.51 753.015 1049.65C753.549 1049.79 753.867 1050.34 753.725 1050.87L751.792 1050.36ZM756.244 1041.23C756.107 1041.77 755.562 1042.09 755.027 1041.95C754.492 1041.81 754.17 1041.27 754.307 1040.73L756.244 1041.23ZM756.732 1031.16C756.866 1030.62 757.408 1030.3 757.944 1030.43C758.48 1030.56 758.806 1031.11 758.672 1031.64L756.732 1031.16ZM761.047 1021.99C760.916 1022.53 760.376 1022.86 759.839 1022.73C759.302 1022.6 758.973 1022.06 759.103 1021.52L761.047 1021.99ZM761.413 1011.89C761.541 1011.35 762.08 1011.02 762.617 1011.14C763.154 1011.27 763.487 1011.81 763.36 1012.35L761.413 1011.89ZM765.619 1002.69C765.495 1003.23 764.958 1003.57 764.42 1003.44C763.882 1003.32 763.546 1002.78 763.671 1002.24L765.619 1002.69ZM765.89 992.561C766.012 992.022 766.548 991.685 767.087 991.807C767.625 991.929 767.963 992.465 767.841 993.003L765.89 992.561ZM770.012 983.347C769.892 983.886 769.358 984.225 768.819 984.105C768.28 983.985 767.94 983.451 768.06 982.912L770.012 983.347ZM770.207 973.206C770.326 972.667 770.859 972.325 771.399 972.444C771.938 972.562 772.279 973.095 772.161 973.635L770.207 973.206ZM774.27 963.964C774.153 964.504 773.621 964.847 773.081 964.73C772.541 964.613 772.199 964.081 772.315 963.541L774.27 963.964ZM774.406 953.842C774.522 953.302 775.053 952.959 775.593 953.074C776.133 953.19 776.477 953.722 776.361 954.262L774.406 953.842ZM778.432 944.562C778.318 945.102 777.787 945.447 777.246 945.332C776.706 945.217 776.361 944.686 776.476 944.146L778.432 944.562ZM778.532 934.449C778.646 933.909 779.177 933.563 779.717 933.678C780.257 933.792 780.603 934.322 780.489 934.863L778.532 934.449ZM782.537 925.153C782.423 925.694 781.893 926.039 781.352 925.926C780.812 925.812 780.466 925.281 780.58 924.741L782.537 925.153ZM782.621 915.04C782.735 914.499 783.265 914.153 783.806 914.267C784.346 914.381 784.692 914.911 784.579 915.451L782.621 915.04ZM786.62 905.75C786.506 906.29 785.976 906.636 785.435 906.522C784.895 906.409 784.549 905.878 784.663 905.338L786.62 905.75ZM786.71 895.628C786.824 895.087 787.355 894.742 787.895 894.856C788.436 894.97 788.781 895.501 788.667 896.041L786.71 895.628ZM790.72 886.345C790.606 886.885 790.075 887.23 789.534 887.116C788.994 887.001 788.649 886.47 788.764 885.93L790.72 886.345ZM790.693 876.33C790.783 875.785 791.297 875.416 791.842 875.506C792.387 875.596 792.756 876.111 792.666 876.656L790.693 876.33ZM793.852 866.726C793.81 867.276 793.33 867.689 792.779 867.647C792.229 867.606 791.816 867.125 791.858 866.575L793.852 866.726ZM792.202 856.837C792.2 856.285 792.646 855.836 793.198 855.834C793.75 855.832 794.2 856.278 794.202 856.83L792.202 856.837ZM793.805 846.908C793.846 847.459 793.433 847.939 792.883 847.98C792.332 848.022 791.852 847.609 791.81 847.058L793.805 846.908ZM790.742 837.235C790.664 836.688 791.045 836.182 791.592 836.105C792.139 836.028 792.645 836.409 792.722 836.955L790.742 837.235ZM791.057 827.249C791.166 827.791 790.815 828.318 790.273 828.427C789.732 828.536 789.205 828.185 789.096 827.643L791.057 827.249ZM786.896 818.051C786.758 817.517 787.08 816.971 787.615 816.834C788.15 816.696 788.695 817.018 788.833 817.553L786.896 818.051ZM786.125 808.005C786.289 808.533 785.993 809.093 785.466 809.256C784.938 809.419 784.378 809.124 784.215 808.596L786.125 808.005ZM781.107 799.302C780.921 798.782 781.191 798.209 781.711 798.023C782.231 797.836 782.803 798.107 782.99 798.626L781.107 799.302ZM779.425 789.309C779.632 789.821 779.386 790.404 778.874 790.612C778.363 790.819 777.779 790.573 777.572 790.061L779.425 789.309ZM773.723 781.084C773.496 780.58 773.72 779.988 774.224 779.761C774.727 779.534 775.319 779.758 775.546 780.262L773.723 781.084ZM771.278 771.237C771.523 771.732 771.32 772.332 770.825 772.577C770.33 772.822 769.731 772.619 769.486 772.124L771.278 771.237ZM765.007 763.443C764.746 762.957 764.929 762.351 765.415 762.089C765.902 761.828 766.508 762.011 766.77 762.497L765.007 763.443ZM761.918 753.797C762.194 754.275 762.031 754.887 761.553 755.164C761.075 755.44 760.463 755.277 760.186 754.799L761.918 753.797ZM755.158 746.4C754.867 745.93 755.012 745.314 755.482 745.023C755.951 744.733 756.567 744.878 756.858 745.347L755.158 746.4ZM751.499 736.963C751.803 737.424 751.676 738.045 751.215 738.349C750.754 738.653 750.133 738.525 749.829 738.064L751.499 736.963ZM744.322 729.959C744.006 729.507 744.116 728.883 744.568 728.567C745.021 728.25 745.644 728.36 745.961 728.813L744.322 729.959ZM740.151 720.738C740.48 721.182 740.386 721.809 739.942 722.137C739.498 722.466 738.872 722.372 738.543 721.928L740.151 720.738ZM732.614 714.124C732.274 713.688 732.352 713.06 732.787 712.72C733.223 712.38 733.851 712.458 734.191 712.894L732.614 714.124ZM727.974 705.126C728.324 705.553 728.262 706.183 727.835 706.533C727.408 706.884 726.778 706.822 726.428 706.395L727.974 705.126ZM720.118 698.897C719.758 698.478 719.804 697.847 720.223 697.486C720.641 697.126 721.272 697.172 721.633 697.591L720.118 698.897ZM715.052 690.139C715.422 690.549 715.39 691.181 714.981 691.552C714.571 691.922 713.939 691.891 713.568 691.481L715.052 690.139ZM706.904 684.284C706.524 683.884 706.541 683.251 706.942 682.871C707.342 682.491 707.975 682.508 708.355 682.908L706.904 684.284ZM701.447 675.787C701.836 676.179 701.834 676.812 701.442 677.201C701.05 677.59 700.417 677.588 700.028 677.196L701.447 675.787ZM693.024 670.298C692.626 669.915 692.614 669.282 692.997 668.884C693.38 668.486 694.013 668.474 694.411 668.857L693.024 670.298ZM687.199 662.069C687.605 662.443 687.631 663.076 687.257 663.482C686.883 663.889 686.251 663.915 685.844 663.541L687.199 662.069ZM678.523 656.954C678.108 656.59 678.068 655.958 678.432 655.543C678.797 655.128 679.429 655.088 679.844 655.453L678.523 656.954ZM672.344 649.003C672.767 649.359 672.821 649.99 672.466 650.412C672.11 650.835 671.48 650.89 671.057 650.534L672.344 649.003ZM663.438 644.274C663.007 643.928 662.939 643.299 663.284 642.868C663.63 642.437 664.26 642.369 664.69 642.714L663.438 644.274ZM656.916 636.613C657.354 636.949 657.437 637.577 657.101 638.015C656.765 638.453 656.137 638.536 655.699 638.2L656.916 636.613ZM647.801 632.283C647.355 631.957 647.258 631.331 647.584 630.886C647.91 630.44 648.536 630.343 648.982 630.669L647.801 632.283ZM640.944 624.927C641.397 625.243 641.508 625.866 641.192 626.319C640.876 626.772 640.253 626.883 639.8 626.567L640.944 624.927ZM631.648 621.019C631.188 620.714 631.062 620.093 631.368 619.633C631.673 619.173 632.294 619.048 632.754 619.353L631.648 621.019ZM624.454 613.979C624.921 614.274 625.061 614.892 624.766 615.359C624.471 615.826 623.854 615.965 623.387 615.671L624.454 613.979ZM614.995 610.511C614.521 610.227 614.367 609.613 614.651 609.139C614.935 608.665 615.549 608.511 616.023 608.795L614.995 610.511ZM607.473 603.811C607.953 604.084 608.122 604.694 607.849 605.174C607.577 605.655 606.966 605.823 606.486 605.551L607.473 603.811ZM597.863 600.798C597.376 600.537 597.193 599.931 597.454 599.444C597.715 598.957 598.321 598.774 598.808 599.035L597.863 600.798ZM590.024 594.467C590.517 594.716 590.715 595.317 590.466 595.81C590.218 596.303 589.616 596.502 589.123 596.253L590.024 594.467ZM580.28 591.929C579.781 591.692 579.568 591.096 579.804 590.597C580.04 590.098 580.637 589.885 581.136 590.121L580.28 591.929ZM572.135 585.998C572.64 586.222 572.868 586.812 572.645 587.317C572.421 587.822 571.831 588.05 571.326 587.827L572.135 585.998ZM562.274 583.958C561.763 583.748 561.52 583.163 561.73 582.652C561.941 582.142 562.525 581.898 563.036 582.109L562.274 583.958ZM553.835 578.459C554.351 578.655 554.61 579.233 554.413 579.749C554.216 580.265 553.638 580.524 553.122 580.327L553.835 578.459ZM543.878 576.943C543.357 576.76 543.083 576.19 543.265 575.668C543.448 575.147 544.019 574.873 544.54 575.056L543.878 576.943ZM535.155 571.908C535.681 572.077 535.971 572.64 535.803 573.166C535.634 573.692 535.071 573.982 534.545 573.813L535.155 571.908ZM525.129 570.946C524.599 570.792 524.293 570.238 524.447 569.707C524.6 569.176 525.154 568.871 525.685 569.024L525.129 570.946ZM516.137 566.412C516.671 566.55 516.993 567.095 516.855 567.63C516.717 568.165 516.172 568.486 515.637 568.348L516.137 566.412ZM506.071 566.029C505.532 565.907 505.195 565.371 505.317 564.832C505.439 564.294 505.975 563.956 506.513 564.078L506.071 566.029ZM496.829 562.034C497.371 562.14 497.725 562.665 497.619 563.207C497.513 563.749 496.988 564.103 496.446 563.997L496.829 562.034ZM486.757 562.258C486.212 562.169 485.842 561.655 485.931 561.11C486.021 560.565 486.535 560.195 487.08 560.284L486.757 562.258ZM477.289 558.84C477.837 558.912 478.222 559.414 478.15 559.962C478.078 560.509 477.576 560.895 477.029 560.823L477.289 558.84ZM467.253 559.696C466.703 559.642 466.302 559.152 466.356 558.603C466.41 558.053 466.9 557.651 467.45 557.706L467.253 559.696ZM457.582 556.891C458.133 556.927 458.55 557.404 458.514 557.955C458.477 558.506 458.001 558.923 457.45 558.886L457.582 556.891ZM447.629 558.399C447.077 558.381 446.644 557.919 446.662 557.367C446.681 556.815 447.143 556.382 447.695 556.4L447.629 558.399ZM437.78 556.241C438.333 556.24 438.781 556.688 438.781 557.24C438.781 557.792 438.334 558.24 437.782 558.241L437.78 556.241ZM427.966 558.415C427.414 558.434 426.951 558.002 426.932 557.45C426.913 556.898 427.345 556.435 427.897 556.416L427.966 558.415ZM417.985 556.933C418.536 556.894 419.013 557.31 419.051 557.861C419.09 558.412 418.674 558.89 418.123 558.928L417.985 556.933ZM408.349 559.778C407.8 559.835 407.308 559.436 407.251 558.887C407.194 558.338 407.592 557.846 408.142 557.788L408.349 559.778ZM398.301 558.991C398.848 558.914 399.354 559.296 399.43 559.843C399.507 560.39 399.126 560.895 398.579 560.972L398.301 558.991ZM388.866 562.507C388.322 562.602 387.803 562.239 387.707 561.695C387.612 561.151 387.975 560.633 388.519 560.537L388.866 562.507ZM378.813 562.423C379.353 562.308 379.884 562.653 379.999 563.193C380.114 563.733 379.769 564.265 379.229 564.379L378.813 562.423ZM369.6 566.606C369.064 566.74 368.521 566.414 368.387 565.878C368.253 565.342 368.579 564.799 369.115 564.665L369.6 566.606ZM359.608 567.219C360.138 567.066 360.692 567.373 360.845 567.903C360.997 568.434 360.691 568.988 360.16 569.141L359.608 567.219ZM350.725 572.031C350.2 572.202 349.635 571.915 349.464 571.39C349.294 570.865 349.581 570.3 350.106 570.129L350.725 572.031ZM340.764 573.35C341.283 573.161 341.857 573.429 342.046 573.948C342.235 574.467 341.968 575.04 341.449 575.229L340.764 573.35ZM332.281 578.746C331.768 578.953 331.186 578.705 330.979 578.193C330.773 577.681 331.02 577.098 331.533 576.891L332.281 578.746ZM322.346 580.778C322.851 580.555 323.442 580.783 323.665 581.287C323.889 581.792 323.661 582.383 323.156 582.607L322.346 580.778ZM314.311 586.702C313.814 586.943 313.216 586.734 312.976 586.237C312.736 585.74 312.944 585.142 313.442 584.901L314.311 586.702ZM304.561 589.372C305.05 589.115 305.654 589.304 305.911 589.794C306.167 590.283 305.978 590.887 305.489 591.143L304.561 589.372ZM296.575 595.896C296.085 596.15 295.481 595.959 295.226 595.469C294.972 594.979 295.163 594.375 295.653 594.121L296.575 595.896ZM286.743 598.522C287.243 598.287 287.838 598.503 288.072 599.003C288.307 599.503 288.091 600.098 287.591 600.333L286.743 598.522ZM278.667 604.291C278.158 604.504 277.572 604.263 277.359 603.754C277.146 603.244 277.386 602.659 277.895 602.445L278.667 604.291ZM268.561 606.103C269.08 605.914 269.654 606.181 269.843 606.7C270.033 607.218 269.766 607.793 269.247 607.982L268.561 606.103ZM259.882 611.156C259.355 611.321 258.794 611.027 258.629 610.5C258.465 609.973 258.758 609.412 259.286 609.247L259.882 611.156ZM249.794 611.954C250.328 611.816 250.874 612.138 251.012 612.673C251.15 613.208 250.828 613.753 250.293 613.891L249.794 611.954ZM240.573 616.127C240.032 616.236 239.504 615.886 239.395 615.345C239.285 614.803 239.636 614.276 240.177 614.166L240.573 616.127ZM230.529 615.843C231.075 615.764 231.582 616.142 231.662 616.689C231.741 617.235 231.363 617.743 230.816 617.822L230.529 615.843ZM220.864 618.975C220.314 619.023 219.829 618.615 219.782 618.065C219.734 617.515 220.142 617.03 220.692 616.983L220.864 618.975ZM210.938 617.534C211.49 617.519 211.949 617.955 211.964 618.507C211.978 619.059 211.543 619.518 210.991 619.533L210.938 617.534ZM200.96 619.486C200.408 619.466 199.977 619.003 199.997 618.451C200.017 617.899 200.481 617.468 201.032 617.488L200.96 619.486ZM191.277 616.827C191.827 616.882 192.228 617.372 192.173 617.922C192.118 618.471 191.628 618.872 191.079 618.817L191.277 616.827ZM181.146 617.499C180.602 617.409 180.233 616.893 180.324 616.349C180.415 615.804 180.93 615.436 181.474 615.526L181.146 617.499ZM171.867 613.604C172.405 613.73 172.738 614.268 172.612 614.806C172.486 615.344 171.948 615.677 171.41 615.551L171.867 613.604ZM161.756 612.947C161.228 612.785 160.931 612.226 161.092 611.698C161.254 611.17 161.813 610.872 162.341 611.034L161.756 612.947ZM153.051 607.853C153.567 608.05 153.827 608.627 153.63 609.143C153.434 609.66 152.857 609.919 152.341 609.723L153.051 607.853ZM143.134 605.876C142.631 605.647 142.41 605.053 142.64 604.551C142.869 604.049 143.462 603.827 143.965 604.057L143.134 605.876ZM135.154 599.679C135.64 599.941 135.822 600.547 135.561 601.034C135.299 601.52 134.693 601.702 134.206 601.441L135.154 599.679ZM125.588 596.444C125.119 596.152 124.976 595.536 125.268 595.067C125.56 594.598 126.176 594.455 126.645 594.747L125.588 596.444ZM118.448 589.279C118.898 589.599 119.002 590.223 118.682 590.673C118.361 591.123 117.737 591.228 117.287 590.907L118.448 589.279ZM109.364 584.889C108.934 584.542 108.867 583.912 109.214 583.483C109.561 583.053 110.191 582.986 110.621 583.333L109.364 584.889ZM103.133 576.908C103.541 577.28 103.571 577.912 103.199 578.321C102.827 578.729 102.195 578.759 101.786 578.387L103.133 576.908ZM94.6296 571.492C94.2428 571.097 94.2488 570.464 94.6431 570.078C95.0373 569.691 95.6705 569.697 96.0572 570.091L94.6296 571.492ZM89.3342 562.849C89.6988 563.263 89.6579 563.895 89.243 564.26C88.8282 564.624 88.1963 564.584 87.8318 564.169L89.3342 562.849ZM81.4811 556.543C81.1388 556.109 81.2129 555.48 81.6464 555.138C82.0799 554.796 82.7087 554.87 83.0509 555.304L81.4811 556.543ZM77.1175 547.376C77.4371 547.826 77.331 548.45 76.8806 548.77C76.4301 549.089 75.8059 548.983 75.4864 548.533L77.1175 547.376ZM69.9556 540.316C69.6585 539.851 69.7949 539.232 70.2605 538.935C70.726 538.638 71.3442 538.775 71.6415 539.24L69.9556 540.316ZM66.5002 530.743C66.7748 531.223 66.609 531.834 66.1298 532.108C65.6507 532.383 65.0396 532.217 64.765 531.738L66.5002 530.743ZM60.0499 523.058C59.7972 522.566 59.9906 521.963 60.4817 521.711C60.9729 521.458 61.5758 521.652 61.8284 522.143L60.0499 523.058ZM57.4881 513.219C57.7186 513.721 57.4986 514.315 56.9968 514.546C56.4949 514.776 55.9012 514.556 55.6706 514.054L57.4881 513.219ZM51.7336 504.978C51.5245 504.467 51.7695 503.883 52.2807 503.674C52.7919 503.465 53.3758 503.71 53.5848 504.221L51.7336 504.978ZM50.0302 494.985C50.2179 495.504 49.949 496.077 49.4296 496.265C48.9102 496.453 48.337 496.184 48.1493 495.665L50.0302 494.985ZM44.962 486.258C44.7952 485.732 45.0868 485.17 45.6133 485.003C46.1397 484.836 46.7018 485.128 46.8686 485.654L44.962 486.258ZM44.074 476.198C44.2204 476.731 43.9072 477.281 43.3746 477.428C42.8421 477.574 42.2918 477.261 42.1455 476.728L44.074 476.198ZM39.683 467.047C39.5569 466.51 39.8906 465.972 40.4283 465.846C40.966 465.72 41.5041 466.053 41.6302 466.591L39.683 467.047ZM39.5652 456.997C39.6717 457.539 39.3186 458.065 38.7767 458.171C38.2347 458.278 37.7091 457.925 37.6027 457.383L39.5652 456.997ZM35.849 447.515C35.7621 446.97 36.1338 446.457 36.6792 446.37C37.2246 446.283 37.7372 446.655 37.8241 447.201L35.849 447.515ZM36.449 437.496C36.5171 438.044 36.1281 438.543 35.58 438.611C35.0319 438.679 34.5324 438.29 34.4643 437.742L36.449 437.496ZM33.4043 427.84C33.3548 427.29 33.7605 426.804 34.3106 426.754C34.8606 426.705 35.3467 427.11 35.3963 427.661L33.4043 427.84ZM34.6722 417.789C34.7036 418.34 34.282 418.813 33.7306 418.844C33.1792 418.875 32.7068 418.454 32.6755 417.902L34.6722 417.789ZM32.2732 408.023C32.2595 407.471 32.696 407.012 33.2481 406.998C33.8002 406.985 34.2589 407.421 34.2726 407.973L32.2732 408.023ZM34.1844 398.017C34.1805 398.569 33.7297 399.014 33.1775 399.01C32.6252 399.006 32.1806 398.555 32.1844 398.003L34.1844 398.017ZM32.4039 388.135C32.4245 387.583 32.8887 387.152 33.4406 387.173C33.9925 387.194 34.4232 387.658 34.4025 388.21L32.4039 388.135ZM34.921 378.347C34.8837 378.898 34.4068 379.314 33.8558 379.277C33.3048 379.24 32.8883 378.763 32.9255 378.212L34.921 378.347ZM33.7491 368.234C33.8027 367.685 34.2917 367.282 34.8414 367.336C35.3911 367.389 35.7932 367.879 35.7397 368.428L33.7491 368.234ZM36.8282 358.701C36.759 359.249 36.2587 359.637 35.7108 359.568C35.1629 359.498 34.7748 358.998 34.844 358.45L36.8282 358.701ZM36.2343 348.575C36.319 348.029 36.8301 347.655 37.3759 347.74C37.9216 347.825 38.2954 348.336 38.2107 348.881L36.2343 348.575ZM39.8649 339.12C39.7651 339.663 39.2439 340.022 38.7007 339.923C38.1575 339.823 37.7981 339.302 37.8979 338.758L39.8649 339.12ZM39.8118 329.077C39.9262 328.537 40.4568 328.191 40.9972 328.306C41.5375 328.42 41.8828 328.951 41.7684 329.491L39.8118 329.077ZM43.9575 319.792C43.8288 320.329 43.289 320.66 42.7519 320.532C42.2149 320.403 41.8839 319.863 42.0126 319.326L43.9575 319.792ZM44.4511 309.71C44.5937 309.177 45.1419 308.86 45.6755 309.003C46.209 309.145 46.5258 309.693 46.3832 310.227L44.4511 309.71ZM49.0431 300.765C48.8869 301.295 48.3308 301.598 47.8011 301.442C47.2713 301.286 46.9686 300.73 47.1247 300.2L49.0431 300.765ZM50.0756 290.639C50.2451 290.114 50.8086 289.825 51.3342 289.994C51.8599 290.164 52.1485 290.727 51.979 291.253L50.0756 290.639ZM55.1201 281.907C54.9377 282.429 54.3673 282.704 53.8459 282.521C53.3246 282.339 53.0499 281.768 53.2321 281.247L55.1201 281.907ZM56.6042 271.965C56.799 271.448 57.3758 271.187 57.8926 271.382C58.4095 271.577 58.6705 272.154 58.4757 272.671L56.6042 271.965ZM62.0968 263.399C61.8897 263.911 61.3068 264.159 60.7948 263.952C60.2828 263.745 60.0356 263.162 60.2425 262.65L62.0968 263.399ZM64.0701 253.491C64.2889 252.984 64.8774 252.75 65.3845 252.969C65.8916 253.188 66.1252 253.776 65.9064 254.283L64.0701 253.491ZM69.8958 245.319C69.6656 245.821 69.0719 246.041 68.5699 245.811C68.0679 245.581 67.8476 244.987 68.0778 244.485L69.8958 245.319ZM72.3401 235.46C72.5815 234.963 73.1798 234.756 73.6766 234.998C74.1733 235.239 74.3803 235.837 74.1389 236.334L72.3401 235.46ZM78.5815 227.444C78.3292 227.935 77.7263 228.129 77.2351 227.877C76.7438 227.625 76.55 227.022 76.8023 226.53L78.5815 227.444ZM81.3823 217.84C81.645 217.354 82.2517 217.174 82.7375 217.436C83.2234 217.699 83.4043 218.306 83.1416 218.791L81.3823 217.84ZM87.9434 210.13C87.6705 210.61 87.0601 210.778 86.5799 210.505C86.0997 210.233 85.9316 209.622 86.2045 209.142L87.9434 210.13ZM91.2713 200.439C91.5542 199.964 92.168 199.809 92.6424 200.092C93.1167 200.375 93.272 200.988 92.9891 201.463L91.2713 200.439ZM98.0638 193.142C97.7715 193.611 97.1547 193.754 96.6861 193.462C96.2174 193.169 96.0745 192.553 96.3667 192.084L98.0638 193.142ZM101.685 183.741C101.987 183.278 102.606 183.147 103.069 183.449C103.532 183.75 103.662 184.37 103.361 184.833L101.685 183.741ZM108.889 176.526C108.579 176.983 107.957 177.102 107.5 176.791C107.043 176.481 106.925 175.859 107.235 175.402L108.889 176.526ZM112.895 167.245C113.214 166.794 113.838 166.687 114.289 167.006C114.74 167.326 114.847 167.95 114.527 168.4L112.895 167.245ZM120.258 160.464C119.931 160.909 119.305 161.004 118.86 160.676C118.415 160.349 118.32 159.723 118.648 159.278L120.258 160.464ZM124.618 151.323C124.954 150.885 125.581 150.801 126.02 151.137C126.458 151.472 126.542 152.1 126.207 152.539L124.618 151.323ZM132.374 144.626C132.031 145.059 131.402 145.131 130.969 144.788C130.537 144.444 130.465 143.815 130.808 143.383L132.374 144.626ZM136.975 135.756C137.326 135.33 137.957 135.268 138.383 135.619C138.809 135.97 138.871 136.6 138.52 137.027L136.975 135.756ZM144.828 129.495C144.47 129.916 143.839 129.966 143.419 129.608C142.998 129.249 142.948 128.618 143.306 128.198L144.828 129.495ZM149.843 120.66C150.208 120.245 150.84 120.206 151.254 120.571C151.669 120.936 151.708 121.568 151.343 121.983L149.843 120.66ZM158.05 114.508C157.677 114.916 157.045 114.945 156.637 114.572C156.229 114.2 156.2 113.568 156.572 113.16L158.05 114.508ZM163.206 106.006C163.585 105.604 164.218 105.585 164.62 105.964C165.022 106.342 165.041 106.975 164.662 107.377L163.206 106.006ZM171.466 100.27C171.081 100.666 170.448 100.675 170.052 100.29C169.656 99.9045 169.648 99.2715 170.033 98.8755L171.466 100.27ZM177.053 91.771C177.444 91.3812 178.077 91.3825 178.467 91.7737C178.857 92.165 178.856 92.7981 178.465 93.1878L177.053 91.771ZM185.636 86.154C185.238 86.5377 184.605 86.5266 184.222 86.1294C183.838 85.7321 183.849 85.0991 184.246 84.7154L185.636 86.154ZM191.31 77.9944C191.712 77.6165 192.345 77.6369 192.723 78.0398C193.101 78.4427 193.08 79.0755 192.678 79.4534L191.31 77.9944ZM199.899 72.7807C199.491 73.1525 198.859 73.1229 198.487 72.7144C198.115 72.3061 198.145 71.6736 198.553 71.3018L199.899 72.7807ZM205.977 64.6395C206.391 64.2736 207.023 64.3124 207.389 64.7261C207.755 65.1398 207.716 65.7718 207.302 66.1376L205.977 64.6395ZM214.888 59.526C214.469 59.886 213.838 59.8381 213.478 59.4191C213.118 59.0002 213.166 58.3689 213.585 58.009L214.888 59.526ZM221.045 51.6885C221.469 51.3344 222.099 51.3909 222.453 51.8147C222.807 52.2385 222.751 52.8691 222.327 53.2233L221.045 51.6885ZM229.893 46.9875C229.464 47.3358 228.834 47.2709 228.486 46.8424C228.138 46.4139 228.203 45.7841 228.631 45.4356L229.893 46.9875ZM236.387 39.216C236.82 38.8733 237.449 38.9467 237.791 39.3798C238.134 39.813 238.061 40.4419 237.627 40.7845L236.387 39.216ZM245.532 34.6158C245.095 34.9527 244.467 34.8711 244.13 34.4334C243.793 33.9959 243.875 33.3679 244.312 33.031L245.532 34.6158ZM304.649 1362.38C302.999 1361.81 301.373 1361.23 299.771 1360.64L300.467 1358.76C302.053 1359.35 303.662 1359.92 305.295 1360.48L304.649 1362.38ZM290.436 1356.89C287.299 1355.53 284.261 1354.1 281.322 1352.62L282.223 1350.83C285.127 1352.3 288.13 1353.71 291.231 1355.05L290.436 1356.89ZM272.505 1347.82C269.543 1346.08 266.693 1344.28 263.954 1342.42L265.079 1340.76C267.781 1342.6 270.592 1344.38 273.516 1346.09L272.505 1347.82ZM255.907 1336.52C253.203 1334.38 250.625 1332.18 248.169 1329.92L249.524 1328.45C251.942 1330.67 254.482 1332.84 257.146 1334.95L255.907 1336.52ZM241.056 1322.83C238.742 1320.33 236.559 1317.77 234.505 1315.15L236.078 1313.92C238.098 1316.49 240.246 1319.01 242.523 1321.47L241.056 1322.83ZM228.599 1306.95C226.74 1304.13 225.015 1301.25 223.423 1298.32L225.18 1297.36C226.746 1300.24 228.441 1303.07 230.27 1305.85L228.599 1306.95ZM218.972 1289.26C217.61 1286.16 216.384 1283.03 215.29 1279.86L217.181 1279.2C218.257 1282.32 219.463 1285.41 220.802 1288.45L218.972 1289.26ZM212.388 1270.2C211.548 1266.94 210.839 1263.65 210.256 1260.34L212.225 1259.99C212.799 1263.25 213.498 1266.49 214.325 1269.7L212.388 1270.2ZM208.883 1250.35C208.55 1247.01 208.339 1243.65 208.248 1240.29L210.247 1240.23C210.337 1243.55 210.545 1246.86 210.873 1250.15L208.883 1250.35ZM208.326 1230.2C208.468 1226.85 208.724 1223.5 209.09 1220.16L211.079 1220.38C210.717 1223.68 210.465 1226.98 210.325 1230.29L208.326 1230.2ZM210.514 1210.18C211.095 1206.87 211.781 1203.58 212.57 1200.31L214.514 1200.78C213.735 1204.01 213.057 1207.26 212.484 1210.53L210.514 1210.18ZM215.235 1190.6C216.222 1187.39 217.308 1184.21 218.488 1181.06L220.36 1181.77C219.194 1184.87 218.122 1188.02 217.146 1191.19L215.235 1190.6ZM222.309 1171.75C223.678 1168.67 225.139 1165.65 226.687 1162.67L228.461 1163.59C226.932 1166.53 225.489 1169.53 224.136 1172.56L222.309 1171.75ZM231.605 1153.87C233.335 1150.99 235.149 1148.17 237.046 1145.41L238.694 1146.54C236.821 1149.26 235.029 1152.05 233.32 1154.9L231.605 1153.87ZM243.019 1137.28C245.101 1134.63 247.262 1132.05 249.5 1129.56L250.989 1130.89C248.781 1133.35 246.647 1135.9 244.592 1138.51L243.019 1137.28ZM256.474 1122.29C258.894 1119.94 261.388 1117.68 263.952 1115.52L265.24 1117.05C262.713 1119.18 260.255 1121.41 257.869 1123.73L256.474 1122.29ZM271.907 1109.31C274.641 1107.34 277.443 1105.48 280.308 1103.73L281.347 1105.44C278.527 1107.16 275.769 1108.99 273.077 1110.93L271.907 1109.31ZM289.139 1098.85C292.154 1097.35 295.229 1095.97 298.36 1094.73L299.094 1096.59C296.018 1097.81 292.996 1099.16 290.033 1100.64L289.139 1098.85ZM307.903 1091.45C311.128 1090.51 314.404 1089.71 317.726 1089.06L318.108 1091.02C314.848 1091.66 311.633 1092.44 308.467 1093.37L307.903 1091.45ZM327.714 1087.6C331.03 1087.28 334.387 1087.11 337.779 1087.1L337.784 1089.1C334.455 1089.11 331.162 1089.28 327.908 1089.59L327.714 1087.6ZM347.89 1087.55C351.196 1087.86 354.531 1088.31 357.891 1088.93L357.529 1090.9C354.228 1090.29 350.953 1089.84 347.708 1089.54L347.89 1087.55ZM367.677 1091.17C370.887 1092.05 374.117 1093.08 377.362 1094.26L376.678 1096.14C373.482 1094.98 370.305 1093.97 367.148 1093.1L367.677 1091.17ZM386.623 1098.04C389.625 1099.4 392.638 1100.89 395.661 1102.52L394.712 1104.28C391.73 1102.67 388.758 1101.2 385.8 1099.86L386.623 1098.04ZM404.384 1107.58C407.156 1109.31 409.935 1111.16 412.717 1113.13L411.561 1114.76C408.81 1112.82 406.064 1110.99 403.325 1109.28L404.384 1107.58ZM420.818 1119.2C423.375 1121.23 425.933 1123.35 428.493 1125.59L427.178 1127.1C424.642 1124.88 422.108 1122.77 419.577 1120.77L420.818 1119.2ZM435.939 1132.39C437.18 1133.58 438.421 1134.79 439.662 1136.02L438.25 1137.44C437.019 1136.21 435.788 1135.01 434.558 1133.84L435.939 1132.39ZM439.662 1136.02C440.885 1137.24 442.103 1138.45 443.317 1139.65L441.913 1141.07C440.697 1139.87 439.476 1138.66 438.25 1137.44L439.662 1136.02ZM450.54 1146.68C452.928 1148.97 455.297 1151.22 457.647 1153.43L456.279 1154.89C453.923 1152.68 451.548 1150.42 449.153 1148.12L450.54 1146.68ZM464.781 1160.03C467.319 1162.35 469.835 1164.61 472.327 1166.82L471.002 1168.31C468.501 1166.1 465.978 1163.83 463.432 1161.51L464.781 1160.03ZM479.739 1173.28C482.239 1175.42 484.716 1177.51 487.17 1179.54L485.895 1181.08C483.431 1179.04 480.946 1176.94 478.437 1174.79L479.739 1173.28ZM495.035 1185.92C497.629 1187.99 500.198 1189.99 502.74 1191.92L501.528 1193.51C498.975 1191.57 496.395 1189.56 493.79 1187.49L495.035 1185.92ZM510.674 1197.82C513.425 1199.82 516.144 1201.74 518.832 1203.58L517.7 1205.23C514.997 1203.38 512.264 1201.45 509.5 1199.44L510.674 1197.82ZM526.826 1208.91C529.736 1210.79 532.608 1212.57 535.443 1214.27L534.415 1215.99C531.56 1214.28 528.669 1212.48 525.741 1210.59L526.826 1208.91ZM543.837 1219.11C546.841 1220.76 549.802 1222.31 552.72 1223.77L551.83 1225.56C548.885 1224.09 545.899 1222.53 542.872 1220.86L543.837 1219.11ZM561.513 1227.89C564.647 1229.27 567.731 1230.53 570.765 1231.67L570.062 1233.54C566.992 1232.39 563.874 1231.11 560.707 1229.72L561.513 1227.89ZM579.886 1234.78C583.172 1235.79 586.396 1236.65 589.561 1237.37L589.117 1239.32C585.903 1238.59 582.63 1237.71 579.299 1236.69L579.886 1234.78ZM599.162 1239.15C602.473 1239.62 605.715 1239.93 608.891 1240.08L608.796 1242.08C605.556 1241.93 602.251 1241.61 598.88 1241.13L599.162 1239.15ZM618.744 1240.04C622.05 1239.85 625.281 1239.47 628.439 1238.93L628.78 1240.9C625.546 1241.46 622.24 1241.84 618.86 1242.03L618.744 1240.04ZM637.939 1236.7C641.083 1235.77 644.152 1234.65 647.15 1233.36L647.942 1235.19C644.873 1236.52 641.73 1237.66 638.509 1238.62L637.939 1236.7ZM655.889 1228.98C658.698 1227.38 661.442 1225.6 664.123 1223.68L665.291 1225.3C662.556 1227.27 659.754 1229.08 656.882 1230.72L655.889 1228.98ZM671.851 1217.54C674.268 1215.43 676.63 1213.19 678.942 1210.82L680.374 1212.22C678.027 1214.62 675.625 1216.9 673.166 1219.04L671.851 1217.54ZM685.542 1203.54C687.643 1201.06 689.699 1198.46 691.713 1195.76L693.316 1196.96C691.28 1199.69 689.198 1202.32 687.069 1204.83L685.542 1203.54ZM697.347 1187.76C699.144 1185.07 700.905 1182.29 702.632 1179.42L704.345 1180.45C702.603 1183.34 700.825 1186.15 699.011 1188.87L697.347 1187.76ZM707.574 1170.83C709.127 1168 710.651 1165.1 712.149 1162.14L713.934 1163.04C712.427 1166.02 710.891 1168.94 709.327 1171.79L707.574 1170.83ZM716.511 1153.15C717.874 1150.23 719.215 1147.26 720.534 1144.23L722.367 1145.03C721.042 1148.07 719.694 1151.06 718.323 1154L716.511 1153.15ZM724.396 1135.05C725.618 1132.05 726.821 1129 728.005 1125.9L729.873 1126.62C728.684 1129.72 727.476 1132.79 726.249 1135.8L724.396 1135.05ZM731.473 1116.58C732.577 1113.52 733.666 1110.42 734.74 1107.28L736.632 1107.93C735.555 1111.08 734.462 1114.19 733.354 1117.26L731.473 1116.58ZM737.892 1097.84C738.901 1094.75 739.896 1091.62 740.879 1088.45L742.789 1089.05C741.803 1092.22 740.805 1095.36 739.794 1098.46L737.892 1097.84ZM743.777 1078.92C744.706 1075.8 745.625 1072.65 746.533 1069.47L748.456 1070.02C747.546 1073.2 746.626 1076.36 745.694 1079.49L743.777 1078.92ZM749.225 1059.86C750.09 1056.72 750.946 1053.55 751.792 1050.36L753.725 1050.87C752.877 1054.07 752.02 1057.24 751.154 1060.39L749.225 1059.86ZM754.307 1040.73C755.123 1037.56 755.931 1034.37 756.732 1031.16L758.672 1031.64C757.87 1034.86 757.061 1038.05 756.244 1041.23L754.307 1040.73ZM759.103 1021.52C759.879 1018.33 760.649 1015.11 761.413 1011.89L763.36 1012.35C762.595 1015.58 761.824 1018.79 761.047 1021.99L759.103 1021.52ZM763.671 1002.24C764.416 999.028 765.155 995.8 765.89 992.561L767.841 993.003C767.105 996.245 766.365 999.476 765.619 1002.69L763.671 1002.24ZM768.06 982.912C768.78 979.685 769.495 976.45 770.207 973.206L772.161 973.635C771.448 976.881 770.732 980.118 770.012 983.347L768.06 982.912ZM772.315 963.541C773.015 960.314 773.711 957.081 774.406 953.842L776.361 954.262C775.667 957.502 774.97 960.736 774.27 963.964L772.315 963.541ZM776.476 944.146C777.163 940.917 777.848 937.685 778.532 934.449L780.489 934.863C779.804 938.099 779.119 941.332 778.432 944.562L776.476 944.146ZM780.58 924.741C781.261 921.508 781.941 918.274 782.621 915.04L784.579 915.451C783.898 918.686 783.218 921.92 782.537 925.153L780.58 924.741ZM784.663 905.338C785.344 902.099 786.027 898.862 786.71 895.628L788.667 896.041C787.984 899.275 787.302 902.512 786.62 905.75L784.663 905.338ZM788.764 885.93C789.107 884.315 789.45 882.701 789.794 881.089L791.75 881.506C791.407 883.118 791.063 884.731 790.72 886.345L788.764 885.93ZM789.794 881.089C790.129 879.518 790.429 877.931 790.693 876.33L792.666 876.656C792.397 878.287 792.092 879.904 791.75 881.506L789.794 881.089ZM791.858 866.575C792.1 863.376 792.213 860.129 792.202 856.837L794.202 856.83C794.214 860.173 794.098 863.473 793.852 866.726L791.858 866.575ZM791.81 847.058C791.566 843.819 791.209 840.543 790.742 837.235L792.722 836.955C793.195 840.305 793.557 843.624 793.805 846.908L791.81 847.058ZM789.096 827.643C788.458 824.47 787.724 821.271 786.896 818.051L788.833 817.553C789.669 820.806 790.411 824.039 791.057 827.249L789.096 827.643ZM784.215 808.596C783.26 805.513 782.224 802.414 781.107 799.302L782.99 798.626C784.116 801.765 785.162 804.893 786.125 808.005L784.215 808.596ZM777.572 790.061C776.359 787.077 775.076 784.083 773.723 781.084L775.546 780.262C776.909 783.283 778.203 786.3 779.425 789.309L777.572 790.061ZM769.486 772.124C768.055 769.233 766.562 766.338 765.007 763.443L766.77 762.497C768.334 765.412 769.837 768.325 771.278 771.237L769.486 772.124ZM760.186 754.799C758.565 751.997 756.889 749.197 755.158 746.4L756.858 745.347C758.6 748.161 760.287 750.978 761.918 753.797L760.186 754.799ZM749.829 738.064C748.043 735.356 746.207 732.654 744.322 729.959L745.961 728.813C747.856 731.522 749.703 734.24 751.499 736.963L749.829 738.064ZM738.543 721.928C736.612 719.317 734.635 716.715 732.614 714.124L734.191 712.894C736.222 715.498 738.209 718.114 740.151 720.738L738.543 721.928ZM726.428 706.395C724.365 703.883 722.262 701.383 720.118 698.897L721.633 697.591C723.787 700.089 725.901 702.601 727.974 705.126L726.428 706.395ZM713.568 691.481C711.384 689.067 709.162 686.667 706.904 684.284L708.355 682.908C710.624 685.303 712.857 687.713 715.052 690.139L713.568 691.481ZM700.028 677.196C697.727 674.878 695.392 672.579 693.024 670.298L694.411 668.857C696.79 671.148 699.136 673.459 701.447 675.787L700.028 677.196ZM685.844 663.541C683.435 661.324 680.995 659.128 678.523 656.954L679.844 655.453C682.327 657.636 684.779 659.843 687.199 662.069L685.844 663.541ZM671.057 650.534C668.546 648.424 666.006 646.337 663.438 644.274L664.69 642.714C667.27 644.787 669.822 646.883 672.344 649.003L671.057 650.534ZM655.699 638.2C653.093 636.202 650.46 634.229 647.801 632.283L648.982 630.669C651.653 632.624 654.298 634.605 656.916 636.613L655.699 638.2ZM639.8 626.567C637.107 624.689 634.39 622.839 631.648 621.019L632.754 619.353C635.509 621.182 638.239 623.04 640.944 624.927L639.8 626.567ZM623.387 615.671C620.612 613.92 617.815 612.199 614.995 610.511L616.023 608.795C618.856 610.491 621.667 612.22 624.454 613.979L623.387 615.671ZM606.486 605.551C603.633 603.933 600.758 602.348 597.863 600.798L598.808 599.035C601.717 600.593 604.605 602.185 607.473 603.811L606.486 605.551ZM589.123 596.253C586.194 594.775 583.246 593.334 580.28 591.929L581.136 590.121C584.117 591.533 587.081 592.982 590.024 594.467L589.123 596.253ZM571.326 587.827C568.326 586.498 565.308 585.208 562.274 583.958L563.036 582.109C566.086 583.366 569.12 584.663 572.135 585.998L571.326 587.827ZM553.122 580.327C550.056 579.158 546.975 578.029 543.878 576.943L544.54 575.056C547.654 576.148 550.752 577.283 553.835 578.459L553.122 580.327ZM534.545 573.813C531.42 572.813 528.282 571.857 525.129 570.946L525.685 569.024C528.855 569.941 532.012 570.903 535.155 571.908L534.545 573.813ZM515.637 568.348C512.46 567.528 509.271 566.755 506.071 566.029L506.513 564.078C509.733 564.809 512.941 565.587 516.137 566.412L515.637 568.348ZM496.446 563.997C493.227 563.368 489.997 562.788 486.757 562.258L487.08 560.284C490.34 560.818 493.59 561.401 496.829 562.034L496.446 563.997ZM477.029 560.823C473.778 560.396 470.52 560.02 467.253 559.696L467.45 557.706C470.738 558.031 474.018 558.41 477.289 558.84L477.029 560.823ZM457.45 558.886C454.183 558.67 450.909 558.507 447.629 558.399L447.695 556.4C450.997 556.509 454.293 556.673 457.582 556.891L457.45 558.886ZM437.782 558.241C434.515 558.243 431.243 558.301 427.966 558.415L427.897 556.416C431.196 556.301 434.491 556.243 437.78 556.241L437.782 558.241ZM418.123 558.928C414.869 559.154 411.611 559.437 408.349 559.778L408.142 557.788C411.426 557.445 414.707 557.16 417.985 556.933L418.123 558.928ZM398.579 560.972C395.343 561.425 392.105 561.936 388.866 562.507L388.519 560.537C391.781 559.962 395.042 559.447 398.301 558.991L398.579 560.972ZM379.229 564.379C376.019 565.062 372.81 565.804 369.6 566.606L369.115 564.665C372.348 563.857 375.58 563.11 378.813 562.423L379.229 564.379ZM360.16 569.141C357.014 570.045 353.869 571.008 350.725 572.031L350.106 570.129C353.272 569.099 356.439 568.129 359.608 567.219L360.16 569.141ZM341.449 575.229C338.39 576.343 335.334 577.515 332.281 578.746L331.533 576.891C334.607 575.652 337.685 574.471 340.764 573.35L341.449 575.229ZM323.156 582.607C320.205 583.915 317.256 585.28 314.311 586.702L313.442 584.901C316.406 583.47 319.374 582.095 322.346 580.778L323.156 582.607ZM305.489 591.143C304.021 591.913 302.553 592.696 301.087 593.495L300.13 591.739C301.606 590.935 303.083 590.146 304.561 589.372L305.489 591.143ZM301.087 593.495C299.581 594.316 298.077 595.116 296.575 595.896L295.653 594.121C297.143 593.347 298.636 592.553 300.13 591.739L301.087 593.495ZM287.591 600.333C284.606 601.732 281.631 603.05 278.667 604.291L277.895 602.445C280.833 601.216 283.783 599.909 286.743 598.522L287.591 600.333ZM269.247 607.982C266.112 609.128 262.99 610.185 259.882 611.156L259.286 609.247C262.362 608.286 265.455 607.238 268.561 606.103L269.247 607.982ZM250.293 613.891C247.035 614.731 243.794 615.476 240.573 616.127L240.177 614.166C243.363 613.523 246.569 612.786 249.794 611.954L250.293 613.891ZM230.816 617.822C227.475 618.307 224.157 618.691 220.864 618.975L220.692 616.983C223.946 616.702 227.226 616.323 230.529 615.843L230.816 617.822ZM210.991 619.533C207.618 619.622 204.274 619.606 200.96 619.486L201.032 617.488C204.305 617.606 207.607 617.622 210.938 617.534L210.991 619.533ZM191.079 618.817C187.734 618.484 184.422 618.044 181.146 617.499L181.474 615.526C184.707 616.064 187.975 616.498 191.277 616.827L191.079 618.817ZM171.41 615.551C168.153 614.787 164.934 613.918 161.756 612.947L162.341 611.034C165.476 611.993 168.652 612.85 171.867 613.604L171.41 615.551ZM152.341 609.723C149.227 608.541 146.157 607.258 143.134 605.876L143.965 604.057C146.949 605.421 149.978 606.687 153.051 607.853L152.341 609.723ZM134.206 601.441C131.285 599.869 128.411 598.203 125.588 596.444L126.645 594.747C129.433 596.483 132.27 598.128 135.154 599.679L134.206 601.441ZM117.287 590.907C114.595 588.988 111.953 586.981 109.364 584.889L110.621 583.333C113.179 585.4 115.789 587.383 118.448 589.279L117.287 590.907ZM101.786 578.387C99.3473 576.168 96.9611 573.868 94.6296 571.492L96.0572 570.091C98.3627 572.441 100.722 574.714 103.133 576.908L101.786 578.387ZM87.8318 564.169C85.6603 561.697 83.5428 559.155 81.4811 556.543L83.0509 555.304C85.0911 557.888 87.1861 560.404 89.3342 562.849L87.8318 564.169ZM75.4864 548.533C73.5877 545.857 71.7436 543.117 69.9556 540.316L71.6415 539.24C73.4121 542.014 75.238 544.726 77.1175 547.376L75.4864 548.533ZM64.765 531.738C63.1383 528.9 61.5661 526.005 60.0499 523.058L61.8284 522.143C63.3309 525.064 64.8887 527.932 66.5002 530.743L64.765 531.738ZM55.6706 514.054C54.3032 511.078 52.9904 508.052 51.7336 504.978L53.5848 504.221C54.831 507.269 56.1326 510.269 57.4881 513.219L55.6706 514.054ZM48.1493 495.665C47.0318 492.572 45.9689 489.436 44.962 486.258L46.8686 485.654C47.8675 488.807 48.9219 491.918 50.0302 494.985L48.1493 495.665ZM42.1455 476.728C41.2695 473.539 40.4482 470.312 39.683 467.047L41.6302 466.591C42.3898 469.831 43.2048 473.034 44.074 476.198L42.1455 476.728ZM37.6027 457.383C36.9634 454.127 36.3785 450.837 35.849 447.515L37.8241 447.201C38.3498 450.499 38.9305 453.765 39.5652 456.997L37.6027 457.383ZM34.4643 437.742C34.0577 434.47 33.704 431.169 33.4043 427.84L35.3963 427.661C35.6939 430.967 36.0452 434.246 36.449 437.496L34.4643 437.742ZM32.6755 417.902C32.4897 414.633 32.3553 411.34 32.2732 408.023L34.2726 407.973C34.3542 411.269 34.4877 414.541 34.6722 417.789L32.6755 417.902ZM32.1844 398.003C32.207 394.734 32.2799 391.445 32.4039 388.135L34.4025 388.21C34.2793 391.499 34.2068 394.769 34.1844 398.017L32.1844 398.003ZM32.9255 378.212C33.1491 374.904 33.4234 371.578 33.7491 368.234L35.7397 368.428C35.4159 371.752 35.1432 375.059 34.921 378.347L32.9255 378.212ZM34.844 358.45C35.258 355.173 35.7212 351.881 36.2343 348.575L38.2107 348.881C37.7004 352.169 37.2398 355.443 36.8282 358.701L34.844 358.45ZM37.8979 338.758C38.4885 335.543 39.1262 332.316 39.8118 329.077L41.7684 329.491C41.0865 332.713 40.4523 335.922 39.8649 339.12L37.8979 338.758ZM42.0126 319.326C42.7787 316.131 43.5913 312.925 44.4511 309.71L46.3832 310.227C45.5279 313.425 44.7195 316.614 43.9575 319.792L42.0126 319.326ZM47.1247 300.2C48.0619 297.021 49.0453 293.834 50.0756 290.639L51.979 291.253C50.954 294.432 49.9755 297.603 49.0431 300.765L47.1247 300.2ZM53.2321 281.247C54.3121 278.159 55.436 275.065 56.6042 271.965L58.4757 272.671C57.3131 275.755 56.1947 278.835 55.1201 281.907L53.2321 281.247ZM60.2425 262.65C61.4751 259.601 62.7508 256.548 64.0701 253.491L65.9064 254.283C64.5932 257.326 63.3235 260.365 62.0968 263.399L60.2425 262.65ZM68.0778 244.485C69.456 241.48 70.8766 238.471 72.3401 235.46L74.1389 236.334C72.6819 239.332 71.2677 242.327 69.8958 245.319L68.0778 244.485ZM76.8023 226.53C78.2889 223.635 79.8154 220.739 81.3823 217.84L83.1416 218.791C81.5815 221.677 80.0615 224.562 78.5815 227.444L76.8023 226.53ZM86.2045 209.142C87.8525 206.241 89.5413 203.34 91.2713 200.439L92.9891 201.463C91.2663 204.352 89.5845 207.242 87.9434 210.13L86.2045 209.142ZM96.3667 192.084C98.1012 189.302 99.8739 186.521 101.685 183.741L103.361 184.833C101.557 187.602 99.7912 190.372 98.0638 193.142L96.3667 192.084ZM107.235 175.402C109.084 172.682 110.971 169.962 112.895 167.245L114.527 168.4C112.61 171.108 110.731 173.817 108.889 176.526L107.235 175.402ZM118.648 159.278C120.601 156.625 122.591 153.973 124.618 151.323L126.207 152.539C124.187 155.178 122.205 157.82 120.258 160.464L118.648 159.278ZM130.808 143.383C132.83 140.838 134.885 138.295 136.975 135.756L138.52 137.027C136.437 139.557 134.389 142.091 132.374 144.626L130.808 143.383ZM143.306 128.198C145.451 125.682 147.63 123.169 149.843 120.66L151.343 121.983C149.137 124.483 146.965 126.988 144.828 129.495L143.306 128.198ZM156.572 113.16C158.752 110.771 160.963 108.386 163.206 106.006L164.662 107.377C162.426 109.75 160.222 112.127 158.05 114.508L156.572 113.16ZM170.033 98.8755C172.341 96.503 174.68 94.1347 177.053 91.771L178.465 93.1878C176.099 95.5442 173.767 97.905 171.466 100.27L170.033 98.8755ZM184.246 84.7154C186.571 82.4705 188.925 80.23 191.31 77.9944L192.678 79.4534C190.3 81.6823 187.953 83.9159 185.636 86.154L184.246 84.7154ZM198.553 71.3018C200.997 69.0759 203.472 66.855 205.977 64.6395L207.302 66.1376C204.804 68.3469 202.337 70.5612 199.899 72.7807L198.553 71.3018ZM213.585 58.009C216.043 55.8969 218.53 53.79 221.045 51.6885L222.327 53.2233C219.819 55.319 217.34 57.42 214.888 59.526L213.585 58.009ZM228.631 45.4356C231.188 43.3568 233.773 41.2835 236.387 39.216L237.627 40.7845C235.021 42.8465 232.443 44.9142 229.893 46.9875L228.631 45.4356ZM244.312 33.031C245.647 32.0031 246.99 30.9766 248.339 29.9517L249.549 31.5444C248.203 32.5668 246.864 33.5905 245.532 34.6158L244.312 33.031Z"
        fill="black" />
</svg>