<svg width="1330" height="2125" viewBox="0 0 1330 2125" fill="none"
    xmlns="http://www.w3.org/2000/svg">
    <path
        d="M279.66 2012.01C284.365 2014.9 285.832 2021.06 282.939 2025.76C280.045 2030.47 273.886 2031.93 269.182 2029.04L279.66 2012.01ZM545.555 1735.16L554.001 1729.8L545.555 1735.16ZM1146.59 1476.89L1155.67 1481.08L1155.67 1481.08L1146.59 1476.89ZM522.883 890.704L525.615 900.324L522.883 890.704ZM269.182 2029.04C195.978 1984.01 163.568 1922.48 160.448 1860.21C157.352 1798.4 183.147 1737.02 224.054 1691.48C264.944 1645.96 321.875 1615.26 381.999 1616.47C442.603 1617.68 504.208 1651.25 554.001 1729.8L537.109 1740.51C490.091 1666.34 434.102 1637.51 381.598 1636.46C328.613 1635.4 276.918 1662.56 238.933 1704.85C200.963 1747.12 177.632 1803.5 180.423 1859.21C183.191 1914.45 211.683 1970.19 279.66 2012.01L269.182 2029.04ZM554.001 1729.8C627.113 1845.13 690.172 1905.92 745.066 1928.78C772.234 1940.09 797.415 1942.12 821.176 1936.9C845.068 1931.64 868.178 1918.91 890.792 1899.67C936.246 1861.01 978.224 1797.39 1018.9 1721.23C1059.49 1645.22 1098.16 1558 1137.51 1472.7L1155.67 1481.08C1116.52 1565.94 1077.49 1653.97 1036.54 1730.65C995.668 1807.18 952.239 1873.67 903.75 1914.91C879.394 1935.63 853.399 1950.29 825.47 1956.43C797.409 1962.6 768.052 1960.01 737.379 1947.24C676.592 1921.93 610.764 1856.7 537.109 1740.51L554.001 1729.8ZM1137.51 1472.7C1159.72 1424.56 1158.35 1357.93 1136.14 1285.61C1114.01 1213.54 1071.58 1137.17 1013.71 1070.54C897.881 937.152 722.035 844.552 525.615 900.324L520.152 881.084C726.511 822.491 909.833 920.413 1028.82 1057.42C1088.36 1125.99 1132.25 1204.79 1155.26 1279.74C1178.19 1354.42 1180.78 1426.65 1155.67 1481.08L1137.51 1472.7ZM525.615 900.324C422.14 929.704 334.477 909.552 272.261 856.71C210.293 804.076 174.831 720.095 173.11 623.986C169.663 431.456 301.115 189.239 629.174 39.8304L637.463 58.0316C314.988 204.898 189.833 440.749 193.107 623.628C194.747 715.224 228.477 793.281 285.209 841.466C341.693 889.441 422.237 908.886 520.152 881.084L525.615 900.324Z"
        fill="#F4FF70" />
    <path
        d="M274.945 2019.67C275.415 2019.96 275.562 2020.58 275.273 2021.05C274.983 2021.52 274.367 2021.67 273.897 2021.38L274.945 2019.67ZM545.555 1735.16L544.711 1735.69L545.555 1735.16ZM1146.59 1476.89L1147.5 1477.31L1146.59 1476.89ZM522.883 890.704L522.61 889.742L522.883 890.704ZM269.547 2018.65C269.082 2018.35 268.946 2017.73 269.243 2017.27C269.54 2016.8 270.159 2016.67 270.624 2016.96L269.547 2018.65ZM262.29 2011.43C262.744 2011.75 262.859 2012.37 262.545 2012.82C262.232 2013.28 261.609 2013.39 261.154 2013.08L262.29 2011.43ZM253.167 2007.36C252.724 2007.03 252.632 2006.4 252.961 2005.96C253.291 2005.52 253.917 2005.43 254.36 2005.76L253.167 2007.36ZM246.565 1999.73C246.995 2000.07 247.063 2000.7 246.717 2001.13C246.371 2001.56 245.741 2001.63 245.311 2001.28L246.565 1999.73ZM237.607 1994.82C237.191 1994.46 237.149 1993.83 237.512 1993.41C237.875 1993 238.507 1992.96 238.923 1993.32L237.607 1994.82ZM231.73 1986.77C232.131 1987.15 232.147 1987.78 231.767 1988.18C231.386 1988.58 230.753 1988.6 230.353 1988.22L231.73 1986.77ZM223.246 1981.16C222.862 1980.76 222.874 1980.13 223.272 1979.75C223.67 1979.36 224.303 1979.38 224.686 1979.77L223.246 1981.16ZM217.987 1972.49C218.351 1972.91 218.31 1973.54 217.895 1973.9C217.48 1974.27 216.848 1974.23 216.484 1973.81L217.987 1972.49ZM210.195 1966.3C209.85 1965.87 209.921 1965.24 210.353 1964.9C210.784 1964.55 211.413 1964.62 211.758 1965.05L210.195 1966.3ZM205.718 1957.08C206.04 1957.53 205.938 1958.16 205.489 1958.48C205.041 1958.8 204.416 1958.7 204.094 1958.25L205.718 1957.08ZM198.519 1950.07C198.22 1949.6 198.354 1948.98 198.818 1948.68C199.282 1948.38 199.901 1948.52 200.2 1948.98L198.519 1950.07ZM195.079 1940.56C195.354 1941.04 195.188 1941.65 194.708 1941.92C194.229 1942.2 193.618 1942.03 193.344 1941.55L195.079 1940.56ZM188.617 1932.76C188.369 1932.26 188.568 1931.66 189.061 1931.41C189.554 1931.17 190.155 1931.36 190.404 1931.86L188.617 1932.76ZM186.244 1923C186.465 1923.51 186.234 1924.1 185.728 1924.32C185.222 1924.54 184.633 1924.31 184.411 1923.8L186.244 1923ZM180.652 1914.51C180.46 1913.99 180.723 1913.42 181.24 1913.22C181.758 1913.03 182.334 1913.3 182.527 1913.81L180.652 1914.51ZM179.358 1904.54C179.522 1905.07 179.228 1905.63 178.701 1905.79C178.173 1905.95 177.613 1905.66 177.449 1905.13L179.358 1904.54ZM174.743 1895.51C174.609 1894.97 174.934 1894.43 175.47 1894.29C176.005 1894.16 176.549 1894.48 176.683 1895.02L174.743 1895.51ZM174.547 1885.41C174.652 1885.96 174.298 1886.48 173.756 1886.59C173.213 1886.69 172.689 1886.34 172.584 1885.8L174.547 1885.41ZM170.955 1875.97C170.879 1875.42 171.262 1874.91 171.809 1874.84C172.356 1874.76 172.861 1875.15 172.936 1875.69L170.955 1875.97ZM171.852 1865.89C171.898 1866.44 171.489 1866.93 170.938 1866.97C170.388 1867.02 169.905 1866.61 169.859 1866.06L171.852 1865.89ZM169.29 1856.12C169.273 1855.57 169.706 1855.11 170.258 1855.09C170.81 1855.08 171.272 1855.51 171.289 1856.06L169.29 1856.12ZM171.238 1846.2C171.227 1846.75 170.77 1847.19 170.218 1847.18C169.666 1847.17 169.227 1846.71 169.239 1846.16L171.238 1846.2ZM169.694 1836.21C169.733 1835.66 170.212 1835.25 170.763 1835.29C171.314 1835.32 171.728 1835.8 171.689 1836.35L169.694 1836.21ZM172.63 1826.54C172.563 1827.09 172.065 1827.48 171.517 1827.41C170.969 1827.34 170.578 1826.85 170.644 1826.3L172.63 1826.54ZM172.073 1816.44C172.166 1815.89 172.682 1815.53 173.226 1815.62C173.771 1815.71 174.138 1816.23 174.045 1816.77L172.073 1816.44ZM175.919 1807.09C175.801 1807.63 175.269 1807.98 174.729 1807.86C174.189 1807.74 173.847 1807.21 173.965 1806.67L175.919 1807.09ZM176.306 1796.98C176.448 1796.45 176.996 1796.13 177.53 1796.28C178.063 1796.42 178.381 1796.97 178.239 1797.5L176.306 1796.98ZM180.986 1788.03C180.82 1788.55 180.259 1788.85 179.732 1788.68C179.205 1788.51 178.912 1787.95 179.078 1787.43L180.986 1788.03ZM182.267 1777.99C182.455 1777.47 183.029 1777.21 183.548 1777.39C184.067 1777.58 184.335 1778.16 184.147 1778.67L182.267 1777.99ZM187.708 1769.47C187.498 1769.98 186.913 1770.22 186.402 1770.01C185.892 1769.8 185.648 1769.22 185.858 1768.71L187.708 1769.47ZM189.835 1759.58C190.066 1759.08 190.66 1758.86 191.161 1759.09C191.663 1759.33 191.882 1759.92 191.651 1760.42L189.835 1759.58ZM195.968 1751.54C195.716 1752.03 195.114 1752.22 194.622 1751.97C194.131 1751.72 193.936 1751.12 194.187 1750.63L195.968 1751.54ZM198.898 1741.86C199.169 1741.38 199.779 1741.21 200.26 1741.48C200.741 1741.75 200.911 1742.36 200.64 1742.84L198.898 1741.86ZM205.66 1734.34C205.37 1734.81 204.754 1734.96 204.284 1734.67C203.814 1734.38 203.669 1733.76 203.959 1733.29L205.66 1734.34ZM209.358 1724.93C209.667 1724.47 210.288 1724.35 210.746 1724.66C211.204 1724.96 211.325 1725.59 211.016 1726.04L209.358 1724.93ZM216.694 1717.97C216.368 1718.42 215.742 1718.51 215.297 1718.19C214.851 1717.86 214.755 1717.23 215.081 1716.79L216.694 1717.97ZM221.128 1708.88C221.472 1708.44 222.101 1708.37 222.533 1708.72C222.965 1709.06 223.037 1709.69 222.693 1710.12L221.128 1708.88ZM228.992 1702.52C228.631 1702.94 228 1702.99 227.582 1702.62C227.163 1702.26 227.117 1701.63 227.478 1701.21L228.992 1702.52ZM234.132 1693.81C234.509 1693.41 235.142 1693.38 235.545 1693.76C235.948 1694.14 235.97 1694.77 235.592 1695.18L234.132 1693.81ZM242.482 1688.1C242.089 1688.49 241.456 1688.48 241.068 1688.09C240.68 1687.7 240.685 1687.06 241.078 1686.68L242.482 1688.1ZM248.302 1679.84C248.711 1679.47 249.343 1679.5 249.715 1679.91C250.086 1680.32 250.055 1680.95 249.647 1681.32L248.302 1679.84ZM257.099 1674.83C256.675 1675.18 256.044 1675.12 255.69 1674.7C255.336 1674.28 255.393 1673.65 255.817 1673.29L257.099 1674.83ZM263.576 1667.09C264.015 1666.75 264.643 1666.84 264.978 1667.27C265.314 1667.71 265.23 1668.34 264.792 1668.68L263.576 1667.09ZM272.777 1662.84C272.324 1663.15 271.7 1663.04 271.384 1662.59C271.068 1662.14 271.179 1661.51 271.632 1661.2L272.777 1662.84ZM279.903 1655.69C280.369 1655.4 280.987 1655.53 281.283 1656C281.579 1656.47 281.44 1657.09 280.973 1657.38L279.903 1655.69ZM289.444 1652.28C288.965 1652.56 288.354 1652.39 288.08 1651.91C287.806 1651.43 287.973 1650.82 288.453 1650.55L289.444 1652.28ZM297.205 1645.82C297.697 1645.57 298.299 1645.77 298.55 1646.26C298.801 1646.75 298.605 1647.35 298.113 1647.6L297.205 1645.82ZM307.017 1643.34C306.513 1643.56 305.921 1643.34 305.695 1642.83C305.469 1642.33 305.694 1641.74 306.198 1641.51L307.017 1643.34ZM315.382 1637.67C315.896 1637.46 316.476 1637.72 316.676 1638.23C316.877 1638.75 316.622 1639.33 316.107 1639.53L315.382 1637.67ZM325.384 1636.19C324.86 1636.37 324.294 1636.08 324.121 1635.56C323.948 1635.03 324.233 1634.47 324.758 1634.29L325.384 1636.19ZM334.303 1631.43C334.836 1631.29 335.386 1631.6 335.53 1632.13C335.674 1632.67 335.359 1633.22 334.826 1633.36L334.303 1631.43ZM344.4 1631.05C343.859 1631.17 343.329 1630.82 343.215 1630.28C343.1 1629.74 343.446 1629.21 343.986 1629.1L344.4 1631.05ZM353.796 1627.32C354.342 1627.23 354.852 1627.61 354.935 1628.15C355.017 1628.7 354.642 1629.21 354.096 1629.29L353.796 1627.32ZM363.87 1628.11C363.32 1628.16 362.833 1627.75 362.783 1627.2C362.733 1626.65 363.138 1626.16 363.688 1626.11L363.87 1628.11ZM373.633 1625.51C374.185 1625.49 374.646 1625.92 374.663 1626.48C374.68 1627.03 374.246 1627.49 373.694 1627.51L373.633 1625.51ZM383.553 1627.51C383.001 1627.49 382.568 1627.03 382.585 1626.48C382.602 1625.93 383.064 1625.49 383.616 1625.51L383.553 1627.51ZM393.539 1626.13C394.089 1626.18 394.493 1626.67 394.441 1627.22C394.39 1627.77 393.902 1628.17 393.352 1628.12L393.539 1626.13ZM403.172 1629.35C402.627 1629.27 402.254 1628.76 402.34 1628.21C402.426 1627.66 402.938 1627.29 403.484 1627.38L403.172 1629.35ZM413.208 1629.22C413.747 1629.34 414.087 1629.88 413.968 1630.42C413.848 1630.95 413.314 1631.29 412.775 1631.17L413.208 1629.22ZM422.376 1633.62C421.846 1633.47 421.54 1632.92 421.693 1632.38C421.846 1631.85 422.4 1631.55 422.93 1631.7L422.376 1633.62ZM432.346 1634.73C432.867 1634.91 433.139 1635.48 432.954 1636C432.77 1636.52 432.198 1636.8 431.678 1636.61L432.346 1634.73ZM440.889 1640.19C440.38 1639.98 440.143 1639.39 440.358 1638.88C440.573 1638.37 441.16 1638.14 441.669 1638.35L440.889 1640.19ZM450.712 1642.49C451.207 1642.74 451.411 1643.33 451.167 1643.83C450.923 1644.33 450.323 1644.53 449.828 1644.29L450.712 1642.49ZM458.506 1648.86C458.024 1648.59 457.854 1647.98 458.125 1647.5C458.396 1647.02 459.006 1646.85 459.487 1647.12L458.506 1648.86ZM468.146 1652.31C468.612 1652.61 468.75 1653.23 468.453 1653.69C468.157 1654.16 467.539 1654.3 467.073 1654L468.146 1652.31ZM475.113 1659.4C474.662 1659.08 474.555 1658.46 474.875 1658.01C475.194 1657.56 475.818 1657.45 476.269 1657.77L475.113 1659.4ZM484.321 1663.77C484.755 1664.11 484.832 1664.74 484.491 1665.18C484.15 1665.61 483.522 1665.69 483.087 1665.35L484.321 1663.77ZM490.689 1671.59C490.27 1671.23 490.222 1670.6 490.582 1670.18C490.942 1669.76 491.574 1669.71 491.992 1670.07L490.689 1671.59ZM499.327 1676.66C499.73 1677.04 499.751 1677.67 499.373 1678.07C498.996 1678.47 498.363 1678.5 497.96 1678.12L499.327 1676.66ZM505.153 1685.14C504.766 1684.75 504.771 1684.12 505.165 1683.73C505.559 1683.34 506.192 1683.35 506.579 1683.74L505.153 1685.14ZM513.313 1690.86C513.685 1691.26 513.656 1691.9 513.248 1692.27C512.84 1692.64 512.207 1692.61 511.835 1692.2L513.313 1690.86ZM518.313 1699.57C517.955 1699.15 518.007 1698.52 518.428 1698.16C518.849 1697.8 519.48 1697.86 519.838 1698.28L518.313 1699.57ZM526.275 1706.14C526.618 1706.57 526.544 1707.2 526.111 1707.54C525.678 1707.89 525.049 1707.81 524.706 1707.38L526.275 1706.14ZM530.609 1715.1C530.281 1714.65 530.374 1714.03 530.818 1713.7C531.262 1713.37 531.888 1713.46 532.217 1713.91L530.609 1715.1ZM537.955 1721.9C538.27 1722.35 538.158 1722.98 537.705 1723.29C537.252 1723.61 536.628 1723.5 536.313 1723.04L537.955 1721.9ZM541.933 1731.38C541.631 1730.92 541.761 1730.3 542.223 1729.99C542.685 1729.69 543.305 1729.82 543.607 1730.28L541.933 1731.38ZM549.179 1738.99C549.477 1739.45 549.34 1740.07 548.875 1740.37C548.41 1740.67 547.791 1740.53 547.494 1740.06L549.179 1738.99ZM553.035 1748.66C552.734 1748.19 552.865 1747.57 553.328 1747.27C553.791 1746.97 554.411 1747.1 554.712 1747.57L553.035 1748.66ZM560.21 1755.95C560.515 1756.41 560.389 1757.03 559.929 1757.33C559.468 1757.64 558.848 1757.51 558.543 1757.05L560.21 1755.95ZM564.017 1765.24C563.708 1764.79 563.829 1764.16 564.287 1763.85C564.745 1763.55 565.366 1763.67 565.675 1764.13L564.017 1765.24ZM571.106 1772.11C571.418 1772.56 571.303 1773.18 570.848 1773.5C570.392 1773.81 569.77 1773.69 569.457 1773.24L571.106 1772.11ZM575.161 1781.46C574.844 1781.01 574.954 1780.39 575.406 1780.07C575.859 1779.75 576.482 1779.86 576.799 1780.31L575.161 1781.46ZM582.686 1788.63C583.008 1789.08 582.904 1789.7 582.455 1790.02C582.006 1790.34 581.382 1790.24 581.06 1789.79L582.686 1788.63ZM586.92 1797.89C586.593 1797.44 586.69 1796.81 587.136 1796.49C587.582 1796.16 588.207 1796.26 588.533 1796.7L586.92 1797.89ZM594.341 1804.55C594.672 1804.99 594.582 1805.62 594.14 1805.95C593.698 1806.28 593.071 1806.19 592.74 1805.75L594.341 1804.55ZM598.559 1813.43C598.223 1812.99 598.306 1812.37 598.744 1812.03C599.183 1811.69 599.81 1811.78 600.146 1812.22L598.559 1813.43ZM606.458 1820.34C606.8 1820.78 606.725 1821.41 606.291 1821.75C605.857 1822.09 605.228 1822.01 604.887 1821.58L606.458 1820.34ZM611.168 1829.45C610.821 1829.02 610.887 1828.39 611.317 1828.05C611.746 1827.7 612.376 1827.77 612.723 1828.19L611.168 1829.45ZM618.941 1835.77C619.294 1836.2 619.237 1836.83 618.812 1837.18C618.388 1837.54 617.757 1837.48 617.404 1837.05L618.941 1835.77ZM623.594 1844.38C623.235 1843.97 623.284 1843.33 623.703 1842.97C624.122 1842.62 624.754 1842.66 625.113 1843.08L623.594 1844.38ZM631.872 1850.84C632.238 1851.25 632.2 1851.88 631.787 1852.25C631.373 1852.62 630.741 1852.58 630.375 1852.17L631.872 1850.84ZM637.113 1859.64C636.74 1859.23 636.767 1858.6 637.173 1858.22C637.58 1857.85 638.213 1857.88 638.586 1858.28L637.113 1859.64ZM645.246 1865.41C645.627 1865.81 645.611 1866.44 645.211 1866.82C644.811 1867.2 644.178 1867.19 643.797 1866.79L645.246 1865.41ZM650.637 1873.83C650.248 1873.44 650.251 1872.8 650.643 1872.41C651.036 1872.03 651.669 1872.03 652.057 1872.42L650.637 1873.83ZM659.311 1879.58C659.708 1879.97 659.719 1880.6 659.336 1881C658.952 1881.39 658.319 1881.41 657.922 1881.02L659.311 1879.58ZM665.143 1887.83C664.737 1887.46 664.711 1886.83 665.085 1886.42C665.459 1886.02 666.092 1885.99 666.498 1886.36L665.143 1887.83ZM673.621 1892.77C674.036 1893.13 674.077 1893.76 673.713 1894.18C673.349 1894.59 672.717 1894.63 672.302 1894.27L673.621 1892.77ZM680.137 1900.94C679.711 1900.59 679.652 1899.96 680.004 1899.54C680.356 1899.11 680.986 1899.05 681.412 1899.4L680.137 1900.94ZM689.155 1905.62C689.591 1905.95 689.67 1906.58 689.331 1907.02C688.992 1907.45 688.363 1907.53 687.927 1907.19L689.155 1905.62ZM695.644 1913C695.198 1912.67 695.099 1912.05 695.423 1911.6C695.748 1911.15 696.373 1911.06 696.82 1911.38L695.644 1913ZM705.177 1917.22C705.636 1917.53 705.758 1918.15 705.45 1918.61C705.143 1919.07 704.521 1919.19 704.063 1918.88L705.177 1917.22ZM712.43 1924.26C711.959 1923.97 711.812 1923.36 712.102 1922.89C712.391 1922.42 713.007 1922.27 713.477 1922.56L712.43 1924.26ZM721.882 1927.48C722.365 1927.75 722.538 1928.36 722.269 1928.84C722.001 1929.32 721.392 1929.5 720.909 1929.23L721.882 1927.48ZM729.918 1933.96C729.423 1933.72 729.219 1933.12 729.464 1932.62C729.709 1932.13 730.308 1931.92 730.803 1932.17L729.918 1933.96ZM739.617 1936.24C740.125 1936.46 740.359 1937.05 740.14 1937.56C739.922 1938.06 739.333 1938.3 738.826 1938.08L739.617 1936.24ZM748.227 1941.81C747.708 1941.62 747.44 1941.05 747.629 1940.53C747.817 1940.01 748.391 1939.74 748.91 1939.93L748.227 1941.81ZM758.254 1943C758.784 1943.16 759.087 1943.71 758.932 1944.24C758.776 1944.77 758.22 1945.08 757.69 1944.92L758.254 1943ZM767.361 1947.41C766.822 1947.29 766.482 1946.76 766.601 1946.22C766.721 1945.68 767.255 1945.34 767.794 1945.46L767.361 1947.41ZM777.517 1947.25C778.063 1947.33 778.441 1947.84 778.361 1948.39C778.281 1948.93 777.773 1949.31 777.226 1949.23L777.517 1947.25ZM787.129 1950.31C786.578 1950.27 786.163 1949.79 786.202 1949.24C786.241 1948.69 786.719 1948.28 787.27 1948.31L787.129 1950.31ZM797.152 1948.63C797.704 1948.62 798.155 1949.06 798.16 1949.62C798.164 1950.17 797.72 1950.62 797.168 1950.62L797.152 1948.63ZM807.134 1950.15C806.584 1950.2 806.099 1949.79 806.051 1949.24C806.003 1948.69 806.411 1948.21 806.961 1948.16L807.134 1950.15ZM816.752 1946.92C817.297 1946.83 817.812 1947.19 817.903 1947.74C817.994 1948.28 817.626 1948.8 817.082 1948.89L816.752 1946.92ZM826.873 1946.86C826.337 1946.99 825.795 1946.67 825.662 1946.13C825.53 1945.59 825.857 1945.05 826.393 1944.92L826.873 1946.86ZM835.868 1942.2C836.393 1942.03 836.958 1942.32 837.129 1942.84C837.301 1943.37 837.014 1943.93 836.489 1944.1L835.868 1942.2ZM845.896 1940.66C845.384 1940.87 844.801 1940.62 844.594 1940.11C844.386 1939.6 844.633 1939.02 845.145 1938.81L845.896 1940.66ZM854.146 1934.81C854.643 1934.58 855.241 1934.78 855.481 1935.28C855.721 1935.78 855.512 1936.38 855.014 1936.62L854.146 1934.81ZM863.925 1931.98C863.443 1932.25 862.833 1932.08 862.564 1931.6C862.295 1931.11 862.468 1930.51 862.95 1930.24L863.925 1931.98ZM871.396 1925.22C871.863 1924.92 872.481 1925.06 872.775 1925.53C873.07 1926 872.93 1926.61 872.463 1926.91L871.396 1925.22ZM880.86 1921.31C880.409 1921.62 879.785 1921.52 879.467 1921.06C879.149 1920.61 879.258 1919.99 879.71 1919.67L880.86 1921.31ZM887.584 1913.86C888.021 1913.53 888.649 1913.61 888.986 1914.04C889.324 1914.48 889.243 1915.11 888.806 1915.45L887.584 1913.86ZM896.666 1909.11C896.243 1909.47 895.613 1909.41 895.257 1908.99C894.902 1908.57 894.957 1907.94 895.38 1907.58L896.666 1909.11ZM902.771 1901.14C903.181 1900.77 903.813 1900.8 904.183 1901.21C904.554 1901.62 904.522 1902.25 904.112 1902.62L902.771 1901.14ZM911.423 1895.78C911.026 1896.16 910.393 1896.15 910.009 1895.76C909.625 1895.36 909.635 1894.73 910.032 1894.34L911.423 1895.78ZM917.063 1887.33C917.448 1886.93 918.081 1886.92 918.477 1887.31C918.873 1887.69 918.882 1888.33 918.497 1888.72L917.063 1887.33ZM925.306 1881.52C924.932 1881.93 924.299 1881.95 923.893 1881.58C923.487 1881.21 923.46 1880.57 923.834 1880.17L925.306 1881.52ZM930.551 1872.67C930.915 1872.26 931.546 1872.22 931.962 1872.58C932.378 1872.94 932.421 1873.57 932.057 1873.99L930.551 1872.67ZM938.444 1866.51C938.09 1866.93 937.459 1866.99 937.035 1866.64C936.611 1866.28 936.554 1865.65 936.908 1865.23L938.444 1866.51ZM943.197 1857.52C943.542 1857.09 944.171 1857.02 944.602 1857.37C945.034 1857.71 945.104 1858.34 944.76 1858.77L943.197 1857.52ZM950.944 1850.87C950.608 1851.31 949.98 1851.39 949.542 1851.06C949.104 1850.72 949.021 1850.09 949.358 1849.65L950.944 1850.87ZM955.272 1841.8C955.6 1841.36 956.226 1841.26 956.67 1841.59C957.114 1841.92 957.208 1842.55 956.88 1842.99L955.272 1841.8ZM962.775 1834.88C962.454 1835.33 961.829 1835.43 961.38 1835.11C960.93 1834.79 960.826 1834.17 961.147 1833.72L962.775 1834.88ZM966.858 1825.59C967.173 1825.14 967.795 1825.02 968.25 1825.34C968.704 1825.65 968.818 1826.27 968.503 1826.73L966.858 1825.59ZM974.075 1818.55C973.767 1819.01 973.146 1819.13 972.688 1818.82C972.229 1818.51 972.107 1817.89 972.415 1817.43L974.075 1818.55ZM977.938 1809.08C978.24 1808.62 978.86 1808.49 979.322 1808.79C979.785 1809.09 979.915 1809.71 979.614 1810.17L977.938 1809.08ZM984.99 1801.82C984.694 1802.29 984.076 1802.42 983.61 1802.13C983.144 1801.83 983.006 1801.21 983.302 1800.75L984.99 1801.82ZM988.556 1792.37C988.847 1791.9 989.463 1791.76 989.933 1792.05C990.402 1792.34 990.547 1792.96 990.256 1793.43L988.556 1792.37ZM995.494 1784.87C995.208 1785.35 994.593 1785.5 994.121 1785.21C993.648 1784.93 993.497 1784.31 993.783 1783.84L995.494 1784.87ZM998.878 1775.33C999.159 1774.85 999.773 1774.69 1000.25 1774.98C1000.72 1775.26 1000.88 1775.87 1000.6 1776.35L998.878 1775.33ZM1005.61 1767.8C1005.33 1768.28 1004.72 1768.44 1004.24 1768.16C1003.76 1767.89 1003.6 1767.27 1003.88 1766.8L1005.61 1767.8ZM1008.85 1758.13C1009.13 1757.65 1009.74 1757.48 1010.22 1757.76C1010.7 1758.03 1010.87 1758.64 1010.59 1759.12L1008.85 1758.13ZM1015.49 1750.44C1015.22 1750.92 1014.61 1751.09 1014.13 1750.82C1013.64 1750.56 1013.47 1749.95 1013.74 1749.46L1015.49 1750.44ZM1018.53 1740.82C1018.79 1740.33 1019.4 1740.16 1019.89 1740.42C1020.37 1740.69 1020.55 1741.3 1020.28 1741.78L1018.53 1740.82ZM1025.06 1733.01C1024.79 1733.5 1024.19 1733.68 1023.7 1733.42C1023.22 1733.15 1023.03 1732.55 1023.3 1732.06L1025.06 1733.01ZM1028.02 1723.26C1028.28 1722.77 1028.88 1722.59 1029.37 1722.85C1029.86 1723.11 1030.04 1723.71 1029.78 1724.2L1028.02 1723.26ZM1034.4 1715.46C1034.14 1715.95 1033.54 1716.14 1033.05 1715.88C1032.56 1715.62 1032.37 1715.02 1032.63 1714.53L1034.4 1715.46ZM1037.23 1705.71C1037.48 1705.22 1038.08 1705.02 1038.57 1705.28C1039.06 1705.53 1039.26 1706.14 1039 1706.63L1037.23 1705.71ZM1043.59 1697.71C1043.34 1698.2 1042.74 1698.39 1042.24 1698.14C1041.75 1697.89 1041.56 1697.29 1041.81 1696.8L1043.59 1697.71ZM1046.28 1687.99C1046.53 1687.5 1047.13 1687.3 1047.63 1687.55C1048.12 1687.8 1048.32 1688.4 1048.07 1688.89L1046.28 1687.99ZM1052.53 1680.01C1052.28 1680.51 1051.68 1680.71 1051.19 1680.46C1050.69 1680.22 1050.49 1679.62 1050.74 1679.12L1052.53 1680.01ZM1055.19 1670.18C1055.43 1669.68 1056.03 1669.48 1056.52 1669.73C1057.02 1669.97 1057.22 1670.57 1056.98 1671.07L1055.19 1670.18ZM1061.37 1662.14C1061.13 1662.64 1060.53 1662.84 1060.03 1662.6C1059.54 1662.36 1059.33 1661.76 1059.57 1661.26L1061.37 1662.14ZM1063.92 1652.35C1064.16 1651.86 1064.76 1651.65 1065.26 1651.89C1065.75 1652.13 1065.96 1652.73 1065.72 1653.23L1063.92 1652.35ZM1070.06 1644.26C1069.82 1644.75 1069.22 1644.96 1068.72 1644.72C1068.23 1644.48 1068.02 1643.89 1068.26 1643.39L1070.06 1644.26ZM1072.57 1634.39C1072.81 1633.89 1073.41 1633.68 1073.91 1633.92C1074.41 1634.16 1074.62 1634.75 1074.38 1635.25L1072.57 1634.39ZM1078.64 1626.31C1078.4 1626.8 1077.81 1627.02 1077.31 1626.78C1076.81 1626.54 1076.6 1625.95 1076.84 1625.45L1078.64 1626.31ZM1081.09 1616.46C1081.32 1615.96 1081.92 1615.75 1082.42 1615.99C1082.92 1616.22 1083.13 1616.82 1082.9 1617.32L1081.09 1616.46ZM1087.14 1608.29C1086.91 1608.79 1086.31 1609 1085.81 1608.77C1085.31 1608.54 1085.1 1607.94 1085.33 1607.44L1087.14 1608.29ZM1089.55 1598.44C1089.78 1597.94 1090.38 1597.72 1090.88 1597.96C1091.38 1598.19 1091.59 1598.78 1091.36 1599.29L1089.55 1598.44ZM1095.55 1590.28C1095.32 1590.78 1094.73 1591 1094.23 1590.77C1093.73 1590.53 1093.51 1589.94 1093.74 1589.44L1095.55 1590.28ZM1097.93 1580.41C1098.16 1579.91 1098.76 1579.69 1099.26 1579.92C1099.76 1580.15 1099.98 1580.75 1099.75 1581.25L1097.93 1580.41ZM1103.93 1572.2C1103.7 1572.7 1103.1 1572.92 1102.6 1572.69C1102.1 1572.46 1101.88 1571.87 1102.11 1571.36L1103.93 1572.2ZM1106.27 1562.35C1106.5 1561.84 1107.09 1561.63 1107.6 1561.86C1108.1 1562.09 1108.32 1562.68 1108.09 1563.18L1106.27 1562.35ZM1112.24 1554.15C1112.01 1554.65 1111.42 1554.87 1110.91 1554.64C1110.41 1554.41 1110.19 1553.81 1110.42 1553.31L1112.24 1554.15ZM1114.58 1544.27C1114.81 1543.76 1115.4 1543.54 1115.9 1543.77C1116.4 1544 1116.62 1544.6 1116.39 1545.1L1114.58 1544.27ZM1120.54 1536.06C1120.31 1536.56 1119.72 1536.78 1119.21 1536.55C1118.71 1536.32 1118.49 1535.72 1118.72 1535.22L1120.54 1536.06ZM1122.86 1526.18C1123.09 1525.68 1123.69 1525.46 1124.19 1525.69C1124.69 1525.92 1124.91 1526.51 1124.68 1527.01L1122.86 1526.18ZM1128.82 1517.97C1128.59 1518.47 1128 1518.69 1127.5 1518.46C1127 1518.23 1126.77 1517.64 1127 1517.14L1128.82 1517.97ZM1131.15 1508.1C1131.38 1507.6 1131.97 1507.37 1132.47 1507.6C1132.97 1507.83 1133.19 1508.43 1132.96 1508.93L1131.15 1508.1ZM1137.11 1499.88C1136.88 1500.38 1136.29 1500.6 1135.79 1500.37C1135.29 1500.14 1135.07 1499.55 1135.3 1499.05L1137.11 1499.88ZM1139.45 1490.01C1139.68 1489.5 1140.27 1489.28 1140.77 1489.51C1141.28 1489.75 1141.5 1490.34 1141.27 1490.84L1139.45 1490.01ZM1145.42 1481.81C1145.19 1482.32 1144.59 1482.54 1144.09 1482.3C1143.59 1482.07 1143.37 1481.48 1143.6 1480.98L1145.42 1481.81ZM1147.69 1471.93C1147.9 1471.42 1148.49 1471.18 1149 1471.4C1149.51 1471.61 1149.74 1472.2 1149.53 1472.71L1147.69 1471.93ZM1153.2 1463.24C1153.01 1463.76 1152.44 1464.04 1151.92 1463.85C1151.4 1463.67 1151.13 1463.1 1151.31 1462.58L1153.2 1463.24ZM1154.38 1453C1154.53 1452.47 1155.08 1452.16 1155.61 1452.31C1156.15 1452.47 1156.45 1453.02 1156.3 1453.55L1154.38 1453ZM1158.84 1443.76C1158.72 1444.3 1158.18 1444.64 1157.64 1444.51C1157.1 1444.39 1156.77 1443.85 1156.89 1443.31L1158.84 1443.76ZM1158.93 1433.4C1159.02 1432.85 1159.54 1432.49 1160.09 1432.59C1160.63 1432.69 1160.99 1433.21 1160.89 1433.75L1158.93 1433.4ZM1162.43 1423.81C1162.36 1424.36 1161.86 1424.74 1161.31 1424.67C1160.77 1424.6 1160.38 1424.1 1160.45 1423.55L1162.43 1423.81ZM1161.55 1413.45C1161.6 1412.9 1162.08 1412.5 1162.63 1412.54C1163.19 1412.59 1163.59 1413.08 1163.54 1413.63L1161.55 1413.45ZM1164.21 1403.6C1164.19 1404.15 1163.72 1404.58 1163.17 1404.56C1162.61 1404.53 1162.19 1404.06 1162.21 1403.51L1164.21 1403.6ZM1162.49 1393.42C1162.49 1392.87 1162.94 1392.42 1163.49 1392.43C1164.05 1392.43 1164.49 1392.88 1164.49 1393.43L1162.49 1393.42ZM1164.39 1383.29C1164.4 1383.84 1163.97 1384.3 1163.41 1384.32C1162.86 1384.33 1162.4 1383.9 1162.39 1383.35L1164.39 1383.29ZM1161.94 1373.34C1161.91 1372.78 1162.33 1372.31 1162.88 1372.28C1163.43 1372.24 1163.9 1372.66 1163.94 1373.21L1161.94 1373.34ZM1163.15 1362.99C1163.2 1363.54 1162.8 1364.02 1162.25 1364.07C1161.7 1364.13 1161.21 1363.72 1161.16 1363.17L1163.15 1362.99ZM1160.09 1353.28C1160.02 1352.73 1160.41 1352.23 1160.96 1352.16C1161.51 1352.1 1162 1352.49 1162.07 1353.03L1160.09 1353.28ZM1160.69 1342.97C1160.77 1343.52 1160.4 1344.03 1159.85 1344.11C1159.3 1344.19 1158.79 1343.82 1158.71 1343.27L1160.69 1342.97ZM1157.06 1333.3C1156.96 1332.76 1157.32 1332.24 1157.86 1332.14C1158.41 1332.04 1158.93 1332.4 1159.03 1332.95L1157.06 1333.3ZM1157.12 1323.07C1157.23 1323.61 1156.89 1324.14 1156.34 1324.25C1155.8 1324.36 1155.27 1324.01 1155.16 1323.47L1157.12 1323.07ZM1152.99 1313.56C1152.87 1313.02 1153.2 1312.48 1153.74 1312.36C1154.28 1312.23 1154.82 1312.57 1154.94 1313.11L1152.99 1313.56ZM1152.55 1303.3C1152.69 1303.84 1152.37 1304.38 1151.83 1304.52C1151.3 1304.66 1150.75 1304.34 1150.61 1303.8L1152.55 1303.3ZM1148.01 1294.09C1147.86 1293.56 1148.17 1293.01 1148.7 1292.86C1149.24 1292.71 1149.79 1293.02 1149.94 1293.56L1148.01 1294.09ZM1147.07 1283.75C1147.23 1284.28 1146.94 1284.84 1146.41 1285C1145.88 1285.16 1145.32 1284.86 1145.16 1284.33L1147.07 1283.75ZM1142.15 1274.79C1141.98 1274.26 1142.27 1273.7 1142.79 1273.52C1143.32 1273.35 1143.88 1273.64 1144.05 1274.16L1142.15 1274.79ZM1140.82 1264.58C1141 1265.11 1140.72 1265.68 1140.2 1265.86C1139.68 1266.04 1139.11 1265.77 1138.93 1265.24L1140.82 1264.58ZM1135.48 1255.67C1135.29 1255.15 1135.55 1254.58 1136.07 1254.38C1136.59 1254.19 1137.17 1254.45 1137.36 1254.97L1135.48 1255.67ZM1133.78 1245.6C1133.98 1246.11 1133.73 1246.69 1133.21 1246.89C1132.7 1247.1 1132.12 1246.84 1131.92 1246.33L1133.78 1245.6ZM1128.15 1236.98C1127.93 1236.47 1128.18 1235.89 1128.69 1235.67C1129.2 1235.46 1129.78 1235.71 1129.99 1236.22L1128.15 1236.98ZM1126 1226.82C1126.22 1227.33 1125.99 1227.92 1125.49 1228.14C1124.98 1228.36 1124.39 1228.13 1124.17 1227.62L1126 1226.82ZM1120.1 1218.48C1119.87 1217.98 1120.09 1217.39 1120.59 1217.16C1121.09 1216.93 1121.69 1217.15 1121.92 1217.65L1120.1 1218.48ZM1117.64 1208.49C1117.88 1208.99 1117.66 1209.58 1117.17 1209.82C1116.67 1210.06 1116.07 1209.85 1115.83 1209.35L1117.64 1208.49ZM1111.38 1200.22C1111.13 1199.73 1111.33 1199.13 1111.83 1198.88C1112.32 1198.63 1112.92 1198.83 1113.17 1199.33L1111.38 1200.22ZM1108.61 1190.36C1108.86 1190.85 1108.67 1191.46 1108.18 1191.71C1107.69 1191.97 1107.09 1191.78 1106.83 1191.29L1108.61 1190.36ZM1102.12 1182.38C1101.86 1181.9 1102.04 1181.29 1102.52 1181.03C1103.01 1180.76 1103.62 1180.95 1103.88 1181.43L1102.12 1182.38ZM1098.97 1172.52C1099.24 1173 1099.07 1173.61 1098.59 1173.88C1098.11 1174.15 1097.5 1173.98 1097.23 1173.5L1098.97 1172.52ZM1092.24 1164.77C1091.96 1164.3 1092.13 1163.68 1092.6 1163.41C1093.08 1163.13 1093.69 1163.29 1093.97 1163.77L1092.24 1164.77ZM1088.82 1155.08C1089.1 1155.55 1088.95 1156.17 1088.48 1156.45C1088.01 1156.74 1087.39 1156.59 1087.11 1156.11L1088.82 1155.08ZM1081.81 1147.49C1081.52 1147.02 1081.66 1146.4 1082.13 1146.11C1082.6 1145.82 1083.21 1145.96 1083.51 1146.43L1081.81 1147.49ZM1078.08 1137.9C1078.38 1138.36 1078.25 1138.98 1077.79 1139.28C1077.32 1139.58 1076.7 1139.45 1076.4 1138.98L1078.08 1137.9ZM1070.87 1130.58C1070.57 1130.12 1070.69 1129.5 1071.15 1129.19C1071.61 1128.88 1072.23 1129.01 1072.54 1129.46L1070.87 1130.58ZM1066.84 1121.08C1067.15 1121.54 1067.04 1122.16 1066.58 1122.47C1066.13 1122.79 1065.5 1122.67 1065.19 1122.22L1066.84 1121.08ZM1059.38 1113.95C1059.06 1113.5 1059.17 1112.88 1059.62 1112.56C1060.07 1112.24 1060.69 1112.34 1061.01 1112.79L1059.38 1113.95ZM1055.09 1104.63C1055.41 1105.07 1055.32 1105.7 1054.88 1106.03C1054.43 1106.35 1053.8 1106.26 1053.48 1105.81L1055.09 1104.63ZM1047.43 1097.74C1047.09 1097.3 1047.18 1096.67 1047.62 1096.33C1048.06 1096 1048.68 1096.09 1049.02 1096.52L1047.43 1097.74ZM1042.81 1088.5C1043.15 1088.93 1043.08 1089.56 1042.64 1089.9C1042.21 1090.24 1041.58 1090.17 1041.24 1089.73L1042.81 1088.5ZM1034.97 1081.87C1034.62 1081.44 1034.68 1080.81 1035.11 1080.46C1035.54 1080.12 1036.17 1080.18 1036.52 1080.61L1034.97 1081.87ZM1030.09 1072.8C1030.45 1073.23 1030.39 1073.86 1029.97 1074.21C1029.54 1074.57 1028.91 1074.51 1028.56 1074.09L1030.09 1072.8ZM1022.02 1066.38C1021.66 1065.96 1021.7 1065.33 1022.12 1064.97C1022.54 1064.61 1023.17 1064.65 1023.53 1065.07L1022.02 1066.38ZM1016.87 1057.47C1017.24 1057.88 1017.2 1058.52 1016.79 1058.88C1016.38 1059.25 1015.75 1059.21 1015.38 1058.8L1016.87 1057.47ZM1008.62 1051.32C1008.25 1050.92 1008.28 1050.28 1008.69 1049.91C1009.09 1049.54 1009.73 1049.56 1010.1 1049.97L1008.62 1051.32ZM1003.19 1042.56C1003.57 1042.96 1003.56 1043.6 1003.16 1043.98C1002.75 1044.36 1002.12 1044.34 1001.74 1043.94L1003.19 1042.56ZM994.749 1036.66C994.363 1036.27 994.37 1035.64 994.766 1035.25C995.161 1034.86 995.794 1034.87 996.18 1035.27L994.749 1036.66ZM989.061 1028.09C989.454 1028.48 989.456 1029.11 989.067 1029.51C988.678 1029.9 988.045 1029.9 987.653 1029.51L989.061 1028.09ZM980.435 1022.46C980.037 1022.08 980.024 1021.45 980.407 1021.05C980.79 1020.65 981.423 1020.64 981.821 1021.02L980.435 1022.46ZM974.462 1014.06C974.866 1014.44 974.889 1015.07 974.513 1015.48C974.136 1015.88 973.504 1015.9 973.099 1015.53L974.462 1014.06ZM965.668 1008.73C965.258 1008.36 965.225 1007.72 965.595 1007.31C965.964 1006.9 966.596 1006.87 967.007 1007.24L965.668 1008.73ZM959.435 1000.53C959.851 1000.89 959.895 1001.53 959.532 1001.94C959.169 1002.36 958.537 1002.4 958.121 1002.04L959.435 1000.53ZM950.459 995.473C950.037 995.117 949.983 994.486 950.339 994.064C950.695 993.641 951.326 993.587 951.748 993.943L950.459 995.473ZM943.958 987.49C944.386 987.839 944.451 988.469 944.102 988.897C943.753 989.325 943.123 989.39 942.695 989.041L943.958 987.49ZM934.824 982.742C934.39 982.401 934.315 981.772 934.656 981.338C934.998 980.904 935.626 980.828 936.061 981.17L934.824 982.742ZM928.053 974.983C928.493 975.317 928.579 975.944 928.245 976.384C927.911 976.824 927.284 976.91 926.844 976.576L928.053 974.983ZM918.758 970.549C918.312 970.223 918.215 969.597 918.541 969.152C918.867 968.706 919.493 968.609 919.939 968.935L918.758 970.549ZM911.723 963.033C912.174 963.352 912.282 963.975 911.964 964.427C911.646 964.878 911.022 964.986 910.57 964.668L911.723 963.033ZM902.278 958.932C901.821 958.622 901.702 958 902.012 957.543C902.322 957.086 902.944 956.967 903.401 957.277L902.278 958.932ZM894.976 951.671C895.438 951.973 895.569 952.593 895.267 953.055C894.965 953.518 894.345 953.648 893.883 953.347L894.976 951.671ZM885.389 947.917C884.921 947.624 884.779 947.007 885.072 946.539C885.366 946.071 885.983 945.929 886.451 946.222L885.389 947.917ZM877.825 940.932C878.299 941.217 878.452 941.831 878.168 942.304C877.883 942.778 877.269 942.931 876.796 942.647L877.825 940.932ZM868.103 937.539C867.625 937.264 867.46 936.652 867.735 936.174C868.01 935.695 868.621 935.53 869.1 935.805L868.103 937.539ZM860.28 930.847C860.764 931.113 860.941 931.721 860.675 932.205C860.409 932.689 859.801 932.865 859.317 932.599L860.28 930.847ZM850.436 927.832C849.947 927.575 849.758 926.971 850.015 926.482C850.271 925.993 850.876 925.804 851.365 926.061L850.436 927.832ZM842.355 921.45C842.849 921.697 843.05 922.298 842.803 922.792C842.556 923.286 841.956 923.486 841.462 923.24L842.355 921.45ZM832.397 918.828C831.898 918.592 831.686 917.995 831.922 917.496C832.159 916.997 832.755 916.785 833.254 917.021L832.397 918.828ZM824.07 912.78C824.574 913.007 824.799 913.598 824.573 914.102C824.346 914.606 823.754 914.831 823.251 914.604L824.07 912.78ZM814.015 910.568C813.506 910.352 813.269 909.765 813.485 909.257C813.701 908.749 814.288 908.512 814.796 908.727L814.015 910.568ZM805.434 904.867C805.947 905.072 806.196 905.654 805.991 906.167C805.786 906.68 805.204 906.929 804.691 906.724L805.434 904.867ZM795.302 903.084C794.785 902.89 794.523 902.313 794.717 901.796C794.912 901.279 795.488 901.017 796.005 901.211L795.302 903.084ZM786.495 897.757C787.016 897.94 787.29 898.511 787.107 899.032C786.925 899.553 786.354 899.827 785.833 899.644L786.495 897.757ZM776.281 896.409C775.756 896.237 775.469 895.673 775.641 895.148C775.812 894.623 776.377 894.336 776.902 894.507L776.281 896.409ZM767.247 891.472C767.776 891.632 768.075 892.19 767.915 892.719C767.755 893.248 767.197 893.547 766.669 893.387L767.247 891.472ZM757.002 890.584C756.47 890.436 756.159 889.884 756.307 889.352C756.455 888.82 757.006 888.509 757.538 888.657L757.002 890.584ZM747.751 886.056C748.286 886.191 748.61 886.736 748.474 887.271C748.338 887.806 747.794 888.13 747.259 887.994L747.751 886.056ZM737.443 885.624C736.905 885.501 736.569 884.964 736.692 884.426C736.816 883.888 737.352 883.552 737.89 883.675L737.443 885.624ZM728.028 881.532C728.569 881.644 728.918 882.172 728.807 882.713C728.696 883.254 728.167 883.603 727.626 883.492L728.028 881.532ZM717.737 881.582C717.194 881.484 716.833 880.964 716.931 880.42C717.03 879.877 717.55 879.516 718.093 879.614L717.737 881.582ZM708.088 877.924C708.633 878.01 709.006 878.521 708.921 879.067C708.835 879.613 708.324 879.986 707.778 879.9L708.088 877.924ZM697.82 878.459C697.273 878.386 696.888 877.883 696.961 877.336C697.033 876.788 697.536 876.403 698.084 876.476L697.82 878.459ZM688.057 875.266C688.606 875.325 689.003 875.819 688.943 876.368C688.883 876.917 688.39 877.314 687.841 877.254L688.057 875.266ZM677.797 876.283C677.247 876.237 676.838 875.753 676.885 875.203C676.931 874.652 677.415 874.244 677.966 874.291L677.797 876.283ZM667.834 873.556C668.385 873.589 668.805 874.063 668.771 874.614C668.738 875.166 668.264 875.585 667.713 875.552L667.834 873.556ZM657.705 875.066C657.153 875.046 656.722 874.582 656.743 874.031C656.763 873.479 657.227 873.048 657.778 873.068L657.705 875.066ZM647.665 872.819C648.217 872.826 648.659 873.279 648.652 873.831C648.645 874.384 648.192 874.826 647.639 874.819L647.665 872.819ZM637.516 874.813C636.964 874.819 636.511 874.377 636.505 873.824C636.499 873.272 636.941 872.819 637.493 872.813L637.516 874.813ZM627.397 873.049C627.949 873.03 628.412 873.461 628.432 874.013C628.451 874.565 628.02 875.028 627.468 875.048L627.397 873.049ZM617.448 875.521C616.896 875.553 616.423 875.133 616.391 874.582C616.358 874.03 616.778 873.557 617.33 873.524L617.448 875.521ZM607.211 874.243C607.762 874.197 608.245 874.607 608.291 875.157C608.336 875.707 607.927 876.191 607.377 876.236L607.211 874.243ZM597.26 877.197C596.711 877.256 596.218 876.859 596.159 876.309C596.1 875.76 596.498 875.267 597.047 875.209L597.26 877.197ZM587.097 876.39C587.644 876.319 588.146 876.705 588.218 877.253C588.289 877.8 587.903 878.302 587.356 878.374L587.097 876.39ZM577.406 879.79C576.861 879.874 576.35 879.5 576.266 878.954C576.182 878.408 576.556 877.897 577.102 877.813L577.406 879.79ZM567.063 879.48C567.607 879.384 568.126 879.746 568.223 880.29C568.32 880.833 567.957 881.353 567.413 881.449L567.063 879.48ZM557.478 883.335C556.937 883.444 556.409 883.094 556.3 882.553C556.191 882.011 556.541 881.484 557.083 881.375L557.478 883.335ZM547.28 883.466C547.818 883.345 548.354 883.683 548.475 884.222C548.596 884.761 548.257 885.296 547.719 885.417L547.28 883.466ZM537.921 887.736C537.385 887.869 536.843 887.543 536.71 887.007C536.576 886.471 536.903 885.928 537.439 885.795L537.921 887.736ZM527.562 888.366C528.095 888.221 528.644 888.535 528.789 889.068C528.934 889.601 528.62 890.151 528.087 890.296L527.562 888.366ZM518.172 893.046C517.638 893.19 517.09 892.874 516.946 892.341C516.802 891.807 517.118 891.259 517.651 891.115L518.172 893.046ZM507.816 893.625C508.353 893.496 508.893 893.826 509.022 894.363C509.152 894.9 508.821 895.44 508.284 895.569L507.816 893.625ZM498.507 897.782C497.967 897.896 497.436 897.551 497.322 897.011C497.208 896.47 497.553 895.939 498.093 895.825L498.507 897.782ZM488.484 897.719C489.027 897.62 489.548 897.98 489.647 898.524C489.746 899.067 489.386 899.588 488.843 899.687L488.484 897.719ZM478.841 901.357C478.295 901.44 477.785 901.064 477.702 900.518C477.62 899.972 477.995 899.462 478.541 899.379L478.841 901.357ZM468.55 900.734C469.098 900.668 469.596 901.06 469.661 901.608C469.727 902.156 469.336 902.654 468.787 902.72L468.55 900.734ZM458.867 903.746C458.317 903.794 457.832 903.387 457.784 902.837C457.736 902.287 458.143 901.802 458.693 901.754L458.867 903.746ZM448.882 902.449C449.433 902.419 449.905 902.842 449.935 903.393C449.964 903.945 449.542 904.416 448.99 904.446L448.882 902.449ZM438.779 904.822C438.226 904.833 437.77 904.394 437.76 903.842C437.749 903.289 438.188 902.833 438.74 902.823L438.779 904.822ZM428.758 902.837C429.31 902.846 429.75 903.301 429.741 903.853C429.732 904.406 429.277 904.846 428.725 904.837L428.758 902.837ZM418.831 904.495C418.28 904.466 417.856 903.996 417.885 903.444C417.914 902.893 418.385 902.469 418.936 902.498L418.831 904.495ZM408.889 901.776C409.439 901.826 409.845 902.313 409.794 902.863C409.744 903.413 409.258 903.818 408.708 903.768L408.889 901.776ZM398.674 902.655C398.126 902.583 397.74 902.081 397.812 901.534C397.884 900.986 398.385 900.6 398.933 900.672L398.674 902.655ZM389.163 899.197C389.708 899.29 390.073 899.807 389.98 900.351C389.887 900.896 389.37 901.261 388.825 901.168L389.163 899.197ZM378.93 899.263C378.39 899.148 378.046 898.616 378.162 898.076C378.277 897.536 378.809 897.192 379.349 897.308L378.93 899.263ZM369.595 895.006C370.13 895.144 370.451 895.69 370.313 896.224C370.175 896.759 369.63 897.081 369.095 896.943L369.595 895.006ZM359.471 894.239C358.942 894.078 358.644 893.519 358.805 892.991C358.965 892.463 359.524 892.164 360.052 892.325L359.471 894.239ZM350.579 889.22C351.1 889.404 351.373 889.975 351.19 890.496C351.007 891.017 350.436 891.29 349.915 891.107L350.579 889.22ZM340.467 887.548C339.955 887.342 339.706 886.76 339.912 886.247C340.118 885.735 340.701 885.486 341.213 885.692L340.467 887.548ZM332.081 881.786C332.584 882.014 332.806 882.607 332.578 883.11C332.35 883.613 331.757 883.835 331.254 883.607L332.081 881.786ZM322.193 879.247C321.7 878.997 321.504 878.395 321.755 877.903C322.005 877.41 322.607 877.214 323.1 877.465L322.193 879.247ZM314.299 872.737C314.78 873.009 314.949 873.62 314.677 874.1C314.404 874.581 313.794 874.75 313.314 874.478L314.299 872.737ZM304.689 869.337C304.221 869.044 304.08 868.427 304.373 867.959C304.666 867.491 305.283 867.349 305.751 867.642L304.689 869.337ZM297.426 862.165C297.88 862.478 297.994 863.101 297.68 863.556C297.367 864.01 296.744 864.124 296.289 863.811L297.426 862.165ZM288.135 857.913C287.695 857.579 287.608 856.952 287.942 856.512C288.275 856.071 288.902 855.985 289.342 856.318L288.135 857.913ZM281.526 850.124C281.952 850.477 282.011 851.107 281.658 851.532C281.306 851.958 280.676 852.017 280.25 851.664L281.526 850.124ZM272.655 845.089C272.246 844.719 272.214 844.087 272.584 843.677C272.955 843.267 273.587 843.235 273.997 843.606L272.655 845.089ZM266.746 836.763C267.14 837.151 267.145 837.784 266.757 838.177C266.37 838.571 265.737 838.576 265.343 838.188L266.746 836.763ZM258.311 830.965C257.934 830.561 257.956 829.928 258.359 829.551C258.763 829.175 259.396 829.196 259.773 829.6L258.311 830.965ZM253.137 822.191C253.497 822.61 253.449 823.241 253.03 823.601C252.611 823.961 251.98 823.913 251.62 823.495L253.137 822.191ZM245.226 815.742C244.883 815.309 244.956 814.68 245.389 814.337C245.823 813.994 246.451 814.067 246.794 814.5L245.226 815.742ZM240.733 806.52C241.059 806.967 240.96 807.592 240.514 807.917C240.068 808.243 239.442 808.144 239.117 807.698L240.733 806.52ZM233.38 799.496C233.072 799.037 233.194 798.416 233.653 798.108C234.111 797.8 234.733 797.922 235.04 798.381L233.38 799.496ZM229.643 790C229.933 790.469 229.787 791.086 229.318 791.376C228.848 791.666 228.232 791.52 227.941 791.05L229.643 790ZM222.789 782.348C222.516 781.868 222.685 781.257 223.165 780.985C223.645 780.712 224.256 780.881 224.528 781.361L222.789 782.348ZM219.787 772.641C220.042 773.13 219.852 773.734 219.362 773.989C218.872 774.244 218.268 774.054 218.013 773.564L219.787 772.641ZM213.535 764.581C213.298 764.083 213.509 763.486 214.008 763.248C214.506 763.011 215.103 763.222 215.341 763.721L213.535 764.581ZM211.175 754.577C211.395 755.083 211.163 755.672 210.657 755.893C210.15 756.113 209.561 755.881 209.341 755.375L211.175 754.577ZM205.506 746.137C205.303 745.624 205.555 745.043 206.068 744.839C206.582 744.636 207.163 744.888 207.366 745.401L205.506 746.137ZM203.855 736.084C204.041 736.604 203.771 737.176 203.251 737.362C202.731 737.549 202.158 737.278 201.972 736.759L203.855 736.084ZM198.715 727.187C198.546 726.662 198.834 726.098 199.36 725.929C199.886 725.759 200.449 726.048 200.619 726.573L198.715 727.187ZM197.709 717.044C197.862 717.574 197.556 718.129 197.026 718.282C196.495 718.435 195.941 718.129 195.788 717.598L197.709 717.044ZM193.163 707.948C193.026 707.413 193.349 706.868 193.884 706.731C194.419 706.595 194.964 706.917 195.1 707.452L193.163 707.948ZM192.76 697.697C192.881 698.236 192.542 698.771 192.003 698.892C191.465 699.013 190.93 698.674 190.809 698.135L192.76 697.697ZM188.749 688.271C188.644 687.729 188.998 687.204 189.54 687.099C190.083 686.994 190.607 687.349 190.712 687.891L188.749 688.271ZM188.965 678.133C189.055 678.678 188.686 679.192 188.141 679.282C187.596 679.372 187.081 679.003 186.992 678.458L188.965 678.133ZM185.497 668.507C185.422 667.96 185.805 667.456 186.353 667.382C186.9 667.307 187.404 667.69 187.478 668.237L185.497 668.507ZM186.255 658.212C186.315 658.761 185.918 659.255 185.368 659.314C184.819 659.373 184.326 658.976 184.267 658.427L186.255 658.212ZM183.33 648.541C183.285 647.99 183.695 647.508 184.245 647.463C184.796 647.418 185.278 647.828 185.323 648.378L183.33 648.541ZM184.643 638.431C184.674 638.982 184.251 639.454 183.7 639.485C183.149 639.515 182.677 639.093 182.646 638.542L184.643 638.431ZM182.218 628.435C182.202 627.883 182.636 627.422 183.188 627.406C183.74 627.389 184.201 627.824 184.217 628.376L182.218 628.435ZM184.049 618.396C184.051 618.949 183.605 619.398 183.053 619.401C182.501 619.403 182.051 618.958 182.049 618.405L184.049 618.396ZM182.127 608.432C182.138 607.88 182.595 607.441 183.147 607.452C183.699 607.463 184.138 607.92 184.126 608.472L182.127 608.432ZM184.449 598.46C184.424 599.012 183.957 599.439 183.406 599.415C182.854 599.39 182.426 598.923 182.451 598.371L184.449 598.46ZM183.023 588.229C183.06 587.678 183.538 587.262 184.089 587.299C184.64 587.337 185.056 587.814 185.018 588.365L183.023 588.229ZM185.806 578.518C185.755 579.068 185.269 579.473 184.719 579.423C184.169 579.372 183.764 578.886 183.814 578.336L185.806 578.518ZM184.841 568.383C184.904 567.834 185.399 567.44 185.948 567.503C186.497 567.566 186.891 568.062 186.828 568.61L184.841 568.383ZM188.086 558.638C188.011 559.185 187.506 559.567 186.959 559.492C186.412 559.416 186.03 558.912 186.105 558.365L188.086 558.638ZM187.593 548.382C187.681 547.836 188.193 547.465 188.739 547.553C189.284 547.64 189.655 548.153 189.568 548.699L187.593 548.382ZM191.241 538.946C191.142 539.49 190.621 539.85 190.078 539.75C189.534 539.651 189.174 539.13 189.273 538.587L191.241 538.946ZM191.181 528.743C191.292 528.202 191.82 527.853 192.361 527.964C192.902 528.075 193.251 528.604 193.14 529.145L191.181 528.743ZM195.268 519.298C195.145 519.836 194.61 520.174 194.071 520.051C193.533 519.929 193.195 519.393 193.317 518.855L195.268 519.298ZM195.645 509.081C195.779 508.545 196.322 508.219 196.858 508.352C197.393 508.486 197.72 509.028 197.586 509.564L195.645 509.081ZM200.079 499.976C199.935 500.509 199.386 500.824 198.853 500.68C198.32 500.535 198.005 499.986 198.149 499.453L200.079 499.976ZM200.871 489.794C201.026 489.264 201.581 488.96 202.111 489.115C202.641 489.27 202.945 489.825 202.79 490.356L200.871 489.794ZM205.72 480.706C205.554 481.233 204.993 481.526 204.466 481.36C203.939 481.194 203.646 480.633 203.812 480.106L205.72 480.706ZM206.917 470.564C207.093 470.041 207.66 469.759 208.184 469.935C208.707 470.111 208.989 470.678 208.813 471.202L206.917 470.564ZM212.061 461.842C211.875 462.362 211.302 462.633 210.783 462.447C210.263 462.261 209.992 461.689 210.178 461.169L212.061 461.842ZM213.647 451.756C213.843 451.239 214.421 450.98 214.937 451.176C215.453 451.372 215.713 451.949 215.517 452.465L213.647 451.756ZM219.183 443.074C218.977 443.586 218.395 443.835 217.883 443.629C217.37 443.424 217.121 442.841 217.327 442.329L219.183 443.074ZM221.16 433.028C221.376 432.519 221.962 432.281 222.471 432.497C222.98 432.712 223.218 433.299 223.002 433.807L221.16 433.028ZM226.94 424.731C226.716 425.235 226.125 425.462 225.62 425.238C225.115 425.014 224.888 424.423 225.112 423.918L226.94 424.731ZM229.264 414.803C229.497 414.303 230.092 414.086 230.593 414.319C231.093 414.553 231.31 415.148 231.076 415.648L229.264 414.803ZM235.413 406.564C235.171 407.06 234.572 407.266 234.076 407.023C233.579 406.781 233.374 406.182 233.616 405.686L235.413 406.564ZM238.143 396.623C238.394 396.131 238.996 395.936 239.488 396.187C239.98 396.438 240.175 397.04 239.924 397.532L238.143 396.623ZM244.487 388.783C244.227 389.27 243.622 389.455 243.134 389.195C242.647 388.936 242.462 388.33 242.721 387.843L244.487 388.783ZM247.49 379.068C247.757 378.585 248.366 378.41 248.849 378.678C249.332 378.946 249.507 379.555 249.239 380.038L247.49 379.068ZM254.181 371.3C253.905 371.779 253.294 371.943 252.815 371.667C252.337 371.391 252.173 370.779 252.449 370.301L254.181 371.3ZM257.6 361.544C257.884 361.071 258.498 360.917 258.972 361.201C259.446 361.485 259.599 362.099 259.315 362.573L257.6 361.544ZM264.489 354.104C264.197 354.573 263.58 354.716 263.111 354.425C262.642 354.133 262.499 353.516 262.79 353.047L264.489 354.104ZM268.111 344.646C268.411 344.182 269.03 344.048 269.494 344.348C269.958 344.647 270.092 345.266 269.792 345.73L268.111 344.646ZM275.276 337.372C274.97 337.832 274.349 337.955 273.889 337.649C273.43 337.342 273.306 336.721 273.613 336.262L275.276 337.372ZM279.297 327.895C279.611 327.441 280.233 327.327 280.688 327.641C281.142 327.955 281.256 328.578 280.942 329.032L279.297 327.895ZM286.751 320.767C286.43 321.216 285.805 321.32 285.356 320.999C284.907 320.678 284.803 320.053 285.124 319.604L286.751 320.767ZM290.934 311.603C291.262 311.159 291.888 311.064 292.333 311.392C292.777 311.72 292.871 312.346 292.544 312.791L290.934 311.603ZM298.506 304.837C298.172 305.276 297.544 305.361 297.105 305.027C296.666 304.692 296.581 304.065 296.915 303.625L298.506 304.837ZM303.068 295.672C303.409 295.238 304.038 295.163 304.472 295.504C304.906 295.845 304.982 296.474 304.64 296.908L303.068 295.672ZM310.946 289.005C310.599 289.434 309.969 289.5 309.54 289.152C309.111 288.805 309.045 288.175 309.393 287.746L310.946 289.005ZM315.785 279.975C316.139 279.551 316.77 279.494 317.193 279.848C317.617 280.202 317.674 280.833 317.32 281.257L315.785 279.975ZM323.7 273.726C323.34 274.145 322.709 274.192 322.29 273.832C321.871 273.472 321.823 272.841 322.183 272.422L323.7 273.726ZM328.743 264.899C329.109 264.485 329.741 264.447 330.155 264.813C330.568 265.179 330.607 265.811 330.241 266.224L328.743 264.899ZM336.944 258.754C336.572 259.162 335.94 259.192 335.531 258.82C335.123 258.449 335.093 257.816 335.465 257.408L336.944 258.754ZM342.349 249.949C342.727 249.546 343.36 249.525 343.763 249.903C344.166 250.28 344.187 250.913 343.809 251.316L342.349 249.949ZM350.71 244.046C350.327 244.444 349.694 244.456 349.296 244.073C348.898 243.69 348.886 243.057 349.269 242.659L350.71 244.046ZM356.177 235.577C356.565 235.184 357.198 235.18 357.591 235.569C357.984 235.957 357.987 236.59 357.599 236.983L356.177 235.577ZM364.639 229.955C364.246 230.342 363.613 230.338 363.225 229.944C362.838 229.551 362.842 228.918 363.236 228.53L364.639 229.955ZM370.447 221.52C370.846 221.137 371.479 221.15 371.861 221.549C372.243 221.947 372.23 222.58 371.832 222.963L370.447 221.52ZM379.177 216.008C378.774 216.386 378.141 216.364 377.764 215.961C377.387 215.557 377.408 214.924 377.812 214.547L379.177 216.008ZM385.248 207.689C385.656 207.317 386.289 207.347 386.66 207.755C387.032 208.164 387.003 208.796 386.594 209.168L385.248 207.689ZM393.915 202.586C393.502 202.953 392.87 202.915 392.504 202.502C392.137 202.089 392.175 201.457 392.588 201.091L393.915 202.586ZM400.069 194.531C400.487 194.17 401.119 194.215 401.48 194.633C401.842 195.05 401.796 195.682 401.379 196.043L400.069 194.531ZM408.984 189.54C408.562 189.896 407.931 189.843 407.575 189.421C407.219 188.999 407.272 188.368 407.694 188.012L408.984 189.54ZM415.462 181.534C415.888 181.183 416.518 181.244 416.869 181.671C417.221 182.097 417.16 182.727 416.733 183.078L415.462 181.534ZM424.626 176.659C424.195 177.005 423.566 176.936 423.22 176.506C422.874 176.075 422.943 175.446 423.373 175.1L424.626 176.659ZM431.129 168.945C431.564 168.604 432.192 168.68 432.533 169.115C432.874 169.549 432.798 170.178 432.363 170.519L431.129 168.945ZM440.177 164.465C439.738 164.8 439.111 164.717 438.775 164.279C438.439 163.84 438.522 163.212 438.961 162.877L440.177 164.465ZM446.926 156.851C447.368 156.521 447.995 156.611 448.326 157.053C448.656 157.496 448.566 158.122 448.123 158.453L446.926 156.851ZM456.204 152.485C455.757 152.811 455.132 152.713 454.806 152.267C454.481 151.821 454.578 151.195 455.024 150.87L456.204 152.485ZM463.257 144.933C463.707 144.613 464.331 144.717 464.652 145.167C464.972 145.617 464.868 146.241 464.418 146.562L463.257 144.933ZM472.699 140.732C472.245 141.047 471.622 140.935 471.307 140.482C470.991 140.028 471.103 139.405 471.557 139.09L472.699 140.732ZM479.67 133.51C480.127 133.199 480.749 133.318 481.059 133.775C481.37 134.231 481.251 134.853 480.795 135.164L479.67 133.51ZM489.014 129.64C488.554 129.945 487.934 129.82 487.628 129.36C487.322 128.9 487.448 128.28 487.908 127.974L489.014 129.64ZM496.269 122.483C496.732 122.182 497.351 122.314 497.652 122.777C497.953 123.241 497.821 123.86 497.358 124.161L496.269 122.483ZM505.826 118.727C505.36 119.023 504.742 118.885 504.446 118.418C504.15 117.952 504.289 117.334 504.755 117.038L505.826 118.727ZM513.366 111.641C513.836 111.35 514.452 111.495 514.743 111.964C515.034 112.434 514.889 113.05 514.419 113.341L513.366 111.641ZM523.037 108.063C522.565 108.349 521.95 108.198 521.664 107.726C521.378 107.253 521.529 106.638 522.002 106.352L523.037 108.063ZM530.449 101.296C530.924 101.015 531.537 101.172 531.818 101.647C532.1 102.123 531.943 102.736 531.467 103.017L530.449 101.296ZM540.012 98.0166C539.534 98.2932 538.922 98.1299 538.646 97.6518C538.369 97.1738 538.532 96.562 539.011 96.2854L540.012 98.0166ZM547.688 91.3211C548.169 91.0493 548.779 91.2185 549.051 91.6992C549.323 92.18 549.153 92.7901 548.673 93.062L547.688 91.3211ZM557.449 88.1544C556.965 88.4217 556.357 88.2465 556.09 87.7631C555.822 87.2798 555.998 86.6713 556.481 86.4042L557.449 88.1544ZM565.39 81.5353C565.876 81.2727 566.483 81.4538 566.745 81.9397C567.008 82.4256 566.827 83.0323 566.341 83.2948L565.39 81.5353ZM575.337 78.4904C574.848 78.7483 574.244 78.5613 573.986 78.0729C573.728 77.5845 573.915 76.9796 574.403 76.7217L575.337 78.4904ZM583.109 72.1766C583.6 71.9232 584.203 72.1156 584.457 72.6063C584.71 73.0971 584.518 73.7003 584.027 73.9537L583.109 72.1766ZM592.823 69.4628C592.33 69.7117 591.729 69.5137 591.48 69.0207C591.231 68.5277 591.429 67.9263 591.922 67.6774L592.823 69.4628ZM600.841 63.2249C601.337 62.9804 601.936 63.1838 602.181 63.679C602.425 64.1743 602.222 64.7739 601.727 65.0183L600.841 63.2249ZM610.737 60.6211C610.239 60.8611 609.642 60.6524 609.402 60.155C609.162 59.6577 609.37 59.0599 609.868 58.8198L610.737 60.6211ZM619.002 54.4631C619.501 54.2275 620.097 54.4415 620.333 54.9411C620.568 55.4406 620.354 56.0364 619.855 56.272L619.002 54.4631ZM629.08 51.9717C628.579 52.2027 627.985 51.9835 627.754 51.4818C627.522 50.9802 627.742 50.3863 628.243 50.1551L629.08 51.9717ZM273.897 2021.38C272.43 2020.47 270.98 2019.56 269.547 2018.65L270.624 2016.96C272.047 2017.87 273.487 2018.78 274.945 2019.67L273.897 2021.38ZM261.154 2013.08C258.425 2011.2 255.763 2009.29 253.167 2007.36L254.36 2005.76C256.937 2007.67 259.579 2009.56 262.29 2011.43L261.154 2013.08ZM245.311 2001.28C242.667 1999.16 240.1 1997 237.607 1994.82L238.923 1993.32C241.395 1995.48 243.942 1997.62 246.565 1999.73L245.311 2001.28ZM230.353 1988.22C227.903 1985.89 225.535 1983.54 223.246 1981.16L224.686 1979.77C226.954 1982.13 229.302 1984.46 231.73 1986.77L230.353 1988.22ZM216.484 1973.81C214.306 1971.33 212.21 1968.83 210.195 1966.3L211.758 1965.05C213.754 1967.56 215.829 1970.04 217.987 1972.49L216.484 1973.81ZM204.094 1958.25C202.148 1955.54 200.29 1952.82 198.519 1950.07L200.2 1948.98C201.953 1951.7 203.792 1954.4 205.718 1957.08L204.094 1958.25ZM193.344 1941.55C191.676 1938.64 190.101 1935.71 188.617 1932.76L190.404 1931.86C191.872 1934.78 193.43 1937.68 195.079 1940.56L193.344 1941.55ZM184.411 1923.8C183.065 1920.72 181.812 1917.62 180.652 1914.51L182.527 1913.81C183.674 1916.89 184.912 1919.95 186.244 1923L184.411 1923.8ZM177.449 1905.13C176.454 1901.94 175.553 1898.73 174.743 1895.51L176.683 1895.02C177.483 1898.2 178.374 1901.38 179.358 1904.54L177.449 1905.13ZM172.584 1885.8C171.95 1882.53 171.408 1879.25 170.955 1875.97L172.936 1875.69C173.384 1878.94 173.92 1882.18 174.547 1885.41L172.584 1885.8ZM169.859 1866.06C169.581 1862.75 169.392 1859.44 169.29 1856.12L171.289 1856.06C171.39 1859.34 171.577 1862.62 171.852 1865.89L169.859 1866.06ZM169.239 1846.16C169.307 1842.84 169.46 1839.52 169.694 1836.21L171.689 1836.35C171.457 1839.63 171.306 1842.91 171.238 1846.2L169.239 1846.16ZM170.644 1826.3C171.041 1823 171.518 1819.71 172.073 1816.44L174.045 1816.77C173.496 1820.02 173.023 1823.27 172.63 1826.54L170.644 1826.3ZM173.965 1806.67C174.671 1803.43 175.452 1800.2 176.306 1796.98L178.239 1797.5C177.393 1800.68 176.618 1803.88 175.919 1807.09L173.965 1806.67ZM179.078 1787.43C180.071 1784.26 181.135 1781.12 182.267 1777.99L184.147 1778.67C183.025 1781.77 181.971 1784.89 180.986 1788.03L179.078 1787.43ZM185.858 1768.71C187.119 1765.64 188.445 1762.6 189.835 1759.58L191.651 1760.42C190.273 1763.41 188.958 1766.43 187.708 1769.47L185.858 1768.71ZM194.187 1750.63C195.698 1747.68 197.269 1744.75 198.898 1741.86L200.64 1742.84C199.024 1745.71 197.466 1748.61 195.968 1751.54L194.187 1750.63ZM203.959 1733.29C205.703 1730.47 207.503 1727.68 209.358 1724.93L211.016 1726.04C209.177 1728.77 207.391 1731.54 205.66 1734.34L203.959 1733.29ZM215.081 1716.79C217.046 1714.11 219.062 1711.47 221.128 1708.88L222.693 1710.12C220.643 1712.7 218.643 1715.31 216.694 1717.97L215.081 1716.79ZM227.478 1701.21C229.649 1698.7 231.867 1696.23 234.132 1693.81L235.592 1695.18C233.346 1697.58 231.145 1700.03 228.992 1702.52L227.478 1701.21ZM241.078 1686.68C243.443 1684.34 245.851 1682.06 248.302 1679.84L249.647 1681.32C247.217 1683.53 244.828 1685.79 242.482 1688.1L241.078 1686.68ZM255.817 1673.29C258.364 1671.17 260.951 1669.1 263.576 1667.09L264.792 1668.68C262.19 1670.67 259.625 1672.72 257.099 1674.83L255.817 1673.29ZM271.632 1661.2C274.353 1659.3 277.111 1657.46 279.903 1655.69L280.973 1657.38C278.207 1659.13 275.474 1660.95 272.777 1662.84L271.632 1661.2ZM288.453 1650.55C291.339 1648.9 294.257 1647.32 297.205 1645.82L298.113 1647.6C295.194 1649.09 292.303 1650.65 289.444 1652.28L288.453 1650.55ZM306.198 1641.51C309.232 1640.15 312.294 1638.87 315.382 1637.67L316.107 1639.53C313.052 1640.72 310.021 1641.99 307.017 1643.34L306.198 1641.51ZM324.758 1634.29C327.917 1633.25 331.1 1632.3 334.303 1631.43L334.826 1633.36C331.658 1634.22 328.51 1635.16 325.384 1636.19L324.758 1634.29ZM343.986 1629.1C347.239 1628.41 350.51 1627.81 353.796 1627.32L354.096 1629.29C350.848 1629.79 347.615 1630.37 344.4 1631.05L343.986 1629.1ZM363.688 1626.11C366.991 1625.81 370.307 1625.61 373.633 1625.51L373.694 1627.51C370.409 1627.61 367.134 1627.81 363.87 1628.11L363.688 1626.11ZM383.616 1625.51C386.917 1625.61 390.226 1625.82 393.539 1626.13L393.352 1628.12C390.081 1627.81 386.814 1627.61 383.553 1627.51L383.616 1625.51ZM403.484 1627.38C406.724 1627.89 409.966 1628.5 413.208 1629.22L412.775 1631.17C409.573 1630.46 406.372 1629.86 403.172 1629.35L403.484 1627.38ZM422.93 1631.7C426.072 1632.61 429.212 1633.61 432.346 1634.73L431.678 1636.61C428.581 1635.51 425.48 1634.52 422.376 1633.62L422.93 1631.7ZM441.669 1638.35C444.69 1639.63 447.705 1641.01 450.712 1642.49L449.828 1644.29C446.855 1642.82 443.875 1641.46 440.889 1640.19L441.669 1638.35ZM459.487 1647.12C462.384 1648.75 465.271 1650.48 468.146 1652.31L467.073 1654C464.227 1652.19 461.371 1650.48 458.506 1648.86L459.487 1647.12ZM476.269 1657.77C478.965 1659.68 481.649 1661.68 484.321 1663.77L483.087 1665.35C480.441 1663.27 477.782 1661.29 475.113 1659.4L476.269 1657.77ZM491.992 1670.07C494.45 1672.19 496.895 1674.38 499.327 1676.66L497.96 1678.12C495.549 1675.86 493.125 1673.68 490.689 1671.59L491.992 1670.07ZM506.579 1683.74C508.837 1686.04 511.082 1688.41 513.313 1690.86L511.835 1692.2C509.621 1689.77 507.393 1687.42 505.153 1685.14L506.579 1683.74ZM519.838 1698.28C521.998 1700.82 524.145 1703.44 526.275 1706.14L524.706 1707.38C522.59 1704.7 520.458 1702.1 518.313 1699.57L519.838 1698.28ZM532.217 1713.91C534.143 1716.51 536.056 1719.17 537.955 1721.9L536.313 1723.04C534.426 1720.33 532.524 1717.68 530.609 1715.1L532.217 1713.91ZM543.607 1730.28C544.542 1731.71 545.473 1733.16 546.4 1734.62L544.711 1735.69C543.789 1734.24 542.863 1732.8 541.933 1731.38L543.607 1730.28ZM546.4 1734.62C547.328 1736.08 548.254 1737.54 549.179 1738.99L547.494 1740.06C546.568 1738.61 545.64 1737.16 544.711 1735.69L546.4 1734.62ZM554.712 1747.57C556.55 1750.39 558.383 1753.19 560.21 1755.95L558.543 1757.05C556.713 1754.29 554.877 1751.49 553.035 1748.66L554.712 1747.57ZM565.675 1764.13C567.491 1766.82 569.301 1769.48 571.106 1772.11L569.457 1773.24C567.649 1770.61 565.836 1767.94 564.017 1765.24L565.675 1764.13ZM576.799 1780.31C578.768 1783.12 580.731 1785.89 582.686 1788.63L581.06 1789.79C579.1 1787.05 577.134 1784.28 575.161 1781.46L576.799 1780.31ZM588.533 1796.7C590.476 1799.36 592.412 1801.97 594.341 1804.55L592.74 1805.75C590.806 1803.17 588.866 1800.55 586.92 1797.89L588.533 1796.7ZM600.146 1812.22C602.258 1814.97 604.362 1817.68 606.458 1820.34L604.887 1821.58C602.785 1818.91 600.676 1816.19 598.559 1813.43L600.146 1812.22ZM612.723 1828.19C614.803 1830.77 616.876 1833.29 618.941 1835.77L617.404 1837.05C615.333 1834.57 613.254 1832.03 611.168 1829.45L612.723 1828.19ZM625.113 1843.08C627.375 1845.72 629.628 1848.31 631.872 1850.84L630.375 1852.17C628.124 1849.63 625.864 1847.03 623.594 1844.38L625.113 1843.08ZM638.586 1858.28C640.815 1860.71 643.035 1863.09 645.246 1865.41L643.797 1866.79C641.578 1864.46 639.35 1862.07 637.113 1859.64L638.586 1858.28ZM652.057 1872.42C654.486 1874.87 656.904 1877.26 659.311 1879.58L657.922 1881.02C655.504 1878.69 653.076 1876.29 650.637 1873.83L652.057 1872.42ZM666.498 1886.36C668.883 1888.56 671.257 1890.69 673.621 1892.77L672.302 1894.27C669.926 1892.19 667.54 1890.04 665.143 1887.83L666.498 1886.36ZM681.412 1899.4C684.006 1901.55 686.587 1903.62 689.155 1905.62L687.927 1907.19C685.343 1905.19 682.746 1903.1 680.137 1900.94L681.412 1899.4ZM696.82 1911.38C699.621 1913.42 702.407 1915.36 705.177 1917.22L704.063 1918.88C701.271 1917.01 698.465 1915.05 695.644 1913L696.82 1911.38ZM713.477 1922.56C716.295 1924.29 719.096 1925.93 721.882 1927.48L720.909 1929.23C718.098 1927.66 715.271 1926.01 712.43 1924.26L713.477 1922.56ZM730.803 1932.17C733.759 1933.63 736.697 1934.98 739.617 1936.24L738.826 1938.08C735.873 1936.81 732.904 1935.44 729.918 1933.96L730.803 1932.17ZM748.91 1939.93C752.045 1941.07 755.159 1942.09 758.254 1943L757.69 1944.92C754.555 1944 751.401 1942.96 748.227 1941.81L748.91 1939.93ZM767.794 1945.46C771.057 1946.18 774.298 1946.78 777.517 1947.25L777.226 1949.23C773.959 1948.75 770.67 1948.15 767.361 1947.41L767.794 1945.46ZM787.27 1948.31C790.586 1948.55 793.88 1948.65 797.152 1948.63L797.168 1950.62C793.843 1950.65 790.497 1950.55 787.129 1950.31L787.27 1948.31ZM806.961 1948.16C810.246 1947.87 813.51 1947.46 816.752 1946.92L817.082 1948.89C813.788 1949.44 810.472 1949.86 807.134 1950.15L806.961 1948.16ZM826.393 1944.92C829.571 1944.13 832.729 1943.23 835.868 1942.2L836.489 1944.1C833.305 1945.14 830.1 1946.06 826.873 1946.86L826.393 1944.92ZM845.145 1938.81C848.163 1937.59 851.163 1936.25 854.146 1934.81L855.014 1936.62C851.994 1938.07 848.955 1939.42 845.896 1940.66L845.145 1938.81ZM862.95 1930.24C865.781 1928.66 868.596 1926.98 871.396 1925.22L872.463 1926.91C869.634 1928.69 866.788 1930.39 863.925 1931.98L862.95 1930.24ZM879.71 1919.67C882.348 1917.82 884.972 1915.88 887.584 1913.86L888.806 1915.45C886.171 1917.48 883.523 1919.43 880.86 1921.31L879.71 1919.67ZM895.38 1907.58C897.855 1905.5 900.319 1903.35 902.771 1901.14L904.112 1902.62C901.642 1904.85 899.161 1907.02 896.666 1909.11L895.38 1907.58ZM910.032 1894.34C912.386 1892.07 914.729 1889.73 917.063 1887.33L918.497 1888.72C916.149 1891.14 913.791 1893.49 911.423 1895.78L910.032 1894.34ZM923.834 1880.17C926.082 1877.72 928.321 1875.23 930.551 1872.67L932.057 1873.99C929.816 1876.55 927.566 1879.07 925.306 1881.52L923.834 1880.17ZM936.908 1865.23C939.012 1862.71 941.108 1860.14 943.197 1857.52L944.76 1858.77C942.662 1861.4 940.557 1863.98 938.444 1866.51L936.908 1865.23ZM949.358 1849.65C951.336 1847.08 953.307 1844.46 955.272 1841.8L956.88 1842.99C954.908 1845.66 952.93 1848.28 950.944 1850.87L949.358 1849.65ZM961.147 1833.72C963.057 1831.04 964.961 1828.33 966.858 1825.59L968.503 1826.73C966.6 1829.48 964.69 1832.2 962.775 1834.88L961.147 1833.72ZM972.415 1817.43C974.261 1814.68 976.102 1811.9 977.938 1809.08L979.614 1810.17C977.773 1813 975.927 1815.79 974.075 1818.55L972.415 1817.43ZM983.302 1800.75C985.058 1797.98 986.809 1795.19 988.556 1792.37L990.256 1793.43C988.506 1796.25 986.75 1799.05 984.99 1801.82L983.302 1800.75ZM993.783 1783.84C995.485 1781.03 997.184 1778.19 998.878 1775.33L1000.6 1776.35C998.901 1779.21 997.2 1782.06 995.494 1784.87L993.783 1783.84ZM1003.88 1766.8C1005.54 1763.93 1007.2 1761.04 1008.85 1758.13L1010.59 1759.12C1008.94 1762.03 1007.27 1764.93 1005.61 1767.8L1003.88 1766.8ZM1013.74 1749.46C1015.34 1746.6 1016.94 1743.72 1018.53 1740.82L1020.28 1741.78C1018.69 1744.69 1017.09 1747.57 1015.49 1750.44L1013.74 1749.46ZM1023.3 1732.06C1024.87 1729.15 1026.45 1726.21 1028.02 1723.26L1029.78 1724.2C1028.21 1727.15 1026.64 1730.09 1025.06 1733.01L1023.3 1732.06ZM1032.63 1714.53C1034.16 1711.6 1035.7 1708.66 1037.23 1705.71L1039 1706.63C1037.47 1709.58 1035.94 1712.53 1034.4 1715.46L1032.63 1714.53ZM1041.81 1696.8C1043.3 1693.88 1044.79 1690.94 1046.28 1687.99L1048.07 1688.89C1046.58 1691.84 1045.08 1694.78 1043.59 1697.71L1041.81 1696.8ZM1050.74 1679.12C1052.22 1676.15 1053.71 1673.17 1055.19 1670.18L1056.98 1671.07C1055.5 1674.06 1054.01 1677.04 1052.53 1680.01L1050.74 1679.12ZM1059.57 1661.26C1061.02 1658.3 1062.47 1655.33 1063.92 1652.35L1065.72 1653.23C1064.27 1656.21 1062.82 1659.18 1061.37 1662.14L1059.57 1661.26ZM1068.26 1643.39C1069.7 1640.4 1071.14 1637.4 1072.57 1634.39L1074.38 1635.25C1072.94 1638.26 1071.5 1641.26 1070.06 1644.26L1068.26 1643.39ZM1076.84 1625.45C1078.25 1622.46 1079.67 1619.46 1081.09 1616.46L1082.9 1617.32C1081.48 1620.32 1080.06 1623.32 1078.64 1626.31L1076.84 1625.45ZM1085.33 1607.44C1086.74 1604.45 1088.14 1601.44 1089.55 1598.44L1091.36 1599.29C1089.96 1602.29 1088.55 1605.29 1087.14 1608.29L1085.33 1607.44ZM1093.74 1589.44C1095.14 1586.43 1096.53 1583.42 1097.93 1580.41L1099.75 1581.25C1098.35 1584.26 1096.95 1587.27 1095.55 1590.28L1093.74 1589.44ZM1102.11 1571.36C1103.5 1568.36 1104.88 1565.36 1106.27 1562.35L1108.09 1563.18C1106.7 1566.19 1105.31 1569.2 1103.93 1572.2L1102.11 1571.36ZM1110.42 1553.31C1111.81 1550.3 1113.19 1547.28 1114.58 1544.27L1116.39 1545.1C1115.01 1548.12 1113.63 1551.13 1112.24 1554.15L1110.42 1553.31ZM1118.72 1535.22C1120.1 1532.21 1121.48 1529.2 1122.86 1526.18L1124.68 1527.01C1123.3 1530.03 1121.92 1533.04 1120.54 1536.06L1118.72 1535.22ZM1127 1517.14C1128.39 1514.12 1129.77 1511.11 1131.15 1508.1L1132.96 1508.93C1131.58 1511.94 1130.2 1514.96 1128.82 1517.97L1127 1517.14ZM1135.3 1499.05C1136.68 1496.03 1138.06 1493.02 1139.45 1490.01L1141.27 1490.84C1139.88 1493.85 1138.5 1496.87 1137.11 1499.88L1135.3 1499.05ZM1143.6 1480.98C1144.3 1479.47 1144.99 1477.97 1145.68 1476.47L1147.5 1477.31C1146.8 1478.81 1146.11 1480.31 1145.42 1481.81L1143.6 1480.98ZM1145.68 1476.47C1146.37 1474.97 1147.04 1473.46 1147.69 1471.93L1149.53 1472.71C1148.87 1474.26 1148.2 1475.79 1147.5 1477.31L1145.68 1476.47ZM1151.31 1462.58C1152.42 1459.44 1153.44 1456.25 1154.38 1453L1156.3 1453.55C1155.35 1456.84 1154.31 1460.07 1153.2 1463.24L1151.31 1462.58ZM1156.89 1443.31C1157.65 1440.06 1158.33 1436.75 1158.93 1433.4L1160.89 1433.75C1160.29 1437.14 1159.6 1440.47 1158.84 1443.76L1156.89 1443.31ZM1160.45 1423.55C1160.89 1420.22 1161.26 1416.86 1161.55 1413.45L1163.54 1413.63C1163.25 1417.06 1162.88 1420.46 1162.43 1423.81L1160.45 1423.55ZM1162.21 1403.51C1162.37 1400.18 1162.46 1396.81 1162.49 1393.42L1164.49 1393.43C1164.46 1396.86 1164.37 1400.25 1164.21 1403.6L1162.21 1403.51ZM1162.39 1383.35C1162.3 1380.04 1162.15 1376.7 1161.94 1373.34L1163.94 1373.21C1164.14 1376.6 1164.29 1379.96 1164.39 1383.29L1162.39 1383.35ZM1161.16 1363.17C1160.85 1359.9 1160.49 1356.6 1160.09 1353.28L1162.07 1353.03C1162.48 1356.37 1162.84 1359.69 1163.15 1362.99L1161.16 1363.17ZM1158.71 1343.27C1158.21 1339.97 1157.66 1336.64 1157.06 1333.3L1159.03 1332.95C1159.63 1336.31 1160.18 1339.65 1160.69 1342.97L1158.71 1343.27ZM1155.16 1323.47C1154.49 1320.18 1153.76 1316.88 1152.99 1313.56L1154.94 1313.11C1155.71 1316.44 1156.44 1319.76 1157.12 1323.07L1155.16 1323.47ZM1150.61 1303.8C1149.79 1300.58 1148.92 1297.34 1148.01 1294.09L1149.94 1293.56C1150.85 1296.81 1151.72 1300.07 1152.55 1303.3L1150.61 1303.8ZM1145.16 1284.33C1144.2 1281.16 1143.19 1277.97 1142.15 1274.79L1144.05 1274.16C1145.1 1277.37 1146.1 1280.56 1147.07 1283.75L1145.16 1284.33ZM1138.93 1265.24C1137.82 1262.06 1136.67 1258.87 1135.48 1255.67L1137.36 1254.97C1138.55 1258.18 1139.7 1261.39 1140.82 1264.58L1138.93 1265.24ZM1131.92 1246.33C1130.69 1243.22 1129.44 1240.1 1128.15 1236.98L1129.99 1236.22C1131.29 1239.35 1132.55 1242.47 1133.78 1245.6L1131.92 1246.33ZM1124.17 1227.62C1122.84 1224.58 1121.49 1221.53 1120.1 1218.48L1121.92 1217.65C1123.31 1220.71 1124.67 1223.77 1126 1226.82L1124.17 1227.62ZM1115.83 1209.35C1114.38 1206.31 1112.9 1203.26 1111.38 1200.22L1113.17 1199.33C1114.69 1202.38 1116.18 1205.43 1117.64 1208.49L1115.83 1209.35ZM1106.83 1191.29C1105.29 1188.31 1103.72 1185.35 1102.12 1182.38L1103.88 1181.43C1105.49 1184.41 1107.06 1187.38 1108.61 1190.36L1106.83 1191.29ZM1097.23 1173.5C1095.59 1170.59 1093.93 1167.68 1092.24 1164.77L1093.97 1163.77C1095.67 1166.68 1097.33 1169.6 1098.97 1172.52L1097.23 1173.5ZM1087.11 1156.11C1085.37 1153.23 1083.6 1150.36 1081.81 1147.49L1083.51 1146.43C1085.3 1149.3 1087.08 1152.19 1088.82 1155.08L1087.11 1156.11ZM1076.4 1138.98C1074.58 1136.17 1072.74 1133.37 1070.87 1130.58L1072.54 1129.46C1074.41 1132.27 1076.26 1135.08 1078.08 1137.9L1076.4 1138.98ZM1065.19 1122.22C1063.28 1119.45 1061.34 1116.7 1059.38 1113.95L1061.01 1112.79C1062.98 1115.55 1064.92 1118.31 1066.84 1121.08L1065.19 1122.22ZM1053.48 1105.81C1051.48 1103.11 1049.47 1100.42 1047.43 1097.74L1049.02 1096.52C1051.06 1099.21 1053.09 1101.92 1055.09 1104.63L1053.48 1105.81ZM1041.24 1089.73C1039.17 1087.1 1037.08 1084.48 1034.97 1081.87L1036.52 1080.61C1038.64 1083.23 1040.74 1085.86 1042.81 1088.5L1041.24 1089.73ZM1028.56 1074.09C1026.4 1071.5 1024.22 1068.93 1022.02 1066.38L1023.53 1065.07C1025.74 1067.64 1027.93 1070.21 1030.09 1072.8L1028.56 1074.09ZM1015.38 1058.8C1013.15 1056.29 1010.9 1053.8 1008.62 1051.32L1010.1 1049.97C1012.38 1052.46 1014.64 1054.96 1016.87 1057.47L1015.38 1058.8ZM1001.74 1043.94C999.432 1041.5 997.101 1039.07 994.749 1036.66L996.18 1035.27C998.539 1037.68 1000.88 1040.11 1003.19 1042.56L1001.74 1043.94ZM987.653 1029.51C985.267 1027.15 982.861 1024.8 980.435 1022.46L981.821 1021.02C984.255 1023.36 986.668 1025.72 989.061 1028.09L987.653 1029.51ZM973.099 1015.53C970.642 1013.24 968.165 1010.97 965.668 1008.73L967.007 1007.24C969.511 1009.49 971.996 1011.77 974.462 1014.06L973.099 1015.53ZM958.121 1002.04C955.586 999.83 953.032 997.641 950.459 995.473L951.748 993.943C954.329 996.118 956.892 998.315 959.435 1000.53L958.121 1002.04ZM942.695 989.041C940.09 986.92 937.466 984.82 934.824 982.742L936.061 981.17C938.712 983.255 941.344 985.362 943.958 987.49L942.695 989.041ZM926.844 976.576C924.166 974.544 921.471 972.535 918.758 970.549L919.939 968.935C922.661 970.928 925.366 972.944 928.053 974.983L926.844 976.576ZM910.57 964.668C907.824 962.732 905.06 960.819 902.278 958.932L903.401 957.277C906.192 959.171 908.966 961.09 911.723 963.033L910.57 964.668ZM893.883 953.347C891.069 951.511 888.237 949.701 885.389 947.917L886.451 946.222C889.309 948.013 892.151 949.829 894.976 951.671L893.883 953.347ZM876.796 942.647C873.914 940.917 871.017 939.214 868.103 937.539L869.1 935.805C872.025 937.486 874.933 939.196 877.825 940.932L876.796 942.647ZM859.317 932.599C856.372 930.982 853.412 929.392 850.436 927.832L851.365 926.061C854.352 927.627 857.324 929.222 860.28 930.847L859.317 932.599ZM841.462 923.24C838.456 921.739 835.434 920.268 832.397 918.828L833.254 917.021C836.303 918.467 839.337 919.944 842.355 921.45L841.462 923.24ZM823.251 914.604C820.187 913.227 817.108 911.882 814.015 910.568L814.796 908.727C817.902 910.046 820.994 911.398 824.07 912.78L823.251 914.604ZM804.691 906.724C801.576 905.478 798.446 904.264 795.302 903.084L796.005 901.211C799.162 902.397 802.305 903.616 805.434 904.867L804.691 906.724ZM785.833 899.644C782.662 898.532 779.478 897.453 776.281 896.409L776.902 894.507C780.113 895.556 783.311 896.64 786.495 897.757L785.833 899.644ZM766.669 893.387C763.46 892.417 760.237 891.483 757.002 890.584L757.538 888.657C760.787 889.56 764.024 890.498 767.247 891.472L766.669 893.387ZM747.259 887.994C744 887.168 740.728 886.378 737.443 885.624L737.89 883.675C741.19 884.432 744.477 885.225 747.751 886.056L747.259 887.994ZM727.626 883.492C724.342 882.818 721.045 882.181 717.737 881.582L718.093 879.614C721.417 880.216 724.729 880.855 728.028 881.532L727.626 883.492ZM707.778 879.9C704.47 879.381 701.151 878.901 697.82 878.459L698.084 876.476C701.43 876.92 704.764 877.403 708.088 877.924L707.778 879.9ZM687.841 877.254C684.504 876.891 681.156 876.567 677.797 876.283L677.966 874.291C681.34 874.576 684.704 874.901 688.057 875.266L687.841 877.254ZM667.713 875.552C664.387 875.351 661.051 875.189 657.705 875.066L657.778 873.068C661.14 873.191 664.492 873.354 667.834 873.556L667.713 875.552ZM647.639 874.819C644.274 874.776 640.9 874.774 637.516 874.813L637.493 872.813C640.893 872.774 644.284 872.776 647.665 872.819L647.639 874.819ZM627.468 875.048C624.136 875.166 620.796 875.323 617.448 875.521L617.33 873.524C620.694 873.326 624.05 873.167 627.397 873.049L627.468 875.048ZM607.377 876.236C604.013 876.515 600.64 876.836 597.26 877.197L597.047 875.209C600.443 874.845 603.831 874.524 607.211 874.243L607.377 876.236ZM587.356 878.374C584.047 878.806 580.73 879.277 577.406 879.79L577.102 877.813C580.441 877.298 583.772 876.824 587.097 876.39L587.356 878.374ZM567.413 881.449C564.109 882.038 560.797 882.666 557.478 883.335L557.083 881.375C560.416 880.702 563.743 880.071 567.063 879.48L567.413 881.449ZM547.719 885.417C544.459 886.15 541.193 886.923 537.921 887.736L537.439 885.795C540.725 884.979 544.006 884.202 547.28 883.466L547.719 885.417ZM528.087 890.296C526.445 890.742 524.801 891.199 523.156 891.666L522.61 889.742C524.262 889.273 525.913 888.814 527.562 888.366L528.087 890.296ZM523.156 891.666C521.49 892.139 519.829 892.599 518.172 893.046L517.651 891.115C519.299 890.671 520.952 890.213 522.61 889.742L523.156 891.666ZM508.284 895.569C505.007 896.358 501.748 897.096 498.507 897.782L498.093 895.825C501.315 895.143 504.556 894.41 507.816 893.625L508.284 895.569ZM488.843 899.687C485.488 900.299 482.154 900.855 478.841 901.357L478.541 899.379C481.834 898.881 485.148 898.328 488.484 897.719L488.843 899.687ZM468.787 902.72C465.458 903.117 462.151 903.459 458.867 903.746L458.693 901.754C461.956 901.469 465.242 901.129 468.55 900.734L468.787 902.72ZM448.99 904.446C445.56 904.632 442.156 904.757 438.779 904.822L438.74 902.823C442.094 902.758 445.475 902.634 448.882 902.449L448.99 904.446ZM428.725 904.837C425.4 904.782 422.102 904.668 418.831 904.495L418.936 902.498C422.183 902.669 425.457 902.783 428.758 902.837L428.725 904.837ZM408.708 903.768C405.332 903.46 401.988 903.089 398.674 902.655L398.933 900.672C402.221 901.102 405.54 901.47 408.889 901.776L408.708 903.768ZM388.825 901.168C385.494 900.597 382.195 899.962 378.93 899.263L379.349 897.308C382.587 898 385.859 898.63 389.163 899.197L388.825 901.168ZM369.095 896.943C365.851 896.105 362.643 895.203 359.471 894.239L360.052 892.325C363.198 893.281 366.379 894.175 369.595 895.006L369.095 896.943ZM349.915 891.107C346.727 889.985 343.577 888.799 340.467 887.548L341.213 885.692C344.296 886.932 347.418 888.108 350.579 889.22L349.915 891.107ZM331.254 883.607C328.193 882.217 325.172 880.763 322.193 879.247L323.1 877.465C326.053 878.967 329.047 880.408 332.081 881.786L331.254 883.607ZM313.314 874.478C310.396 872.825 307.521 871.112 304.689 869.337L305.751 867.642C308.558 869.401 311.408 871.1 314.299 872.737L313.314 874.478ZM296.289 863.811C293.527 861.904 290.808 859.937 288.135 857.913L289.342 856.318C291.992 858.325 294.687 860.275 297.426 862.165L296.289 863.811ZM280.25 851.664C277.673 849.529 275.141 847.337 272.655 845.089L273.997 843.606C276.461 845.834 278.971 848.007 281.526 850.124L280.25 851.664ZM265.343 838.188C262.952 835.834 260.608 833.425 258.311 830.965L259.773 829.6C262.051 832.04 264.375 834.429 266.746 836.763L265.343 838.188ZM251.62 823.495C249.441 820.96 247.31 818.375 245.226 815.742L246.794 814.5C248.862 817.113 250.976 819.677 253.137 822.191L251.62 823.495ZM239.117 807.698C237.158 805.009 235.245 802.275 233.38 799.496L235.04 798.381C236.891 801.139 238.789 803.852 240.733 806.52L239.117 807.698ZM227.941 791.05C226.176 788.192 224.458 785.291 222.789 782.348L224.528 781.361C226.186 784.282 227.891 787.162 229.643 790L227.941 791.05ZM218.013 773.564C216.473 770.608 214.981 767.613 213.535 764.581L215.341 763.721C216.776 766.732 218.258 769.705 219.787 772.641L218.013 773.564ZM209.341 755.375C208.017 752.33 206.738 749.25 205.506 746.137L207.366 745.401C208.59 748.494 209.86 751.553 211.175 754.577L209.341 755.375ZM201.972 736.759C200.84 733.6 199.754 730.409 198.715 727.187L200.619 726.573C201.651 729.775 202.73 732.945 203.855 736.084L201.972 736.759ZM195.788 717.598C194.868 714.409 193.993 711.192 193.163 707.948L195.1 707.452C195.925 710.677 196.795 713.875 197.709 717.044L195.788 717.598ZM190.809 698.135C190.077 694.872 189.391 691.584 188.749 688.271L190.712 687.891C191.35 691.185 192.033 694.454 192.76 697.697L190.809 698.135ZM186.992 678.458C186.45 675.163 185.951 671.846 185.497 668.507L187.478 668.237C187.93 671.558 188.426 674.857 188.965 678.133L186.992 678.458ZM184.267 658.427C183.913 655.151 183.6 651.855 183.33 648.541L185.323 648.378C185.592 651.675 185.903 654.954 186.255 658.212L184.267 658.427ZM182.646 638.542C182.461 635.19 182.318 631.821 182.218 628.435L184.217 628.376C184.317 631.745 184.459 635.097 184.643 638.431L182.646 638.542ZM182.049 618.405C182.034 615.096 182.06 611.771 182.127 608.432L184.126 608.472C184.06 611.795 184.034 615.103 184.049 618.396L182.049 618.405ZM182.451 598.371C182.6 595.004 182.791 591.623 183.023 588.229L185.018 588.365C184.787 591.743 184.597 595.109 184.449 598.46L182.451 598.371ZM183.814 578.336C184.117 575.029 184.459 571.711 184.841 568.383L186.828 568.61C186.448 571.924 186.107 575.227 185.806 578.518L183.814 578.336ZM186.105 558.365C186.562 555.047 187.058 551.719 187.593 548.382L189.568 548.699C189.035 552.021 188.541 555.334 188.086 558.638L186.105 558.365ZM189.273 538.587C189.871 535.314 190.507 532.032 191.181 528.743L193.14 529.145C192.469 532.42 191.836 535.687 191.241 538.946L189.273 538.587ZM193.317 518.855C194.056 515.603 194.832 512.345 195.645 509.081L197.586 509.564C196.776 512.815 196.003 516.06 195.268 519.298L193.317 518.855ZM198.149 499.453C199.02 496.238 199.927 493.018 200.871 489.794L202.79 490.356C201.85 493.567 200.947 496.774 200.079 499.976L198.149 499.453ZM203.812 480.106C204.811 476.929 205.847 473.749 206.917 470.564L208.813 471.202C207.746 474.374 206.715 477.542 205.72 480.706L203.812 480.106ZM210.178 461.169C211.299 458.034 212.456 454.896 213.647 451.756L215.517 452.465C214.33 455.594 213.178 458.72 212.061 461.842L210.178 461.169ZM217.327 442.329C218.571 439.23 219.848 436.13 221.16 433.028L223.002 433.807C221.695 436.898 220.422 439.987 219.183 443.074L217.327 442.329ZM225.112 423.918C226.463 420.88 227.847 417.842 229.264 414.803L231.076 415.648C229.664 418.676 228.286 421.704 226.94 424.731L225.112 423.918ZM233.616 405.686C235.092 402.665 236.6 399.644 238.143 396.623L239.924 397.532C238.387 400.543 236.883 403.553 235.413 406.564L233.616 405.686ZM242.721 387.843C244.279 384.917 245.868 381.992 247.49 379.068L249.239 380.038C247.623 382.952 246.039 385.867 244.487 388.783L242.721 387.843ZM252.449 370.301C254.134 367.38 255.851 364.461 257.6 361.544L259.315 362.573C257.572 365.48 255.861 368.389 254.181 371.3L252.449 370.301ZM262.79 353.047C264.534 350.245 266.308 347.444 268.111 344.646L269.792 345.73C267.994 348.519 266.227 351.31 264.489 354.104L262.79 353.047ZM273.613 336.262C275.477 333.47 277.372 330.681 279.297 327.895L280.942 329.032C279.023 331.809 277.135 334.589 275.276 337.372L273.613 336.262ZM285.124 319.604C287.032 316.933 288.969 314.266 290.934 311.603L292.544 312.791C290.584 315.446 288.654 318.104 286.751 320.767L285.124 319.604ZM296.915 303.625C298.937 300.97 300.988 298.319 303.068 295.672L304.64 296.908C302.567 299.547 300.522 302.19 298.506 304.837L296.915 303.625ZM309.393 287.746C311.495 285.151 313.626 282.56 315.785 279.975L317.32 281.257C315.168 283.835 313.043 286.418 310.946 289.005L309.393 287.746ZM322.183 272.422C324.343 269.909 326.53 267.402 328.743 264.899L330.241 266.224C328.034 268.72 325.854 271.22 323.7 273.726L322.183 272.422ZM335.465 257.408C337.733 254.916 340.027 252.43 342.349 249.949L343.809 251.316C341.494 253.79 339.205 256.269 336.944 258.754L335.465 257.408ZM349.269 242.659C351.547 240.293 353.849 237.932 356.177 235.577L357.599 236.983C355.278 239.332 352.981 241.686 350.71 244.046L349.269 242.659ZM363.236 228.53C365.614 226.187 368.018 223.85 370.447 221.52L371.832 222.963C369.409 225.287 367.011 227.618 364.639 229.955L363.236 228.53ZM377.812 214.547C380.265 212.255 382.744 209.968 385.248 207.689L386.594 209.168C384.097 211.442 381.624 213.722 379.177 216.008L377.812 214.547ZM392.588 201.091C395.058 198.898 397.552 196.711 400.069 194.531L401.379 196.043C398.867 198.218 396.379 200.399 393.915 202.586L392.588 201.091ZM407.694 188.012C410.259 185.846 412.849 183.687 415.462 181.534L416.733 183.078C414.126 185.225 411.543 187.379 408.984 189.54L407.694 188.012ZM423.373 175.1C425.936 173.041 428.521 170.99 431.129 168.945L432.363 170.519C429.762 172.559 427.183 174.605 424.626 176.659L423.373 175.1ZM438.961 162.877C441.594 160.861 444.249 158.852 446.926 156.851L448.123 158.453C445.452 160.45 442.803 162.454 440.177 164.465L438.961 162.877ZM455.024 150.87C457.746 148.883 460.491 146.904 463.257 144.933L464.418 146.562C461.657 148.529 458.919 150.503 456.204 152.485L455.024 150.87ZM471.557 139.09C474.241 137.223 476.945 135.363 479.67 133.51L480.795 135.164C478.075 137.012 475.377 138.868 472.699 140.732L471.557 139.09ZM487.908 127.974C490.674 126.136 493.461 124.306 496.269 122.483L497.358 124.161C494.556 125.979 491.775 127.806 489.014 129.64L487.908 127.974ZM504.755 117.038C507.604 115.231 510.475 113.432 513.366 111.641L514.419 113.341C511.534 115.128 508.67 116.924 505.826 118.727L504.755 117.038ZM522.002 106.352C524.798 104.659 527.614 102.974 530.449 101.296L531.467 103.017C528.638 104.692 525.828 106.374 523.037 108.063L522.002 106.352ZM539.011 96.2854C541.884 94.623 544.776 92.9681 547.688 91.3211L548.673 93.062C545.767 94.7058 542.88 96.3573 540.012 98.0166L539.011 96.2854ZM556.481 86.4042C559.431 84.7731 562.401 83.15 565.39 81.5353L566.341 83.2948C563.357 84.9067 560.393 86.5266 557.449 88.1544L556.481 86.4042ZM574.403 76.7217C577.288 75.1991 580.19 73.684 583.109 72.1766L584.027 73.9537C581.113 75.4584 578.216 76.9707 575.337 78.4904L574.403 76.7217ZM591.922 67.6774C594.877 66.1854 597.85 64.7012 600.841 63.2249L601.727 65.0183C598.741 66.4919 595.773 67.9735 592.823 69.4628L591.922 67.6774ZM609.868 58.8198C612.894 57.3596 615.939 55.9072 619.002 54.4631L619.855 56.272C616.797 57.7136 613.758 59.1634 610.737 60.6211L609.868 58.8198ZM628.243 50.1551C629.792 49.4414 631.346 48.7296 632.904 48.02L633.733 49.8401C632.178 50.5486 630.627 51.2591 629.08 51.9717L628.243 50.1551Z"
        fill="black" />
</svg>