<svg width="508" height="562" viewBox="0 0 508 562" fill="none" xmlns="http://www.w3.org/2000/svg">
    <rect width="507.957" height="561.455" rx="50" fill="white" />
    <path
        d="M74.0974 90.633C69.65 90.633 69.2923 97.7031 69.8243 100.717C71.9016 112.489 86.2925 104.979 89.7369 98.4955C91.8513 94.5154 92.1209 86.8288 86.3184 86.1035C77.0103 84.94 72.0094 93.8201 69.4824 101.401"
        stroke="#1E1E1E" stroke-width="3" stroke-linecap="round" stroke-linejoin="round" />
    <path d="M184.166 36.7914H331.844" stroke="#1E1E1E" stroke-width="3" stroke-linecap="round"
        stroke-linejoin="round" />
    <path d="M184.166 62.9425H328.767" stroke="#1E1E1E" stroke-width="3" stroke-linecap="round"
        stroke-linejoin="round" />
    <path d="M184.166 93.7094H304.154" stroke="#1E1E1E" stroke-width="3" stroke-linecap="round"
        stroke-linejoin="round" />
    <path d="M184.166 124.475H244.16" stroke="#1E1E1E" stroke-width="3" stroke-linecap="round"
        stroke-linejoin="round" />
    <path d="M255.506 122.912H300.117" stroke="#1E1E1E" stroke-width="3" stroke-linecap="round"
        stroke-linejoin="round" />
    <path d="M81.7892 126.014C81.7892 132.679 78.7794 137.116 80.2509 144.474" stroke="#1E1E1E"
        stroke-width="3" stroke-linecap="round" stroke-linejoin="round" />
    <path d="M84.8672 169.087C84.8672 174.754 91.0067 182.155 95.6354 184.47" stroke="#1E1E1E"
        stroke-width="3" stroke-linecap="round" stroke-linejoin="round" />
    <path
        d="M221.479 233.696C208.979 221.196 199.956 248.267 211.395 250.446C216.964 251.507 227.387 248.48 229.854 242.84C234.464 232.304 219.099 228.662 212.249 230.619"
        stroke="#1E1E1E" stroke-width="3" stroke-linecap="round" stroke-linejoin="round" />
    <path
        d="M32.5631 59.8662C32.5631 64.5954 31.9597 70.346 36.4944 73.3691C44.6309 78.7935 48.362 59.1907 44.8696 54.0548C36.5711 41.851 23.6635 72.1727 35.6398 72.1727"
        stroke="#1E1E1E" stroke-width="3" stroke-linecap="round" stroke-linejoin="round" />
    <path d="M54.1005 50.6366C58.397 50.6366 50.7911 68.2108 55.6388 70.6346" stroke="#1E1E1E"
        stroke-width="3" stroke-linecap="round" stroke-linejoin="round" />
    <path d="M44.8691 52.1748C52.6022 52.1748 63.296 51.684 69.4821 47.5599" stroke="#1E1E1E"
        stroke-width="3" stroke-linecap="round" stroke-linejoin="round" />
    <path
        d="M71.022 58.3278C71.022 54.1937 69.2409 66.5073 69.4837 70.6343C69.7894 75.8319 79.051 72.1726 81.7902 72.1726"
        stroke="#1E1E1E" stroke-width="3" stroke-linecap="round" stroke-linejoin="round" />
    <path d="M67.9453 66.0191C72.1092 66.0191 78.9617 65.7709 81.7901 62.9425" stroke="#1E1E1E"
        stroke-width="3" stroke-linecap="round" stroke-linejoin="round" />
    <path d="M67.9453 56.7892C72.6856 54.419 78.163 55.2509 83.3284 55.2509" stroke="#1E1E1E"
        stroke-width="3" stroke-linecap="round" stroke-linejoin="round" />
    <path d="M95.6337 49.0982C95.6337 57.0585 89.4805 80.1332 89.4805 72.1729" stroke="#1E1E1E"
        stroke-width="3" stroke-linecap="round" stroke-linejoin="round" />
    <path d="M95.6348 52.1749C95.6348 58.5093 98.3199 73.068 104.865 75.2496" stroke="#1E1E1E"
        stroke-width="3" stroke-linecap="round" stroke-linejoin="round" />
    <path
        d="M104.865 55.2516C102.125 55.2516 105.612 67.937 106.061 70.2929C107.319 76.8993 109.868 75.2496 116.316 75.2496C129.116 75.2496 113.61 53.1447 106.403 67.5581"
        stroke="#1E1E1E" stroke-width="3" stroke-linecap="round" stroke-linejoin="round" />
    <path d="M43.8736 236.311C43.8736 243.566 42.4258 265.284 42.4258 258.028" stroke="#1E1E1E"
        stroke-width="3" stroke-linecap="round" stroke-linejoin="round" />
    <path
        d="M51.1119 239.207C51.1119 243.446 43.1132 247.93 44.114 251.433C44.6509 253.312 50.2949 251.581 51.8358 253.122C53.9672 255.254 55.2518 258.447 56.9032 260.924"
        stroke="#1E1E1E" stroke-width="3" stroke-linecap="round" stroke-linejoin="round" />
    <path
        d="M61.2472 247.894C61.2472 250.758 60.315 254.743 63.0168 256.581C67.2036 259.428 72.7944 255.178 73.956 250.789C75.0474 246.666 74.2588 238.402 68.4864 238.402C60.7497 238.402 60.7511 250.273 62.6951 255.133"
        stroke="#1E1E1E" stroke-width="3" stroke-linecap="round" stroke-linejoin="round" />
    <path d="M88.7572 239.207C88.7572 243.302 87.9984 262.442 88.7572 260.924" stroke="#1E1E1E"
        stroke-width="3" stroke-linecap="round" stroke-linejoin="round" />
    <path
        d="M84.4134 242.103C81.5263 242.103 72.1269 249.919 76.3698 251.916C79.6137 253.442 83.4436 243.894 86.1829 242.103C90.4253 239.329 95.9196 239.737 97.1221 244.998C98.5873 251.408 89.1211 260.934 87.309 253.685"
        stroke="#1E1E1E" stroke-width="3" stroke-linecap="round" stroke-linejoin="round" />
    <path
        d="M101.075 238.569C101.075 232.026 99.7221 251.87 101.396 258.195C102.625 262.836 114.792 258.839 118.449 258.839"
        stroke="#1E1E1E" stroke-width="3" stroke-linecap="round" stroke-linejoin="round" />
    <path d="M101.797 251.871C108.083 251.871 114.476 252.645 120.257 250.333" stroke="#1E1E1E"
        stroke-width="3" stroke-linecap="round" stroke-linejoin="round" />
    <path d="M104.875 242.642C110.83 242.642 116.165 242.98 121.796 241.103" stroke="#1E1E1E"
        stroke-width="3" stroke-linecap="round" stroke-linejoin="round" />
    <path
        d="M124.953 242.102C124.953 249.324 127.984 269.337 136.536 256.259C138.924 252.606 142.327 240.151 142.327 244.515C142.327 247.194 138.66 260.586 143.775 258.028"
        stroke="#1E1E1E" stroke-width="3" stroke-linecap="round" stroke-linejoin="round" />
    <path d="M127.848 239.207C132.265 239.207 137.785 239.404 140.878 236.311" stroke="#1E1E1E"
        stroke-width="3" stroke-linecap="round" stroke-linejoin="round" />
    <path
        d="M146.67 239.206C150.311 242.848 148.04 253.062 149.244 258.028C150.1 261.561 152.161 250.085 156.805 249.422C160.276 248.926 164.327 247.516 162.516 242.987C160.507 237.965 156.108 257.194 161.148 259.154C163.609 260.111 165.533 254.553 167.583 256.017C169.511 257.395 169.598 258.922 172.731 258.833C180.287 258.617 185.792 244.425 182.061 238.563C178.363 232.751 172.247 240.564 172.811 245.078C173.959 254.26 185.015 261.036 190.105 268.163"
        stroke="#1E1E1E" stroke-width="3" stroke-linecap="round" stroke-linejoin="round" />
    <path d="M113.658 191.836C118.658 193.085 122.981 195.312 128.075 196.161" stroke="#1E1E1E"
        stroke-width="3" stroke-linecap="round" stroke-linejoin="round" />
    <path d="M158.352 197.602C164.859 197.602 170.792 198.911 177.094 200.486" stroke="#1E1E1E"
        stroke-width="3" stroke-linecap="round" stroke-linejoin="round" />
    <path d="M203.045 206.253C206.636 209.844 207.985 213.251 210.254 217.787" stroke="#1E1E1E"
        stroke-width="3" stroke-linecap="round" stroke-linejoin="round" />
    <path d="M246.297 209.136H422.188" stroke="#1E1E1E" stroke-width="3" stroke-linecap="round"
        stroke-linejoin="round" />
    <path d="M256.389 230.763H399.12" stroke="#1E1E1E" stroke-width="3" stroke-linecap="round"
        stroke-linejoin="round" />
    <path d="M250.623 259.597H351.544" stroke="#1E1E1E" stroke-width="3" stroke-linecap="round"
        stroke-linejoin="round" />
    <path d="M239.088 295.64H309.733" stroke="#1E1E1E" stroke-width="3" stroke-linecap="round"
        stroke-linejoin="round" />
    <path d="M217.464 269.689C221.481 273.706 216.369 284.258 214.58 288.431" stroke="#1E1E1E"
        stroke-width="3" stroke-linecap="round" stroke-linejoin="round" />
    <path d="M197.278 310.057C192.888 315.545 189.958 320.233 184.303 324.475" stroke="#1E1E1E"
        stroke-width="3" stroke-linecap="round" stroke-linejoin="round" />
    <path d="M146.817 337.451C142.926 339.785 139.111 342.224 135.283 344.659" stroke="#1E1E1E"
        stroke-width="3" stroke-linecap="round" stroke-linejoin="round" />
    <path d="M102.125 361.96C99.8526 364.989 96.932 367.586 94.916 370.61" stroke="#1E1E1E"
        stroke-width="3" stroke-linecap="round" stroke-linejoin="round" />
    <path
        d="M102.125 382.144C93.7292 382.144 88.471 378.267 79.2174 380.702C62.6645 385.058 61.1453 406.024 77.9359 410.978C91.7912 415.067 109.338 406.833 110.535 391.275C111.26 381.852 92.4031 379.26 86.2659 379.26"
        stroke="#1E1E1E" stroke-width="3" stroke-linecap="round" stroke-linejoin="round" />
    <path d="M129.518 386.469C129.518 382.038 132.401 395.014 132.401 399.444" stroke="#1E1E1E"
        stroke-width="3" stroke-linecap="round" stroke-linejoin="round" />
    <path
        d="M128.076 382.144C130.492 379.728 140.245 377.675 143.294 379.581C146.291 381.454 129.78 389.353 134.644 389.353C138.284 389.353 153.791 388.178 148.901 396.561C146.232 401.136 141.512 404.256 136.727 406.333C130.987 408.824 131.167 402.945 135.285 400.886"
        stroke="#1E1E1E" stroke-width="3" stroke-linecap="round" stroke-linejoin="round" />
    <path
        d="M155.468 389.352C154.577 392.919 151.512 402.939 157.711 403.529C165.531 404.274 168.391 396.031 169.565 389.993C171.873 378.123 141.885 390.186 154.026 402.328"
        stroke="#1E1E1E" stroke-width="3" stroke-linecap="round" stroke-linejoin="round" />
    <path d="M184.303 374.935C181.053 383.061 175.93 390.848 174.211 399.445" stroke="#1E1E1E"
        stroke-width="3" stroke-linecap="round" stroke-linejoin="round" />
    <path d="M181.42 380.702C184.642 387.147 182.328 395.414 184.303 402.328" stroke="#1E1E1E"
        stroke-width="3" stroke-linecap="round" stroke-linejoin="round" />
    <path
        d="M167.002 405.212C176.33 405.212 186.04 403.071 194.074 398.323C195.47 397.499 197.562 396.627 198.4 395.12C198.766 394.459 198.72 392.122 198.72 392.877C198.72 394.984 197.712 400.058 199.601 401.527C207.89 407.974 218.5 394.084 211.615 385.908C203.454 376.217 185.984 396.921 191.511 405.212"
        stroke="#1E1E1E" stroke-width="3" stroke-linecap="round" stroke-linejoin="round" />
    <path
        d="M223.229 382.144C223.229 388.782 221.522 408.641 221.788 402.007C222.006 396.543 224.91 388.763 221.147 383.746C221.102 383.686 226.121 383.585 226.753 383.585C228.791 383.585 235.456 382.362 236.846 384.547C240.042 389.569 232.338 402.557 237.647 405.211"
        stroke="#1E1E1E" stroke-width="3" stroke-linecap="round" stroke-linejoin="round" />
    <path
        d="M254.948 380.702C250.796 384.855 248.858 390.882 247.099 396.321C246.659 397.679 243.226 405.4 244.856 403.77"
        stroke="#1E1E1E" stroke-width="3" stroke-linecap="round" stroke-linejoin="round" />
    <path d="M254.947 376.377C255.915 381.215 254.482 405.847 260.714 403.77" stroke="#1E1E1E"
        stroke-width="3" stroke-linecap="round" stroke-linejoin="round" />
    <path d="M240.531 398.003C247.353 400.277 253.88 397.928 260.715 396.561" stroke="#1E1E1E"
        stroke-width="3" stroke-linecap="round" stroke-linejoin="round" />
    <path
        d="M276.574 380.702C276.574 386.344 273.662 390.797 271.608 395.841C270.928 397.509 269.365 404.821 269.365 403.77"
        stroke="#1E1E1E" stroke-width="3" stroke-linecap="round" stroke-linejoin="round" />
    <path d="M251.361 450.569C253.171 457.807 250.185 468.989 254.245 475.078" stroke="#1E1E1E"
        stroke-width="3" stroke-linecap="round" stroke-linejoin="round" />
    <path d="M266.482 406.653C276.2 406.653 285.787 407.117 295.317 405.211" stroke="#1E1E1E"
        stroke-width="3" stroke-linecap="round" stroke-linejoin="round" />
    <path d="M293.062 436.151C347.941 425.175 404.567 428.942 460.303 428.942" stroke="#1E1E1E"
        stroke-width="3" stroke-linecap="round" stroke-linejoin="round" />
    <path d="M293.062 454.893H431.468" stroke="#1E1E1E" stroke-width="3" stroke-linecap="round"
        stroke-linejoin="round" />
    <path d="M293.062 483.728H405.517" stroke="#1E1E1E" stroke-width="3" stroke-linecap="round"
        stroke-linejoin="round" />
    <path d="M293.062 514.004H425.701" stroke="#1E1E1E" stroke-width="3" stroke-linecap="round"
        stroke-linejoin="round" />
    <path d="M293.062 544.281H363.707" stroke="#1E1E1E" stroke-width="3" stroke-linecap="round"
        stroke-linejoin="round" />
    <path d="M83.3828 428.279C86.6456 438.067 91.6062 445.972 97.8001 454.23" stroke="#1E1E1E"
        stroke-width="3" stroke-linecap="round" stroke-linejoin="round" />
    <path d="M123.75 464.323C132.479 470.869 142.467 472.243 152.585 475.856" stroke="#1E1E1E"
        stroke-width="3" stroke-linecap="round" stroke-linejoin="round" />
    <path d="M192.953 484.506C202.878 489.469 209.276 494.256 216.021 503.248" stroke="#757575"
        stroke-width="3" stroke-linecap="round" stroke-linejoin="round" />
    <path d="M218.905 523.433C222.743 527.271 217.811 540.585 216.021 545.059" stroke="#B3B3B3"
        stroke-width="3" stroke-linecap="round" stroke-linejoin="round" />
</svg>