<svg width="243" height="75" viewBox="0 0 243 75" fill="none" xmlns="http://www.w3.org/2000/svg">
    <rect x="0.305176" y="0.000488281" width="74.9956" height="74.9956" fill="#FF0032" />
    <path
        d="M46.4958 42.9265L40.7183 46.5064C38.9949 47.5752 36.7992 47.5752 35.0758 46.5064L29.2983 42.9265C26.433 41.1519 22.8149 41.0803 19.8768 42.7322L11.3949 47.5087V65.4132L22.2802 59.2865C23.7337 58.4683 25.5297 58.5041 26.952 59.3837L33.6016 63.5006C36.2074 65.1166 39.54 65.0501 42.0783 63.3318L49.0965 58.591C50.3423 57.7523 51.9722 57.7165 53.2544 58.5092L64.3992 65.4132V47.5087L55.9173 42.7322C52.9792 41.0803 49.356 41.157 46.4958 42.9265Z"
        fill="white" />
    <path
        d="M54.6285 30.6467C60.0282 30.6467 64.4056 26.2693 64.4056 20.8696C64.4056 15.4699 60.0282 11.0925 54.6285 11.0925C49.2288 11.0925 44.8514 15.4699 44.8514 20.8696C44.8514 26.2693 49.2288 30.6467 54.6285 30.6467Z"
        fill="white" />
    <path
        d="M102.697 33.2438H107.541L114.534 14.7667V33.2438H118.993V11.1098H112.224L105.392 29.2341L98.6232 11.1098H91.6301V33.2438H95.7362V14.863L102.697 33.2438Z"
        fill="black" />
    <path d="M131.048 14.7667V33.2438H135.539V14.7667H144.585V11.1098H122.002V14.7667H131.048Z"
        fill="black" />
    <path
        d="M145.425 22.2089C145.425 30.6455 149.884 33.6288 157.711 33.6288C164.704 33.6288 168.618 31.5437 169.42 26.3149H164.897C164.159 29.3624 161.785 30.1322 157.711 30.1322C152.931 30.1322 149.948 28.4 149.948 23.2675V21.022C149.948 15.7932 152.995 14.2214 157.711 14.2214C161.945 14.2214 164.287 15.1196 164.864 18.2953H169.387C168.746 12.842 164.768 10.7249 157.711 10.7249C149.884 10.7249 145.425 13.8044 145.425 22.2089Z"
        fill="black" />
    <path d="M100.591 45.4086V63.8866H105.082V45.4086H114.129V41.7515H91.5447V45.4086H100.591Z"
        fill="black" />
    <path
        d="M117.155 41.7515V63.8866H121.646V55.5779H129.281L134.446 63.8866H139.45L134.029 55.1929C137.044 54.3589 138.648 52.1133 138.648 48.6166C138.648 44.2216 135.986 41.7515 131.046 41.7515H117.155ZM134.125 49.0657C134.125 50.9263 133.067 52.1774 130.436 52.1774H121.646V45.1199H130.436C133.099 45.1199 134.125 46.371 134.125 48.2637V49.0657Z"
        fill="black" />
    <path
        d="M150.443 41.7515L140.659 63.8866H144.893L147.363 58.2084H159.201L161.671 63.8866H166.355L156.602 41.7515H150.443ZM153.266 44.6707L157.757 54.9042H148.807L153.266 44.6707Z"
        fill="black" />
    <path
        d="M184.857 41.7515L176.645 60.6465L168.497 41.7515H163.685L173.341 63.8866H179.404L189.092 41.7515H184.857Z"
        fill="black" />
    <path
        d="M191.716 41.7515V63.8866H210.835V60.3899H196.207V54.2626H207.371V50.8942H196.207V45.2482H210.707V41.7515H191.716Z"
        fill="black" />
    <path d="M214.679 41.7515V63.8866H232.708V60.2295H219.17V41.7515H214.679Z" fill="black" />
    <path
        d="M237.916 43.916L236.082 43.09L236.642 42.11L238.462 43.118L238.364 41.34H239.638L239.526 43.104L241.36 42.11L241.92 43.09L240.086 43.916L241.92 44.728L241.36 45.708L239.526 44.714L239.638 46.478H238.364L238.462 44.714L236.642 45.708L236.082 44.728L237.916 43.916Z"
        fill="black" />
</svg>