<svg width="740" height="1010" viewBox="0 0 740 1010" fill="none" xmlns="http://www.w3.org/2000/svg">
    <path
        d="M369.652 42.6665V65.5853C369.652 95.0405 345.774 118.919 316.319 118.919L70.6666 118.919C41.2115 118.919 17.3334 142.797 17.3334 172.252L17.3334 337.831C17.3334 367.287 41.2116 391.165 70.6667 391.165H669.333C698.789 391.165 722.667 415.043 722.667 444.498L722.667 606.349C722.667 635.804 698.789 659.682 669.333 659.682H70.6667C41.2115 659.682 17.3334 683.56 17.3334 713.016V874.354C17.3334 903.809 41.2116 927.687 70.6668 927.687H316.319C345.774 927.687 369.652 951.565 369.652 981.02V1010"
        stroke="#F4FF70" stroke-width="33.3333" stroke-linejoin="round" />
    <path
        d="M369.652 42.6665V65.5853C369.652 95.0405 345.774 118.919 316.319 118.919L70.6667 118.919C41.2115 118.919 17.3334 142.797 17.3334 172.252L17.3334 337.831C17.3334 367.287 41.2116 391.165 70.6667 391.165H669.333C698.789 391.165 722.667 415.043 722.667 444.498L722.667 606.349C722.667 635.804 698.789 659.682 669.333 659.682H70.6667C41.2115 659.682 17.3334 683.56 17.3334 713.016V874.354C17.3334 903.809 41.2116 927.687 70.6668 927.687H316.319C345.774 927.687 369.652 951.565 369.652 981.02V1010"
        stroke="black" stroke-width="2" stroke-linejoin="round" stroke-dasharray="10 10" />
    <circle cx="370" cy="27.3333" r="27.3333" fill="#F4FF70" />
    <path
        d="M369.284 44.1343L369.783 44.7168L370.291 44.1411L370.396 44.0211C372.493 41.6409 375.504 38.2243 378.005 34.5787C380.527 30.9024 382.629 26.8576 382.629 23.3375C382.629 16.3672 376.866 10.6121 369.79 10.6121C362.824 10.6121 357.065 16.3712 357.065 23.3375C357.065 26.8572 359.167 30.902 361.675 34.5772C363.995 37.9795 366.75 41.1845 368.764 43.5284C368.944 43.7374 369.117 43.9395 369.284 44.1343ZM369.79 18.9985C372.276 18.9985 374.243 20.985 374.243 23.3372C374.243 25.8129 372.266 27.7896 369.79 27.7896C367.438 27.7896 365.452 25.8227 365.452 23.3372C365.452 20.9752 367.428 18.9985 369.79 18.9985Z"
        fill="black" stroke="#F4FF70" stroke-width="1.33333" />
</svg>
    