<svg width="349" height="570" viewBox="0 0 349 570" fill="none" xmlns="http://www.w3.org/2000/svg">
    <path
        d="M174.476 24.8982V28.8689C174.476 50.4004 157.021 67.8553 135.49 67.8553L45.9864 67.8552C24.4548 67.8552 7 85.31 7 106.842L7.00001 182.24C7.00002 203.772 24.4548 221.227 45.9864 221.227H303.296C324.828 221.227 342.283 238.681 342.283 260.213L342.283 333.511C342.283 355.043 324.828 372.498 303.296 372.498H45.9863C24.4548 372.498 7.00002 389.952 7.00002 411.484V484.493C7.00002 506.025 24.4548 523.48 45.9864 523.48H135.49C157.021 523.48 174.476 540.934 174.476 562.466V569.851"
        stroke="#F4FF70" stroke-width="12.9955" stroke-miterlimit="11.4737" />
    <path
        d="M174.476 24.8982V28.8689C174.476 50.4004 157.021 67.8553 135.49 67.8553L45.9864 67.8552C24.4548 67.8552 7 85.31 7 106.842L7.00001 182.24C7.00002 203.772 24.4548 221.227 45.9864 221.227H303.296C324.828 221.227 342.283 238.681 342.283 260.213V333.511C342.283 355.043 324.828 372.498 303.296 372.498H45.9864C24.4548 372.498 7.00002 389.952 7.00002 411.484V484.493C7.00002 506.025 24.4548 523.48 45.9864 523.48H135.49C157.021 523.48 174.476 540.934 174.476 562.466V569.851"
        stroke="black" stroke-width="1.29955" stroke-miterlimit="11.4737" stroke-linejoin="round"
        stroke-dasharray="6.5 6.5" />
    <circle cx="174.604" cy="14.2579" r="14.2579" fill="#F4FF70" />
    <path
        d="M174.002 23.2179L174.488 23.7856L174.983 23.2246L175.041 23.1584C176.133 21.9184 177.714 20.1246 179.029 18.2077C180.347 16.2866 181.494 14.1095 181.494 12.1731C181.494 8.36854 178.351 5.23316 174.495 5.23316C170.694 5.23316 167.555 8.3725 167.555 12.1731C167.555 14.109 168.702 16.2862 170.012 18.2063C171.233 19.9957 172.68 21.6799 173.73 22.9013C173.824 23.0106 173.915 23.1163 174.002 23.2179ZM174.495 10.2118C175.629 10.2118 176.516 11.1172 176.516 12.173C176.516 13.2976 175.62 14.1935 174.495 14.1935C173.439 14.1935 172.534 13.3071 172.534 12.173C172.534 11.1077 173.43 10.2118 174.495 10.2118Z"
        fill="black" stroke="#F4FF70" stroke-width="1.29955" />
</svg>
    