<svg width="3230" height="2151" viewBox="0 0 3230 2151" fill="none"
    xmlns="http://www.w3.org/2000/svg">
    <path
        d="M55.9536 17C70.7334 19.4448 117.295 99.0779 185.305 398.052C270.316 771.77 466.01 425.666 824.707 476.063C1554.1 578.543 814.882 835.458 1115.23 1191.41C1351.12 1470.97 498.117 1773.59 1387.65 2063.8C2246.5 2344.01 1793.45 1202.41 2339.18 1135.11C2845.34 1088.81 3057.9 824.444 3214.72 483.064"
        stroke="#F4FF70" stroke-width="33.3379" />
    <path
        d="M55.9536 17C70.7334 19.4448 117.295 99.0779 185.305 398.052C270.316 771.77 466.01 425.666 824.707 476.063C1554.1 578.543 814.882 835.458 1115.23 1191.41C1351.12 1470.97 498.117 1773.59 1387.65 2063.8C2246.5 2344.01 1793.45 1202.41 2339.18 1135.11C2845.34 1088.81 3057.9 824.444 3214.72 483.064"
        stroke="black" stroke-width="2.00027" stroke-dasharray="10 10" />
</svg>
    