<svg width="3232" height="2152" viewBox="0 0 3232 2152" fill="none"
    xmlns="http://www.w3.org/2000/svg">
    <path
        d="M55.9888 17C70.7779 19.4463 117.369 99.1297 185.421 398.293C270.487 772.246 466.304 425.923 825.228 476.353C1555.08 578.898 815.397 835.974 1115.93 1192.15C1351.97 1471.88 498.431 1774.7 1388.52 2065.09C2247.92 2345.47 1794.59 1203.16 2340.66 1135.81C2847.13 1089.49 3059.83 824.954 3216.75 483.358"
        stroke="#F4FF70" stroke-width="33.3589" />
    <path
        d="M55.9888 17C70.7779 19.4463 117.369 99.1297 185.421 398.293C270.487 772.246 466.304 425.923 825.228 476.353C1555.08 578.898 815.397 835.974 1115.93 1192.15C1351.97 1471.88 498.431 1774.7 1388.52 2065.09C2247.92 2345.47 1794.59 1203.16 2340.66 1135.81C2847.13 1089.49 3059.83 824.954 3216.75 483.358"
        stroke="black" stroke-width="2.00154" stroke-dasharray="10.01 10.01" />
</svg>
    