<svg width="4586" height="4080" viewBox="0 0 4586 4080" fill="none"
    xmlns="http://www.w3.org/2000/svg">
    <path
        d="M25 5C69.6667 275.167 41 659.501 465 622C767.307 595.263 1103.5 447.418 1432.05 735.915C2227.03 1433.99 1424.82 1667.26 1820.88 1981.74C2191.05 2275.66 2669.18 1223.33 3215.2 1278.31C3801.81 1337.38 2992.94 2276.14 3681.56 2863.61C3858.54 2996.57 4080.4 3349.3 3552 3696.5C3446 3766.15 3270.73 3569.76 3129 3595.5C2911.5 3635 3138 4243 3681.56 3996C4302.36 3713.9 4558 3802.5 4582 3806"
        stroke="#F4FF70" stroke-width="50" stroke-miterlimit="11.4737" stroke-linejoin="round" />
    <path
        d="M25 5C69.6667 275.167 41 659.501 465 622C767.307 595.263 1103.5 447.418 1432.05 735.915C2227.03 1433.99 1424.82 1667.26 1820.88 1981.74C2191.05 2275.66 2669.18 1223.33 3215.2 1278.31C3801.81 1337.38 2992.94 2276.14 3681.56 2863.61C3858.54 2996.57 4080.4 3349.3 3552 3696.5C3446 3766.15 3270.73 3569.76 3129 3595.5C2911.5 3635 3138 4243 3681.56 3996C4302.36 3713.9 4558 3802.5 4582 3806"
        stroke="black" stroke-width="3" stroke-miterlimit="11.4737" stroke-linejoin="round"
        stroke-dasharray="15 15" />
</svg>
    