<svg width="3464" height="3615" viewBox="0 0 3464 3615" fill="none"
    xmlns="http://www.w3.org/2000/svg">
    <path
        d="M17 3C46.7819 183.136 27.6681 439.394 310.374 414.39C511.939 396.563 736.099 297.986 955.16 490.343C1485.22 955.789 950.339 1111.33 1214.42 1321.01C1461.23 1516.98 1780.03 815.329 2144.09 851.988C2535.22 891.372 1995.9 1517.3 2455.04 1909C2573.04 1997.66 2829.72 2162.3 2891.39 2467.34C2963.11 2822.05 2806.72 3266.78 2376.99 3038.75C2097.87 2890.64 1998.68 2971.5 2098.62 3140.76C2292.31 3468.81 3036.75 2955.07 3449.47 3605.16"
        stroke="#F4FF70" stroke-width="33.3379" stroke-miterlimit="11.4737" stroke-linejoin="round" />
    <path
        d="M17 3C46.7819 183.136 27.6681 439.394 310.374 414.39C511.939 396.563 736.099 297.986 955.16 490.343C1485.22 955.789 950.339 1111.33 1214.42 1321.01C1461.23 1516.98 1780.03 815.329 2144.09 851.988C2535.22 891.372 1995.9 1517.3 2455.04 1909C2573.04 1997.66 2829.72 2162.3 2891.39 2467.34C2963.11 2822.05 2806.72 3266.78 2376.99 3038.75C2097.87 2890.64 1998.68 2971.5 2098.62 3140.76C2292.31 3468.81 3036.75 2955.07 3449.47 3605.16"
        stroke="black" stroke-width="2.00027" stroke-miterlimit="11.4737" stroke-linejoin="round"
        stroke-dasharray="10 10" />
</svg>
    