<svg width="856" height="1607" viewBox="0 0 856 1607" fill="none" xmlns="http://www.w3.org/2000/svg">
    <path
        d="M304.972 1373.43L301.738 1382.89L304.972 1373.43ZM438.956 1148.73L446.015 1141.65L438.956 1148.73ZM790.773 893.297L800.553 895.383L790.773 893.297ZM300.609 604.617L295.825 595.836L300.609 604.617ZM797.851 1539.44C801.752 1543.35 801.746 1549.68 797.836 1553.58C793.927 1557.48 787.596 1557.47 783.694 1553.56L797.851 1539.44ZM301.738 1382.89C246.716 1364.09 215.84 1328.14 204.382 1287.09C193.05 1246.49 201.003 1202.02 221.213 1165.86C241.412 1129.73 274.548 1100.71 314.874 1092.45C355.672 1084.09 401.618 1097.41 446.015 1141.65L431.897 1155.82C391.172 1115.23 351.749 1105.31 318.889 1112.04C285.557 1118.87 256.748 1143.28 238.671 1175.62C220.606 1207.94 213.954 1246.99 223.646 1281.71C233.212 1315.99 258.989 1347.15 308.206 1363.97L301.738 1382.89ZM446.015 1141.65C510.179 1205.59 559.341 1235.14 597.22 1241.73C615.861 1244.98 631.779 1242.67 645.749 1236.12C659.841 1229.51 672.557 1218.29 684.171 1202.82C707.575 1171.64 725.34 1124.76 740.539 1069.51C755.692 1014.41 767.956 952.354 780.992 891.212L800.553 895.383C787.617 956.054 775.178 1018.98 759.823 1074.81C744.513 1130.47 725.963 1180.46 700.167 1214.83C687.181 1232.13 672.076 1245.86 654.241 1254.23C636.285 1262.65 616.171 1265.33 593.789 1261.44C549.623 1253.75 496.778 1220.47 431.897 1155.82L446.015 1141.65ZM780.992 891.212C788.098 857.886 777.86 815.767 753.079 772.492C728.433 729.452 690.071 686.501 643.148 652.032C549.175 582.999 423.039 549.312 305.393 613.399L295.825 595.836C422.544 526.806 557.145 564.038 654.989 635.913C703.975 671.898 744.292 716.899 770.435 762.553C796.443 807.971 809.101 855.288 800.553 895.383L780.992 891.212ZM305.393 613.399C241.764 648.06 180.793 647.98 131.606 622.249C82.7056 596.668 46.9172 546.512 31.5491 483.724C0.738568 357.845 51.2833 180.3 242.897 34.7844L254.992 50.712C68.265 192.517 22.4598 362.465 50.9757 478.969C65.2707 537.373 98.0646 582.131 140.876 604.527C183.401 626.773 237.272 627.732 295.825 595.836L305.393 613.399ZM308.206 1363.97C400.8 1395.61 493.531 1411.21 579.247 1433.17C664.107 1454.91 741.339 1482.81 797.851 1539.44L783.694 1553.56C731.225 1500.99 658.57 1474.14 574.282 1452.54C490.851 1431.17 395.172 1414.83 301.738 1382.89L308.206 1363.97Z"
        fill="#F4FF70" />
    <path
        d="M248.945 42.7482C-129.396 330.069 56.2446 737.733 300.609 604.617C544.974 471.501 822.082 746.454 790.773 893.297C738.828 1136.92 697.046 1405.93 438.956 1148.73C268.711 979.077 96.492 1302.18 304.972 1373.43C491 1437.01 681.791 1437.3 790.773 1546.5"
        stroke="black" stroke-width="2" stroke-miterlimit="11.4737" stroke-dasharray="10 10" />
</svg>
    