<svg width="558" height="1048" viewBox="0 0 558 1048" fill="none" xmlns="http://www.w3.org/2000/svg">
    <path
        d="M198.904 895.755L196.795 901.927L196.795 901.927L198.904 895.755ZM286.289 749.207L290.893 744.588L286.289 749.207ZM515.745 582.612L522.124 583.972L522.124 583.972L515.745 582.612ZM196.059 394.334L192.939 388.606L192.939 388.606L196.059 394.334ZM520.361 1004.03C522.906 1006.58 522.902 1010.7 520.352 1013.25C517.803 1015.79 513.673 1015.79 511.129 1013.24L520.361 1004.03ZM196.795 901.927C160.909 889.662 140.772 866.217 133.299 839.445C125.908 812.967 131.095 783.959 144.276 760.379C157.45 736.812 179.061 717.89 205.362 712.501C231.971 707.049 261.937 715.732 290.893 744.588L281.685 753.827C255.124 727.358 229.412 720.888 207.981 725.279C186.242 729.734 167.452 745.651 155.662 766.743C143.88 787.822 139.542 813.294 145.863 835.938C152.102 858.291 168.914 878.613 201.014 889.584L196.795 901.927ZM290.893 744.588C332.741 786.291 364.805 805.562 389.509 809.863C401.667 811.98 412.049 810.475 421.16 806.202C430.351 801.892 438.645 794.576 446.219 784.484C461.483 764.146 473.07 733.575 482.983 697.535C492.866 661.603 500.864 621.129 509.366 581.252L522.124 583.972C513.687 623.542 505.574 664.583 495.56 700.994C485.574 737.298 473.476 769.897 456.652 792.314C448.182 803.599 438.33 812.557 426.699 818.012C414.988 823.504 401.869 825.255 387.272 822.714C358.466 817.698 324.001 795.996 281.685 753.827L290.893 744.588ZM509.366 581.252C514.001 559.516 507.323 532.046 491.161 503.822C475.087 475.751 450.067 447.738 419.464 425.258C358.174 380.234 275.908 358.263 199.179 400.061L192.939 388.606C275.585 343.585 363.372 367.867 427.186 414.745C459.135 438.215 485.43 467.564 502.481 497.34C519.443 526.962 527.699 557.822 522.124 583.972L509.366 581.252ZM199.179 400.061C157.68 422.667 117.914 422.615 85.834 405.833C53.9411 389.149 30.5998 356.437 20.5767 315.487C0.481929 233.388 33.4474 117.592 158.418 22.6865L166.307 33.0746C44.5229 125.561 14.6486 236.401 33.2467 312.385C42.57 350.477 63.9583 379.668 91.8803 394.275C119.615 408.784 154.75 409.409 192.939 388.606L199.179 400.061ZM201.014 889.584C261.403 910.224 321.883 920.394 377.787 934.719C433.133 948.9 483.504 967.095 520.361 1004.03L511.129 1013.24C476.908 978.951 429.522 961.44 374.549 947.355C320.135 933.412 257.733 922.754 196.795 901.927L201.014 889.584Z"
        fill="#F4FF70" />
    <path
        d="M162.363 27.8806C-84.3925 215.272 36.6832 481.152 196.059 394.334C355.434 307.515 536.165 486.84 515.745 582.612C481.866 741.506 454.616 916.952 286.289 749.207C175.255 638.558 62.9327 849.284 198.904 895.755C320.232 937.222 444.667 937.412 515.745 1008.63"
        stroke="black" stroke-width="1.30441" stroke-miterlimit="11.4737"
        stroke-dasharray="6.52 6.52" />
</svg>
    