<svg width="81" height="26" viewBox="0 0 81 26" fill="none" xmlns="http://www.w3.org/2000/svg">
    <path
        d="M66.3827 1.32084C67.7353 0.760717 69.1837 0.49503 70.6386 0.540151C77.2335 0.895699 79.9233 8.26265 80.0328 8.58977C82.4431 15.6905 78.2865 23.122 73.465 25.0729H2.30023C2.12074 25.0736 1.94291 25.0372 1.77697 24.966C1.61103 24.8947 1.46027 24.79 1.33335 24.6578C1.20644 24.5256 1.10589 24.3686 1.03749 24.1957C0.969093 24.0229 0.9342 23.8377 0.934823 23.6507V19.0286C0.934969 18.8092 0.983908 18.5929 1.0778 18.3965C1.17169 18.2002 1.30798 18.0292 1.47598 17.8969C1.64398 17.7646 1.83912 17.6747 2.04609 17.6342C2.25306 17.5936 2.46623 17.6036 2.66888 17.6633C4.51674 18.2566 6.46128 18.4517 8.38389 18.2365C10.3065 18.0213 12.1669 17.4004 13.8515 16.4117C15.804 15.1177 19.0263 12.1736 18.685 9.24401C18.5926 8.13616 17.6053 5.20137 14.9985 6.15775C14.7078 6.24924 14.3962 6.23756 14.1126 6.12457C13.829 6.01157 13.5895 5.80365 13.4316 5.53346C13.2738 5.26327 13.2066 4.94613 13.2406 4.63184C13.2746 4.31755 13.4078 4.02393 13.6194 3.79709C22.5997 -5.42364 36.4209 6.54886 29.3897 18.1326C32.5033 18.6944 35.7072 18.0844 38.4287 16.4118C40.3813 15.1177 43.6036 12.1737 43.2622 9.24403C43.1758 8.13745 42.1683 5.19618 39.5757 6.15776C39.285 6.24916 38.9735 6.23743 38.6899 6.12441C38.4064 6.01139 38.1669 5.80348 38.0091 5.53334C37.8513 5.26319 37.7841 4.9461 37.818 4.63185C37.8519 4.3176 37.9851 4.024 38.1966 3.79713C47.0246 -5.36381 61.0744 6.45729 53.967 18.1327C57.0807 18.6944 60.2846 18.0844 63.0061 16.4118C64.9586 15.1177 68.1809 12.1737 67.8395 9.24406C67.7553 8.13306 66.7367 5.19554 64.1529 6.15791C63.8616 6.26077 63.5452 6.25612 63.2568 6.14475C62.9684 6.03339 62.7256 5.82207 62.5691 5.54627C62.4088 5.27337 62.3418 4.95204 62.379 4.63447C62.4162 4.31691 62.5553 4.02176 62.7739 3.79698C63.8019 2.72365 65.0301 1.88096 66.3827 1.32084Z"
        fill="black" />
</svg>
    