<svg width="65" height="64" viewBox="0 0 65 64" fill="none" xmlns="http://www.w3.org/2000/svg">
    <path
        d="M44.9844 26.3923C45.6454 26.1186 46.3533 25.9888 47.0643 26.0108C50.2873 26.1846 51.6018 29.7848 51.6553 29.9447C52.8332 33.4148 50.8019 37.0466 48.4456 38H13.6673C13.5796 38.0003 13.4927 37.9825 13.4116 37.9477C13.3305 37.9129 13.2568 37.8617 13.1948 37.7971C13.1327 37.7325 13.0836 37.6558 13.0502 37.5713C13.0168 37.4868 12.9997 37.3963 13 37.305V35.0461C13.0001 34.9389 13.024 34.8332 13.0699 34.7372C13.1158 34.6413 13.1824 34.5577 13.2645 34.4931C13.3466 34.4284 13.4419 34.3845 13.5431 34.3647C13.6442 34.3449 13.7484 34.3497 13.8474 34.3789C14.7505 34.6689 15.7008 34.7642 16.6404 34.659C17.58 34.5539 18.4891 34.2505 19.3124 33.7673C20.2666 33.1349 21.8413 31.6961 21.6745 30.2644C21.6294 29.723 21.1469 28.2888 19.8729 28.7561C19.7309 28.8009 19.5786 28.7951 19.44 28.7399C19.3014 28.6847 19.1843 28.5831 19.1072 28.4511C19.0301 28.319 18.9972 28.164 19.0138 28.0104C19.0305 27.8568 19.0956 27.7133 19.199 27.6025C23.5876 23.0963 30.3421 28.9473 26.9059 34.6083C28.4275 34.8828 29.9933 34.5847 31.3233 33.7673C32.2775 33.1349 33.8523 31.6961 33.6854 30.2644C33.6432 29.7236 33.1509 28.2862 31.8838 28.7561C31.7418 28.8008 31.5895 28.7951 31.451 28.7398C31.3124 28.6846 31.1954 28.583 31.1182 28.451C31.0411 28.319 31.0083 28.164 31.0248 28.0104C31.0414 27.8569 31.1065 27.7134 31.2099 27.6025C35.5241 23.1255 42.3903 28.9025 38.9169 34.6083C40.4385 34.8828 42.0043 34.5847 43.3343 33.7673C44.2885 33.1349 45.8632 31.6961 45.6964 30.2644C45.6552 29.7215 45.1575 28.2859 43.8948 28.7562C43.7524 28.8065 43.5978 28.8042 43.4568 28.7498C43.3159 28.6954 43.1972 28.5921 43.1207 28.4573C43.0424 28.3239 43.0097 28.1669 43.0278 28.0117C43.046 27.8565 43.114 27.7123 43.2208 27.6024C43.7232 27.0779 44.3234 26.6661 44.9844 26.3923Z"
        fill="black" />
    <circle cx="32.6311" cy="31.9887" r="31.3508" stroke="black" />
</svg>
    