<svg width="64" height="64" viewBox="0 0 64 64" fill="none" xmlns="http://www.w3.org/2000/svg">
    <circle cx="31.8846" cy="31.853" r="31.3508" stroke="black" />
    <path
        d="M36.2337 24.0749V31.8568C36.2337 33.2835 37.4659 34.4508 38.9718 34.4508H40.3409V43.5297C40.3409 44.2431 40.9569 44.8267 41.7099 44.8267C42.4629 44.8267 43.0789 44.2431 43.0789 43.5297V20.3526C43.0789 19.5095 42.2438 18.887 41.3813 19.0815C38.4242 19.7689 36.2337 22.1424 36.2337 24.0749ZM29.3885 27.9659H26.6504V20.184C26.6504 19.4706 26.0343 18.887 25.2814 18.887C24.5284 18.887 23.9123 19.4706 23.9123 20.184V27.9659H21.1742V20.184C21.1742 19.4706 20.5582 18.887 19.8052 18.887C19.0522 18.887 18.4362 19.4706 18.4362 20.184V27.9659C18.4362 30.8322 20.8867 33.1538 23.9123 33.1538V43.5297C23.9123 44.2431 24.5284 44.8267 25.2814 44.8267C26.0343 44.8267 26.6504 44.2431 26.6504 43.5297V33.1538C29.676 33.1538 32.1266 30.8322 32.1266 27.9659V20.184C32.1266 19.4706 31.5105 18.887 30.7575 18.887C30.0046 18.887 29.3885 19.4706 29.3885 20.184V27.9659Z"
        fill="black" />
</svg>
    