<svg xmlns="http://www.w3.org/2000/svg" width="146" height="146" viewBox="0 0 146 146" fill="none">
    <circle cx="72.8335" cy="72.7825" r="71.2063" stroke="black" stroke-width="2.27128" />
    <path fill-rule="evenodd" clip-rule="evenodd"
        d="M103.921 48.1896V101.322H98.149V48.1896H103.921ZM98.5756 41.3603C99.0288 40.4137 99.8685 39.0479 101.042 39.0479C102.215 39.0479 103.054 40.4137 103.508 41.3468C104.241 42.902 104.627 44.7682 104.787 46.4721L104.841 47.0671H97.2426L97.2959 46.4721C97.4272 44.7058 97.8602 42.9761 98.5756 41.3603ZM48.1093 48.1896V101.322H42.3376V48.1896H48.1093ZM41.4845 46.4721C41.6158 44.7058 42.0488 42.9761 42.7641 41.3603C43.204 40.4137 44.0438 39.0479 45.2301 39.0479C46.4031 39.0479 47.2429 40.4137 47.6961 41.3468C48.4292 42.902 48.8158 44.7682 48.9758 46.4721L49.0291 47.0671H41.4311L41.4845 46.4721ZM49.2024 74.019H97.0693V101.336H80.4738V89.6113C80.4874 88.1324 80.0644 86.6832 79.2594 85.4502C78.4543 84.2171 77.304 83.2567 75.9565 82.6924C74.609 82.1281 73.1258 81.9858 71.6979 82.2837C70.27 82.5817 68.9626 83.3063 67.9439 84.3643C67.266 85.0538 66.7288 85.8721 66.3628 86.7725C65.9968 87.6728 65.8094 88.6375 65.8112 89.6113V101.322H49.189V74.0055L49.2024 74.019ZM55.2007 72.288C55.8687 67.952 58.0429 64.0013 61.3308 61.1493C64.6186 58.2973 68.8034 56.732 73.1292 56.7363C77.4588 56.7233 81.6496 58.2851 84.9413 61.1383C88.2331 63.9916 90.4078 67.9474 91.0709 72.288L91.1776 72.9101H55.0941L55.1874 72.288H55.2007ZM42.9374 104.947H103.334C103.766 104.947 104.179 105.121 104.484 105.43C104.789 105.739 104.96 106.159 104.96 106.597C104.96 107.034 104.789 107.454 104.484 107.763C104.179 108.073 103.766 108.246 103.334 108.246H42.9241C42.4928 108.246 42.0791 108.073 41.7742 107.763C41.4692 107.454 41.2979 107.034 41.2979 106.597C41.2979 106.159 41.4692 105.739 41.7742 105.43C42.0791 105.121 42.4928 104.947 42.9241 104.947H42.9374ZM74.7554 52.801V55.695L74.1822 55.6544C73.4807 55.6159 72.7776 55.6159 72.0761 55.6544L71.5029 55.695V52.7604C70.1264 52.3291 68.9604 51.3876 68.2372 50.1234C67.876 49.4076 67.6372 48.6348 67.5307 47.838C67.3974 46.8913 67.3574 45.5661 68.1439 44.8764C68.4709 44.598 68.8908 44.4577 69.3169 44.4842C70.3566 44.5248 71.0098 45.512 70.8098 46.5127C70.6765 47.1753 70.7165 47.8785 71.0497 48.4736C71.2693 48.854 71.5826 49.1699 71.9588 49.3904C72.335 49.6109 72.7613 49.7283 73.1958 49.7312C74.0756 49.7312 74.6754 49.4878 75.1553 48.7305C75.5418 48.1084 75.7818 47.2429 76.4216 46.8508C76.6498 46.7076 76.9131 46.6326 77.1814 46.6344C77.4385 46.6343 77.6919 46.6959 77.9209 46.8144C78.15 46.9328 78.348 47.1047 78.4989 47.3158C78.6498 47.527 78.7492 47.7714 78.789 48.0291C78.8287 48.2867 78.8077 48.5503 78.7276 48.7981C78.4448 49.7472 77.9336 50.6101 77.2401 51.3088C76.5467 52.0076 75.6928 52.5204 74.7554 52.801Z"
        fill="black" />
</svg>