<svg width="64" height="64" viewBox="0 0 64 64" fill="none" xmlns="http://www.w3.org/2000/svg">
    <circle cx="31.8846" cy="31.8527" r="31.3508" stroke="black" />
    <path
        d="M43.9844 26.3923C44.6454 26.1186 45.3533 25.9888 46.0643 26.0108C49.2873 26.1846 50.6018 29.7848 50.6553 29.9447C51.8332 33.4148 49.8019 37.0466 47.4456 38H12.6673C12.5796 38.0003 12.4927 37.9825 12.4116 37.9477C12.3305 37.9129 12.2568 37.8617 12.1948 37.7971C12.1327 37.7325 12.0836 37.6558 12.0502 37.5713C12.0168 37.4868 11.9997 37.3963 12 37.305V35.0461C12.0001 34.9389 12.024 34.8332 12.0699 34.7372C12.1158 34.6413 12.1824 34.5577 12.2645 34.4931C12.3466 34.4284 12.4419 34.3845 12.5431 34.3647C12.6442 34.3449 12.7484 34.3497 12.8474 34.3789C13.7505 34.6689 14.7008 34.7642 15.6404 34.659C16.58 34.5539 17.4891 34.2505 18.3124 33.7673C19.2666 33.1349 20.8413 31.6961 20.6745 30.2644C20.6294 29.723 20.1469 28.2888 18.8729 28.7561C18.7309 28.8009 18.5786 28.7951 18.44 28.7399C18.3014 28.6847 18.1843 28.5831 18.1072 28.4511C18.0301 28.319 17.9972 28.164 18.0138 28.0104C18.0305 27.8568 18.0956 27.7133 18.199 27.6025C22.5876 23.0963 29.3421 28.9473 25.9059 34.6083C27.4275 34.8828 28.9933 34.5847 30.3233 33.7673C31.2775 33.1349 32.8523 31.6961 32.6854 30.2644C32.6432 29.7236 32.1509 28.2862 30.8838 28.7561C30.7418 28.8008 30.5895 28.7951 30.451 28.7398C30.3124 28.6846 30.1954 28.583 30.1182 28.451C30.0411 28.319 30.0083 28.164 30.0248 28.0104C30.0414 27.8569 30.1065 27.7134 30.2099 27.6025C34.5241 23.1255 41.3903 28.9025 37.9169 34.6083C39.4385 34.8828 41.0043 34.5847 42.3343 33.7673C43.2885 33.1349 44.8632 31.6961 44.6964 30.2644C44.6552 29.7215 44.1575 28.2859 42.8948 28.7562C42.7524 28.8065 42.5978 28.8042 42.4568 28.7498C42.3159 28.6954 42.1972 28.5921 42.1207 28.4573C42.0424 28.3239 42.0097 28.1669 42.0278 28.0117C42.046 27.8565 42.114 27.7123 42.2208 27.6024C42.7232 27.0779 43.3234 26.6661 43.9844 26.3923Z"
        fill="black" />
</svg>
    