<svg width="34" height="10" viewBox="0 0 34 10" fill="none" xmlns="http://www.w3.org/2000/svg">
    <path
        d="M27.8839 0.326948C28.4601 0.0988383 29.0772 -0.00936284 29.6971 0.00901251C32.5068 0.15381 33.6528 3.15401 33.6995 3.28723C34.7264 6.17901 32.9555 9.20549 30.9013 10H0.581729C0.505262 10.0003 0.429497 9.98546 0.358799 9.95644C0.288101 9.92743 0.223867 9.88478 0.169796 9.83094C0.115725 9.77711 0.0728851 9.71315 0.0437446 9.64277C0.0146041 9.57238 -0.000261702 9.49694 3.48638e-06 9.42081V7.53844C6.59182e-05 7.44911 0.0209161 7.361 0.0609185 7.28104C0.100921 7.20108 0.158988 7.13143 0.230564 7.07756C0.302139 7.02369 0.385277 6.98707 0.473456 6.97056C0.561635 6.95406 0.652456 6.95811 0.738795 6.98242C1.52607 7.22406 2.35454 7.30349 3.17366 7.21586C3.99278 7.12823 4.78538 6.87538 5.50313 6.47273C6.33496 5.94572 7.70783 4.74676 7.5624 3.55366C7.52306 3.10249 7.10242 1.9073 5.99178 2.29678C5.86795 2.33404 5.73519 2.32929 5.61436 2.28327C5.49353 2.23725 5.39148 2.15258 5.32423 2.04254C5.25698 1.93251 5.22835 1.80335 5.24284 1.67536C5.25732 1.54736 5.31409 1.42778 5.40424 1.3354C9.23024 -2.41975 15.1188 2.45607 12.1231 7.17356C13.4497 7.40233 14.8147 7.15393 15.9742 6.47274C16.806 5.94573 18.1789 4.74677 18.0334 3.55368C17.9966 3.10302 17.5674 1.90518 16.4628 2.29679C16.339 2.33401 16.2063 2.32923 16.0855 2.28321C15.9647 2.23718 15.8626 2.15251 15.7954 2.04249C15.7281 1.93247 15.6995 1.80334 15.714 1.67536C15.7284 1.54738 15.7852 1.42781 15.8753 1.33542C19.6364 -2.39538 25.6223 2.41877 22.5942 7.17357C23.9208 7.40234 25.2858 7.15394 26.4453 6.47276C27.2771 5.94574 28.65 4.74678 28.5045 3.55369C28.4687 3.10123 28.0347 1.90492 26.9339 2.29685C26.8098 2.33874 26.675 2.33685 26.5521 2.29149C26.4292 2.24614 26.3258 2.16008 26.2591 2.04776C26.1908 1.93662 26.1623 1.80576 26.1781 1.67643C26.1939 1.5471 26.2532 1.4269 26.3463 1.33536C26.7843 0.898243 27.3076 0.555057 27.8839 0.326948Z"
        fill="black" />
</svg>
    