<svg width="22" height="23" viewBox="0 0 22 23" fill="none" xmlns="http://www.w3.org/2000/svg">
    <path
        d="M11.8919 12.3846H10.1081V0H11.8919V12.3846ZM14.8649 7.40128C14.1514 6.57564 13.5568 5.63205 13.0811 4.65897V12.3846H14.8649V7.40128ZM17.8378 9.93718C17.2135 9.55385 16.6189 9.11154 16.0541 8.61026V12.3846H17.8378V9.93718ZM2.97297 10.5859C2.05135 11.0282 1.04054 11.3526 0 11.559V12.3846H2.97297V10.5859ZM8.91892 4.65897C8.44324 5.66154 7.84865 6.57564 7.13514 7.40128V12.3846H8.91892V4.65897ZM19.027 10.5859V12.3846H22V11.559C20.9595 11.3821 19.9486 11.0282 19.027 10.5859ZM5.94595 8.61026C5.38108 9.11154 4.78649 9.55385 4.16216 9.93718V12.3846H5.94595V8.61026ZM0 15.3923C1.36757 15.6577 2.37838 16.8667 2.37838 18.2821V23H4.16216V18.2821C4.16216 16.6603 5.5 15.3333 7.13514 15.3333C8.77027 15.3333 10.1081 16.6603 10.1081 18.2821V23H11.8919V18.2821C11.8919 16.6603 13.2297 15.3333 14.8649 15.3333C16.5 15.3333 17.8378 16.6603 17.8378 18.2821V23H19.6216V18.2821C19.6216 16.8667 20.6324 15.6577 22 15.3923V13.5641H0V15.3923Z"
        fill="black" />
</svg>
    