<svg width="65" height="65" viewBox="0 0 65 65" fill="none" xmlns="http://www.w3.org/2000/svg">
    <path
        d="M46.9225 19.3763C46.4502 24.0562 44.5811 33.8627 37.1894 38.2303C35.8115 39.1368 34.2547 39.7459 32.6213 40.0176C30.9879 40.2893 29.3147 40.2175 27.7114 39.8069C26.9579 39.5596 26.1393 39.5872 25.4047 39.8846C24.67 40.182 24.068 40.7294 23.7082 41.4274C22.9842 42.8758 22.4535 44.4106 22.1293 45.9934C22.0801 46.3084 21.9068 46.5915 21.647 46.7812C21.3873 46.9709 21.062 47.0518 20.7421 47.0064C20.4221 46.9609 20.1333 46.7928 19.9384 46.5385C19.7435 46.2843 19.6583 45.9644 19.7013 45.6485C19.7682 45.1861 21.4295 34.7895 33.1865 28.0507C28.6701 28.57 24.4865 30.6505 21.3786 33.9228C20.7688 32.1619 20.7623 30.2524 21.3602 28.4875C23.339 22.6418 29.2747 22.6484 37.1894 22.6484C38.7726 22.5895 40.327 22.2129 41.7576 21.5417C43.1882 20.8705 44.4649 19.9187 45.5098 18.7446C45.6263 18.62 45.7796 18.5348 45.948 18.5011C46.1164 18.4674 46.2913 18.4869 46.4478 18.5569C46.6043 18.6269 46.7344 18.7437 46.8197 18.8909C46.9049 19.038 46.9409 19.2079 46.9225 19.3763Z"
        fill="black" />
    <circle cx="32.6311" cy="32.3508" r="31.3508" stroke="black" />
</svg>
    