<svg width="64" height="64" viewBox="0 0 64 64" fill="none" xmlns="http://www.w3.org/2000/svg">
    <circle cx="31.8846" cy="31.8528" r="31.3508" stroke="black" />
    <g clip-path="url(#clip0_210_81)">
        <path
            d="M47.9999 25.2216V26.0106C47.7951 26.0106 47.5903 25.9999 47.3729 26.0198C47.3729 26.1559 47.3729 26.266 47.3729 26.3761C47.3729 32.2996 47.3729 38.2232 47.3729 44.1467C47.3729 44.2476 47.3792 44.3501 47.3698 44.4495C47.3383 44.7507 47.0988 45.0122 46.7759 44.9984C46.683 44.9938 46.5885 44.9984 46.4955 44.9984C36.8312 44.9984 27.167 44.9984 17.5027 44.9984C17.4098 44.9984 17.3152 44.9923 17.2223 44.9984C16.9482 45.0152 16.6552 44.7629 16.6332 44.4418C16.6269 44.3409 16.63 44.24 16.63 44.1391C16.63 38.2155 16.63 32.292 16.63 26.3684C16.63 26.2522 16.6568 26.1299 16.6032 26.0213C16.3984 25.9831 16.1984 26.0458 16.0062 25.9785C16.0062 25.8042 16.0156 25.6421 16.003 25.4816C15.992 25.3287 16.0409 25.2186 16.1527 25.1054C16.8568 24.3883 17.5515 23.6635 18.2478 22.9403C18.6101 22.5642 18.9724 22.188 19.3221 21.7996C19.4655 21.6406 19.6199 21.5856 19.8357 21.5871C20.9714 21.5963 22.1056 21.5932 23.2414 21.5901C23.3517 21.5901 23.4698 21.6268 23.5817 21.5443C23.5817 21.3057 23.5769 21.0626 23.5832 20.821C23.5864 20.7018 23.6021 20.581 23.6289 20.4632C23.6904 20.1911 23.8888 20.0122 24.1692 20.0091C24.8151 19.9999 25.461 20.0045 26.1068 20.0076C26.3683 20.0076 26.5337 20.159 26.6219 20.3776C26.6692 20.4953 26.6802 20.633 26.6834 20.7614C26.6928 21.0305 26.6865 21.3012 26.6865 21.5779H37.3227C37.3227 21.4648 37.3227 21.3669 37.3227 21.2675C37.3227 21.055 37.3133 20.8424 37.3259 20.6314C37.3464 20.266 37.5779 20.0137 37.9119 20.0091C38.5467 19.9999 39.1831 19.9999 39.818 20.0091C40.1173 20.0137 40.322 20.1865 40.3803 20.4755C40.4134 20.6421 40.4181 20.8149 40.4276 20.9846C40.4386 21.1819 40.415 21.3822 40.4449 21.5947H40.7789C41.9241 21.5947 43.0693 21.5978 44.2161 21.5917C44.3957 21.5917 44.5264 21.6345 44.6509 21.766C45.2195 22.37 45.7992 22.9648 46.3726 23.5642C46.7413 23.9495 47.102 24.3394 47.4738 24.7216C47.6423 24.896 47.8266 25.058 48.0046 25.2247L47.9999 25.2216ZM29.878 43.8287H34.1202V36.5382C32.8395 35.4984 31.0028 35.581 29.878 36.5535V43.8287ZM34.6857 31.6421V27.6651C33.1577 26.6483 30.579 26.7553 29.3172 27.6819C29.2652 28.5382 29.2889 31.4051 29.3519 31.6437H34.6873L34.6857 31.6421ZM35.6183 25.6712C35.5553 25.425 35.3867 25.3272 35.2481 25.2094C35.0528 25.0427 34.848 24.8883 34.6495 24.7247C33.9438 24.1452 33.2396 23.5642 32.5339 22.9831C32.3512 22.8333 32.1432 22.7645 31.9007 22.7889C31.7022 22.8088 31.5557 22.9128 31.4107 23.0305C30.9193 23.4342 30.4246 23.8363 29.9331 24.2385C29.5125 24.5825 29.0904 24.9265 28.6729 25.2752C28.5579 25.3715 28.4225 25.4586 28.3988 25.633C28.5186 25.7767 28.6871 25.7645 28.8525 25.7645C30.9539 25.7645 33.0553 25.7645 35.1567 25.7645C35.2087 25.7645 35.2623 25.7721 35.3127 25.7614C35.4088 25.7385 35.5033 25.7064 35.6167 25.6712H35.6183ZM22.9264 31.2186C22.9689 30.5886 22.9531 29.2201 22.9027 28.9938H20.8423V31.2186H22.9264ZM41.0687 31.2186H43.1607V29.0091C42.8173 28.9617 41.2987 28.9709 41.0687 29.0198V31.2186ZM20.8517 38.9388C20.8076 39.347 20.8186 40.9434 20.8643 41.1742H22.909C22.9642 40.8241 22.9531 39.1513 22.8948 38.9388H20.8501H20.8517ZM41.0797 38.9464C41.0404 39.4479 41.053 40.9434 41.0986 41.1727H43.1622V38.9464H41.0797Z"
            fill="black" />
    </g>
    <defs>
        <clipPath id="clip0_210_81">
            <rect width="32" height="25" fill="white" transform="translate(16 20)" />
        </clipPath>
    </defs>
</svg>
    