<svg width="146" height="146" viewBox="0 0 146 146" fill="none" xmlns="http://www.w3.org/2000/svg">
    <g clip-path="url(#clip0_228_620)">
        <path
            d="M35.3013 91.4792L42.8336 91.5033C43.1247 91.6376 43.4459 91.716 43.7868 91.716H107.989C109.24 91.716 110.256 90.7039 110.261 89.4521C110.265 88.1972 109.252 87.1776 107.997 87.1731L101.56 87.152C100.97 84.1234 99.2338 81.5005 96.8221 79.7539H46.476C44.1156 81.4643 42.4037 84.0118 41.7778 86.9574C33.1188 86.9287 35.8608 86.9363 35.3088 86.9363C34.057 86.9363 33.0419 87.9483 33.0374 89.2002C33.0328 90.4551 34.0464 91.4747 35.3013 91.4792Z"
            fill="black" />
        <path
            d="M40.1534 96.8653H35.3088C34.0539 96.8653 33.0374 97.8819 33.0374 99.1352C33.0374 100.389 34.0539 101.407 35.3088 101.407H40.1534C41.4082 101.407 42.4248 100.39 42.4248 99.1352C42.4248 97.8803 41.4082 96.8638 40.1534 96.8638V96.8653Z"
            fill="black" />
        <path
            d="M49.8438 104.132H44.9978C43.7429 104.132 42.7263 105.149 42.7263 106.404C42.7263 107.659 43.7429 108.675 44.9978 108.675H49.8438C51.0987 108.675 52.1153 107.659 52.1153 106.404C52.1153 105.149 51.0987 104.132 49.8438 104.132Z"
            fill="black" />
        <path
            d="M59.536 96.8662H54.6899C53.435 96.8662 52.4185 97.8828 52.4185 99.1377C52.4185 100.393 53.435 101.409 54.6899 101.409H59.536C60.7909 101.409 61.8074 100.393 61.8074 99.1377C61.8074 97.8828 60.7909 96.8662 59.536 96.8662Z"
            fill="black" />
        <path
            d="M69.2267 104.132H64.3806C63.1257 104.132 62.1091 105.149 62.1091 106.404C62.1091 107.659 63.1257 108.675 64.3806 108.675H69.2267C70.4815 108.675 71.4981 107.659 71.4981 106.404C71.4981 105.149 70.4815 104.132 69.2267 104.132Z"
            fill="black" />
        <path
            d="M78.9173 96.8662H74.0713C72.8164 96.8662 71.7998 97.8828 71.7998 99.1377C71.7998 100.393 72.8164 101.409 74.0713 101.409H78.9173C80.1722 101.409 81.1888 100.393 81.1888 99.1377C81.1888 97.8828 80.1722 96.8662 78.9173 96.8662Z"
            fill="black" />
        <path
            d="M88.608 104.132H83.7619C82.5071 104.132 81.4905 105.149 81.4905 106.404C81.4905 107.659 82.5071 108.675 83.7619 108.675H88.608C89.8629 108.675 90.8795 107.659 90.8795 106.404C90.8795 105.149 89.8629 104.132 88.608 104.132Z"
            fill="black" />
        <path
            d="M98.2984 96.8662H93.4524C92.1975 96.8662 91.1809 97.8828 91.1809 99.1377C91.1809 100.393 92.1975 101.409 93.4524 101.409H98.2984C99.5533 101.409 100.57 100.393 100.57 99.1377C100.57 97.8828 99.5533 96.8662 98.2984 96.8662Z"
            fill="black" />
        <path
            d="M107.989 104.132H103.143C101.888 104.132 100.872 105.149 100.872 106.404C100.872 107.659 101.888 108.675 103.143 108.675H107.989C109.244 108.675 110.261 107.659 110.261 106.404C110.261 105.149 109.244 104.132 107.989 104.132Z"
            fill="black" />
        <path
            d="M54.9932 72.4855C55.1441 71.2322 56.1621 70.2141 57.4155 70.2141C58.6689 70.2141 59.687 71.2322 59.5346 72.4855V75.211H64.6824V72.4855C64.8332 71.2322 65.8513 70.2141 67.1046 70.2141C68.358 70.2141 69.3761 71.2322 69.2238 72.4855V75.211H74.5238V60.5234H52.2678C51.0144 60.5234 49.9963 61.5415 49.9963 62.7949V75.211H54.9932V72.4855Z"
            fill="black" />
        <path
            d="M93.3017 38.5691C93.3017 37.9658 93.0618 37.3896 92.6365 36.9628L87.7919 32.1167C87.1072 31.432 86.077 31.2676 85.2279 31.6627C84.7151 31.895 84.9051 31.7909 79.7333 36.9628C79.3079 37.3896 79.0681 37.9673 79.0681 38.5691V42.3548H93.3017V38.5691Z"
            fill="black" />
        <path d="M79.0681 46.896H93.3017V75.2107H79.0681V46.896Z" fill="black" />
        <path
            d="M70.2855 53.1053C70.2855 52.3904 69.9492 51.7162 69.3776 51.2879L64.5315 47.6545C63.7246 47.0481 62.613 47.0481 61.8061 47.6545L56.96 51.2879C56.3883 51.7162 56.052 52.3904 56.052 53.1053V55.9816H70.2855V53.1053Z"
            fill="black" />
    </g>
    <circle cx="73.0823" cy="73.1316" r="71.2063" stroke="black" stroke-width="2.27128" />
    <defs>
        <clipPath id="clip0_228_620">
            <rect width="77.2234" height="77.2234" fill="white"
                transform="translate(33.0374 31.4517)" />
        </clipPath>
    </defs>
</svg>
    