<svg width="21" height="22" viewBox="0 0 21 22" fill="none" xmlns="http://www.w3.org/2000/svg">
    <path
        d="M20.9964 0.68723C20.6322 4.29547 19.1911 11.8564 13.492 15.224C12.4296 15.9229 11.2293 16.3925 9.96994 16.602C8.71055 16.8115 7.42046 16.7561 6.18428 16.4396C5.60331 16.2489 4.97222 16.2701 4.40578 16.4994C3.83934 16.7287 3.37519 17.1508 3.09773 17.689C2.53953 18.8058 2.13035 19.9891 1.88041 21.2095C1.84249 21.4523 1.70886 21.6706 1.50857 21.8169C1.30829 21.9631 1.05754 22.0255 0.81085 21.9905C0.56416 21.9554 0.341475 21.8258 0.19121 21.6297C0.0409451 21.4337 -0.0247489 21.1871 0.00841116 20.9436C0.0599839 20.587 1.34086 12.571 10.4057 7.37535C6.92348 7.77568 3.69786 9.37979 1.30164 11.9028C0.831427 10.5452 0.826421 9.07285 1.28739 7.71213C2.81314 3.20494 7.38963 3.21004 13.492 3.21004C14.7127 3.16462 15.9111 2.87429 17.0141 2.35677C18.1172 1.83926 19.1016 1.10544 19.9072 0.200147C19.997 0.104081 20.1152 0.0383837 20.245 0.0124035C20.3749 -0.0135768 20.5097 0.00148436 20.6304 0.0554434C20.7511 0.109402 20.8514 0.19951 20.9171 0.312942C20.9828 0.426373 21.0106 0.55735 20.9964 0.68723Z"
        fill="black" />
</svg>
    