<svg width="58" height="58" viewBox="0 0 58 58" fill="none" xmlns="http://www.w3.org/2000/svg">
    <mask id="path-1-inside-1_112_879" fill="white">
        <path fill-rule="evenodd" clip-rule="evenodd"
            d="M0.612183 57.5047L0.612183 24.0687C0.612183 21.5076 1.81099 19.0941 3.85177 17.5467L24.3564 1.99888C27.2985 -0.232001 31.37 -0.216893 34.2954 2.03576L54.4379 17.5458C56.4503 19.0953 57.6293 21.4912 57.6293 24.0309V57.5047H34.6048V52.2924C34.6059 52.184 34.6065 52.0873 34.6065 52.0061C34.6065 51.3043 34.5633 49.4353 34.4955 48.9527C34.2611 47.2843 32.7694 46.7354 31.3605 46.6232C30.323 46.5405 29.8862 46.5396 29.1664 46.5396C28.4465 46.5396 27.9252 46.5405 26.8877 46.6232C25.4788 46.7354 23.9871 47.2843 23.7527 48.9527C23.685 49.4353 23.6417 51.3043 23.6417 52.0061C23.6417 52.0117 23.6417 52.0174 23.6417 52.0231H23.64V57.5047H0.612183Z" />
    </mask>
    <path fill-rule="evenodd" clip-rule="evenodd"
        d="M0.612183 57.5047L0.612183 24.0687C0.612183 21.5076 1.81099 19.0941 3.85177 17.5467L24.3564 1.99888C27.2985 -0.232001 31.37 -0.216893 34.2954 2.03576L54.4379 17.5458C56.4503 19.0953 57.6293 21.4912 57.6293 24.0309V57.5047H34.6048V52.2924C34.6059 52.184 34.6065 52.0873 34.6065 52.0061C34.6065 51.3043 34.5633 49.4353 34.4955 48.9527C34.2611 47.2843 32.7694 46.7354 31.3605 46.6232C30.323 46.5405 29.8862 46.5396 29.1664 46.5396C28.4465 46.5396 27.9252 46.5405 26.8877 46.6232C25.4788 46.7354 23.9871 47.2843 23.7527 48.9527C23.685 49.4353 23.6417 51.3043 23.6417 52.0061C23.6417 52.0117 23.6417 52.0174 23.6417 52.0231H23.64V57.5047H0.612183Z"
        fill="black" />
    <path
        d="M0.612183 24.0687L4.70467 24.0687L0.612183 24.0687ZM0.612183 57.5047L-3.4803 57.5047L-3.4803 61.5972H0.612183V57.5047ZM3.85177 17.5467L6.32446 20.8077L6.32446 20.8077L3.85177 17.5467ZM24.3564 1.99888L21.8837 -1.26214L21.8837 -1.26214L24.3564 1.99888ZM34.2954 2.03576L31.7986 5.27833L31.7986 5.27833L34.2954 2.03576ZM54.4379 17.5458L56.9348 14.3032L56.9348 14.3032L54.4379 17.5458ZM57.6293 57.5047V61.5972H61.7217V57.5047H57.6293ZM34.6048 57.5047H30.5123V61.5972H34.6048V57.5047ZM34.6048 52.2924L30.5126 52.2499L30.5123 52.2711V52.2924H34.6048ZM34.4955 48.9527L30.4428 49.522L30.4428 49.522L34.4955 48.9527ZM31.3605 46.6232L31.0356 50.7027L31.0357 50.7027L31.3605 46.6232ZM26.8877 46.6232L27.2126 50.7027L27.2126 50.7027L26.8877 46.6232ZM23.7527 48.9527L27.8054 49.522L27.8054 49.5219L23.7527 48.9527ZM23.6417 52.0231V56.1156H27.7383L27.7342 52.019L23.6417 52.0231ZM23.64 52.0231V47.9306H19.5475V52.0231H23.64ZM23.64 57.5047V61.5972H27.7325V57.5047H23.64ZM-3.4803 24.0687L-3.4803 57.5047L4.70466 57.5047L4.70467 24.0687L-3.4803 24.0687ZM1.37908 14.2857C-1.68209 16.6068 -3.4803 20.227 -3.4803 24.0687L4.70467 24.0687C4.70467 22.7882 5.30407 21.5814 6.32446 20.8077L1.37908 14.2857ZM21.8837 -1.26214L1.37907 14.2857L6.32446 20.8077L26.8291 5.25989L21.8837 -1.26214ZM36.7923 -1.20681C32.4041 -4.58579 26.2969 -4.60845 21.8837 -1.26214L26.8291 5.25989C28.3002 4.14445 30.3359 4.15201 31.7986 5.27833L36.7923 -1.20681ZM56.9348 14.3032L36.7923 -1.20681L31.7986 5.27833L51.9411 20.7883L56.9348 14.3032ZM61.7217 24.0309C61.7217 20.2213 59.9532 16.6275 56.9348 14.3032L51.9411 20.7883C52.9473 21.5631 53.5368 22.761 53.5368 24.0309H61.7217ZM61.7217 57.5047V24.0309H53.5368V57.5047H61.7217ZM34.6048 61.5972H57.6293V53.4122H34.6048V61.5972ZM30.5123 52.2924V57.5047H38.6973V52.2924H30.5123ZM30.514 52.0061C30.514 52.0692 30.5136 52.1511 30.5126 52.2499L38.6971 52.3349C38.6983 52.2169 38.699 52.1053 38.699 52.0061H30.514ZM30.4428 49.522C30.4322 49.4464 30.4407 49.4908 30.4548 49.7533C30.4662 49.9664 30.4768 50.2346 30.4859 50.5254C30.5044 51.1127 30.514 51.7105 30.514 52.0061H38.699C38.699 51.3819 38.6636 49.2055 38.5482 48.3835L30.4428 49.522ZM31.0357 50.7027C31.1894 50.715 31.2873 50.7351 31.3335 50.7477C31.382 50.761 31.3241 50.7524 31.2066 50.6792C31.0781 50.5993 30.8857 50.4457 30.7157 50.1945C30.5404 49.9354 30.4658 49.6857 30.4428 49.522L38.5482 48.3835C38.2475 46.2425 37.0439 44.6712 35.5303 43.7295C34.1778 42.888 32.7238 42.6263 31.6853 42.5436L31.0357 50.7027ZM29.1664 50.6321C29.8234 50.6321 30.1437 50.6317 31.0356 50.7027L31.6854 42.5436C30.5023 42.4494 29.9491 42.4471 29.1664 42.4471V50.6321ZM27.2126 50.7027C28.0963 50.6324 28.4965 50.6321 29.1664 50.6321V42.4471C28.3965 42.4471 27.7542 42.4487 26.5629 42.5436L27.2126 50.7027ZM27.8054 49.5219C27.7824 49.6857 27.7079 49.9354 27.5325 50.1945C27.3625 50.4457 27.1701 50.5993 27.0417 50.6792C26.9241 50.7524 26.8662 50.761 26.9147 50.7477C26.9609 50.7351 27.0588 50.715 27.2126 50.7027L26.5629 42.5436C25.5244 42.6263 24.0705 42.888 22.7179 43.7295C21.2043 44.6712 20.0007 46.2425 19.7 48.3835L27.8054 49.5219ZM27.7342 52.0061C27.7342 51.7105 27.7439 51.1127 27.7623 50.5254C27.7714 50.2346 27.782 49.9664 27.7934 49.7533C27.8075 49.4908 27.816 49.4464 27.8054 49.522L19.7 48.3835C19.5846 49.2056 19.5492 51.3819 19.5492 52.0061H27.7342ZM27.7342 52.019C27.7342 52.015 27.7342 52.0108 27.7342 52.0061H19.5492C19.5492 52.0126 19.5492 52.0197 19.5492 52.0272L27.7342 52.019ZM23.64 56.1156H23.6417V47.9306H23.64V56.1156ZM27.7325 57.5047V52.0231H19.5475V57.5047H27.7325ZM0.612183 61.5972H23.64V53.4122H0.612183V61.5972Z"
        fill="black" mask="url(#path-1-inside-1_112_879)" />
</svg>
    