<svg xmlns="http://www.w3.org/2000/svg" width="221" height="220" viewBox="0 0 221 220" fill="none">
    <circle cx="110.212" cy="109.925" r="108.171" stroke="black" stroke-width="3.45035" />
    <mask id="path-2-inside-1_228_79" fill="white">
        <path fill-rule="evenodd" clip-rule="evenodd"
            d="M61.2622 148.348L61.2622 91.9689C61.2622 87.6504 63.2836 83.5808 66.7248 80.9716L101.3 54.755C106.26 50.9933 113.126 51.0187 118.059 54.8172L152.023 80.97C155.416 83.5828 157.404 87.6227 157.404 91.9052V148.348H61.2622ZM118.58 139.555C118.582 139.374 118.583 139.212 118.583 139.076C118.583 137.892 118.51 134.741 118.396 133.927C118.001 131.114 115.485 130.188 113.11 129.999C111.36 129.86 110.624 129.858 109.41 129.858C108.196 129.858 107.317 129.86 105.568 129.999C103.192 130.188 100.677 131.114 100.281 133.927C100.167 134.741 100.094 137.892 100.094 139.076C100.094 139.085 100.094 139.094 100.094 139.104H100.091V148.348H118.58V139.555Z" />
    </mask>
    <path fill-rule="evenodd" clip-rule="evenodd"
        d="M61.2622 148.348L61.2622 91.9689C61.2622 87.6504 63.2836 83.5808 66.7248 80.9716L101.3 54.755C106.26 50.9933 113.126 51.0187 118.059 54.8172L152.023 80.97C155.416 83.5828 157.404 87.6227 157.404 91.9052V148.348H61.2622ZM118.58 139.555C118.582 139.374 118.583 139.212 118.583 139.076C118.583 137.892 118.51 134.741 118.396 133.927C118.001 131.114 115.485 130.188 113.11 129.999C111.36 129.86 110.624 129.858 109.41 129.858C108.196 129.858 107.317 129.86 105.568 129.999C103.192 130.188 100.677 131.114 100.281 133.927C100.167 134.741 100.094 137.892 100.094 139.076C100.094 139.085 100.094 139.094 100.094 139.104H100.091V148.348H118.58V139.555Z"
        fill="black" />
    <path
        d="M61.2622 91.9689L54.3615 91.9689L61.2622 91.9689ZM61.2622 148.348L54.3615 148.348L54.3615 155.249H61.2622V148.348ZM66.7248 80.9716L62.5553 75.4729L62.5553 75.4729L66.7248 80.9716ZM101.3 54.755L105.469 60.2537L105.469 60.2537L101.3 54.755ZM118.059 54.8172L122.269 49.3496L122.269 49.3496L118.059 54.8172ZM152.023 80.97L147.813 86.4376L147.813 86.4376L152.023 80.97ZM157.404 148.348V155.249H164.305V148.348H157.404ZM118.58 139.555L111.68 139.484L111.679 139.519V139.555H118.58ZM118.396 133.927L125.229 132.967L125.229 132.967L118.396 133.927ZM113.11 129.999L113.657 123.12L113.657 123.12L113.11 129.999ZM105.568 129.999L105.02 123.12L105.02 123.12L105.568 129.999ZM100.281 133.927L93.4478 132.967L93.4478 132.967L100.281 133.927ZM100.094 139.104V146.005H107L106.995 139.098L100.094 139.104ZM100.091 139.104V132.203H93.1906V139.104H100.091ZM100.091 148.348H93.1906V155.249H100.091V148.348ZM118.58 148.348V155.249H125.481V148.348H118.58ZM54.3615 91.9689L54.3615 148.348L68.1629 148.348L68.1629 91.9689L54.3615 91.9689ZM62.5553 75.4729C57.3936 79.3868 54.3615 85.4911 54.3615 91.9689L68.1629 91.9689C68.1629 89.8097 69.1736 87.7749 70.8942 86.4703L62.5553 75.4729ZM97.1301 49.2563L62.5553 75.4729L70.8942 86.4703L105.469 60.2537L97.1301 49.2563ZM122.269 49.3496C114.869 43.6519 104.572 43.6137 97.1301 49.2563L105.469 60.2537C107.949 58.3728 111.382 58.3855 113.849 60.2847L122.269 49.3496ZM156.233 75.5024L122.269 49.3496L113.849 60.2847L147.813 86.4376L156.233 75.5024ZM164.305 91.9052C164.305 85.4814 161.323 79.4216 156.233 75.5024L147.813 86.4376C149.509 87.744 150.503 89.7639 150.503 91.9052H164.305ZM164.305 148.348V91.9052H150.503V148.348H164.305ZM61.2622 155.249H157.404V141.448H61.2622V155.249ZM111.682 139.076C111.682 139.181 111.681 139.318 111.68 139.484L125.48 139.626C125.483 139.429 125.484 139.242 125.484 139.076H111.682ZM111.562 134.887C111.544 134.759 111.559 134.834 111.582 135.277C111.602 135.636 111.62 136.089 111.635 136.579C111.666 137.569 111.682 138.577 111.682 139.076H125.484C125.484 138.023 125.424 134.353 125.229 132.967L111.562 134.887ZM112.562 136.878C112.821 136.898 112.986 136.932 113.064 136.954C113.146 136.976 113.048 136.962 112.85 136.838C112.633 136.703 112.309 136.444 112.022 136.021C111.727 135.584 111.601 135.163 111.562 134.887L125.229 132.967C124.722 129.357 122.693 126.707 120.141 125.12C117.86 123.701 115.408 123.259 113.657 123.12L112.562 136.878ZM109.41 136.759C110.518 136.759 111.058 136.758 112.562 136.878L113.657 123.12C111.662 122.961 110.73 122.957 109.41 122.957V136.759ZM106.115 136.878C107.605 136.759 108.28 136.759 109.41 136.759V122.957C108.112 122.957 107.029 122.96 105.02 123.12L106.115 136.878ZM107.115 134.887C107.076 135.163 106.951 135.584 106.655 136.021C106.368 136.444 106.044 136.703 105.827 136.838C105.629 136.962 105.531 136.976 105.613 136.954C105.691 136.932 105.856 136.898 106.115 136.878L105.02 123.12C103.269 123.259 100.817 123.701 98.5364 125.12C95.9843 126.707 93.9548 129.357 93.4478 132.967L107.115 134.887ZM106.995 139.076C106.995 138.577 107.011 137.569 107.042 136.579C107.058 136.089 107.076 135.636 107.095 135.277C107.118 134.834 107.133 134.759 107.115 134.887L93.4478 132.967C93.2531 134.353 93.1935 138.023 93.1935 139.076H106.995ZM106.995 139.098C106.995 139.088 106.995 139.082 106.995 139.076H93.1935C93.1935 139.088 93.1935 139.1 93.1935 139.109L106.995 139.098ZM100.094 132.203H100.091V146.005H100.094V132.203ZM93.1906 139.104V148.348H106.992V139.104H93.1906ZM100.091 155.249H118.58V141.448H100.091V155.249ZM125.481 148.348V139.555H111.679V148.348H125.481Z"
        fill="black" mask="url(#path-2-inside-1_228_79)" />
</svg>