<svg width="64" height="64" viewBox="0 0 64 64" fill="none" xmlns="http://www.w3.org/2000/svg">
    <circle cx="31.8846" cy="31.853" r="31.3508" stroke="black" />
    <path
        d="M37.4463 17.9783L32.2289 16.0408C32.0287 15.9672 31.8043 15.9943 31.6283 16.1151C31.4528 16.2359 31.3478 16.4341 31.3478 16.646V20.521C31.3478 20.7328 31.4528 20.9311 31.6283 21.0518C31.7391 21.1274 31.8689 21.1668 32 21.1668C32.077 21.1668 32.1546 21.1532 32.2289 21.1261L37.4463 19.1886C37.7007 19.0937 37.8696 18.8528 37.8696 18.5835C37.8696 18.3142 37.7007 18.0733 37.4463 17.9783ZM46.8089 29.7519C46.687 29.6304 46.5207 29.5626 46.3478 29.5626H43.7391C43.3791 29.5626 43.087 29.852 43.087 30.2085V32.146H41.7826V30.2085C41.7826 29.852 41.4904 29.5626 41.1304 29.5626H40.4783V46.3543C40.4783 46.5816 40.4313 46.7973 40.3583 47.0001H46.3472C46.7072 47.0001 46.9993 46.7108 46.9993 46.3543L47 30.2085C47 30.0373 46.9315 29.8726 46.8089 29.7519ZM23.5217 46.3543V29.5626H22.8696C22.5096 29.5626 22.2174 29.852 22.2174 30.2085V32.146H20.913V30.2085C20.913 29.852 20.6209 29.5626 20.2609 29.5626H17.6522C17.2922 29.5626 17 29.852 17 30.2085V46.3543C17 46.7108 17.2922 47.0001 17.6522 47.0001H23.6417C23.5687 46.7973 23.5217 46.5816 23.5217 46.3543ZM38.5217 22.4585H35.913C35.553 22.4585 35.2609 22.7478 35.2609 23.1043V25.0418H33.9565V23.1043C33.9565 22.7478 33.6643 22.4585 33.3043 22.4585H30.6957C30.3357 22.4585 30.0435 22.7478 30.0435 23.1043V25.0418H28.7391V23.1043C28.7391 22.7478 28.447 22.4585 28.087 22.4585H25.4783C25.1183 22.4585 24.8261 22.7478 24.8261 23.1043V28.271V30.2085V35.3751V41.1876V46.3543C24.8261 46.7108 25.1183 47.0001 25.4783 47.0001H29.3913V46.3543V44.4168V41.1876C29.3913 40.8311 29.6835 40.5418 30.0435 40.5418H33.9565C34.3165 40.5418 34.6087 40.8311 34.6087 41.1876V44.4168V46.3543V47.0001H38.5217C38.8817 47.0001 39.1739 46.7108 39.1739 46.3543V41.1876V35.3751V30.2085V28.271V23.1043C39.1739 22.7478 38.8817 22.4585 38.5217 22.4585ZM34.6087 32.146C34.6087 32.5025 34.3165 32.7918 33.9565 32.7918H30.0435C29.6835 32.7918 29.3913 32.5025 29.3913 32.146V28.271C29.3913 27.9145 29.6835 27.6251 30.0435 27.6251H33.9565C34.3165 27.6251 34.6087 27.9145 34.6087 28.271V32.146Z"
        fill="black" />
</svg>
    