<svg width="62" height="64" viewBox="0 0 62 64" fill="none" xmlns="http://www.w3.org/2000/svg">
    <path
        d="M42.0223 4.09152L31.3462 0.126934C30.9365 -0.0237209 30.4775 0.0317834 30.1172 0.278909C29.7582 0.526036 29.5433 0.931745 29.5433 1.36521V9.29439C29.5433 9.72785 29.7582 10.1336 30.1172 10.3807C30.344 10.5353 30.6096 10.6159 30.8778 10.6159C31.0353 10.6159 31.1941 10.5882 31.3462 10.5327L42.0223 6.56807C42.5427 6.37381 42.8884 5.88088 42.8884 5.3298C42.8884 4.77872 42.5427 4.28579 42.0223 4.09152ZM61.1804 28.183C60.9309 27.9346 60.5906 27.7958 60.2369 27.7958H54.8989C54.1623 27.7958 53.5644 28.3879 53.5644 29.1173V33.0819H50.8954V29.1173C50.8954 28.3879 50.2975 27.7958 49.5609 27.7958H48.2264V62.1556C48.2264 62.6208 48.1303 63.0622 47.9808 63.4771H60.2356C60.9722 63.4771 61.5701 62.8851 61.5701 62.1556L61.5714 29.1173C61.5714 28.7671 61.4313 28.4301 61.1804 28.183ZM13.5293 62.1556V27.7958H12.1947C11.4581 27.7958 10.8602 28.3879 10.8602 29.1173V33.0819H8.19123V29.1173C8.19123 28.3879 7.59338 27.7958 6.85673 27.7958H1.51871C0.782062 27.7958 0.184204 28.3879 0.184204 29.1173V62.1556C0.184204 62.8851 0.782062 63.4771 1.51871 63.4771H13.7748C13.6253 63.0622 13.5293 62.6208 13.5293 62.1556ZM44.2229 13.259H38.8849C38.1482 13.259 37.5503 13.851 37.5503 14.5805V18.5451H34.8813V14.5805C34.8813 13.851 34.2835 13.259 33.5468 13.259H28.2088C27.4722 13.259 26.8743 13.851 26.8743 14.5805V18.5451H24.2053V14.5805C24.2053 13.851 23.6074 13.259 22.8708 13.259H17.5328C16.7961 13.259 16.1983 13.851 16.1983 14.5805V25.1527V29.1173V39.6896V51.5833V62.1556C16.1983 62.8851 16.7961 63.4771 17.5328 63.4771H25.5398V62.1556V58.191V51.5833C25.5398 50.8539 26.1377 50.2618 26.8743 50.2618H34.8813C35.618 50.2618 36.2158 50.8539 36.2158 51.5833V58.191V62.1556V63.4771H44.2229C44.9595 63.4771 45.5574 62.8851 45.5574 62.1556V51.5833V39.6896V29.1173V25.1527V14.5805C45.5574 13.851 44.9595 13.259 44.2229 13.259ZM36.2158 33.0819C36.2158 33.8114 35.618 34.4035 34.8813 34.4035H26.8743C26.1377 34.4035 25.5398 33.8114 25.5398 33.0819V25.1527C25.5398 24.4233 26.1377 23.8312 26.8743 23.8312H34.8813C35.618 23.8312 36.2158 24.4233 36.2158 25.1527V33.0819Z"
        fill="black" />
</svg>
    