<svg width="162" height="162" viewBox="0 0 162 162" fill="none" xmlns="http://www.w3.org/2000/svg">
    <circle cx="81.0247" cy="81.0945" r="79.572" stroke="black" stroke-width="2.53812" />
    <path
        d="M114.274 67.2351C115.951 66.5403 117.748 66.2107 119.553 66.2667C127.733 66.7077 131.069 75.8456 131.205 76.2513C134.195 85.059 129.039 94.2768 123.058 96.6967H34.7869C34.5643 96.6975 34.3437 96.6524 34.1379 96.564C33.932 96.4757 33.745 96.3458 33.5876 96.1818C33.4302 96.0178 33.3055 95.823 33.2206 95.6087C33.1358 95.3943 33.0925 95.1645 33.0933 94.9326V89.1994C33.0935 88.9273 33.1542 88.659 33.2706 88.4154C33.3871 88.1719 33.5561 87.9598 33.7645 87.7957C33.9729 87.6316 34.2149 87.5201 34.4717 87.4698C34.7284 87.4195 34.9928 87.4319 35.2442 87.5059C37.5362 88.2419 39.9482 88.4838 42.333 88.2169C44.7177 87.95 47.0253 87.1799 49.1149 85.9536C51.5367 84.3484 55.5336 80.6967 55.1102 77.0628C54.9957 75.6887 53.771 72.0484 50.5376 73.2347C50.1771 73.3482 49.7905 73.3337 49.4388 73.1935C49.087 73.0534 48.7899 72.7955 48.5941 72.4603C48.3983 72.1252 48.315 71.7318 48.3571 71.342C48.3993 70.9521 48.5646 70.5879 48.827 70.3066C59.9659 58.8693 77.1096 73.7198 68.3882 88.0881C72.2502 88.7849 76.2243 88.0283 79.6001 85.9536C82.0219 84.3484 86.0188 80.6967 85.5954 77.0628C85.4882 75.6903 84.2386 72.042 81.0227 73.2347C80.6622 73.3481 80.2758 73.3335 79.924 73.1933C79.5723 73.0531 79.2753 72.7952 79.0795 72.4602C78.8838 72.1251 78.8004 71.7318 78.8425 71.342C78.8846 70.9522 79.0498 70.588 79.3122 70.3066C90.2622 58.9435 107.689 73.6062 98.8735 88.0881C102.736 88.7849 106.71 88.0283 110.085 85.9536C112.507 84.3485 116.504 80.6967 116.081 77.0629C115.976 75.6848 114.713 72.0412 111.508 73.2349C111.147 73.3625 110.754 73.3567 110.396 73.2186C110.039 73.0804 109.737 72.8183 109.543 72.4762C109.344 72.1377 109.261 71.7391 109.307 71.3452C109.354 70.9513 109.526 70.5852 109.797 70.3064C111.072 68.9751 112.596 67.9298 114.274 67.2351Z"
        fill="black" />
</svg>
    