<svg width="65" height="64" viewBox="0 0 65 64" fill="none" xmlns="http://www.w3.org/2000/svg">
    <g clip-path="url(#clip0_112_865)">
        <path
            d="M32.9872 14.9994C33.4726 15.2019 33.9999 15.342 34.4349 15.6194C35.2165 16.1183 35.6562 16.8648 35.7838 17.7739C35.8025 17.9059 35.8286 18.0378 35.8584 18.2077H38.0383C38.0457 18.3659 38.056 18.4861 38.056 18.6063C38.0569 19.914 38.0532 21.2217 38.0578 22.5295C38.0662 24.7672 39.5232 26.4734 41.787 26.8774C42.1354 26.9398 42.4996 26.9208 42.9077 26.9425V23.0762H45.0019V49.6139H31.1744V40.2303H24.3356V49.613H20V23.0726H22.0802V26.9C22.6858 26.966 23.2438 26.9118 23.7897 26.7545C25.5951 26.2357 26.8909 24.6262 26.931 22.7988C26.9617 21.4242 26.9403 20.0487 26.9422 18.6732C26.9422 18.5385 26.9422 18.4048 26.9422 18.2186H29.1398C29.1836 17.9484 29.1994 17.7224 29.2581 17.5073C29.613 16.205 30.4636 15.3862 31.8172 15.0654C31.8833 15.05 31.9466 15.0211 32.0109 14.9985C32.336 14.9985 32.6621 14.9985 32.9872 14.9985V14.9994ZM24.3449 37.6953H31.1473V30.0062H24.3449V37.6953ZM33.8555 30.0035V37.698H40.6476V30.0035H33.8555ZM40.6467 46.3134V40.0387H33.8517V46.3134H40.6467ZM33.5201 23.5155V21.5426H31.4762V23.5155H33.5201Z"
            fill="black" />
        <path d="M26.4308 42.2263H29.0495V49.6154H26.4308V42.2263Z" fill="black" />
        <path d="M29.0625 32.0112V35.6759H26.428V32.0112H29.0625Z" fill="black" />
        <path d="M38.5702 35.6759H35.9395V32.0103H38.5702V35.6759Z" fill="black" />
        <path d="M35.9292 44.2914V42.0393H38.5619V44.2914H35.9292Z" fill="black" />
    </g>
    <circle cx="32.6311" cy="31.9887" r="31.3508" stroke="black" />
    <defs>
        <clipPath id="clip0_112_865">
            <rect width="25" height="34.6154" fill="white" transform="translate(20 15)" />
        </clipPath>
    </defs>
</svg>
    