<svg width="52" height="72" viewBox="0 0 52 72" fill="none" xmlns="http://www.w3.org/2000/svg">
    <g clip-path="url(#clip0_112_1135)">
        <path
            d="M26.8335 0.654193C27.8267 1.06843 28.9056 1.35507 29.7958 1.9228C31.3952 2.94361 32.2949 4.47112 32.5561 6.33151C32.5942 6.6015 32.6476 6.8715 32.7086 7.21916H37.1692C37.1844 7.54279 37.2054 7.78875 37.2054 8.0347C37.2073 10.7106 37.1997 13.3865 37.2092 16.0625C37.2264 20.6413 40.2078 24.1327 44.8399 24.9594C45.5529 25.087 46.2982 25.0481 47.1331 25.0925V17.1813H51.4184V71.4838H23.124V52.2826H9.13022V71.4819H0.258545V17.1739H4.51519V25.0056C5.75425 25.1406 6.8961 25.0297 8.01316 24.7079C11.7075 23.6464 14.3591 20.3528 14.441 16.6135C14.5039 13.8008 14.4601 10.9862 14.4639 8.17155C14.4639 7.896 14.4639 7.62231 14.4639 7.24136H18.9607C19.0503 6.68842 19.0827 6.2261 19.2028 5.78597C19.9291 3.12114 21.6695 1.44569 24.4393 0.789191C24.5746 0.757753 24.7042 0.698576 24.8358 0.652344C25.5011 0.652344 26.1682 0.652344 26.8335 0.652344V0.654193ZM9.14928 47.0954H23.0687V31.3616H9.14928V47.0954ZM28.6101 31.3561V47.1009H42.5086V31.3561H28.6101ZM42.5067 64.7302V51.8906H28.6025V64.7302H42.5067ZM27.9239 18.08V14.043H23.7416V18.08H27.9239Z"
            fill="black" />
        <path d="M13.4175 56.3672H18.7759V71.487H13.4175V56.3672Z" fill="black" />
        <path d="M18.8025 35.4639V42.9627H13.4116V35.4639H18.8025Z" fill="black" />
        <path d="M38.2578 42.9626H32.8745V35.4619H38.2578V42.9626Z" fill="black" />
        <path d="M32.8535 60.5928V55.9844H38.2406V60.5928H32.8535Z" fill="black" />
    </g>
    <defs>
        <clipPath id="clip0_112_1135">
            <rect width="51.156" height="70.8314" fill="white"
                transform="translate(0.258301 0.654297)" />
        </clipPath>
    </defs>
</svg>
    