<svg width="65" height="64" viewBox="0 0 65 64" fill="none" xmlns="http://www.w3.org/2000/svg">
    <path
        d="M46.9225 19.0144C46.4502 23.6942 44.5811 33.5007 37.1894 37.8684C35.8115 38.7749 34.2547 39.3839 32.6213 39.6556C30.9879 39.9274 29.3147 39.8556 27.7114 39.445C26.9579 39.1977 26.1393 39.2252 25.4047 39.5226C24.67 39.82 24.068 40.3675 23.7082 41.0655C22.9842 42.5139 22.4535 44.0487 22.1293 45.6315C22.0801 45.9465 21.9068 46.2296 21.647 46.4193C21.3873 46.609 21.062 46.6899 20.7421 46.6444C20.4221 46.599 20.1333 46.4308 19.9384 46.1766C19.7435 45.9223 19.6583 45.6025 19.7013 45.2866C19.7682 44.8242 21.4295 34.4275 33.1865 27.6888C28.6701 28.208 24.4865 30.2885 21.3786 33.5609C20.7688 31.8 20.7623 29.8904 21.3602 28.1256C23.339 22.2798 29.2747 22.2864 37.1894 22.2864C38.7726 22.2275 40.327 21.851 41.7576 21.1798C43.1882 20.5085 44.4649 19.5568 45.5098 18.3826C45.6263 18.258 45.7796 18.1728 45.948 18.1391C46.1164 18.1054 46.2913 18.125 46.4478 18.195C46.6043 18.2649 46.7344 18.3818 46.8197 18.5289C46.9049 18.676 46.9409 18.8459 46.9225 19.0144Z"
        fill="black" />
    <circle cx="32.6311" cy="31.9885" r="31.3508" stroke="black" />
</svg>
    