<svg width="19" height="20" viewBox="0 0 19 20" fill="none" xmlns="http://www.w3.org/2000/svg">
    <path
        d="M13.7216 4V10C13.7216 11.1 14.6716 12 15.8327 12H16.8883V19C16.8883 19.55 17.3633 20 17.9438 20C18.5244 20 18.9994 19.55 18.9994 19V1.13C18.9994 0.48 18.3555 9.53674e-08 17.6905 0.15C15.4105 0.68 13.7216 2.51 13.7216 4ZM8.44383 7H6.33272V1C6.33272 0.45 5.85772 0 5.27717 0C4.69661 0 4.22161 0.45 4.22161 1V7H2.1105V1C2.1105 0.45 1.6355 0 1.05495 0C0.47439 0 -0.000610352 0.45 -0.000610352 1V7C-0.000610352 9.21 1.88883 11 4.22161 11V19C4.22161 19.55 4.69661 20 5.27717 20C5.85772 20 6.33272 19.55 6.33272 19V11C8.6655 11 10.5549 9.21 10.5549 7V1C10.5549 0.45 10.0799 0 9.49939 0C8.91883 0 8.44383 0.45 8.44383 1V7Z"
        fill="black" />
</svg>
    