<svg width="64" height="64" viewBox="0 0 64 64" fill="none" xmlns="http://www.w3.org/2000/svg">
    <circle cx="31.8846" cy="31.8527" r="31.3508" stroke="black" />
    <path
        d="M38.8887 20.5684H25.9714V26.4481H38.8887V20.5684ZM38.8887 35.403H25.9714V29.5232H38.8887V35.403ZM38.8887 44.3578H25.9714V38.478H38.8887V44.3578ZM40.8023 18.0002C40.8867 17.9982 40.9707 18.0128 41.0492 18.0433C41.1278 18.0738 41.1994 18.1195 41.2599 18.1777C41.3204 18.236 41.3685 18.3055 41.4014 18.3824C41.4343 18.4593 41.4514 18.5419 41.4516 18.6253V20.5684H45.2277C45.3121 20.5686 45.3956 20.5854 45.4733 20.618C45.5511 20.6505 45.6214 20.6981 45.6803 20.7579C45.7392 20.8177 45.7854 20.8885 45.8162 20.9662C45.8471 21.0439 45.8619 21.127 45.8599 21.2104V25.823C45.8601 25.9051 45.8439 25.9865 45.8122 26.0625C45.7805 26.1384 45.7339 26.2074 45.6752 26.2655C45.6164 26.3236 45.5467 26.3697 45.4699 26.401C45.3931 26.4323 45.3108 26.4484 45.2277 26.4481H41.4516V29.5232H45.2277C45.3108 29.523 45.3931 29.539 45.4699 29.5703C45.5467 29.6017 45.6164 29.6477 45.6752 29.7058C45.7339 29.7639 45.7805 29.8329 45.8122 29.9088C45.8439 29.9848 45.8601 30.0662 45.8599 30.1483V34.7778C45.8601 34.86 45.8439 34.9414 45.8122 35.0173C45.7805 35.0933 45.7339 35.1623 45.6752 35.2204C45.6164 35.2785 45.5467 35.3245 45.4699 35.3558C45.3931 35.3872 45.3108 35.4032 45.2277 35.403H41.4516V38.478H45.2277C45.3108 38.4778 45.3931 38.4938 45.4699 38.5252C45.5467 38.5565 45.6164 38.6025 45.6752 38.6606C45.7339 38.7187 45.7805 38.7877 45.8122 38.8637C45.8439 38.9396 45.8601 39.021 45.8599 39.1032V43.7157C45.8619 43.7992 45.8471 43.8822 45.8162 43.9599C45.7854 44.0376 45.7392 44.1084 45.6803 44.1682C45.6214 44.2281 45.5511 44.2756 45.4733 44.3082C45.3956 44.3407 45.3121 44.3576 45.2277 44.3578H41.4516V46.3008C41.4514 46.3843 41.4343 46.4669 41.4014 46.5437C41.3685 46.6206 41.3204 46.6902 41.2599 46.7484C41.1994 46.8067 41.1278 46.8524 41.0492 46.8828C40.9707 46.9133 40.8867 46.928 40.8023 46.926C40.7189 46.9276 40.6359 46.9125 40.5585 46.8817C40.481 46.8508 40.4107 46.8048 40.3517 46.7464C40.2926 46.6881 40.2461 46.6185 40.2149 46.5419C40.1837 46.4654 40.1685 46.3834 40.1701 46.3008V18.6253C40.1685 18.5428 40.1837 18.4608 40.2149 18.3842C40.2461 18.3076 40.2926 18.2381 40.3517 18.1797C40.4107 18.1213 40.481 18.0753 40.5585 18.0445C40.6359 18.0136 40.7189 17.9986 40.8023 18.0002ZM22.127 26.4481H19.6324C19.5493 26.4484 19.467 26.4323 19.3902 26.401C19.3134 26.3697 19.2436 26.3236 19.1849 26.2655C19.1261 26.2074 19.0796 26.1384 19.0479 26.0625C19.0162 25.9865 19 25.9051 19.0002 25.823V21.2104C18.9982 21.127 19.013 21.0439 19.0438 20.9662C19.0747 20.8885 19.1209 20.8177 19.1798 20.7579C19.2387 20.6981 19.309 20.6505 19.3868 20.618C19.4645 20.5854 19.548 20.5686 19.6324 20.5684H23.4085V18.6253C23.4087 18.5419 23.4258 18.4593 23.4587 18.3824C23.4916 18.3055 23.5397 18.236 23.6002 18.1777C23.6607 18.1195 23.7323 18.0738 23.8109 18.0433C23.8894 18.0128 23.9734 17.9982 24.0578 18.0002C24.1412 17.9986 24.2242 18.0136 24.3016 18.0445C24.379 18.0753 24.4494 18.1213 24.5084 18.1797C24.5675 18.2381 24.614 18.3076 24.6452 18.3842C24.6763 18.4608 24.6916 18.5428 24.69 18.6253V46.3008C24.6916 46.3834 24.6763 46.4654 24.6452 46.5419C24.614 46.6185 24.5675 46.6881 24.5084 46.7464C24.4494 46.8048 24.379 46.8508 24.3016 46.8817C24.2242 46.9125 24.1412 46.9276 24.0578 46.926C23.9734 46.928 23.8894 46.9133 23.8109 46.8828C23.7323 46.8524 23.6607 46.8067 23.6002 46.7484C23.5397 46.6902 23.4916 46.6206 23.4587 46.5437C23.4258 46.4669 23.4087 46.3843 23.4085 46.3008V44.3578H19.6324C19.548 44.3576 19.4645 44.3407 19.3868 44.3082C19.309 44.2756 19.2387 44.2281 19.1798 44.1682C19.1209 44.1084 19.0747 44.0376 19.0438 43.9599C19.013 43.8822 18.9982 43.7992 19.0002 43.7157V39.1032C19 39.021 19.0162 38.9396 19.0479 38.8637C19.0796 38.7877 19.1261 38.7187 19.1849 38.6606C19.2436 38.6025 19.3134 38.5565 19.3902 38.5252C19.467 38.4938 19.5493 38.4778 19.6324 38.478H23.4085V35.403H19.6324C19.5493 35.4032 19.467 35.3872 19.3902 35.3558C19.3134 35.3245 19.2436 35.2785 19.1849 35.2204C19.1261 35.1623 19.0796 35.0933 19.0479 35.0173C19.0162 34.9414 19 34.86 19.0002 34.7778V30.1483C19 30.0662 19.0162 29.9848 19.0479 29.9088C19.0796 29.8329 19.1261 29.7639 19.1849 29.7058C19.2436 29.6477 19.3134 29.6017 19.3902 29.5703C19.467 29.539 19.5493 29.523 19.6324 29.5232H23.4085V26.4481H22.127Z"
        fill="black" />
</svg>
    