<svg width="56" height="61" viewBox="0 0 56 61" fill="none" xmlns="http://www.w3.org/2000/svg">
    <path
        d="M40.9735 6.0758H14.5417V18.1072H40.9735V6.0758ZM40.9735 36.431H14.5417V24.3995H40.9735V36.431ZM40.9735 54.7547H14.5417V42.7233H40.9735V54.7547ZM44.8893 0.82069C45.062 0.816546 45.2338 0.846546 45.3946 0.908932C45.5554 0.971317 45.7019 1.06483 45.8257 1.18398C45.9494 1.30314 46.0479 1.44553 46.1152 1.60281C46.1826 1.76009 46.2175 1.92909 46.2179 2.09989V6.0758H53.9446C54.1174 6.07621 54.2883 6.11073 54.4473 6.17733C54.6064 6.24393 54.7504 6.34128 54.8709 6.46365C54.9914 6.58603 55.0859 6.73096 55.149 6.88996C55.2121 7.04897 55.2425 7.21883 55.2383 7.38958V16.828C55.2387 16.9961 55.2056 17.1627 55.1407 17.3181C55.0759 17.4735 54.9806 17.6147 54.8604 17.7336C54.7402 17.8525 54.5974 17.9467 54.4402 18.0108C54.2831 18.0749 54.1147 18.1077 53.9446 18.1072H46.2179V24.3995H53.9446C54.1147 24.3991 54.2831 24.4319 54.4402 24.496C54.5974 24.5601 54.7402 24.6543 54.8604 24.7732C54.9806 24.8921 55.0759 25.0333 55.1407 25.1887C55.2056 25.3441 55.2387 25.5106 55.2383 25.6787V35.1518C55.2387 35.3199 55.2056 35.4864 55.1407 35.6418C55.0759 35.7972 54.9806 35.9384 54.8604 36.0573C54.7402 36.1762 54.5974 36.2704 54.4402 36.3345C54.2831 36.3986 54.1147 36.4314 53.9446 36.431H46.2179V42.7233H53.9446C54.1147 42.7228 54.2831 42.7556 54.4402 42.8197C54.5974 42.8838 54.7402 42.978 54.8604 43.0969C54.9806 43.2158 55.0759 43.357 55.1407 43.5124C55.2056 43.6678 55.2387 43.8344 55.2383 44.0025V53.4409C55.2425 53.6117 55.2121 53.7815 55.149 53.9405C55.0859 54.0995 54.9914 54.2445 54.8709 54.3669C54.7504 54.4892 54.6064 54.5866 54.4473 54.6532C54.2883 54.7198 54.1174 54.7543 53.9446 54.7547H46.2179V58.7306C46.2175 58.9014 46.1826 59.0704 46.1152 59.2277C46.0479 59.385 45.9494 59.5274 45.8257 59.6465C45.7019 59.7657 45.5554 59.8592 45.3946 59.9216C45.2338 59.984 45.062 60.014 44.8893 60.0098C44.7185 60.0131 44.5488 59.9823 44.3904 59.9191C44.2319 59.856 44.088 59.7619 43.9672 59.6425C43.8464 59.523 43.7512 59.3807 43.6874 59.224C43.6236 59.0673 43.5924 58.8995 43.5957 58.7306V2.09989C43.5924 1.931 43.6236 1.76319 43.6874 1.6065C43.7512 1.44981 43.8464 1.30748 43.9672 1.18803C44.088 1.06859 44.2319 0.974483 44.3904 0.911362C44.5488 0.84824 44.7185 0.817401 44.8893 0.82069ZM6.67515 18.1072H1.57061C1.4006 18.1077 1.23218 18.0749 1.07502 18.0108C0.917865 17.9467 0.775071 17.8525 0.654856 17.7336C0.53464 17.6147 0.439374 17.4735 0.374527 17.3181C0.30968 17.1627 0.27653 16.9961 0.276991 16.828V7.38958C0.2728 7.21883 0.303145 7.04897 0.366233 6.88996C0.429321 6.73096 0.523884 6.58603 0.64438 6.46365C0.764877 6.34128 0.908872 6.24393 1.06793 6.17733C1.22698 6.11073 1.39788 6.07621 1.57061 6.0758H9.29735V2.09989C9.29777 1.92909 9.33267 1.76009 9.40003 1.60281C9.46738 1.44553 9.56583 1.30314 9.68958 1.18398C9.81333 1.06483 9.9599 0.971317 10.1207 0.908932C10.2815 0.846546 10.4533 0.816546 10.6259 0.82069C10.7967 0.817401 10.9664 0.84824 11.1249 0.911362C11.2833 0.974483 11.4273 1.06859 11.5481 1.18803C11.6689 1.30748 11.764 1.44981 11.8279 1.6065C11.8917 1.76319 11.9229 1.931 11.9195 2.09989V58.7306C11.9229 58.8995 11.8917 59.0673 11.8279 59.224C11.764 59.3807 11.6689 59.523 11.5481 59.6425C11.4273 59.7619 11.2833 59.856 11.1249 59.9191C10.9664 59.9823 10.7967 60.0131 10.6259 60.0098C10.4533 60.014 10.2815 59.984 10.1207 59.9216C9.9599 59.8592 9.81333 59.7657 9.68958 59.6465C9.56583 59.5274 9.46738 59.385 9.40003 59.2277C9.33267 59.0704 9.29777 58.9014 9.29735 58.7306V54.7547H1.57061C1.39788 54.7543 1.22698 54.7198 1.06793 54.6532C0.908872 54.5866 0.764877 54.4892 0.64438 54.3669C0.523884 54.2445 0.429321 54.0995 0.366233 53.9405C0.303145 53.7815 0.2728 53.6117 0.276991 53.4409V44.0025C0.27653 43.8344 0.30968 43.6678 0.374527 43.5124C0.439374 43.357 0.53464 43.2158 0.654856 43.0969C0.775071 42.978 0.917865 42.8838 1.07502 42.8197C1.23218 42.7556 1.4006 42.7228 1.57061 42.7233H9.29735V36.431H1.57061C1.4006 36.4314 1.23218 36.3986 1.07502 36.3345C0.917865 36.2704 0.775071 36.1762 0.654856 36.0573C0.53464 35.9384 0.439374 35.7972 0.374527 35.6418C0.30968 35.4864 0.27653 35.3199 0.276991 35.1518V25.6787C0.27653 25.5106 0.30968 25.3441 0.374527 25.1887C0.439374 25.0333 0.53464 24.8921 0.654856 24.7732C0.775071 24.6543 0.917865 24.5601 1.07502 24.496C1.23218 24.4319 1.4006 24.3991 1.57061 24.3995H9.29735V18.1072H6.67515Z"
        fill="black" />
</svg>
    